%TF.GenerationSoftware,KiCad,Pcbnew,(6.0.10)*%
%TF.CreationDate,2023-05-17T01:35:15+02:00*%
%TF.ProjectId,spotter,73706f74-7465-4722-9e6b-696361645f70,1.0*%
%TF.SameCoordinates,Original*%
%TF.FileFunction,Soldermask,Bot*%
%TF.FilePolarity,Negative*%
%FSLAX46Y46*%
G04 Gerber Fmt 4.6, Leading zero omitted, Abs format (unit mm)*
G04 Created by KiCad (PCBNEW (6.0.10)) date 2023-05-17 01:35:15*
%MOMM*%
%LPD*%
G01*
G04 APERTURE LIST*
G04 Aperture macros list*
%AMRoundRect*
0 Rectangle with rounded corners*
0 $1 Rounding radius*
0 $2 $3 $4 $5 $6 $7 $8 $9 X,Y pos of 4 corners*
0 Add a 4 corners polygon primitive as box body*
4,1,4,$2,$3,$4,$5,$6,$7,$8,$9,$2,$3,0*
0 Add four circle primitives for the rounded corners*
1,1,$1+$1,$2,$3*
1,1,$1+$1,$4,$5*
1,1,$1+$1,$6,$7*
1,1,$1+$1,$8,$9*
0 Add four rect primitives between the rounded corners*
20,1,$1+$1,$2,$3,$4,$5,0*
20,1,$1+$1,$4,$5,$6,$7,0*
20,1,$1+$1,$6,$7,$8,$9,0*
20,1,$1+$1,$8,$9,$2,$3,0*%
G04 Aperture macros list end*
%ADD10C,2.000000*%
%ADD11C,1.000000*%
%ADD12RoundRect,0.250000X0.600000X-0.600000X0.600000X0.600000X-0.600000X0.600000X-0.600000X-0.600000X0*%
%ADD13C,1.700000*%
%ADD14O,1.700000X1.950000*%
%ADD15RoundRect,0.250000X-0.600000X-0.725000X0.600000X-0.725000X0.600000X0.725000X-0.600000X0.725000X0*%
%ADD16R,1.600000X1.600000*%
%ADD17C,1.600000*%
%ADD18O,1.950000X1.700000*%
%ADD19RoundRect,0.250000X0.725000X-0.600000X0.725000X0.600000X-0.725000X0.600000X-0.725000X-0.600000X0*%
%ADD20C,5.600000*%
%ADD21RoundRect,0.250001X-1.549999X0.799999X-1.549999X-0.799999X1.549999X-0.799999X1.549999X0.799999X0*%
%ADD22O,3.600000X2.100000*%
%ADD23RoundRect,0.250000X0.750000X-0.600000X0.750000X0.600000X-0.750000X0.600000X-0.750000X-0.600000X0*%
%ADD24O,2.000000X1.700000*%
%ADD25R,1.700000X1.700000*%
%ADD26O,1.700000X1.700000*%
%ADD27R,2.300000X2.000000*%
%ADD28C,2.300000*%
%ADD29R,2.000000X2.000000*%
%ADD30C,2.000000*%
%ADD31RoundRect,0.250000X-0.600000X-0.750000X0.600000X-0.750000X0.600000X0.750000X-0.600000X0.750000X0*%
%ADD32O,1.700000X2.000000*%
G04 APERTURE END LIST*
D10*
X108458000Y-93726000D02*
X108458000Y-109220000D01*
X121920000Y-85344000D02*
X116078000Y-91186000D01*
X108458000Y-109220000D02*
X111252000Y-112014000D01*
X121920000Y-85344000D02*
X122682000Y-84582000D01*
X111252000Y-112014000D02*
X114808000Y-112014000D01*
X116078000Y-91186000D02*
X110998000Y-91186000D01*
X128686000Y-84582000D02*
X122682000Y-84582000D01*
X110998000Y-91186000D02*
X108458000Y-93726000D01*
D11*
%TO.C,TP15*%
X153924000Y-119735600D03*
%TD*%
%TO.C,TP14*%
X166979600Y-121056400D03*
%TD*%
%TO.C,TP13*%
X174599600Y-117602000D03*
%TD*%
%TO.C,TP12*%
X174650400Y-113792000D03*
%TD*%
%TO.C,TP11*%
X154787600Y-124307600D03*
%TD*%
%TO.C,TP10*%
X152146000Y-125628400D03*
%TD*%
%TO.C,TP9*%
X169519600Y-109016800D03*
%TD*%
%TO.C,TP8*%
X166928800Y-117703600D03*
%TD*%
%TO.C,TP7*%
X170789600Y-126136400D03*
%TD*%
%TO.C,TP6*%
X169570400Y-114706400D03*
%TD*%
%TO.C,TP5*%
X142494000Y-131318000D03*
%TD*%
%TO.C,TP4*%
X172059600Y-106426000D03*
%TD*%
%TO.C,TP3*%
X151739600Y-134366000D03*
%TD*%
%TO.C,TP2*%
X173228000Y-140614400D03*
%TD*%
%TO.C,TP1*%
X164896800Y-109270800D03*
%TD*%
D12*
%TO.C,EXP1*%
X146050000Y-131308500D03*
D13*
X146050000Y-128768500D03*
X148590000Y-131308500D03*
X148590000Y-128768500D03*
X151130000Y-131308500D03*
X151130000Y-128768500D03*
X153670000Y-131308500D03*
X153670000Y-128768500D03*
X156210000Y-131308500D03*
X156210000Y-128768500D03*
%TD*%
D14*
%TO.C,EXT-ENCODER1*%
X155622000Y-140699000D03*
X153122000Y-140699000D03*
X150622000Y-140699000D03*
X148122000Y-140699000D03*
D15*
X145622000Y-140699000D03*
%TD*%
D16*
%TO.C,C2*%
X144557140Y-121107200D03*
D17*
X142057140Y-121107200D03*
%TD*%
D18*
%TO.C,SMALL-LCD1*%
X180025000Y-114200000D03*
X180025000Y-116700000D03*
X180025000Y-119200000D03*
D19*
X180025000Y-121700000D03*
%TD*%
D20*
%TO.C,REF\u002A\u002A*%
X106934000Y-141986000D03*
%TD*%
D21*
%TO.C,J3*%
X114775500Y-96774000D03*
D22*
X114775500Y-104394000D03*
X114775500Y-112014000D03*
%TD*%
D23*
%TO.C,J2*%
X180000000Y-107950000D03*
D24*
X180000000Y-105450000D03*
%TD*%
D12*
%TO.C,EXP2*%
X167894000Y-131318000D03*
D13*
X167894000Y-128778000D03*
X170434000Y-131318000D03*
X170434000Y-128778000D03*
X172974000Y-131318000D03*
X172974000Y-128778000D03*
X175514000Y-131318000D03*
X175514000Y-128778000D03*
X178054000Y-131318000D03*
X178054000Y-128778000D03*
%TD*%
D25*
%TO.C,UART1*%
X134239000Y-109489000D03*
D26*
X134239000Y-112029000D03*
X134239000Y-114569000D03*
%TD*%
D20*
%TO.C,REF\u002A\u002A*%
X107025000Y-84700000D03*
%TD*%
D27*
%TO.C,PS1*%
X107357500Y-124500000D03*
D28*
X107357500Y-129500000D03*
X136757500Y-119300000D03*
X136757500Y-134700000D03*
%TD*%
D25*
%TO.C,ISP1*%
X146812000Y-116078000D03*
D26*
X146812000Y-113538000D03*
X149352000Y-116078000D03*
X149352000Y-113538000D03*
X151892000Y-116078000D03*
X151892000Y-113538000D03*
%TD*%
D20*
%TO.C,REF\u002A\u002A*%
X181102000Y-141986000D03*
%TD*%
D29*
%TO.C,Q1*%
X154286000Y-84582000D03*
D30*
X156826000Y-84582000D03*
X159366000Y-84582000D03*
%TD*%
D29*
%TO.C,Q2*%
X128686000Y-84582000D03*
D30*
X131226000Y-84582000D03*
X133766000Y-84582000D03*
%TD*%
D31*
%TO.C,J1*%
X133878000Y-140699000D03*
D32*
X136378000Y-140699000D03*
%TD*%
D20*
%TO.C,REF\u002A\u002A*%
X181025000Y-84700000D03*
%TD*%
M02*
