%TF.GenerationSoftware,KiCad,Pcbnew,(6.0.10)*%
%TF.CreationDate,2023-05-17T01:35:15+02:00*%
%TF.ProjectId,spotter,73706f74-7465-4722-9e6b-696361645f70,1.0*%
%TF.SameCoordinates,Original*%
%TF.FileFunction,Legend,Top*%
%TF.FilePolarity,Positive*%
%FSLAX46Y46*%
G04 Gerber Fmt 4.6, Leading zero omitted, Abs format (unit mm)*
G04 Created by KiCad (PCBNEW (6.0.10)) date 2023-05-17 01:35:15*
%MOMM*%
%LPD*%
G01*
G04 APERTURE LIST*
%ADD10C,0.150000*%
%ADD11C,0.120000*%
%ADD12C,0.000000*%
%ADD13C,0.010000*%
%ADD14C,0.100000*%
G04 APERTURE END LIST*
D10*
X182626000Y-102108000D02*
X181610000Y-102108000D01*
X183896000Y-102108000D02*
X183642000Y-102108000D01*
X180594000Y-102108000D02*
X179578000Y-102108000D01*
X178562000Y-102108000D02*
X177546000Y-102108000D01*
X176530000Y-102108000D02*
X175514000Y-102108000D01*
X174498000Y-102108000D02*
X173482000Y-102108000D01*
X170434000Y-102108000D02*
X169418000Y-102108000D01*
X168402000Y-102108000D02*
X167386000Y-102108000D01*
X172466000Y-102108000D02*
X171450000Y-102108000D01*
X166370000Y-102108000D02*
X165354000Y-102108000D01*
X162306000Y-102108000D02*
X161290000Y-102108000D01*
X160274000Y-102108000D02*
X159258000Y-102108000D01*
X164338000Y-102108000D02*
X163322000Y-102108000D01*
X158242000Y-102108000D02*
X157226000Y-102108000D01*
X154178000Y-102108000D02*
X153670000Y-102108000D01*
X152654000Y-102108000D02*
X151638000Y-102108000D01*
X156210000Y-102108000D02*
X155194000Y-102108000D01*
X150622000Y-102108000D02*
X149606000Y-102108000D01*
X147828000Y-102108000D02*
X148590000Y-102108000D01*
X147320000Y-102616000D02*
X147828000Y-102108000D01*
X146050000Y-103886000D02*
X146558000Y-103378000D01*
X144780000Y-105156000D02*
X145542000Y-104394000D01*
X143764000Y-106172000D02*
X144018000Y-105918000D01*
X143002000Y-106426000D02*
X141986000Y-106426000D01*
X138938000Y-106426000D02*
X137922000Y-106426000D01*
X136906000Y-106426000D02*
X135890000Y-106426000D01*
X140970000Y-106426000D02*
X139954000Y-106426000D01*
X134874000Y-106426000D02*
X133858000Y-106426000D01*
X132842000Y-106426000D02*
X131826000Y-106426000D01*
X131064000Y-106680000D02*
X130556000Y-107188000D01*
X130048000Y-110236000D02*
X130048000Y-109220000D01*
X130048000Y-108204000D02*
X130048000Y-107696000D01*
X130048000Y-118364000D02*
X130048000Y-117348000D01*
X130048000Y-116332000D02*
X130048000Y-115316000D01*
X130048000Y-114300000D02*
X130048000Y-113284000D01*
X130048000Y-112268000D02*
X130048000Y-111252000D01*
X130048000Y-126492000D02*
X130048000Y-125476000D01*
X130048000Y-124460000D02*
X130048000Y-123444000D01*
X130048000Y-122428000D02*
X130048000Y-121412000D01*
X130048000Y-120396000D02*
X130048000Y-119380000D01*
X130048000Y-134620000D02*
X130048000Y-133604000D01*
X130048000Y-132588000D02*
X130048000Y-131572000D01*
X130048000Y-130556000D02*
X130048000Y-129540000D01*
X130048000Y-128524000D02*
X130048000Y-127508000D01*
X130048000Y-138684000D02*
X130048000Y-137668000D01*
X130048000Y-136652000D02*
X130048000Y-135636000D01*
X130048000Y-142748000D02*
X130048000Y-141732000D01*
X130048000Y-140716000D02*
X130048000Y-139700000D01*
X152654000Y-119507000D02*
X152654000Y-122809000D01*
X165227000Y-124714000D02*
X162179000Y-124714000D01*
X176657000Y-144018000D02*
X173609000Y-144018000D01*
X151003000Y-122809000D02*
X151003000Y-119507000D01*
X130048000Y-144780000D02*
X130048000Y-143764000D01*
D11*
X174625000Y-122555000D02*
X174625000Y-119507000D01*
D10*
X165227000Y-119634000D02*
X165227000Y-124714000D01*
X165227000Y-123063000D02*
X162179000Y-123063000D01*
X162179000Y-121285000D02*
X165227000Y-121285000D01*
X156210000Y-122809000D02*
X159258000Y-122809000D01*
X162179000Y-119634000D02*
X165227000Y-119634000D01*
D11*
X174625000Y-119507000D02*
X173074000Y-119507000D01*
D12*
G36*
X171014070Y-84469987D02*
G01*
X171083772Y-85000902D01*
X171093378Y-84975394D01*
X171128069Y-85339703D01*
X171160591Y-85707677D01*
X171190783Y-86079391D01*
X171218483Y-86454919D01*
X171458089Y-85896960D01*
X171700555Y-85350771D01*
X171945491Y-84816763D01*
X172192510Y-84295348D01*
X172120816Y-84927301D01*
X172043921Y-85564201D01*
X172260513Y-85238885D01*
X172477364Y-84917322D01*
X172392147Y-85215759D01*
X172304285Y-85516337D01*
X172213661Y-85819067D01*
X172120158Y-86123957D01*
X172513659Y-85735346D01*
X172906736Y-85351864D01*
X172882263Y-85431892D01*
X173058933Y-85248441D01*
X173235360Y-85066878D01*
X173587552Y-84708493D01*
X173320480Y-85230100D01*
X173183928Y-85492386D01*
X173045149Y-85755717D01*
X173422335Y-85498939D01*
X173798687Y-85245195D01*
X174549269Y-84745152D01*
X174110119Y-85338639D01*
X173656742Y-85936558D01*
X173189145Y-86538317D01*
X172707333Y-87143324D01*
X173505216Y-86807556D01*
X174290027Y-86492901D01*
X175060119Y-86199577D01*
X175813846Y-85927807D01*
X175054411Y-86530089D01*
X174669984Y-86831102D01*
X174282268Y-87131964D01*
X173957000Y-87322107D01*
X173626898Y-87511791D01*
X173292091Y-87700921D01*
X172952709Y-87889403D01*
X172729062Y-87917968D01*
X172503286Y-87948592D01*
X172534767Y-87926733D01*
X172284700Y-87953318D01*
X172033028Y-87981626D01*
X172153051Y-87898435D01*
X172271429Y-87815206D01*
X172388205Y-87731967D01*
X172503423Y-87648749D01*
X172334290Y-87702988D01*
X172164199Y-87758653D01*
X172268725Y-87654945D01*
X172372321Y-87551315D01*
X172577167Y-87344281D01*
X172340567Y-87461871D01*
X172101148Y-87584581D01*
X171859166Y-87712374D01*
X171614878Y-87845213D01*
X171711312Y-87702268D01*
X171805768Y-87559989D01*
X171898326Y-87418395D01*
X171989067Y-87277505D01*
X171978383Y-87283957D01*
X172041511Y-87178404D01*
X172103744Y-87073211D01*
X172225955Y-86863772D01*
X172059149Y-87004153D01*
X171892048Y-87146123D01*
X171724646Y-87289904D01*
X171556935Y-87435721D01*
X171571628Y-87396695D01*
X171585944Y-87357913D01*
X171614523Y-87280377D01*
X171501782Y-87413244D01*
X171445371Y-87480430D01*
X171388932Y-87548247D01*
X171428108Y-87357917D01*
X171465777Y-87168788D01*
X171501950Y-86980914D01*
X171536637Y-86794349D01*
X171435528Y-86980725D01*
X171334854Y-87170585D01*
X171234716Y-87363906D01*
X171135213Y-87560669D01*
X171133169Y-87359401D01*
X171129510Y-87160292D01*
X171124254Y-86963452D01*
X171117417Y-86768989D01*
X171103692Y-86813895D01*
X171049971Y-86511069D01*
X170994886Y-86210581D01*
X170920334Y-86503987D01*
X170846964Y-86799775D01*
X170828982Y-86958488D01*
X170811891Y-87118793D01*
X170795761Y-87280731D01*
X170780662Y-87444345D01*
X170670153Y-87184366D01*
X170558498Y-86928367D01*
X170445811Y-86676453D01*
X170332207Y-86428731D01*
X170354070Y-86600483D01*
X170377095Y-86773451D01*
X170401334Y-86947642D01*
X170426836Y-87123062D01*
X170347397Y-87009850D01*
X170267892Y-86897353D01*
X170280475Y-87012873D01*
X170213074Y-86914453D01*
X170145629Y-86816948D01*
X170010657Y-86624221D01*
X170068969Y-86812225D01*
X170129085Y-87001529D01*
X169953471Y-86823581D01*
X169778029Y-86647740D01*
X169602749Y-86473700D01*
X169427618Y-86301156D01*
X169534626Y-86515376D01*
X169644808Y-86731339D01*
X169758220Y-86948973D01*
X169874916Y-87168204D01*
X169733932Y-87070043D01*
X169593159Y-86972702D01*
X169789920Y-87307907D01*
X169890227Y-87476189D01*
X169992129Y-87645008D01*
X169781133Y-87518421D01*
X169571807Y-87395902D01*
X169364341Y-87277502D01*
X169158920Y-87163269D01*
X169360179Y-87397673D01*
X169564148Y-87632486D01*
X169416660Y-87575849D01*
X169269913Y-87520398D01*
X169447859Y-87659616D01*
X169629691Y-87798953D01*
X169815397Y-87938281D01*
X170004970Y-88077475D01*
X169811173Y-88042719D01*
X169619016Y-88009901D01*
X169428485Y-87978909D01*
X169239566Y-87949626D01*
X169318330Y-87990516D01*
X168819364Y-87988089D01*
X168325943Y-87990299D01*
X168564404Y-88069692D01*
X168806829Y-88147916D01*
X169053043Y-88224925D01*
X169302867Y-88300673D01*
X169435815Y-88336617D01*
X169569852Y-88372090D01*
X169705036Y-88407044D01*
X169841423Y-88441426D01*
X169506759Y-88520573D01*
X169177853Y-88602422D01*
X168854835Y-88686773D01*
X168537834Y-88773422D01*
X168949629Y-88806206D01*
X169365460Y-88836051D01*
X169240936Y-88891457D01*
X169117512Y-88947116D01*
X168873680Y-89059081D01*
X169101992Y-89029936D01*
X169332506Y-88998660D01*
X169301813Y-89019972D01*
X169539239Y-88994846D01*
X169778114Y-88968169D01*
X169650754Y-89054807D01*
X169525180Y-89141539D01*
X169401320Y-89228330D01*
X169279101Y-89315140D01*
X169474559Y-89252864D01*
X169671320Y-89188676D01*
X169555932Y-89303268D01*
X169441717Y-89417753D01*
X169216114Y-89646436D01*
X169452510Y-89526641D01*
X169691528Y-89401812D01*
X169932896Y-89272012D01*
X170176343Y-89137306D01*
X170076823Y-89279884D01*
X169979170Y-89421952D01*
X169883330Y-89563481D01*
X169789249Y-89704439D01*
X169857225Y-89663408D01*
X169794275Y-89768683D01*
X169732214Y-89873599D01*
X169610328Y-90082491D01*
X169772317Y-89946211D01*
X169934581Y-89808449D01*
X170097134Y-89668977D01*
X170259991Y-89527570D01*
X170212380Y-89650101D01*
X170165812Y-89772008D01*
X170302214Y-89606507D01*
X170370412Y-89522704D01*
X170438598Y-89438025D01*
X170398809Y-89632752D01*
X170360640Y-89826167D01*
X170324044Y-90018247D01*
X170288970Y-90208971D01*
X170388549Y-90021956D01*
X170487620Y-89831553D01*
X170586091Y-89637835D01*
X170683869Y-89440877D01*
X170682789Y-89651517D01*
X170683555Y-89859939D01*
X170686059Y-90066154D01*
X170690192Y-90270172D01*
X170732036Y-90133293D01*
X170785752Y-90436056D01*
X170840826Y-90736482D01*
X170925715Y-90402294D01*
X171009078Y-90065032D01*
X171022047Y-90115975D01*
X171035271Y-89973583D01*
X171047780Y-89830080D01*
X171059527Y-89685450D01*
X171070464Y-89539678D01*
X171177229Y-89790080D01*
X171285070Y-90036712D01*
X171393871Y-90279525D01*
X171503514Y-90518468D01*
X171481647Y-90346685D01*
X171458615Y-90173683D01*
X171434366Y-89999457D01*
X171408852Y-89824001D01*
X171488308Y-89937269D01*
X171567836Y-90049818D01*
X171555277Y-89934520D01*
X171622668Y-90032909D01*
X171690102Y-90130383D01*
X171825047Y-90323055D01*
X171766725Y-90135009D01*
X171706611Y-89945663D01*
X171882210Y-90123599D01*
X172057639Y-90299429D01*
X172232907Y-90473459D01*
X172408021Y-90645991D01*
X172301040Y-90431828D01*
X172190888Y-90215925D01*
X172077506Y-89998353D01*
X171960836Y-89779184D01*
X172102184Y-89877593D01*
X172243333Y-89975182D01*
X172040075Y-89629100D01*
X171936383Y-89455333D01*
X171831000Y-89281000D01*
X172035308Y-89401071D01*
X172237813Y-89517134D01*
X172438409Y-89629258D01*
X172636992Y-89737514D01*
X172455436Y-89526346D01*
X172271676Y-89314855D01*
X172390990Y-89360631D01*
X172509827Y-89405634D01*
X172333415Y-89265458D01*
X172152974Y-89125060D01*
X171968532Y-88984568D01*
X171780113Y-88844109D01*
X171969018Y-88874979D01*
X172156208Y-88904037D01*
X172341632Y-88931320D01*
X172525242Y-88956869D01*
X172973555Y-88959122D01*
X173417407Y-88957629D01*
X173069251Y-88841836D01*
X172709101Y-88729162D01*
X172337612Y-88619993D01*
X171955438Y-88514716D01*
X172300193Y-88433579D01*
X172638914Y-88349584D01*
X172971430Y-88262941D01*
X173297572Y-88173862D01*
X172885867Y-88141083D01*
X172470131Y-88111241D01*
X172584040Y-88060558D01*
X172696978Y-88009651D01*
X172920349Y-87907295D01*
X172851626Y-87945297D01*
X173364639Y-87931680D01*
X173870882Y-87923491D01*
X174370135Y-87920546D01*
X174862177Y-87922661D01*
X174597501Y-88006026D01*
X174330966Y-88088702D01*
X174931969Y-88203231D01*
X175528759Y-88320187D01*
X175041812Y-88402791D01*
X174546182Y-88481475D01*
X174041956Y-88555978D01*
X173529222Y-88626039D01*
X173945561Y-88782728D01*
X174358230Y-88940733D01*
X175174531Y-89259824D01*
X174800540Y-89283112D01*
X174425089Y-89305269D01*
X174921372Y-89523623D01*
X175409856Y-89743680D01*
X175890542Y-89965238D01*
X176363434Y-90188098D01*
X175294080Y-90066981D01*
X174755549Y-90002368D01*
X174213882Y-89934371D01*
X174572862Y-90177972D01*
X174926992Y-90421771D01*
X174435156Y-90273570D01*
X173939222Y-90119721D01*
X174116551Y-90300556D01*
X173828046Y-90214929D01*
X173538685Y-90127975D01*
X173819526Y-90394499D01*
X174096531Y-90660626D01*
X174369797Y-90926297D01*
X174639419Y-91191455D01*
X174128471Y-90929682D01*
X173613746Y-90660132D01*
X173095505Y-90382734D01*
X172574014Y-90097422D01*
X172752207Y-90362278D01*
X172927468Y-90626266D01*
X173099900Y-90889353D01*
X173269608Y-91151501D01*
X173178542Y-91081620D01*
X173491224Y-91772839D01*
X173797117Y-92460852D01*
X173296721Y-92019874D01*
X172795487Y-91573046D01*
X172852340Y-91718892D01*
X172908644Y-91864412D01*
X172625898Y-91519992D01*
X172342978Y-91169603D01*
X172060057Y-90813082D01*
X171777306Y-90450260D01*
X171875685Y-90920263D01*
X171968494Y-91385644D01*
X172055797Y-91846149D01*
X172137657Y-92301520D01*
X171940126Y-91926943D01*
X171743378Y-91547977D01*
X171547520Y-91164598D01*
X171352664Y-90776781D01*
X171346343Y-91250086D01*
X171335962Y-91718305D01*
X171251134Y-91446254D01*
X171167267Y-91171711D01*
X171078943Y-91634346D01*
X170988520Y-92093251D01*
X170802514Y-93001504D01*
X170729378Y-92478444D01*
X170659838Y-91948941D01*
X170598661Y-92111184D01*
X170569602Y-91742248D01*
X170542792Y-91369955D01*
X170518363Y-90994287D01*
X170496445Y-90615226D01*
X170260812Y-91175256D01*
X170022115Y-91724059D01*
X169780736Y-92261158D01*
X169537052Y-92786077D01*
X169615100Y-92088930D01*
X169699472Y-91385713D01*
X169448652Y-91761685D01*
X169197489Y-92132609D01*
X169289860Y-91818549D01*
X169385077Y-91502305D01*
X169483314Y-91183844D01*
X169584745Y-90863132D01*
X169210996Y-91231652D01*
X168837621Y-91595557D01*
X168861483Y-91517525D01*
X168684763Y-91701027D01*
X168508282Y-91882640D01*
X168155986Y-92241120D01*
X168423013Y-91719587D01*
X168559546Y-91457337D01*
X168698307Y-91194041D01*
X168321043Y-91450883D01*
X167944612Y-91704685D01*
X167193873Y-92204839D01*
X167620615Y-91627877D01*
X168060792Y-91046726D01*
X168514453Y-90461909D01*
X168981648Y-89873947D01*
X168701210Y-89999241D01*
X168422065Y-90121933D01*
X168144185Y-90242183D01*
X167867543Y-90360156D01*
X167336622Y-90567751D01*
X166810190Y-90768308D01*
X166288610Y-90961666D01*
X165772243Y-91147664D01*
X166192018Y-90812404D01*
X166615734Y-90477188D01*
X167043396Y-90142088D01*
X167475011Y-89807174D01*
X167284633Y-89843447D01*
X167648299Y-89638420D01*
X168017037Y-89434155D01*
X168391030Y-89230826D01*
X168770458Y-89028605D01*
X168257169Y-89045949D01*
X167750329Y-89057842D01*
X167250126Y-89064488D01*
X166756745Y-89066092D01*
X167083422Y-88962938D01*
X167412964Y-88860815D01*
X166745791Y-88733580D01*
X166083807Y-88603380D01*
X166590554Y-88521799D01*
X167106448Y-88444600D01*
X167631098Y-88371954D01*
X168164111Y-88304032D01*
X167761190Y-88152101D01*
X167361733Y-87998938D01*
X166571267Y-87689741D01*
X166944293Y-87666527D01*
X167318785Y-87644433D01*
X166822376Y-87426009D01*
X166333760Y-87205886D01*
X165852940Y-86984265D01*
X165379918Y-86761347D01*
X166449349Y-86882467D01*
X166987916Y-86947081D01*
X167529622Y-87015077D01*
X167170714Y-86771540D01*
X166816658Y-86527798D01*
X167308609Y-86676064D01*
X167804669Y-86829981D01*
X167626995Y-86648808D01*
X167915389Y-86734372D01*
X168204627Y-86821260D01*
X167923857Y-86554783D01*
X167646917Y-86288701D01*
X167373709Y-86023078D01*
X167104135Y-85757974D01*
X167633744Y-86029450D01*
X168167441Y-86309357D01*
X168704883Y-86597670D01*
X169245729Y-86894364D01*
X169050569Y-86593278D01*
X168859440Y-86293670D01*
X168672169Y-85995566D01*
X168488580Y-85698989D01*
X168214784Y-85092422D01*
X167946243Y-84488348D01*
X168446738Y-84929419D01*
X168948067Y-85376342D01*
X168910946Y-85280755D01*
X169185417Y-85605127D01*
X169460392Y-85935714D01*
X169735694Y-86272350D01*
X170011148Y-86614869D01*
X169915992Y-86142873D01*
X169826578Y-85675920D01*
X169742761Y-85214183D01*
X169664394Y-84757839D01*
X169856964Y-85124763D01*
X170048752Y-85495941D01*
X170239672Y-85871293D01*
X170429635Y-86250736D01*
X170440821Y-85866662D01*
X170454721Y-85486391D01*
X170510442Y-85658029D01*
X170538277Y-85743907D01*
X170565795Y-85830712D01*
X170656496Y-85353955D01*
X170749413Y-84881106D01*
X170940749Y-83945560D01*
X171014070Y-84469987D01*
G37*
D10*
X173609000Y-144018000D02*
X173609000Y-138938000D01*
D11*
X174625000Y-122555000D02*
X173074000Y-122555000D01*
D10*
X149352000Y-122809000D02*
X149352000Y-119507000D01*
X176657000Y-138938000D02*
X176657000Y-144018000D01*
X176657000Y-140589000D02*
X173609000Y-140589000D01*
X173700000Y-107400000D02*
X176700000Y-107400000D01*
X156210000Y-124460000D02*
X156210000Y-119380000D01*
D11*
X173074000Y-119507000D02*
X173074000Y-120231000D01*
D10*
X140335000Y-113411000D02*
X143637000Y-113411000D01*
X155702000Y-104241600D02*
X157226000Y-104241600D01*
X176700000Y-109100000D02*
X176700000Y-103700000D01*
X157226000Y-104241600D02*
X157226000Y-107873800D01*
X176700000Y-105400000D02*
X173700000Y-105400000D01*
X173700000Y-109100000D02*
X176700000Y-109100000D01*
X143637000Y-113411000D02*
X143637000Y-114935000D01*
X143637000Y-114935000D02*
X140335000Y-114935000D01*
X149352000Y-119507000D02*
X152654000Y-119507000D01*
X152654000Y-122809000D02*
X149352000Y-122809000D01*
X159258000Y-121031000D02*
X156210000Y-121031000D01*
X156210000Y-119380000D02*
X159258000Y-119380000D01*
X162179000Y-124714000D02*
X162179000Y-119634000D01*
X173609000Y-142367000D02*
X176657000Y-142367000D01*
X173700000Y-103700000D02*
X173700000Y-109100000D01*
X159258000Y-124460000D02*
X156210000Y-124460000D01*
X176700000Y-103700000D02*
X173700000Y-103700000D01*
X155702000Y-107873800D02*
X155702000Y-104241600D01*
X140335000Y-114935000D02*
X140335000Y-113411000D01*
X155702000Y-107873800D02*
X157226000Y-107873800D01*
X159258000Y-119380000D02*
X159258000Y-124460000D01*
X173609000Y-138938000D02*
X176657000Y-138938000D01*
X166576904Y-95287666D02*
X167053095Y-95287666D01*
X166481666Y-95573380D02*
X166815000Y-94573380D01*
X167148333Y-95573380D01*
X167338809Y-94573380D02*
X167672142Y-95573380D01*
X168005476Y-94573380D01*
X168910238Y-95573380D02*
X168576904Y-95097190D01*
X168338809Y-95573380D02*
X168338809Y-94573380D01*
X168719761Y-94573380D01*
X168815000Y-94621000D01*
X168862619Y-94668619D01*
X168910238Y-94763857D01*
X168910238Y-94906714D01*
X168862619Y-95001952D01*
X168815000Y-95049571D01*
X168719761Y-95097190D01*
X168338809Y-95097190D01*
X170053095Y-95525761D02*
X170195952Y-95573380D01*
X170434047Y-95573380D01*
X170529285Y-95525761D01*
X170576904Y-95478142D01*
X170624523Y-95382904D01*
X170624523Y-95287666D01*
X170576904Y-95192428D01*
X170529285Y-95144809D01*
X170434047Y-95097190D01*
X170243571Y-95049571D01*
X170148333Y-95001952D01*
X170100714Y-94954333D01*
X170053095Y-94859095D01*
X170053095Y-94763857D01*
X170100714Y-94668619D01*
X170148333Y-94621000D01*
X170243571Y-94573380D01*
X170481666Y-94573380D01*
X170624523Y-94621000D01*
X171053095Y-94906714D02*
X171053095Y-95906714D01*
X171053095Y-94954333D02*
X171148333Y-94906714D01*
X171338809Y-94906714D01*
X171434047Y-94954333D01*
X171481666Y-95001952D01*
X171529285Y-95097190D01*
X171529285Y-95382904D01*
X171481666Y-95478142D01*
X171434047Y-95525761D01*
X171338809Y-95573380D01*
X171148333Y-95573380D01*
X171053095Y-95525761D01*
X172100714Y-95573380D02*
X172005476Y-95525761D01*
X171957857Y-95478142D01*
X171910238Y-95382904D01*
X171910238Y-95097190D01*
X171957857Y-95001952D01*
X172005476Y-94954333D01*
X172100714Y-94906714D01*
X172243571Y-94906714D01*
X172338809Y-94954333D01*
X172386428Y-95001952D01*
X172434047Y-95097190D01*
X172434047Y-95382904D01*
X172386428Y-95478142D01*
X172338809Y-95525761D01*
X172243571Y-95573380D01*
X172100714Y-95573380D01*
X172719761Y-94906714D02*
X173100714Y-94906714D01*
X172862619Y-94573380D02*
X172862619Y-95430523D01*
X172910238Y-95525761D01*
X173005476Y-95573380D01*
X173100714Y-95573380D01*
X173291190Y-94906714D02*
X173672142Y-94906714D01*
X173434047Y-94573380D02*
X173434047Y-95430523D01*
X173481666Y-95525761D01*
X173576904Y-95573380D01*
X173672142Y-95573380D01*
X174386428Y-95525761D02*
X174291190Y-95573380D01*
X174100714Y-95573380D01*
X174005476Y-95525761D01*
X173957857Y-95430523D01*
X173957857Y-95049571D01*
X174005476Y-94954333D01*
X174100714Y-94906714D01*
X174291190Y-94906714D01*
X174386428Y-94954333D01*
X174434047Y-95049571D01*
X174434047Y-95144809D01*
X173957857Y-95240047D01*
X174862619Y-95573380D02*
X174862619Y-94906714D01*
X174862619Y-95097190D02*
X174910238Y-95001952D01*
X174957857Y-94954333D01*
X175053095Y-94906714D01*
X175148333Y-94906714D01*
X168743571Y-97183380D02*
X168410238Y-96707190D01*
X168172142Y-97183380D02*
X168172142Y-96183380D01*
X168553095Y-96183380D01*
X168648333Y-96231000D01*
X168695952Y-96278619D01*
X168743571Y-96373857D01*
X168743571Y-96516714D01*
X168695952Y-96611952D01*
X168648333Y-96659571D01*
X168553095Y-96707190D01*
X168172142Y-96707190D01*
X169553095Y-97135761D02*
X169457857Y-97183380D01*
X169267380Y-97183380D01*
X169172142Y-97135761D01*
X169124523Y-97040523D01*
X169124523Y-96659571D01*
X169172142Y-96564333D01*
X169267380Y-96516714D01*
X169457857Y-96516714D01*
X169553095Y-96564333D01*
X169600714Y-96659571D01*
X169600714Y-96754809D01*
X169124523Y-96850047D01*
X169934047Y-96516714D02*
X170172142Y-97183380D01*
X170410238Y-96516714D01*
X172076904Y-97183380D02*
X171505476Y-97183380D01*
X171791190Y-97183380D02*
X171791190Y-96183380D01*
X171695952Y-96326238D01*
X171600714Y-96421476D01*
X171505476Y-96469095D01*
X172505476Y-97088142D02*
X172553095Y-97135761D01*
X172505476Y-97183380D01*
X172457857Y-97135761D01*
X172505476Y-97088142D01*
X172505476Y-97183380D01*
X173172142Y-96183380D02*
X173267380Y-96183380D01*
X173362619Y-96231000D01*
X173410238Y-96278619D01*
X173457857Y-96373857D01*
X173505476Y-96564333D01*
X173505476Y-96802428D01*
X173457857Y-96992904D01*
X173410238Y-97088142D01*
X173362619Y-97135761D01*
X173267380Y-97183380D01*
X173172142Y-97183380D01*
X173076904Y-97135761D01*
X173029285Y-97088142D01*
X172981666Y-96992904D01*
X172934047Y-96802428D01*
X172934047Y-96564333D01*
X172981666Y-96373857D01*
X173029285Y-96278619D01*
X173076904Y-96231000D01*
X173172142Y-96183380D01*
X166767380Y-98031476D02*
X166672142Y-97983857D01*
X166481666Y-97983857D01*
X166386428Y-98031476D01*
X166291190Y-98126714D01*
X166243571Y-98221952D01*
X166243571Y-98412428D01*
X166291190Y-98507666D01*
X166386428Y-98602904D01*
X166481666Y-98650523D01*
X166672142Y-98650523D01*
X166767380Y-98602904D01*
X166576904Y-97650523D02*
X166338809Y-97698142D01*
X166100714Y-97841000D01*
X165957857Y-98079095D01*
X165910238Y-98317190D01*
X165957857Y-98555285D01*
X166100714Y-98793380D01*
X166338809Y-98936238D01*
X166576904Y-98983857D01*
X166815000Y-98936238D01*
X167053095Y-98793380D01*
X167195952Y-98555285D01*
X167243571Y-98317190D01*
X167195952Y-98079095D01*
X167053095Y-97841000D01*
X166815000Y-97698142D01*
X166576904Y-97650523D01*
X168005476Y-98269571D02*
X167672142Y-98269571D01*
X167672142Y-98793380D02*
X167672142Y-97793380D01*
X168148333Y-97793380D01*
X168672142Y-98793380D02*
X168576904Y-98745761D01*
X168529285Y-98698142D01*
X168481666Y-98602904D01*
X168481666Y-98317190D01*
X168529285Y-98221952D01*
X168576904Y-98174333D01*
X168672142Y-98126714D01*
X168815000Y-98126714D01*
X168910238Y-98174333D01*
X168957857Y-98221952D01*
X169005476Y-98317190D01*
X169005476Y-98602904D01*
X168957857Y-98698142D01*
X168910238Y-98745761D01*
X168815000Y-98793380D01*
X168672142Y-98793380D01*
X169338809Y-98793380D02*
X169862619Y-98126714D01*
X169338809Y-98126714D02*
X169862619Y-98793380D01*
X170672142Y-98793380D02*
X170672142Y-97793380D01*
X170672142Y-98745761D02*
X170576904Y-98793380D01*
X170386428Y-98793380D01*
X170291190Y-98745761D01*
X170243571Y-98698142D01*
X170195952Y-98602904D01*
X170195952Y-98317190D01*
X170243571Y-98221952D01*
X170291190Y-98174333D01*
X170386428Y-98126714D01*
X170576904Y-98126714D01*
X170672142Y-98174333D01*
X171291190Y-98793380D02*
X171195952Y-98745761D01*
X171148333Y-98698142D01*
X171100714Y-98602904D01*
X171100714Y-98317190D01*
X171148333Y-98221952D01*
X171195952Y-98174333D01*
X171291190Y-98126714D01*
X171434047Y-98126714D01*
X171529285Y-98174333D01*
X171576904Y-98221952D01*
X171624523Y-98317190D01*
X171624523Y-98602904D01*
X171576904Y-98698142D01*
X171529285Y-98745761D01*
X171434047Y-98793380D01*
X171291190Y-98793380D01*
X172481666Y-98126714D02*
X172481666Y-98936238D01*
X172434047Y-99031476D01*
X172386428Y-99079095D01*
X172291190Y-99126714D01*
X172148333Y-99126714D01*
X172053095Y-99079095D01*
X172481666Y-98745761D02*
X172386428Y-98793380D01*
X172195952Y-98793380D01*
X172100714Y-98745761D01*
X172053095Y-98698142D01*
X172005476Y-98602904D01*
X172005476Y-98317190D01*
X172053095Y-98221952D01*
X172100714Y-98174333D01*
X172195952Y-98126714D01*
X172386428Y-98126714D01*
X172481666Y-98174333D01*
X172815000Y-98126714D02*
X173195952Y-98126714D01*
X172957857Y-98793380D02*
X172957857Y-97936238D01*
X173005476Y-97841000D01*
X173100714Y-97793380D01*
X173195952Y-97793380D01*
X173957857Y-98793380D02*
X173957857Y-98269571D01*
X173910238Y-98174333D01*
X173815000Y-98126714D01*
X173624523Y-98126714D01*
X173529285Y-98174333D01*
X173957857Y-98745761D02*
X173862619Y-98793380D01*
X173624523Y-98793380D01*
X173529285Y-98745761D01*
X173481666Y-98650523D01*
X173481666Y-98555285D01*
X173529285Y-98460047D01*
X173624523Y-98412428D01*
X173862619Y-98412428D01*
X173957857Y-98364809D01*
X174862619Y-98745761D02*
X174767380Y-98793380D01*
X174576904Y-98793380D01*
X174481666Y-98745761D01*
X174434047Y-98698142D01*
X174386428Y-98602904D01*
X174386428Y-98317190D01*
X174434047Y-98221952D01*
X174481666Y-98174333D01*
X174576904Y-98126714D01*
X174767380Y-98126714D01*
X174862619Y-98174333D01*
X175672142Y-98745761D02*
X175576904Y-98793380D01*
X175386428Y-98793380D01*
X175291190Y-98745761D01*
X175243571Y-98650523D01*
X175243571Y-98269571D01*
X175291190Y-98174333D01*
X175386428Y-98126714D01*
X175576904Y-98126714D01*
X175672142Y-98174333D01*
X175719761Y-98269571D01*
X175719761Y-98364809D01*
X175243571Y-98460047D01*
X159005476Y-100403380D02*
X159005476Y-99403380D01*
X159434047Y-100403380D02*
X159434047Y-99879571D01*
X159386428Y-99784333D01*
X159291190Y-99736714D01*
X159148333Y-99736714D01*
X159053095Y-99784333D01*
X159005476Y-99831952D01*
X159767380Y-99736714D02*
X160148333Y-99736714D01*
X159910238Y-99403380D02*
X159910238Y-100260523D01*
X159957857Y-100355761D01*
X160053095Y-100403380D01*
X160148333Y-100403380D01*
X160338809Y-99736714D02*
X160719761Y-99736714D01*
X160481666Y-99403380D02*
X160481666Y-100260523D01*
X160529285Y-100355761D01*
X160624523Y-100403380D01*
X160719761Y-100403380D01*
X161053095Y-99736714D02*
X161053095Y-100736714D01*
X161053095Y-99784333D02*
X161148333Y-99736714D01*
X161338809Y-99736714D01*
X161434047Y-99784333D01*
X161481666Y-99831952D01*
X161529285Y-99927190D01*
X161529285Y-100212904D01*
X161481666Y-100308142D01*
X161434047Y-100355761D01*
X161338809Y-100403380D01*
X161148333Y-100403380D01*
X161053095Y-100355761D01*
X161910238Y-100355761D02*
X162005476Y-100403380D01*
X162195952Y-100403380D01*
X162291190Y-100355761D01*
X162338809Y-100260523D01*
X162338809Y-100212904D01*
X162291190Y-100117666D01*
X162195952Y-100070047D01*
X162053095Y-100070047D01*
X161957857Y-100022428D01*
X161910238Y-99927190D01*
X161910238Y-99879571D01*
X161957857Y-99784333D01*
X162053095Y-99736714D01*
X162195952Y-99736714D01*
X162291190Y-99784333D01*
X162767380Y-100308142D02*
X162815000Y-100355761D01*
X162767380Y-100403380D01*
X162719761Y-100355761D01*
X162767380Y-100308142D01*
X162767380Y-100403380D01*
X162767380Y-99784333D02*
X162815000Y-99831952D01*
X162767380Y-99879571D01*
X162719761Y-99831952D01*
X162767380Y-99784333D01*
X162767380Y-99879571D01*
X163957857Y-99355761D02*
X163100714Y-100641476D01*
X165005476Y-99355761D02*
X164148333Y-100641476D01*
X165767380Y-99736714D02*
X165767380Y-100546238D01*
X165719761Y-100641476D01*
X165672142Y-100689095D01*
X165576904Y-100736714D01*
X165434047Y-100736714D01*
X165338809Y-100689095D01*
X165767380Y-100355761D02*
X165672142Y-100403380D01*
X165481666Y-100403380D01*
X165386428Y-100355761D01*
X165338809Y-100308142D01*
X165291190Y-100212904D01*
X165291190Y-99927190D01*
X165338809Y-99831952D01*
X165386428Y-99784333D01*
X165481666Y-99736714D01*
X165672142Y-99736714D01*
X165767380Y-99784333D01*
X166243571Y-100403380D02*
X166243571Y-99736714D01*
X166243571Y-99403380D02*
X166195952Y-99451000D01*
X166243571Y-99498619D01*
X166291190Y-99451000D01*
X166243571Y-99403380D01*
X166243571Y-99498619D01*
X166576904Y-99736714D02*
X166957857Y-99736714D01*
X166719761Y-99403380D02*
X166719761Y-100260523D01*
X166767380Y-100355761D01*
X166862619Y-100403380D01*
X166957857Y-100403380D01*
X167291190Y-100403380D02*
X167291190Y-99403380D01*
X167719761Y-100403380D02*
X167719761Y-99879571D01*
X167672142Y-99784333D01*
X167576904Y-99736714D01*
X167434047Y-99736714D01*
X167338809Y-99784333D01*
X167291190Y-99831952D01*
X168624523Y-99736714D02*
X168624523Y-100403380D01*
X168195952Y-99736714D02*
X168195952Y-100260523D01*
X168243571Y-100355761D01*
X168338809Y-100403380D01*
X168481666Y-100403380D01*
X168576904Y-100355761D01*
X168624523Y-100308142D01*
X169100714Y-100403380D02*
X169100714Y-99403380D01*
X169100714Y-99784333D02*
X169195952Y-99736714D01*
X169386428Y-99736714D01*
X169481666Y-99784333D01*
X169529285Y-99831952D01*
X169576904Y-99927190D01*
X169576904Y-100212904D01*
X169529285Y-100308142D01*
X169481666Y-100355761D01*
X169386428Y-100403380D01*
X169195952Y-100403380D01*
X169100714Y-100355761D01*
X170005476Y-100308142D02*
X170053095Y-100355761D01*
X170005476Y-100403380D01*
X169957857Y-100355761D01*
X170005476Y-100308142D01*
X170005476Y-100403380D01*
X170910238Y-100355761D02*
X170815000Y-100403380D01*
X170624523Y-100403380D01*
X170529285Y-100355761D01*
X170481666Y-100308142D01*
X170434047Y-100212904D01*
X170434047Y-99927190D01*
X170481666Y-99831952D01*
X170529285Y-99784333D01*
X170624523Y-99736714D01*
X170815000Y-99736714D01*
X170910238Y-99784333D01*
X171481666Y-100403380D02*
X171386428Y-100355761D01*
X171338809Y-100308142D01*
X171291190Y-100212904D01*
X171291190Y-99927190D01*
X171338809Y-99831952D01*
X171386428Y-99784333D01*
X171481666Y-99736714D01*
X171624523Y-99736714D01*
X171719761Y-99784333D01*
X171767380Y-99831952D01*
X171815000Y-99927190D01*
X171815000Y-100212904D01*
X171767380Y-100308142D01*
X171719761Y-100355761D01*
X171624523Y-100403380D01*
X171481666Y-100403380D01*
X172243571Y-100403380D02*
X172243571Y-99736714D01*
X172243571Y-99831952D02*
X172291190Y-99784333D01*
X172386428Y-99736714D01*
X172529285Y-99736714D01*
X172624523Y-99784333D01*
X172672142Y-99879571D01*
X172672142Y-100403380D01*
X172672142Y-99879571D02*
X172719761Y-99784333D01*
X172815000Y-99736714D01*
X172957857Y-99736714D01*
X173053095Y-99784333D01*
X173100714Y-99879571D01*
X173100714Y-100403380D01*
X174291190Y-99355761D02*
X173434047Y-100641476D01*
X174957857Y-99879571D02*
X174624523Y-99879571D01*
X174624523Y-100403380D02*
X174624523Y-99403380D01*
X175100714Y-99403380D01*
X175624523Y-100403380D02*
X175529285Y-100355761D01*
X175481666Y-100308142D01*
X175434047Y-100212904D01*
X175434047Y-99927190D01*
X175481666Y-99831952D01*
X175529285Y-99784333D01*
X175624523Y-99736714D01*
X175767380Y-99736714D01*
X175862619Y-99784333D01*
X175910238Y-99831952D01*
X175957857Y-99927190D01*
X175957857Y-100212904D01*
X175910238Y-100308142D01*
X175862619Y-100355761D01*
X175767380Y-100403380D01*
X175624523Y-100403380D01*
X176291190Y-100403380D02*
X176815000Y-99736714D01*
X176291190Y-99736714D02*
X176815000Y-100403380D01*
X177624523Y-100403380D02*
X177624523Y-99403380D01*
X177624523Y-100355761D02*
X177529285Y-100403380D01*
X177338809Y-100403380D01*
X177243571Y-100355761D01*
X177195952Y-100308142D01*
X177148333Y-100212904D01*
X177148333Y-99927190D01*
X177195952Y-99831952D01*
X177243571Y-99784333D01*
X177338809Y-99736714D01*
X177529285Y-99736714D01*
X177624523Y-99784333D01*
X178243571Y-100403380D02*
X178148333Y-100355761D01*
X178100714Y-100308142D01*
X178053095Y-100212904D01*
X178053095Y-99927190D01*
X178100714Y-99831952D01*
X178148333Y-99784333D01*
X178243571Y-99736714D01*
X178386428Y-99736714D01*
X178481666Y-99784333D01*
X178529285Y-99831952D01*
X178576904Y-99927190D01*
X178576904Y-100212904D01*
X178529285Y-100308142D01*
X178481666Y-100355761D01*
X178386428Y-100403380D01*
X178243571Y-100403380D01*
X179434047Y-99736714D02*
X179434047Y-100546238D01*
X179386428Y-100641476D01*
X179338809Y-100689095D01*
X179243571Y-100736714D01*
X179100714Y-100736714D01*
X179005476Y-100689095D01*
X179434047Y-100355761D02*
X179338809Y-100403380D01*
X179148333Y-100403380D01*
X179053095Y-100355761D01*
X179005476Y-100308142D01*
X178957857Y-100212904D01*
X178957857Y-99927190D01*
X179005476Y-99831952D01*
X179053095Y-99784333D01*
X179148333Y-99736714D01*
X179338809Y-99736714D01*
X179434047Y-99784333D01*
X179767380Y-99736714D02*
X180148333Y-99736714D01*
X179910238Y-100403380D02*
X179910238Y-99546238D01*
X179957857Y-99451000D01*
X180053095Y-99403380D01*
X180148333Y-99403380D01*
X180910238Y-100403380D02*
X180910238Y-99879571D01*
X180862619Y-99784333D01*
X180767380Y-99736714D01*
X180576904Y-99736714D01*
X180481666Y-99784333D01*
X180910238Y-100355761D02*
X180815000Y-100403380D01*
X180576904Y-100403380D01*
X180481666Y-100355761D01*
X180434047Y-100260523D01*
X180434047Y-100165285D01*
X180481666Y-100070047D01*
X180576904Y-100022428D01*
X180815000Y-100022428D01*
X180910238Y-99974809D01*
X181815000Y-100355761D02*
X181719761Y-100403380D01*
X181529285Y-100403380D01*
X181434047Y-100355761D01*
X181386428Y-100308142D01*
X181338809Y-100212904D01*
X181338809Y-99927190D01*
X181386428Y-99831952D01*
X181434047Y-99784333D01*
X181529285Y-99736714D01*
X181719761Y-99736714D01*
X181815000Y-99784333D01*
X182624523Y-100355761D02*
X182529285Y-100403380D01*
X182338809Y-100403380D01*
X182243571Y-100355761D01*
X182195952Y-100260523D01*
X182195952Y-99879571D01*
X182243571Y-99784333D01*
X182338809Y-99736714D01*
X182529285Y-99736714D01*
X182624523Y-99784333D01*
X182672142Y-99879571D01*
X182672142Y-99974809D01*
X182195952Y-100070047D01*
X136637733Y-115031780D02*
X136304400Y-114555590D01*
X136066304Y-115031780D02*
X136066304Y-114031780D01*
X136447257Y-114031780D01*
X136542495Y-114079400D01*
X136590114Y-114127019D01*
X136637733Y-114222257D01*
X136637733Y-114365114D01*
X136590114Y-114460352D01*
X136542495Y-114507971D01*
X136447257Y-114555590D01*
X136066304Y-114555590D01*
X136971066Y-114031780D02*
X137637733Y-115031780D01*
X137637733Y-114031780D02*
X136971066Y-115031780D01*
X136042495Y-111466380D02*
X136613923Y-111466380D01*
X136328209Y-112466380D02*
X136328209Y-111466380D01*
X136852019Y-111466380D02*
X137518685Y-112466380D01*
X137518685Y-111466380D02*
X136852019Y-112466380D01*
X136550495Y-108989000D02*
X136455257Y-108941380D01*
X136312400Y-108941380D01*
X136169542Y-108989000D01*
X136074304Y-109084238D01*
X136026685Y-109179476D01*
X135979066Y-109369952D01*
X135979066Y-109512809D01*
X136026685Y-109703285D01*
X136074304Y-109798523D01*
X136169542Y-109893761D01*
X136312400Y-109941380D01*
X136407638Y-109941380D01*
X136550495Y-109893761D01*
X136598114Y-109846142D01*
X136598114Y-109512809D01*
X136407638Y-109512809D01*
X137026685Y-109941380D02*
X137026685Y-108941380D01*
X137598114Y-109941380D01*
X137598114Y-108941380D01*
X138074304Y-109941380D02*
X138074304Y-108941380D01*
X138312400Y-108941380D01*
X138455257Y-108989000D01*
X138550495Y-109084238D01*
X138598114Y-109179476D01*
X138645733Y-109369952D01*
X138645733Y-109512809D01*
X138598114Y-109703285D01*
X138550495Y-109798523D01*
X138455257Y-109893761D01*
X138312400Y-109941380D01*
X138074304Y-109941380D01*
%TO.C,D3*%
X126155523Y-101355904D02*
X126155523Y-100555904D01*
X126346000Y-100555904D01*
X126460285Y-100594000D01*
X126536476Y-100670190D01*
X126574571Y-100746380D01*
X126612666Y-100898761D01*
X126612666Y-101013047D01*
X126574571Y-101165428D01*
X126536476Y-101241619D01*
X126460285Y-101317809D01*
X126346000Y-101355904D01*
X126155523Y-101355904D01*
X126879333Y-100555904D02*
X127374571Y-100555904D01*
X127107904Y-100860666D01*
X127222190Y-100860666D01*
X127298380Y-100898761D01*
X127336476Y-100936857D01*
X127374571Y-101013047D01*
X127374571Y-101203523D01*
X127336476Y-101279714D01*
X127298380Y-101317809D01*
X127222190Y-101355904D01*
X126993619Y-101355904D01*
X126917428Y-101317809D01*
X126879333Y-101279714D01*
%TO.C,R2*%
X174351904Y-118751333D02*
X173970952Y-119018000D01*
X174351904Y-119208476D02*
X173551904Y-119208476D01*
X173551904Y-118903714D01*
X173590000Y-118827523D01*
X173628095Y-118789428D01*
X173704285Y-118751333D01*
X173818571Y-118751333D01*
X173894761Y-118789428D01*
X173932857Y-118827523D01*
X173970952Y-118903714D01*
X173970952Y-119208476D01*
X173628095Y-118446571D02*
X173590000Y-118408476D01*
X173551904Y-118332285D01*
X173551904Y-118141809D01*
X173590000Y-118065619D01*
X173628095Y-118027523D01*
X173704285Y-117989428D01*
X173780476Y-117989428D01*
X173894761Y-118027523D01*
X174351904Y-118484666D01*
X174351904Y-117989428D01*
%TO.C,R6*%
X172459666Y-140061904D02*
X172193000Y-139680952D01*
X172002523Y-140061904D02*
X172002523Y-139261904D01*
X172307285Y-139261904D01*
X172383476Y-139300000D01*
X172421571Y-139338095D01*
X172459666Y-139414285D01*
X172459666Y-139528571D01*
X172421571Y-139604761D01*
X172383476Y-139642857D01*
X172307285Y-139680952D01*
X172002523Y-139680952D01*
X173145380Y-139261904D02*
X172993000Y-139261904D01*
X172916809Y-139300000D01*
X172878714Y-139338095D01*
X172802523Y-139452380D01*
X172764428Y-139604761D01*
X172764428Y-139909523D01*
X172802523Y-139985714D01*
X172840619Y-140023809D01*
X172916809Y-140061904D01*
X173069190Y-140061904D01*
X173145380Y-140023809D01*
X173183476Y-139985714D01*
X173221571Y-139909523D01*
X173221571Y-139719047D01*
X173183476Y-139642857D01*
X173145380Y-139604761D01*
X173069190Y-139566666D01*
X172916809Y-139566666D01*
X172840619Y-139604761D01*
X172802523Y-139642857D01*
X172764428Y-139719047D01*
%TO.C,D2*%
X135235904Y-95078476D02*
X134435904Y-95078476D01*
X134435904Y-94888000D01*
X134474000Y-94773714D01*
X134550190Y-94697523D01*
X134626380Y-94659428D01*
X134778761Y-94621333D01*
X134893047Y-94621333D01*
X135045428Y-94659428D01*
X135121619Y-94697523D01*
X135197809Y-94773714D01*
X135235904Y-94888000D01*
X135235904Y-95078476D01*
X134512095Y-94316571D02*
X134474000Y-94278476D01*
X134435904Y-94202285D01*
X134435904Y-94011809D01*
X134474000Y-93935619D01*
X134512095Y-93897523D01*
X134588285Y-93859428D01*
X134664476Y-93859428D01*
X134778761Y-93897523D01*
X135235904Y-94354666D01*
X135235904Y-93859428D01*
%TO.C,R12*%
X160394714Y-122535904D02*
X160128047Y-122154952D01*
X159937571Y-122535904D02*
X159937571Y-121735904D01*
X160242333Y-121735904D01*
X160318523Y-121774000D01*
X160356619Y-121812095D01*
X160394714Y-121888285D01*
X160394714Y-122002571D01*
X160356619Y-122078761D01*
X160318523Y-122116857D01*
X160242333Y-122154952D01*
X159937571Y-122154952D01*
X161156619Y-122535904D02*
X160699476Y-122535904D01*
X160928047Y-122535904D02*
X160928047Y-121735904D01*
X160851857Y-121850190D01*
X160775666Y-121926380D01*
X160699476Y-121964476D01*
X161461380Y-121812095D02*
X161499476Y-121774000D01*
X161575666Y-121735904D01*
X161766142Y-121735904D01*
X161842333Y-121774000D01*
X161880428Y-121812095D01*
X161918523Y-121888285D01*
X161918523Y-121964476D01*
X161880428Y-122078761D01*
X161423285Y-122535904D01*
X161918523Y-122535904D01*
%TO.C,R1*%
X149980666Y-119233904D02*
X149714000Y-118852952D01*
X149523523Y-119233904D02*
X149523523Y-118433904D01*
X149828285Y-118433904D01*
X149904476Y-118472000D01*
X149942571Y-118510095D01*
X149980666Y-118586285D01*
X149980666Y-118700571D01*
X149942571Y-118776761D01*
X149904476Y-118814857D01*
X149828285Y-118852952D01*
X149523523Y-118852952D01*
X150742571Y-119233904D02*
X150285428Y-119233904D01*
X150514000Y-119233904D02*
X150514000Y-118433904D01*
X150437809Y-118548190D01*
X150361619Y-118624380D01*
X150285428Y-118662476D01*
%TO.C,EXP1*%
X149796666Y-124402857D02*
X150063333Y-124402857D01*
X150177619Y-124821904D02*
X149796666Y-124821904D01*
X149796666Y-124021904D01*
X150177619Y-124021904D01*
X150444285Y-124021904D02*
X150977619Y-124821904D01*
X150977619Y-124021904D02*
X150444285Y-124821904D01*
X151282380Y-124821904D02*
X151282380Y-124021904D01*
X151587142Y-124021904D01*
X151663333Y-124060000D01*
X151701428Y-124098095D01*
X151739523Y-124174285D01*
X151739523Y-124288571D01*
X151701428Y-124364761D01*
X151663333Y-124402857D01*
X151587142Y-124440952D01*
X151282380Y-124440952D01*
X152501428Y-124821904D02*
X152044285Y-124821904D01*
X152272857Y-124821904D02*
X152272857Y-124021904D01*
X152196666Y-124136190D01*
X152120476Y-124212380D01*
X152044285Y-124250476D01*
%TO.C,C5*%
X161029666Y-120681714D02*
X160991571Y-120719809D01*
X160877285Y-120757904D01*
X160801095Y-120757904D01*
X160686809Y-120719809D01*
X160610619Y-120643619D01*
X160572523Y-120567428D01*
X160534428Y-120415047D01*
X160534428Y-120300761D01*
X160572523Y-120148380D01*
X160610619Y-120072190D01*
X160686809Y-119996000D01*
X160801095Y-119957904D01*
X160877285Y-119957904D01*
X160991571Y-119996000D01*
X161029666Y-120034095D01*
X161753476Y-119957904D02*
X161372523Y-119957904D01*
X161334428Y-120338857D01*
X161372523Y-120300761D01*
X161448714Y-120262666D01*
X161639190Y-120262666D01*
X161715380Y-120300761D01*
X161753476Y-120338857D01*
X161791571Y-120415047D01*
X161791571Y-120605523D01*
X161753476Y-120681714D01*
X161715380Y-120719809D01*
X161639190Y-120757904D01*
X161448714Y-120757904D01*
X161372523Y-120719809D01*
X161334428Y-120681714D01*
%TO.C,EXT-ENCODER1*%
X142716952Y-137088571D02*
X143050285Y-137088571D01*
X143193142Y-137612380D02*
X142716952Y-137612380D01*
X142716952Y-136612380D01*
X143193142Y-136612380D01*
X143526476Y-136612380D02*
X144193142Y-137612380D01*
X144193142Y-136612380D02*
X143526476Y-137612380D01*
X144431238Y-136612380D02*
X145002666Y-136612380D01*
X144716952Y-137612380D02*
X144716952Y-136612380D01*
X145336000Y-137231428D02*
X146097904Y-137231428D01*
X146574095Y-137088571D02*
X146907428Y-137088571D01*
X147050285Y-137612380D02*
X146574095Y-137612380D01*
X146574095Y-136612380D01*
X147050285Y-136612380D01*
X147478857Y-137612380D02*
X147478857Y-136612380D01*
X148050285Y-137612380D01*
X148050285Y-136612380D01*
X149097904Y-137517142D02*
X149050285Y-137564761D01*
X148907428Y-137612380D01*
X148812190Y-137612380D01*
X148669333Y-137564761D01*
X148574095Y-137469523D01*
X148526476Y-137374285D01*
X148478857Y-137183809D01*
X148478857Y-137040952D01*
X148526476Y-136850476D01*
X148574095Y-136755238D01*
X148669333Y-136660000D01*
X148812190Y-136612380D01*
X148907428Y-136612380D01*
X149050285Y-136660000D01*
X149097904Y-136707619D01*
X149716952Y-136612380D02*
X149907428Y-136612380D01*
X150002666Y-136660000D01*
X150097904Y-136755238D01*
X150145523Y-136945714D01*
X150145523Y-137279047D01*
X150097904Y-137469523D01*
X150002666Y-137564761D01*
X149907428Y-137612380D01*
X149716952Y-137612380D01*
X149621714Y-137564761D01*
X149526476Y-137469523D01*
X149478857Y-137279047D01*
X149478857Y-136945714D01*
X149526476Y-136755238D01*
X149621714Y-136660000D01*
X149716952Y-136612380D01*
X150574095Y-137612380D02*
X150574095Y-136612380D01*
X150812190Y-136612380D01*
X150955047Y-136660000D01*
X151050285Y-136755238D01*
X151097904Y-136850476D01*
X151145523Y-137040952D01*
X151145523Y-137183809D01*
X151097904Y-137374285D01*
X151050285Y-137469523D01*
X150955047Y-137564761D01*
X150812190Y-137612380D01*
X150574095Y-137612380D01*
X151574095Y-137088571D02*
X151907428Y-137088571D01*
X152050285Y-137612380D02*
X151574095Y-137612380D01*
X151574095Y-136612380D01*
X152050285Y-136612380D01*
X153050285Y-137612380D02*
X152716952Y-137136190D01*
X152478857Y-137612380D02*
X152478857Y-136612380D01*
X152859809Y-136612380D01*
X152955047Y-136660000D01*
X153002666Y-136707619D01*
X153050285Y-136802857D01*
X153050285Y-136945714D01*
X153002666Y-137040952D01*
X152955047Y-137088571D01*
X152859809Y-137136190D01*
X152478857Y-137136190D01*
X154002666Y-137612380D02*
X153431238Y-137612380D01*
X153716952Y-137612380D02*
X153716952Y-136612380D01*
X153621714Y-136755238D01*
X153526476Y-136850476D01*
X153431238Y-136898095D01*
%TO.C,C2*%
X140582666Y-118141714D02*
X140544571Y-118179809D01*
X140430285Y-118217904D01*
X140354095Y-118217904D01*
X140239809Y-118179809D01*
X140163619Y-118103619D01*
X140125523Y-118027428D01*
X140087428Y-117875047D01*
X140087428Y-117760761D01*
X140125523Y-117608380D01*
X140163619Y-117532190D01*
X140239809Y-117456000D01*
X140354095Y-117417904D01*
X140430285Y-117417904D01*
X140544571Y-117456000D01*
X140582666Y-117494095D01*
X140887428Y-117494095D02*
X140925523Y-117456000D01*
X141001714Y-117417904D01*
X141192190Y-117417904D01*
X141268380Y-117456000D01*
X141306476Y-117494095D01*
X141344571Y-117570285D01*
X141344571Y-117646476D01*
X141306476Y-117760761D01*
X140849333Y-118217904D01*
X141344571Y-118217904D01*
%TO.C,PWR1*%
X171176904Y-122478619D02*
X170376904Y-122478619D01*
X170376904Y-122173857D01*
X170415000Y-122097666D01*
X170453095Y-122059571D01*
X170529285Y-122021476D01*
X170643571Y-122021476D01*
X170719761Y-122059571D01*
X170757857Y-122097666D01*
X170795952Y-122173857D01*
X170795952Y-122478619D01*
X170376904Y-121754809D02*
X171176904Y-121564333D01*
X170605476Y-121411952D01*
X171176904Y-121259571D01*
X170376904Y-121069095D01*
X171176904Y-120307190D02*
X170795952Y-120573857D01*
X171176904Y-120764333D02*
X170376904Y-120764333D01*
X170376904Y-120459571D01*
X170415000Y-120383380D01*
X170453095Y-120345285D01*
X170529285Y-120307190D01*
X170643571Y-120307190D01*
X170719761Y-120345285D01*
X170757857Y-120383380D01*
X170795952Y-120459571D01*
X170795952Y-120764333D01*
X171176904Y-119545285D02*
X171176904Y-120002428D01*
X171176904Y-119773857D02*
X170376904Y-119773857D01*
X170491190Y-119850047D01*
X170567380Y-119926238D01*
X170605476Y-120002428D01*
%TO.C,SMALL-LCD1*%
X176879761Y-122545238D02*
X176927380Y-122402380D01*
X176927380Y-122164285D01*
X176879761Y-122069047D01*
X176832142Y-122021428D01*
X176736904Y-121973809D01*
X176641666Y-121973809D01*
X176546428Y-122021428D01*
X176498809Y-122069047D01*
X176451190Y-122164285D01*
X176403571Y-122354761D01*
X176355952Y-122450000D01*
X176308333Y-122497619D01*
X176213095Y-122545238D01*
X176117857Y-122545238D01*
X176022619Y-122497619D01*
X175975000Y-122450000D01*
X175927380Y-122354761D01*
X175927380Y-122116666D01*
X175975000Y-121973809D01*
X176927380Y-121545238D02*
X175927380Y-121545238D01*
X176641666Y-121211904D01*
X175927380Y-120878571D01*
X176927380Y-120878571D01*
X176641666Y-120450000D02*
X176641666Y-119973809D01*
X176927380Y-120545238D02*
X175927380Y-120211904D01*
X176927380Y-119878571D01*
X176927380Y-119069047D02*
X176927380Y-119545238D01*
X175927380Y-119545238D01*
X176927380Y-118259523D02*
X176927380Y-118735714D01*
X175927380Y-118735714D01*
X176546428Y-117926190D02*
X176546428Y-117164285D01*
X176927380Y-116211904D02*
X176927380Y-116688095D01*
X175927380Y-116688095D01*
X176832142Y-115307142D02*
X176879761Y-115354761D01*
X176927380Y-115497619D01*
X176927380Y-115592857D01*
X176879761Y-115735714D01*
X176784523Y-115830952D01*
X176689285Y-115878571D01*
X176498809Y-115926190D01*
X176355952Y-115926190D01*
X176165476Y-115878571D01*
X176070238Y-115830952D01*
X175975000Y-115735714D01*
X175927380Y-115592857D01*
X175927380Y-115497619D01*
X175975000Y-115354761D01*
X176022619Y-115307142D01*
X176927380Y-114878571D02*
X175927380Y-114878571D01*
X175927380Y-114640476D01*
X175975000Y-114497619D01*
X176070238Y-114402380D01*
X176165476Y-114354761D01*
X176355952Y-114307142D01*
X176498809Y-114307142D01*
X176689285Y-114354761D01*
X176784523Y-114402380D01*
X176879761Y-114497619D01*
X176927380Y-114640476D01*
X176927380Y-114878571D01*
X176927380Y-113354761D02*
X176927380Y-113926190D01*
X176927380Y-113640476D02*
X175927380Y-113640476D01*
X176070238Y-113735714D01*
X176165476Y-113830952D01*
X176213095Y-113926190D01*
%TO.C,R8*%
X157346666Y-96373904D02*
X157080000Y-95992952D01*
X156889523Y-96373904D02*
X156889523Y-95573904D01*
X157194285Y-95573904D01*
X157270476Y-95612000D01*
X157308571Y-95650095D01*
X157346666Y-95726285D01*
X157346666Y-95840571D01*
X157308571Y-95916761D01*
X157270476Y-95954857D01*
X157194285Y-95992952D01*
X156889523Y-95992952D01*
X157803809Y-95916761D02*
X157727619Y-95878666D01*
X157689523Y-95840571D01*
X157651428Y-95764380D01*
X157651428Y-95726285D01*
X157689523Y-95650095D01*
X157727619Y-95612000D01*
X157803809Y-95573904D01*
X157956190Y-95573904D01*
X158032380Y-95612000D01*
X158070476Y-95650095D01*
X158108571Y-95726285D01*
X158108571Y-95764380D01*
X158070476Y-95840571D01*
X158032380Y-95878666D01*
X157956190Y-95916761D01*
X157803809Y-95916761D01*
X157727619Y-95954857D01*
X157689523Y-95992952D01*
X157651428Y-96069142D01*
X157651428Y-96221523D01*
X157689523Y-96297714D01*
X157727619Y-96335809D01*
X157803809Y-96373904D01*
X157956190Y-96373904D01*
X158032380Y-96335809D01*
X158070476Y-96297714D01*
X158108571Y-96221523D01*
X158108571Y-96069142D01*
X158070476Y-95992952D01*
X158032380Y-95954857D01*
X157956190Y-95916761D01*
%TO.C,U2*%
X145357904Y-106781523D02*
X146005523Y-106781523D01*
X146081714Y-106743428D01*
X146119809Y-106705333D01*
X146157904Y-106629142D01*
X146157904Y-106476761D01*
X146119809Y-106400571D01*
X146081714Y-106362476D01*
X146005523Y-106324380D01*
X145357904Y-106324380D01*
X145434095Y-105981523D02*
X145396000Y-105943428D01*
X145357904Y-105867238D01*
X145357904Y-105676761D01*
X145396000Y-105600571D01*
X145434095Y-105562476D01*
X145510285Y-105524380D01*
X145586476Y-105524380D01*
X145700761Y-105562476D01*
X146157904Y-106019619D01*
X146157904Y-105524380D01*
%TO.C,R18*%
X146297714Y-97897904D02*
X146031047Y-97516952D01*
X145840571Y-97897904D02*
X145840571Y-97097904D01*
X146145333Y-97097904D01*
X146221523Y-97136000D01*
X146259619Y-97174095D01*
X146297714Y-97250285D01*
X146297714Y-97364571D01*
X146259619Y-97440761D01*
X146221523Y-97478857D01*
X146145333Y-97516952D01*
X145840571Y-97516952D01*
X147059619Y-97897904D02*
X146602476Y-97897904D01*
X146831047Y-97897904D02*
X146831047Y-97097904D01*
X146754857Y-97212190D01*
X146678666Y-97288380D01*
X146602476Y-97326476D01*
X147516761Y-97440761D02*
X147440571Y-97402666D01*
X147402476Y-97364571D01*
X147364380Y-97288380D01*
X147364380Y-97250285D01*
X147402476Y-97174095D01*
X147440571Y-97136000D01*
X147516761Y-97097904D01*
X147669142Y-97097904D01*
X147745333Y-97136000D01*
X147783428Y-97174095D01*
X147821523Y-97250285D01*
X147821523Y-97288380D01*
X147783428Y-97364571D01*
X147745333Y-97402666D01*
X147669142Y-97440761D01*
X147516761Y-97440761D01*
X147440571Y-97478857D01*
X147402476Y-97516952D01*
X147364380Y-97593142D01*
X147364380Y-97745523D01*
X147402476Y-97821714D01*
X147440571Y-97859809D01*
X147516761Y-97897904D01*
X147669142Y-97897904D01*
X147745333Y-97859809D01*
X147783428Y-97821714D01*
X147821523Y-97745523D01*
X147821523Y-97593142D01*
X147783428Y-97516952D01*
X147745333Y-97478857D01*
X147669142Y-97440761D01*
%TO.C,C3*%
X173259714Y-108527333D02*
X173297809Y-108565428D01*
X173335904Y-108679714D01*
X173335904Y-108755904D01*
X173297809Y-108870190D01*
X173221619Y-108946380D01*
X173145428Y-108984476D01*
X172993047Y-109022571D01*
X172878761Y-109022571D01*
X172726380Y-108984476D01*
X172650190Y-108946380D01*
X172574000Y-108870190D01*
X172535904Y-108755904D01*
X172535904Y-108679714D01*
X172574000Y-108565428D01*
X172612095Y-108527333D01*
X172535904Y-108260666D02*
X172535904Y-107765428D01*
X172840666Y-108032095D01*
X172840666Y-107917809D01*
X172878761Y-107841619D01*
X172916857Y-107803523D01*
X172993047Y-107765428D01*
X173183523Y-107765428D01*
X173259714Y-107803523D01*
X173297809Y-107841619D01*
X173335904Y-107917809D01*
X173335904Y-108146380D01*
X173297809Y-108222571D01*
X173259714Y-108260666D01*
%TO.C,J3*%
X117537404Y-104660666D02*
X118108833Y-104660666D01*
X118223119Y-104698761D01*
X118299309Y-104774952D01*
X118337404Y-104889238D01*
X118337404Y-104965428D01*
X117537404Y-104355904D02*
X117537404Y-103860666D01*
X117842166Y-104127333D01*
X117842166Y-104013047D01*
X117880261Y-103936857D01*
X117918357Y-103898761D01*
X117994547Y-103860666D01*
X118185023Y-103860666D01*
X118261214Y-103898761D01*
X118299309Y-103936857D01*
X118337404Y-104013047D01*
X118337404Y-104241619D01*
X118299309Y-104317809D01*
X118261214Y-104355904D01*
%TO.C,R11*%
X171824714Y-141839904D02*
X171558047Y-141458952D01*
X171367571Y-141839904D02*
X171367571Y-141039904D01*
X171672333Y-141039904D01*
X171748523Y-141078000D01*
X171786619Y-141116095D01*
X171824714Y-141192285D01*
X171824714Y-141306571D01*
X171786619Y-141382761D01*
X171748523Y-141420857D01*
X171672333Y-141458952D01*
X171367571Y-141458952D01*
X172586619Y-141839904D02*
X172129476Y-141839904D01*
X172358047Y-141839904D02*
X172358047Y-141039904D01*
X172281857Y-141154190D01*
X172205666Y-141230380D01*
X172129476Y-141268476D01*
X173348523Y-141839904D02*
X172891380Y-141839904D01*
X173119952Y-141839904D02*
X173119952Y-141039904D01*
X173043761Y-141154190D01*
X172967571Y-141230380D01*
X172891380Y-141268476D01*
%TO.C,Y1*%
X158180952Y-104980952D02*
X158561904Y-104980952D01*
X157761904Y-105247619D02*
X158180952Y-104980952D01*
X157761904Y-104714285D01*
X158561904Y-104028571D02*
X158561904Y-104485714D01*
X158561904Y-104257142D02*
X157761904Y-104257142D01*
X157876190Y-104333333D01*
X157952380Y-104409523D01*
X157990476Y-104485714D01*
%TO.C,J2*%
X175961904Y-110566666D02*
X176533333Y-110566666D01*
X176647619Y-110604761D01*
X176723809Y-110680952D01*
X176761904Y-110795238D01*
X176761904Y-110871428D01*
X176038095Y-110223809D02*
X176000000Y-110185714D01*
X175961904Y-110109523D01*
X175961904Y-109919047D01*
X176000000Y-109842857D01*
X176038095Y-109804761D01*
X176114285Y-109766666D01*
X176190476Y-109766666D01*
X176304761Y-109804761D01*
X176761904Y-110261904D01*
X176761904Y-109766666D01*
%TO.C,EXP2*%
X171640666Y-124402857D02*
X171907333Y-124402857D01*
X172021619Y-124821904D02*
X171640666Y-124821904D01*
X171640666Y-124021904D01*
X172021619Y-124021904D01*
X172288285Y-124021904D02*
X172821619Y-124821904D01*
X172821619Y-124021904D02*
X172288285Y-124821904D01*
X173126380Y-124821904D02*
X173126380Y-124021904D01*
X173431142Y-124021904D01*
X173507333Y-124060000D01*
X173545428Y-124098095D01*
X173583523Y-124174285D01*
X173583523Y-124288571D01*
X173545428Y-124364761D01*
X173507333Y-124402857D01*
X173431142Y-124440952D01*
X173126380Y-124440952D01*
X173888285Y-124098095D02*
X173926380Y-124060000D01*
X174002571Y-124021904D01*
X174193047Y-124021904D01*
X174269238Y-124060000D01*
X174307333Y-124098095D01*
X174345428Y-124174285D01*
X174345428Y-124250476D01*
X174307333Y-124364761D01*
X173850190Y-124821904D01*
X174345428Y-124821904D01*
%TO.C,R7*%
X160775666Y-124313904D02*
X160509000Y-123932952D01*
X160318523Y-124313904D02*
X160318523Y-123513904D01*
X160623285Y-123513904D01*
X160699476Y-123552000D01*
X160737571Y-123590095D01*
X160775666Y-123666285D01*
X160775666Y-123780571D01*
X160737571Y-123856761D01*
X160699476Y-123894857D01*
X160623285Y-123932952D01*
X160318523Y-123932952D01*
X161042333Y-123513904D02*
X161575666Y-123513904D01*
X161232809Y-124313904D01*
%TO.C,UART1*%
X130948180Y-114136228D02*
X131757704Y-114136228D01*
X131852942Y-114088609D01*
X131900561Y-114040990D01*
X131948180Y-113945752D01*
X131948180Y-113755276D01*
X131900561Y-113660038D01*
X131852942Y-113612419D01*
X131757704Y-113564800D01*
X130948180Y-113564800D01*
X131662466Y-113136228D02*
X131662466Y-112660038D01*
X131948180Y-113231466D02*
X130948180Y-112898133D01*
X131948180Y-112564800D01*
X131948180Y-111660038D02*
X131471990Y-111993371D01*
X131948180Y-112231466D02*
X130948180Y-112231466D01*
X130948180Y-111850514D01*
X130995800Y-111755276D01*
X131043419Y-111707657D01*
X131138657Y-111660038D01*
X131281514Y-111660038D01*
X131376752Y-111707657D01*
X131424371Y-111755276D01*
X131471990Y-111850514D01*
X131471990Y-112231466D01*
X130948180Y-111374323D02*
X130948180Y-110802895D01*
X131948180Y-111088609D02*
X130948180Y-111088609D01*
X131948180Y-109945752D02*
X131948180Y-110517180D01*
X131948180Y-110231466D02*
X130948180Y-110231466D01*
X131091038Y-110326704D01*
X131186276Y-110421942D01*
X131233895Y-110517180D01*
%TO.C,R15*%
X119011904Y-112709285D02*
X118630952Y-112975952D01*
X119011904Y-113166428D02*
X118211904Y-113166428D01*
X118211904Y-112861666D01*
X118250000Y-112785476D01*
X118288095Y-112747380D01*
X118364285Y-112709285D01*
X118478571Y-112709285D01*
X118554761Y-112747380D01*
X118592857Y-112785476D01*
X118630952Y-112861666D01*
X118630952Y-113166428D01*
X119011904Y-111947380D02*
X119011904Y-112404523D01*
X119011904Y-112175952D02*
X118211904Y-112175952D01*
X118326190Y-112252142D01*
X118402380Y-112328333D01*
X118440476Y-112404523D01*
X118211904Y-111223571D02*
X118211904Y-111604523D01*
X118592857Y-111642619D01*
X118554761Y-111604523D01*
X118516666Y-111528333D01*
X118516666Y-111337857D01*
X118554761Y-111261666D01*
X118592857Y-111223571D01*
X118669047Y-111185476D01*
X118859523Y-111185476D01*
X118935714Y-111223571D01*
X118973809Y-111261666D01*
X119011904Y-111337857D01*
X119011904Y-111528333D01*
X118973809Y-111604523D01*
X118935714Y-111642619D01*
%TO.C,C1*%
X152012666Y-119157714D02*
X151974571Y-119195809D01*
X151860285Y-119233904D01*
X151784095Y-119233904D01*
X151669809Y-119195809D01*
X151593619Y-119119619D01*
X151555523Y-119043428D01*
X151517428Y-118891047D01*
X151517428Y-118776761D01*
X151555523Y-118624380D01*
X151593619Y-118548190D01*
X151669809Y-118472000D01*
X151784095Y-118433904D01*
X151860285Y-118433904D01*
X151974571Y-118472000D01*
X152012666Y-118510095D01*
X152774571Y-119233904D02*
X152317428Y-119233904D01*
X152546000Y-119233904D02*
X152546000Y-118433904D01*
X152469809Y-118548190D01*
X152393619Y-118624380D01*
X152317428Y-118662476D01*
%TO.C,R14*%
X135997904Y-98050285D02*
X135616952Y-98316952D01*
X135997904Y-98507428D02*
X135197904Y-98507428D01*
X135197904Y-98202666D01*
X135236000Y-98126476D01*
X135274095Y-98088380D01*
X135350285Y-98050285D01*
X135464571Y-98050285D01*
X135540761Y-98088380D01*
X135578857Y-98126476D01*
X135616952Y-98202666D01*
X135616952Y-98507428D01*
X135997904Y-97288380D02*
X135997904Y-97745523D01*
X135997904Y-97516952D02*
X135197904Y-97516952D01*
X135312190Y-97593142D01*
X135388380Y-97669333D01*
X135426476Y-97745523D01*
X135464571Y-96602666D02*
X135997904Y-96602666D01*
X135159809Y-96793142D02*
X135731238Y-96983619D01*
X135731238Y-96488380D01*
%TO.C,U3*%
X160089904Y-141325523D02*
X160737523Y-141325523D01*
X160813714Y-141287428D01*
X160851809Y-141249333D01*
X160889904Y-141173142D01*
X160889904Y-141020761D01*
X160851809Y-140944571D01*
X160813714Y-140906476D01*
X160737523Y-140868380D01*
X160089904Y-140868380D01*
X160089904Y-140563619D02*
X160089904Y-140068380D01*
X160394666Y-140335047D01*
X160394666Y-140220761D01*
X160432761Y-140144571D01*
X160470857Y-140106476D01*
X160547047Y-140068380D01*
X160737523Y-140068380D01*
X160813714Y-140106476D01*
X160851809Y-140144571D01*
X160889904Y-140220761D01*
X160889904Y-140449333D01*
X160851809Y-140525523D01*
X160813714Y-140563619D01*
%TO.C,PS1*%
X126663571Y-138664904D02*
X126663571Y-137864904D01*
X126968333Y-137864904D01*
X127044523Y-137903000D01*
X127082619Y-137941095D01*
X127120714Y-138017285D01*
X127120714Y-138131571D01*
X127082619Y-138207761D01*
X127044523Y-138245857D01*
X126968333Y-138283952D01*
X126663571Y-138283952D01*
X127425476Y-138626809D02*
X127539761Y-138664904D01*
X127730238Y-138664904D01*
X127806428Y-138626809D01*
X127844523Y-138588714D01*
X127882619Y-138512523D01*
X127882619Y-138436333D01*
X127844523Y-138360142D01*
X127806428Y-138322047D01*
X127730238Y-138283952D01*
X127577857Y-138245857D01*
X127501666Y-138207761D01*
X127463571Y-138169666D01*
X127425476Y-138093476D01*
X127425476Y-138017285D01*
X127463571Y-137941095D01*
X127501666Y-137903000D01*
X127577857Y-137864904D01*
X127768333Y-137864904D01*
X127882619Y-137903000D01*
X128644523Y-138664904D02*
X128187380Y-138664904D01*
X128415952Y-138664904D02*
X128415952Y-137864904D01*
X128339761Y-137979190D01*
X128263571Y-138055380D01*
X128187380Y-138093476D01*
%TO.C,R16*%
X119011904Y-108899285D02*
X118630952Y-109165952D01*
X119011904Y-109356428D02*
X118211904Y-109356428D01*
X118211904Y-109051666D01*
X118250000Y-108975476D01*
X118288095Y-108937380D01*
X118364285Y-108899285D01*
X118478571Y-108899285D01*
X118554761Y-108937380D01*
X118592857Y-108975476D01*
X118630952Y-109051666D01*
X118630952Y-109356428D01*
X119011904Y-108137380D02*
X119011904Y-108594523D01*
X119011904Y-108365952D02*
X118211904Y-108365952D01*
X118326190Y-108442142D01*
X118402380Y-108518333D01*
X118440476Y-108594523D01*
X118211904Y-107451666D02*
X118211904Y-107604047D01*
X118250000Y-107680238D01*
X118288095Y-107718333D01*
X118402380Y-107794523D01*
X118554761Y-107832619D01*
X118859523Y-107832619D01*
X118935714Y-107794523D01*
X118973809Y-107756428D01*
X119011904Y-107680238D01*
X119011904Y-107527857D01*
X118973809Y-107451666D01*
X118935714Y-107413571D01*
X118859523Y-107375476D01*
X118669047Y-107375476D01*
X118592857Y-107413571D01*
X118554761Y-107451666D01*
X118516666Y-107527857D01*
X118516666Y-107680238D01*
X118554761Y-107756428D01*
X118592857Y-107794523D01*
X118669047Y-107832619D01*
%TO.C,ISP1*%
X154873904Y-115964904D02*
X154073904Y-115964904D01*
X154835809Y-115622047D02*
X154873904Y-115507761D01*
X154873904Y-115317285D01*
X154835809Y-115241095D01*
X154797714Y-115203000D01*
X154721523Y-115164904D01*
X154645333Y-115164904D01*
X154569142Y-115203000D01*
X154531047Y-115241095D01*
X154492952Y-115317285D01*
X154454857Y-115469666D01*
X154416761Y-115545857D01*
X154378666Y-115583952D01*
X154302476Y-115622047D01*
X154226285Y-115622047D01*
X154150095Y-115583952D01*
X154112000Y-115545857D01*
X154073904Y-115469666D01*
X154073904Y-115279190D01*
X154112000Y-115164904D01*
X154873904Y-114822047D02*
X154073904Y-114822047D01*
X154073904Y-114517285D01*
X154112000Y-114441095D01*
X154150095Y-114403000D01*
X154226285Y-114364904D01*
X154340571Y-114364904D01*
X154416761Y-114403000D01*
X154454857Y-114441095D01*
X154492952Y-114517285D01*
X154492952Y-114822047D01*
X154873904Y-113603000D02*
X154873904Y-114060142D01*
X154873904Y-113831571D02*
X154073904Y-113831571D01*
X154188190Y-113907761D01*
X154264380Y-113983952D01*
X154302476Y-114060142D01*
%TO.C,Q1*%
X151060095Y-84658190D02*
X151022000Y-84734380D01*
X150945809Y-84810571D01*
X150831523Y-84924857D01*
X150793428Y-85001047D01*
X150793428Y-85077238D01*
X150983904Y-85039142D02*
X150945809Y-85115333D01*
X150869619Y-85191523D01*
X150717238Y-85229619D01*
X150450571Y-85229619D01*
X150298190Y-85191523D01*
X150222000Y-85115333D01*
X150183904Y-85039142D01*
X150183904Y-84886761D01*
X150222000Y-84810571D01*
X150298190Y-84734380D01*
X150450571Y-84696285D01*
X150717238Y-84696285D01*
X150869619Y-84734380D01*
X150945809Y-84810571D01*
X150983904Y-84886761D01*
X150983904Y-85039142D01*
X150983904Y-83934380D02*
X150983904Y-84391523D01*
X150983904Y-84162952D02*
X150183904Y-84162952D01*
X150298190Y-84239142D01*
X150374380Y-84315333D01*
X150412476Y-84391523D01*
%TO.C,Q2*%
X124891809Y-87306095D02*
X124815619Y-87268000D01*
X124739428Y-87191809D01*
X124625142Y-87077523D01*
X124548952Y-87039428D01*
X124472761Y-87039428D01*
X124510857Y-87229904D02*
X124434666Y-87191809D01*
X124358476Y-87115619D01*
X124320380Y-86963238D01*
X124320380Y-86696571D01*
X124358476Y-86544190D01*
X124434666Y-86468000D01*
X124510857Y-86429904D01*
X124663238Y-86429904D01*
X124739428Y-86468000D01*
X124815619Y-86544190D01*
X124853714Y-86696571D01*
X124853714Y-86963238D01*
X124815619Y-87115619D01*
X124739428Y-87191809D01*
X124663238Y-87229904D01*
X124510857Y-87229904D01*
X125158476Y-86506095D02*
X125196571Y-86468000D01*
X125272761Y-86429904D01*
X125463238Y-86429904D01*
X125539428Y-86468000D01*
X125577523Y-86506095D01*
X125615619Y-86582285D01*
X125615619Y-86658476D01*
X125577523Y-86772761D01*
X125120380Y-87229904D01*
X125615619Y-87229904D01*
%TO.C,U1*%
X167815476Y-107136904D02*
X167815476Y-107784523D01*
X167853571Y-107860714D01*
X167891666Y-107898809D01*
X167967857Y-107936904D01*
X168120238Y-107936904D01*
X168196428Y-107898809D01*
X168234523Y-107860714D01*
X168272619Y-107784523D01*
X168272619Y-107136904D01*
X169072619Y-107936904D02*
X168615476Y-107936904D01*
X168844047Y-107936904D02*
X168844047Y-107136904D01*
X168767857Y-107251190D01*
X168691666Y-107327380D01*
X168615476Y-107365476D01*
%TO.C,R17*%
X141471714Y-116058904D02*
X141205047Y-115677952D01*
X141014571Y-116058904D02*
X141014571Y-115258904D01*
X141319333Y-115258904D01*
X141395523Y-115297000D01*
X141433619Y-115335095D01*
X141471714Y-115411285D01*
X141471714Y-115525571D01*
X141433619Y-115601761D01*
X141395523Y-115639857D01*
X141319333Y-115677952D01*
X141014571Y-115677952D01*
X142233619Y-116058904D02*
X141776476Y-116058904D01*
X142005047Y-116058904D02*
X142005047Y-115258904D01*
X141928857Y-115373190D01*
X141852666Y-115449380D01*
X141776476Y-115487476D01*
X142500285Y-115258904D02*
X143033619Y-115258904D01*
X142690761Y-116058904D01*
%TO.C,C7*%
X152012666Y-96297714D02*
X151974571Y-96335809D01*
X151860285Y-96373904D01*
X151784095Y-96373904D01*
X151669809Y-96335809D01*
X151593619Y-96259619D01*
X151555523Y-96183428D01*
X151517428Y-96031047D01*
X151517428Y-95916761D01*
X151555523Y-95764380D01*
X151593619Y-95688190D01*
X151669809Y-95612000D01*
X151784095Y-95573904D01*
X151860285Y-95573904D01*
X151974571Y-95612000D01*
X152012666Y-95650095D01*
X152279333Y-95573904D02*
X152812666Y-95573904D01*
X152469809Y-96373904D01*
%TO.C,R3*%
X155505104Y-105796609D02*
X155124152Y-106063276D01*
X155505104Y-106253752D02*
X154705104Y-106253752D01*
X154705104Y-105948990D01*
X154743200Y-105872799D01*
X154781295Y-105834704D01*
X154857485Y-105796609D01*
X154971771Y-105796609D01*
X155047961Y-105834704D01*
X155086057Y-105872799D01*
X155124152Y-105948990D01*
X155124152Y-106253752D01*
X154705104Y-105529942D02*
X154705104Y-105034704D01*
X155009866Y-105301371D01*
X155009866Y-105187085D01*
X155047961Y-105110895D01*
X155086057Y-105072799D01*
X155162247Y-105034704D01*
X155352723Y-105034704D01*
X155428914Y-105072799D01*
X155467009Y-105110895D01*
X155505104Y-105187085D01*
X155505104Y-105415656D01*
X155467009Y-105491847D01*
X155428914Y-105529942D01*
%TO.C,D1*%
X161397904Y-91522476D02*
X160597904Y-91522476D01*
X160597904Y-91332000D01*
X160636000Y-91217714D01*
X160712190Y-91141523D01*
X160788380Y-91103428D01*
X160940761Y-91065333D01*
X161055047Y-91065333D01*
X161207428Y-91103428D01*
X161283619Y-91141523D01*
X161359809Y-91217714D01*
X161397904Y-91332000D01*
X161397904Y-91522476D01*
X161397904Y-90303428D02*
X161397904Y-90760571D01*
X161397904Y-90532000D02*
X160597904Y-90532000D01*
X160712190Y-90608190D01*
X160788380Y-90684380D01*
X160826476Y-90760571D01*
%TO.C,J1*%
X139966733Y-138220504D02*
X139966733Y-138791933D01*
X139928638Y-138906219D01*
X139852447Y-138982409D01*
X139738161Y-139020504D01*
X139661971Y-139020504D01*
X140766733Y-139020504D02*
X140309590Y-139020504D01*
X140538161Y-139020504D02*
X140538161Y-138220504D01*
X140461971Y-138334790D01*
X140385780Y-138410980D01*
X140309590Y-138449076D01*
%TO.C,C4*%
X155060666Y-120427714D02*
X155022571Y-120465809D01*
X154908285Y-120503904D01*
X154832095Y-120503904D01*
X154717809Y-120465809D01*
X154641619Y-120389619D01*
X154603523Y-120313428D01*
X154565428Y-120161047D01*
X154565428Y-120046761D01*
X154603523Y-119894380D01*
X154641619Y-119818190D01*
X154717809Y-119742000D01*
X154832095Y-119703904D01*
X154908285Y-119703904D01*
X155022571Y-119742000D01*
X155060666Y-119780095D01*
X155746380Y-119970571D02*
X155746380Y-120503904D01*
X155555904Y-119665809D02*
X155365428Y-120237238D01*
X155860666Y-120237238D01*
%TO.C,R4*%
X173335904Y-104527333D02*
X172954952Y-104794000D01*
X173335904Y-104984476D02*
X172535904Y-104984476D01*
X172535904Y-104679714D01*
X172574000Y-104603523D01*
X172612095Y-104565428D01*
X172688285Y-104527333D01*
X172802571Y-104527333D01*
X172878761Y-104565428D01*
X172916857Y-104603523D01*
X172954952Y-104679714D01*
X172954952Y-104984476D01*
X172802571Y-103841619D02*
X173335904Y-103841619D01*
X172497809Y-104032095D02*
X173069238Y-104222571D01*
X173069238Y-103727333D01*
%TO.C,R9*%
X154806666Y-124059904D02*
X154540000Y-123678952D01*
X154349523Y-124059904D02*
X154349523Y-123259904D01*
X154654285Y-123259904D01*
X154730476Y-123298000D01*
X154768571Y-123336095D01*
X154806666Y-123412285D01*
X154806666Y-123526571D01*
X154768571Y-123602761D01*
X154730476Y-123640857D01*
X154654285Y-123678952D01*
X154349523Y-123678952D01*
X155187619Y-124059904D02*
X155340000Y-124059904D01*
X155416190Y-124021809D01*
X155454285Y-123983714D01*
X155530476Y-123869428D01*
X155568571Y-123717047D01*
X155568571Y-123412285D01*
X155530476Y-123336095D01*
X155492380Y-123298000D01*
X155416190Y-123259904D01*
X155263809Y-123259904D01*
X155187619Y-123298000D01*
X155149523Y-123336095D01*
X155111428Y-123412285D01*
X155111428Y-123602761D01*
X155149523Y-123678952D01*
X155187619Y-123717047D01*
X155263809Y-123755142D01*
X155416190Y-123755142D01*
X155492380Y-123717047D01*
X155530476Y-123678952D01*
X155568571Y-123602761D01*
%TO.C,C6*%
X172459666Y-143541714D02*
X172421571Y-143579809D01*
X172307285Y-143617904D01*
X172231095Y-143617904D01*
X172116809Y-143579809D01*
X172040619Y-143503619D01*
X172002523Y-143427428D01*
X171964428Y-143275047D01*
X171964428Y-143160761D01*
X172002523Y-143008380D01*
X172040619Y-142932190D01*
X172116809Y-142856000D01*
X172231095Y-142817904D01*
X172307285Y-142817904D01*
X172421571Y-142856000D01*
X172459666Y-142894095D01*
X173145380Y-142817904D02*
X172993000Y-142817904D01*
X172916809Y-142856000D01*
X172878714Y-142894095D01*
X172802523Y-143008380D01*
X172764428Y-143160761D01*
X172764428Y-143465523D01*
X172802523Y-143541714D01*
X172840619Y-143579809D01*
X172916809Y-143617904D01*
X173069190Y-143617904D01*
X173145380Y-143579809D01*
X173183476Y-143541714D01*
X173221571Y-143465523D01*
X173221571Y-143275047D01*
X173183476Y-143198857D01*
X173145380Y-143160761D01*
X173069190Y-143122666D01*
X172916809Y-143122666D01*
X172840619Y-143160761D01*
X172802523Y-143198857D01*
X172764428Y-143275047D01*
%TO.C,U4*%
X144722904Y-109600923D02*
X145370523Y-109600923D01*
X145446714Y-109562828D01*
X145484809Y-109524733D01*
X145522904Y-109448542D01*
X145522904Y-109296161D01*
X145484809Y-109219971D01*
X145446714Y-109181876D01*
X145370523Y-109143780D01*
X144722904Y-109143780D01*
X144989571Y-108419971D02*
X145522904Y-108419971D01*
X144684809Y-108610447D02*
X145256238Y-108800923D01*
X145256238Y-108305685D01*
%TO.C,R10*%
X135997904Y-100844285D02*
X135616952Y-101110952D01*
X135997904Y-101301428D02*
X135197904Y-101301428D01*
X135197904Y-100996666D01*
X135236000Y-100920476D01*
X135274095Y-100882380D01*
X135350285Y-100844285D01*
X135464571Y-100844285D01*
X135540761Y-100882380D01*
X135578857Y-100920476D01*
X135616952Y-100996666D01*
X135616952Y-101301428D01*
X135997904Y-100082380D02*
X135997904Y-100539523D01*
X135997904Y-100310952D02*
X135197904Y-100310952D01*
X135312190Y-100387142D01*
X135388380Y-100463333D01*
X135426476Y-100539523D01*
X135197904Y-99587142D02*
X135197904Y-99510952D01*
X135236000Y-99434761D01*
X135274095Y-99396666D01*
X135350285Y-99358571D01*
X135502666Y-99320476D01*
X135693142Y-99320476D01*
X135845523Y-99358571D01*
X135921714Y-99396666D01*
X135959809Y-99434761D01*
X135997904Y-99510952D01*
X135997904Y-99587142D01*
X135959809Y-99663333D01*
X135921714Y-99701428D01*
X135845523Y-99739523D01*
X135693142Y-99777619D01*
X135502666Y-99777619D01*
X135350285Y-99739523D01*
X135274095Y-99701428D01*
X135236000Y-99663333D01*
X135197904Y-99587142D01*
%TO.C,R5*%
X173335904Y-106527333D02*
X172954952Y-106794000D01*
X173335904Y-106984476D02*
X172535904Y-106984476D01*
X172535904Y-106679714D01*
X172574000Y-106603523D01*
X172612095Y-106565428D01*
X172688285Y-106527333D01*
X172802571Y-106527333D01*
X172878761Y-106565428D01*
X172916857Y-106603523D01*
X172954952Y-106679714D01*
X172954952Y-106984476D01*
X172535904Y-105803523D02*
X172535904Y-106184476D01*
X172916857Y-106222571D01*
X172878761Y-106184476D01*
X172840666Y-106108285D01*
X172840666Y-105917809D01*
X172878761Y-105841619D01*
X172916857Y-105803523D01*
X172993047Y-105765428D01*
X173183523Y-105765428D01*
X173259714Y-105803523D01*
X173297809Y-105841619D01*
X173335904Y-105917809D01*
X173335904Y-106108285D01*
X173297809Y-106184476D01*
X173259714Y-106222571D01*
%TO.C,R13*%
X154425714Y-122281904D02*
X154159047Y-121900952D01*
X153968571Y-122281904D02*
X153968571Y-121481904D01*
X154273333Y-121481904D01*
X154349523Y-121520000D01*
X154387619Y-121558095D01*
X154425714Y-121634285D01*
X154425714Y-121748571D01*
X154387619Y-121824761D01*
X154349523Y-121862857D01*
X154273333Y-121900952D01*
X153968571Y-121900952D01*
X155187619Y-122281904D02*
X154730476Y-122281904D01*
X154959047Y-122281904D02*
X154959047Y-121481904D01*
X154882857Y-121596190D01*
X154806666Y-121672380D01*
X154730476Y-121710476D01*
X155454285Y-121481904D02*
X155949523Y-121481904D01*
X155682857Y-121786666D01*
X155797142Y-121786666D01*
X155873333Y-121824761D01*
X155911428Y-121862857D01*
X155949523Y-121939047D01*
X155949523Y-122129523D01*
X155911428Y-122205714D01*
X155873333Y-122243809D01*
X155797142Y-122281904D01*
X155568571Y-122281904D01*
X155492380Y-122243809D01*
X155454285Y-122205714D01*
D11*
%TO.C,D3*%
X128946000Y-101894000D02*
X124546000Y-101894000D01*
X128946000Y-103594000D02*
X128946000Y-105194000D01*
X124546000Y-103594000D02*
X124546000Y-105194000D01*
X128946000Y-102694000D02*
X128946000Y-101894000D01*
X124546000Y-102394000D02*
X123146000Y-102394000D01*
X124546000Y-101894000D02*
X124546000Y-102394000D01*
X128946000Y-106094000D02*
X128946000Y-106894000D01*
X124546000Y-106894000D02*
X124546000Y-106094000D01*
X128946000Y-106894000D02*
X124546000Y-106894000D01*
%TO.C,R2*%
X173365900Y-121311124D02*
X173365900Y-120801676D01*
X174410900Y-121311124D02*
X174410900Y-120801676D01*
%TO.C,REF\u002A\u002A*%
G36*
X122309402Y-140550059D02*
G01*
X122345386Y-140371332D01*
X122395359Y-140209845D01*
X122459268Y-140065726D01*
X122537062Y-139939106D01*
X122628689Y-139830115D01*
X122734097Y-139738883D01*
X122779262Y-139707932D01*
X122880211Y-139651785D01*
X122983501Y-139612174D01*
X123093589Y-139588014D01*
X123214930Y-139578219D01*
X123307436Y-139579265D01*
X123437090Y-139590231D01*
X123549684Y-139612046D01*
X123648475Y-139645714D01*
X123736721Y-139692236D01*
X123785586Y-139726448D01*
X123814953Y-139748362D01*
X123836643Y-139763333D01*
X123844853Y-139767733D01*
X123846468Y-139756904D01*
X123847759Y-139726251D01*
X123848738Y-139678526D01*
X123849417Y-139616479D01*
X123849810Y-139542862D01*
X123849930Y-139460427D01*
X123849788Y-139371925D01*
X123849397Y-139280107D01*
X123848771Y-139187724D01*
X123847920Y-139097528D01*
X123846860Y-139012271D01*
X123845601Y-138934703D01*
X123844156Y-138867576D01*
X123842538Y-138813641D01*
X123840761Y-138775650D01*
X123840269Y-138768667D01*
X123832692Y-138698251D01*
X123821131Y-138643102D01*
X123803392Y-138595981D01*
X123777282Y-138549647D01*
X123771015Y-138540067D01*
X123746583Y-138503378D01*
X124651911Y-138503378D01*
X124652107Y-140188245D01*
X124652126Y-140422662D01*
X124652152Y-140635603D01*
X124652225Y-140828168D01*
X124652382Y-141001459D01*
X124652664Y-141156576D01*
X124653109Y-141294620D01*
X124653756Y-141416692D01*
X124654645Y-141523894D01*
X124655813Y-141617326D01*
X124657301Y-141698090D01*
X124659146Y-141767286D01*
X124661389Y-141826015D01*
X124664069Y-141875379D01*
X124667223Y-141916478D01*
X124670892Y-141950413D01*
X124675113Y-141978286D01*
X124679927Y-142001198D01*
X124685373Y-142020249D01*
X124691488Y-142036540D01*
X124698312Y-142051173D01*
X124705885Y-142065249D01*
X124714245Y-142079868D01*
X124719439Y-142088974D01*
X124753704Y-142149689D01*
X123895555Y-142149689D01*
X123895555Y-142053733D01*
X123894824Y-142010370D01*
X123892872Y-141977205D01*
X123890063Y-141959424D01*
X123888821Y-141957778D01*
X123877399Y-141964662D01*
X123854684Y-141982505D01*
X123831985Y-142001879D01*
X123777400Y-142042614D01*
X123707921Y-142083617D01*
X123630870Y-142121123D01*
X123553565Y-142151364D01*
X123522713Y-142161012D01*
X123454216Y-142175578D01*
X123371364Y-142185539D01*
X123281971Y-142190583D01*
X123193848Y-142190396D01*
X123114807Y-142184666D01*
X123077111Y-142178858D01*
X122939014Y-142140797D01*
X122811713Y-142083073D01*
X122695892Y-142006211D01*
X122592237Y-141910739D01*
X122501433Y-141797179D01*
X122434631Y-141686381D01*
X122379764Y-141569625D01*
X122337763Y-141450276D01*
X122307767Y-141324283D01*
X122288911Y-141187594D01*
X122280332Y-141036158D01*
X122279606Y-140958711D01*
X122281700Y-140901934D01*
X123110817Y-140901934D01*
X123111024Y-140995002D01*
X123113937Y-141082692D01*
X123119600Y-141159772D01*
X123128055Y-141221009D01*
X123130638Y-141233350D01*
X123162440Y-141340633D01*
X123204098Y-141427658D01*
X123255963Y-141494642D01*
X123318381Y-141541805D01*
X123391700Y-141569365D01*
X123476269Y-141577541D01*
X123572435Y-141566551D01*
X123635911Y-141550829D01*
X123685054Y-141532639D01*
X123739183Y-141506791D01*
X123779844Y-141483089D01*
X123850400Y-141436721D01*
X123850400Y-140286530D01*
X123782992Y-140242962D01*
X123704467Y-140202040D01*
X123620281Y-140175389D01*
X123535157Y-140163465D01*
X123453816Y-140166722D01*
X123380980Y-140185615D01*
X123349026Y-140201184D01*
X123291101Y-140244181D01*
X123242144Y-140300953D01*
X123200990Y-140373575D01*
X123166474Y-140464121D01*
X123137433Y-140574666D01*
X123136152Y-140580533D01*
X123125981Y-140642788D01*
X123118339Y-140720594D01*
X123113270Y-140808720D01*
X123110817Y-140901934D01*
X122281700Y-140901934D01*
X122287457Y-140745895D01*
X122309402Y-140550059D01*
G37*
D13*
X122309402Y-140550059D02*
X122345386Y-140371332D01*
X122395359Y-140209845D01*
X122459268Y-140065726D01*
X122537062Y-139939106D01*
X122628689Y-139830115D01*
X122734097Y-139738883D01*
X122779262Y-139707932D01*
X122880211Y-139651785D01*
X122983501Y-139612174D01*
X123093589Y-139588014D01*
X123214930Y-139578219D01*
X123307436Y-139579265D01*
X123437090Y-139590231D01*
X123549684Y-139612046D01*
X123648475Y-139645714D01*
X123736721Y-139692236D01*
X123785586Y-139726448D01*
X123814953Y-139748362D01*
X123836643Y-139763333D01*
X123844853Y-139767733D01*
X123846468Y-139756904D01*
X123847759Y-139726251D01*
X123848738Y-139678526D01*
X123849417Y-139616479D01*
X123849810Y-139542862D01*
X123849930Y-139460427D01*
X123849788Y-139371925D01*
X123849397Y-139280107D01*
X123848771Y-139187724D01*
X123847920Y-139097528D01*
X123846860Y-139012271D01*
X123845601Y-138934703D01*
X123844156Y-138867576D01*
X123842538Y-138813641D01*
X123840761Y-138775650D01*
X123840269Y-138768667D01*
X123832692Y-138698251D01*
X123821131Y-138643102D01*
X123803392Y-138595981D01*
X123777282Y-138549647D01*
X123771015Y-138540067D01*
X123746583Y-138503378D01*
X124651911Y-138503378D01*
X124652107Y-140188245D01*
X124652126Y-140422662D01*
X124652152Y-140635603D01*
X124652225Y-140828168D01*
X124652382Y-141001459D01*
X124652664Y-141156576D01*
X124653109Y-141294620D01*
X124653756Y-141416692D01*
X124654645Y-141523894D01*
X124655813Y-141617326D01*
X124657301Y-141698090D01*
X124659146Y-141767286D01*
X124661389Y-141826015D01*
X124664069Y-141875379D01*
X124667223Y-141916478D01*
X124670892Y-141950413D01*
X124675113Y-141978286D01*
X124679927Y-142001198D01*
X124685373Y-142020249D01*
X124691488Y-142036540D01*
X124698312Y-142051173D01*
X124705885Y-142065249D01*
X124714245Y-142079868D01*
X124719439Y-142088974D01*
X124753704Y-142149689D01*
X123895555Y-142149689D01*
X123895555Y-142053733D01*
X123894824Y-142010370D01*
X123892872Y-141977205D01*
X123890063Y-141959424D01*
X123888821Y-141957778D01*
X123877399Y-141964662D01*
X123854684Y-141982505D01*
X123831985Y-142001879D01*
X123777400Y-142042614D01*
X123707921Y-142083617D01*
X123630870Y-142121123D01*
X123553565Y-142151364D01*
X123522713Y-142161012D01*
X123454216Y-142175578D01*
X123371364Y-142185539D01*
X123281971Y-142190583D01*
X123193848Y-142190396D01*
X123114807Y-142184666D01*
X123077111Y-142178858D01*
X122939014Y-142140797D01*
X122811713Y-142083073D01*
X122695892Y-142006211D01*
X122592237Y-141910739D01*
X122501433Y-141797179D01*
X122434631Y-141686381D01*
X122379764Y-141569625D01*
X122337763Y-141450276D01*
X122307767Y-141324283D01*
X122288911Y-141187594D01*
X122280332Y-141036158D01*
X122279606Y-140958711D01*
X122281700Y-140901934D01*
X123110817Y-140901934D01*
X123111024Y-140995002D01*
X123113937Y-141082692D01*
X123119600Y-141159772D01*
X123128055Y-141221009D01*
X123130638Y-141233350D01*
X123162440Y-141340633D01*
X123204098Y-141427658D01*
X123255963Y-141494642D01*
X123318381Y-141541805D01*
X123391700Y-141569365D01*
X123476269Y-141577541D01*
X123572435Y-141566551D01*
X123635911Y-141550829D01*
X123685054Y-141532639D01*
X123739183Y-141506791D01*
X123779844Y-141483089D01*
X123850400Y-141436721D01*
X123850400Y-140286530D01*
X123782992Y-140242962D01*
X123704467Y-140202040D01*
X123620281Y-140175389D01*
X123535157Y-140163465D01*
X123453816Y-140166722D01*
X123380980Y-140185615D01*
X123349026Y-140201184D01*
X123291101Y-140244181D01*
X123242144Y-140300953D01*
X123200990Y-140373575D01*
X123166474Y-140464121D01*
X123137433Y-140574666D01*
X123136152Y-140580533D01*
X123125981Y-140642788D01*
X123118339Y-140720594D01*
X123113270Y-140808720D01*
X123110817Y-140901934D01*
X122281700Y-140901934D01*
X122287457Y-140745895D01*
X122309402Y-140550059D01*
G36*
X123428665Y-142985163D02*
G01*
X123507372Y-142985542D01*
X123568463Y-142986333D01*
X123614417Y-142987670D01*
X123647714Y-142989683D01*
X123670836Y-142992506D01*
X123686262Y-142996269D01*
X123696471Y-143001105D01*
X123701413Y-143004822D01*
X123727057Y-143037358D01*
X123730159Y-143071138D01*
X123714311Y-143101826D01*
X123703948Y-143114089D01*
X123692796Y-143122450D01*
X123676635Y-143127657D01*
X123651242Y-143130457D01*
X123612398Y-143131596D01*
X123555880Y-143131821D01*
X123544780Y-143131822D01*
X123398844Y-143131822D01*
X123398844Y-143402756D01*
X123398748Y-143488154D01*
X123398311Y-143553864D01*
X123397312Y-143602774D01*
X123395528Y-143637773D01*
X123392737Y-143661749D01*
X123388717Y-143677593D01*
X123383245Y-143688191D01*
X123376266Y-143696267D01*
X123343334Y-143716112D01*
X123308954Y-143714548D01*
X123277776Y-143691906D01*
X123275486Y-143689100D01*
X123268029Y-143678492D01*
X123262347Y-143666081D01*
X123258201Y-143648850D01*
X123255350Y-143623784D01*
X123253554Y-143587867D01*
X123252572Y-143538083D01*
X123252164Y-143471417D01*
X123252089Y-143395589D01*
X123252089Y-143131822D01*
X123112727Y-143131822D01*
X123052922Y-143131418D01*
X123011518Y-143129840D01*
X122984348Y-143126547D01*
X122967246Y-143120992D01*
X122956043Y-143112631D01*
X122954683Y-143111178D01*
X122938325Y-143077939D01*
X122939772Y-143040362D01*
X122958578Y-143007645D01*
X122965850Y-143001298D01*
X122975227Y-142996266D01*
X122989209Y-142992396D01*
X123010296Y-142989537D01*
X123040989Y-142987535D01*
X123083789Y-142986239D01*
X123141195Y-142985498D01*
X123215710Y-142985158D01*
X123309833Y-142985068D01*
X123329860Y-142985067D01*
X123428665Y-142985163D01*
G37*
X123428665Y-142985163D02*
X123507372Y-142985542D01*
X123568463Y-142986333D01*
X123614417Y-142987670D01*
X123647714Y-142989683D01*
X123670836Y-142992506D01*
X123686262Y-142996269D01*
X123696471Y-143001105D01*
X123701413Y-143004822D01*
X123727057Y-143037358D01*
X123730159Y-143071138D01*
X123714311Y-143101826D01*
X123703948Y-143114089D01*
X123692796Y-143122450D01*
X123676635Y-143127657D01*
X123651242Y-143130457D01*
X123612398Y-143131596D01*
X123555880Y-143131821D01*
X123544780Y-143131822D01*
X123398844Y-143131822D01*
X123398844Y-143402756D01*
X123398748Y-143488154D01*
X123398311Y-143553864D01*
X123397312Y-143602774D01*
X123395528Y-143637773D01*
X123392737Y-143661749D01*
X123388717Y-143677593D01*
X123383245Y-143688191D01*
X123376266Y-143696267D01*
X123343334Y-143716112D01*
X123308954Y-143714548D01*
X123277776Y-143691906D01*
X123275486Y-143689100D01*
X123268029Y-143678492D01*
X123262347Y-143666081D01*
X123258201Y-143648850D01*
X123255350Y-143623784D01*
X123253554Y-143587867D01*
X123252572Y-143538083D01*
X123252164Y-143471417D01*
X123252089Y-143395589D01*
X123252089Y-143131822D01*
X123112727Y-143131822D01*
X123052922Y-143131418D01*
X123011518Y-143129840D01*
X122984348Y-143126547D01*
X122967246Y-143120992D01*
X122956043Y-143112631D01*
X122954683Y-143111178D01*
X122938325Y-143077939D01*
X122939772Y-143040362D01*
X122958578Y-143007645D01*
X122965850Y-143001298D01*
X122975227Y-142996266D01*
X122989209Y-142992396D01*
X123010296Y-142989537D01*
X123040989Y-142987535D01*
X123083789Y-142986239D01*
X123141195Y-142985498D01*
X123215710Y-142985158D01*
X123309833Y-142985068D01*
X123329860Y-142985067D01*
X123428665Y-142985163D01*
G36*
X112194602Y-143061055D02*
G01*
X112202770Y-143027778D01*
X112216044Y-143005759D01*
X112235626Y-142992739D01*
X112262717Y-142986457D01*
X112298518Y-142984653D01*
X112344229Y-142985066D01*
X112383711Y-142985467D01*
X112499400Y-142988259D01*
X112596289Y-142996550D01*
X112677681Y-143011232D01*
X112746877Y-143033193D01*
X112807180Y-143063322D01*
X112861892Y-143102510D01*
X112881433Y-143119532D01*
X112913850Y-143159363D01*
X112943080Y-143213413D01*
X112965609Y-143273323D01*
X112977921Y-143330739D01*
X112979200Y-143351956D01*
X112971183Y-143410769D01*
X112949701Y-143475013D01*
X112918601Y-143535821D01*
X112881734Y-143584330D01*
X112875746Y-143590182D01*
X112825021Y-143631321D01*
X112769475Y-143663435D01*
X112705904Y-143687365D01*
X112631106Y-143703953D01*
X112541878Y-143714041D01*
X112435018Y-143718469D01*
X112386072Y-143718845D01*
X112323838Y-143718545D01*
X112280072Y-143717292D01*
X112250669Y-143714554D01*
X112231521Y-143709801D01*
X112218523Y-143702501D01*
X112211555Y-143696267D01*
X112204974Y-143688694D01*
X112199812Y-143678924D01*
X112195897Y-143664340D01*
X112193057Y-143642326D01*
X112191120Y-143610264D01*
X112190092Y-143572089D01*
X112335733Y-143572089D01*
X112428866Y-143572004D01*
X112484907Y-143570396D01*
X112543601Y-143566256D01*
X112592572Y-143560464D01*
X112594062Y-143560226D01*
X112673208Y-143541090D01*
X112734598Y-143511287D01*
X112781295Y-143468878D01*
X112810965Y-143422961D01*
X112829247Y-143372026D01*
X112827829Y-143324200D01*
X112806612Y-143272933D01*
X112765111Y-143219899D01*
X112707602Y-143180600D01*
X112632850Y-143154331D01*
X112582892Y-143145035D01*
X112526184Y-143138507D01*
X112466081Y-143133782D01*
X112414961Y-143131817D01*
X112411933Y-143131808D01*
X112335733Y-143131822D01*
X112335733Y-143572089D01*
X112190092Y-143572089D01*
X112189916Y-143565536D01*
X112189272Y-143505526D01*
X112189017Y-143427617D01*
X112188978Y-143351956D01*
X112188730Y-143251041D01*
X112188783Y-143170427D01*
X112189743Y-143131822D01*
X112190340Y-143107851D01*
X112194602Y-143061055D01*
G37*
X112194602Y-143061055D02*
X112202770Y-143027778D01*
X112216044Y-143005759D01*
X112235626Y-142992739D01*
X112262717Y-142986457D01*
X112298518Y-142984653D01*
X112344229Y-142985066D01*
X112383711Y-142985467D01*
X112499400Y-142988259D01*
X112596289Y-142996550D01*
X112677681Y-143011232D01*
X112746877Y-143033193D01*
X112807180Y-143063322D01*
X112861892Y-143102510D01*
X112881433Y-143119532D01*
X112913850Y-143159363D01*
X112943080Y-143213413D01*
X112965609Y-143273323D01*
X112977921Y-143330739D01*
X112979200Y-143351956D01*
X112971183Y-143410769D01*
X112949701Y-143475013D01*
X112918601Y-143535821D01*
X112881734Y-143584330D01*
X112875746Y-143590182D01*
X112825021Y-143631321D01*
X112769475Y-143663435D01*
X112705904Y-143687365D01*
X112631106Y-143703953D01*
X112541878Y-143714041D01*
X112435018Y-143718469D01*
X112386072Y-143718845D01*
X112323838Y-143718545D01*
X112280072Y-143717292D01*
X112250669Y-143714554D01*
X112231521Y-143709801D01*
X112218523Y-143702501D01*
X112211555Y-143696267D01*
X112204974Y-143688694D01*
X112199812Y-143678924D01*
X112195897Y-143664340D01*
X112193057Y-143642326D01*
X112191120Y-143610264D01*
X112190092Y-143572089D01*
X112335733Y-143572089D01*
X112428866Y-143572004D01*
X112484907Y-143570396D01*
X112543601Y-143566256D01*
X112592572Y-143560464D01*
X112594062Y-143560226D01*
X112673208Y-143541090D01*
X112734598Y-143511287D01*
X112781295Y-143468878D01*
X112810965Y-143422961D01*
X112829247Y-143372026D01*
X112827829Y-143324200D01*
X112806612Y-143272933D01*
X112765111Y-143219899D01*
X112707602Y-143180600D01*
X112632850Y-143154331D01*
X112582892Y-143145035D01*
X112526184Y-143138507D01*
X112466081Y-143133782D01*
X112414961Y-143131817D01*
X112411933Y-143131808D01*
X112335733Y-143131822D01*
X112335733Y-143572089D01*
X112190092Y-143572089D01*
X112189916Y-143565536D01*
X112189272Y-143505526D01*
X112189017Y-143427617D01*
X112188978Y-143351956D01*
X112188730Y-143251041D01*
X112188783Y-143170427D01*
X112189743Y-143131822D01*
X112190340Y-143107851D01*
X112194602Y-143061055D01*
G36*
X122210265Y-142987034D02*
G01*
X122229855Y-142994035D01*
X122230610Y-142994377D01*
X122257213Y-143014678D01*
X122271870Y-143035561D01*
X122274738Y-143045352D01*
X122274596Y-143058361D01*
X122270561Y-143076895D01*
X122261746Y-143103257D01*
X122247269Y-143139752D01*
X122226245Y-143188687D01*
X122197788Y-143252365D01*
X122161015Y-143333093D01*
X122140775Y-143377216D01*
X122104225Y-143455985D01*
X122069915Y-143528423D01*
X122039152Y-143591880D01*
X122013248Y-143643708D01*
X121993510Y-143681259D01*
X121981250Y-143701884D01*
X121978824Y-143704733D01*
X121947783Y-143717302D01*
X121912721Y-143715619D01*
X121884600Y-143700332D01*
X121883454Y-143699089D01*
X121872268Y-143682154D01*
X121853504Y-143649170D01*
X121829475Y-143604380D01*
X121802497Y-143552032D01*
X121792801Y-143532742D01*
X121719614Y-143386150D01*
X121639840Y-143545393D01*
X121611367Y-143600415D01*
X121584950Y-143648132D01*
X121562748Y-143684893D01*
X121546919Y-143707044D01*
X121541554Y-143711741D01*
X121499857Y-143718102D01*
X121465449Y-143704733D01*
X121455328Y-143690446D01*
X121437814Y-143658692D01*
X121414335Y-143612597D01*
X121386320Y-143555285D01*
X121355199Y-143489880D01*
X121322399Y-143419507D01*
X121289350Y-143347291D01*
X121257481Y-143276355D01*
X121228219Y-143209825D01*
X121202995Y-143150826D01*
X121183236Y-143102481D01*
X121170372Y-143067915D01*
X121165831Y-143050253D01*
X121165877Y-143049613D01*
X121176926Y-143027388D01*
X121199010Y-143004753D01*
X121200310Y-143003768D01*
X121227453Y-142988425D01*
X121252558Y-142988574D01*
X121261968Y-142991466D01*
X121273434Y-142997718D01*
X121285610Y-143010014D01*
X121299957Y-143030908D01*
X121317936Y-143062949D01*
X121341007Y-143108688D01*
X121370630Y-143170677D01*
X121397345Y-143227898D01*
X121428080Y-143294226D01*
X121455621Y-143353874D01*
X121478538Y-143403725D01*
X121495398Y-143440664D01*
X121504773Y-143461573D01*
X121506140Y-143464845D01*
X121512289Y-143459497D01*
X121526422Y-143437109D01*
X121546657Y-143400946D01*
X121571115Y-143354277D01*
X121580848Y-143335022D01*
X121613817Y-143270004D01*
X121639243Y-143222654D01*
X121659212Y-143190219D01*
X121675810Y-143169946D01*
X121691124Y-143159082D01*
X121707240Y-143154875D01*
X121717743Y-143154400D01*
X121736270Y-143156042D01*
X121752504Y-143162831D01*
X121768635Y-143177566D01*
X121786851Y-143203044D01*
X121809339Y-143242061D01*
X121838289Y-143297414D01*
X121854262Y-143328903D01*
X121880170Y-143379087D01*
X121902767Y-143420704D01*
X121920058Y-143450242D01*
X121930050Y-143464189D01*
X121931409Y-143464770D01*
X121937861Y-143453793D01*
X121952308Y-143425290D01*
X121973303Y-143382244D01*
X121999397Y-143327638D01*
X122029146Y-143264454D01*
X122043780Y-143233071D01*
X122081850Y-143152078D01*
X122112505Y-143089756D01*
X122137337Y-143044071D01*
X122157937Y-143012989D01*
X122175898Y-142994478D01*
X122192810Y-142986504D01*
X122210265Y-142987034D01*
G37*
X122210265Y-142987034D02*
X122229855Y-142994035D01*
X122230610Y-142994377D01*
X122257213Y-143014678D01*
X122271870Y-143035561D01*
X122274738Y-143045352D01*
X122274596Y-143058361D01*
X122270561Y-143076895D01*
X122261746Y-143103257D01*
X122247269Y-143139752D01*
X122226245Y-143188687D01*
X122197788Y-143252365D01*
X122161015Y-143333093D01*
X122140775Y-143377216D01*
X122104225Y-143455985D01*
X122069915Y-143528423D01*
X122039152Y-143591880D01*
X122013248Y-143643708D01*
X121993510Y-143681259D01*
X121981250Y-143701884D01*
X121978824Y-143704733D01*
X121947783Y-143717302D01*
X121912721Y-143715619D01*
X121884600Y-143700332D01*
X121883454Y-143699089D01*
X121872268Y-143682154D01*
X121853504Y-143649170D01*
X121829475Y-143604380D01*
X121802497Y-143552032D01*
X121792801Y-143532742D01*
X121719614Y-143386150D01*
X121639840Y-143545393D01*
X121611367Y-143600415D01*
X121584950Y-143648132D01*
X121562748Y-143684893D01*
X121546919Y-143707044D01*
X121541554Y-143711741D01*
X121499857Y-143718102D01*
X121465449Y-143704733D01*
X121455328Y-143690446D01*
X121437814Y-143658692D01*
X121414335Y-143612597D01*
X121386320Y-143555285D01*
X121355199Y-143489880D01*
X121322399Y-143419507D01*
X121289350Y-143347291D01*
X121257481Y-143276355D01*
X121228219Y-143209825D01*
X121202995Y-143150826D01*
X121183236Y-143102481D01*
X121170372Y-143067915D01*
X121165831Y-143050253D01*
X121165877Y-143049613D01*
X121176926Y-143027388D01*
X121199010Y-143004753D01*
X121200310Y-143003768D01*
X121227453Y-142988425D01*
X121252558Y-142988574D01*
X121261968Y-142991466D01*
X121273434Y-142997718D01*
X121285610Y-143010014D01*
X121299957Y-143030908D01*
X121317936Y-143062949D01*
X121341007Y-143108688D01*
X121370630Y-143170677D01*
X121397345Y-143227898D01*
X121428080Y-143294226D01*
X121455621Y-143353874D01*
X121478538Y-143403725D01*
X121495398Y-143440664D01*
X121504773Y-143461573D01*
X121506140Y-143464845D01*
X121512289Y-143459497D01*
X121526422Y-143437109D01*
X121546657Y-143400946D01*
X121571115Y-143354277D01*
X121580848Y-143335022D01*
X121613817Y-143270004D01*
X121639243Y-143222654D01*
X121659212Y-143190219D01*
X121675810Y-143169946D01*
X121691124Y-143159082D01*
X121707240Y-143154875D01*
X121717743Y-143154400D01*
X121736270Y-143156042D01*
X121752504Y-143162831D01*
X121768635Y-143177566D01*
X121786851Y-143203044D01*
X121809339Y-143242061D01*
X121838289Y-143297414D01*
X121854262Y-143328903D01*
X121880170Y-143379087D01*
X121902767Y-143420704D01*
X121920058Y-143450242D01*
X121930050Y-143464189D01*
X121931409Y-143464770D01*
X121937861Y-143453793D01*
X121952308Y-143425290D01*
X121973303Y-143382244D01*
X121999397Y-143327638D01*
X122029146Y-143264454D01*
X122043780Y-143233071D01*
X122081850Y-143152078D01*
X122112505Y-143089756D01*
X122137337Y-143044071D01*
X122157937Y-143012989D01*
X122175898Y-142994478D01*
X122192810Y-142986504D01*
X122210265Y-142987034D01*
G36*
X115519200Y-138205054D02*
G01*
X115530065Y-138318993D01*
X115561682Y-138426616D01*
X115612585Y-138525615D01*
X115681307Y-138613684D01*
X115766381Y-138688516D01*
X115863368Y-138746384D01*
X115969636Y-138786005D01*
X116076650Y-138804573D01*
X116182300Y-138803434D01*
X116284475Y-138783930D01*
X116381066Y-138747406D01*
X116469962Y-138695205D01*
X116549054Y-138628673D01*
X116616231Y-138549152D01*
X116669383Y-138457987D01*
X116706401Y-138356523D01*
X116725173Y-138246102D01*
X116727111Y-138196206D01*
X116727111Y-138108267D01*
X116779040Y-138108267D01*
X116815347Y-138111111D01*
X116842245Y-138122911D01*
X116869351Y-138146649D01*
X116907733Y-138185031D01*
X116907733Y-140376602D01*
X116907724Y-140638739D01*
X116907692Y-140879241D01*
X116907628Y-141099048D01*
X116907524Y-141299101D01*
X116907373Y-141480344D01*
X116907166Y-141643716D01*
X116906894Y-141790160D01*
X116906550Y-141920617D01*
X116906126Y-142036029D01*
X116905613Y-142137338D01*
X116905003Y-142225484D01*
X116904288Y-142301410D01*
X116903460Y-142366057D01*
X116902511Y-142420367D01*
X116901433Y-142465280D01*
X116900217Y-142501740D01*
X116898855Y-142530687D01*
X116897339Y-142553063D01*
X116895662Y-142569809D01*
X116893814Y-142581868D01*
X116891787Y-142590180D01*
X116889575Y-142595687D01*
X116888492Y-142597537D01*
X116884329Y-142604549D01*
X116880795Y-142610996D01*
X116876965Y-142616900D01*
X116871918Y-142622286D01*
X116864729Y-142627178D01*
X116854477Y-142631598D01*
X116840236Y-142635572D01*
X116821086Y-142639121D01*
X116796101Y-142642270D01*
X116764360Y-142645042D01*
X116724938Y-142647461D01*
X116676914Y-142649551D01*
X116619363Y-142651335D01*
X116551363Y-142652837D01*
X116471990Y-142654080D01*
X116380321Y-142655089D01*
X116275434Y-142655885D01*
X116156404Y-142656494D01*
X116022310Y-142656939D01*
X115872227Y-142657243D01*
X115705233Y-142657430D01*
X115520404Y-142657524D01*
X115316817Y-142657548D01*
X115093550Y-142657525D01*
X114849678Y-142657480D01*
X114584279Y-142657437D01*
X114545896Y-142657432D01*
X114278918Y-142657389D01*
X114033598Y-142657318D01*
X113809017Y-142657213D01*
X113604255Y-142657066D01*
X113418394Y-142656869D01*
X113250512Y-142656616D01*
X113099692Y-142656300D01*
X112965013Y-142655913D01*
X112845556Y-142655447D01*
X112740401Y-142654897D01*
X112648629Y-142654253D01*
X112569321Y-142653511D01*
X112501557Y-142652661D01*
X112444418Y-142651697D01*
X112396983Y-142650611D01*
X112358334Y-142649397D01*
X112327551Y-142648047D01*
X112303715Y-142646555D01*
X112285906Y-142644911D01*
X112273205Y-142643111D01*
X112264692Y-142641145D01*
X112260334Y-142639477D01*
X112251872Y-142635906D01*
X112244103Y-142633270D01*
X112236998Y-142630634D01*
X112230527Y-142627062D01*
X112224661Y-142621621D01*
X112219371Y-142613375D01*
X112214626Y-142601390D01*
X112210398Y-142584731D01*
X112206657Y-142562463D01*
X112203373Y-142533652D01*
X112200517Y-142497363D01*
X112198060Y-142452661D01*
X112195971Y-142398611D01*
X112194222Y-142334279D01*
X112192783Y-142258730D01*
X112191624Y-142171030D01*
X112190717Y-142070243D01*
X112190031Y-141955434D01*
X112189537Y-141825670D01*
X112189205Y-141680015D01*
X112189007Y-141517535D01*
X112188913Y-141337295D01*
X112188892Y-141138360D01*
X112188915Y-140919796D01*
X112188954Y-140680668D01*
X112188978Y-140420040D01*
X112188978Y-140377889D01*
X112188964Y-140114992D01*
X112188939Y-139873732D01*
X112188929Y-139653165D01*
X112188958Y-139452352D01*
X112189052Y-139270349D01*
X112189238Y-139106216D01*
X112189541Y-138959011D01*
X112189986Y-138827792D01*
X112190566Y-138717867D01*
X112493403Y-138717867D01*
X112533193Y-138775711D01*
X112544364Y-138791479D01*
X112554434Y-138805441D01*
X112563462Y-138818784D01*
X112571503Y-138832693D01*
X112578614Y-138848356D01*
X112584853Y-138866958D01*
X112590275Y-138889686D01*
X112594938Y-138917727D01*
X112598899Y-138952267D01*
X112602215Y-138994492D01*
X112604941Y-139045589D01*
X112607136Y-139106744D01*
X112608855Y-139179144D01*
X112610156Y-139263975D01*
X112611095Y-139362422D01*
X112611730Y-139475674D01*
X112612116Y-139604916D01*
X112612312Y-139751334D01*
X112612373Y-139916116D01*
X112612357Y-140100447D01*
X112612320Y-140305513D01*
X112612311Y-140428133D01*
X112612335Y-140645082D01*
X112612369Y-140840642D01*
X112612357Y-141015999D01*
X112612242Y-141172341D01*
X112611970Y-141310857D01*
X112611482Y-141432734D01*
X112610724Y-141539160D01*
X112609638Y-141631322D01*
X112608169Y-141710409D01*
X112606260Y-141777608D01*
X112603856Y-141834107D01*
X112600899Y-141881093D01*
X112597334Y-141919755D01*
X112593105Y-141951280D01*
X112588154Y-141976855D01*
X112582427Y-141997670D01*
X112575867Y-142014911D01*
X112568417Y-142029765D01*
X112560021Y-142043422D01*
X112550624Y-142057069D01*
X112540168Y-142071893D01*
X112534077Y-142080783D01*
X112495304Y-142138400D01*
X113026868Y-142138400D01*
X113150117Y-142138365D01*
X113252613Y-142138215D01*
X113336180Y-142137878D01*
X113402644Y-142137286D01*
X113453829Y-142136367D01*
X113491559Y-142135051D01*
X113517660Y-142133269D01*
X113533956Y-142130951D01*
X113542272Y-142128026D01*
X113544432Y-142124424D01*
X113542261Y-142120075D01*
X113541065Y-142118645D01*
X113515915Y-142081573D01*
X113490017Y-142028772D01*
X113466408Y-141966770D01*
X113458139Y-141940357D01*
X113453522Y-141922416D01*
X113449621Y-141901355D01*
X113446352Y-141875089D01*
X113443634Y-141841532D01*
X113441385Y-141798599D01*
X113439523Y-141744204D01*
X113437964Y-141676262D01*
X113436628Y-141592688D01*
X113435431Y-141491395D01*
X113434292Y-141370300D01*
X113433915Y-141325600D01*
X113432898Y-141200449D01*
X113432140Y-141096082D01*
X113431697Y-141010707D01*
X113431630Y-140942533D01*
X113431995Y-140889765D01*
X113432852Y-140850614D01*
X113434259Y-140823285D01*
X113436275Y-140805986D01*
X113438957Y-140796926D01*
X113442364Y-140794312D01*
X113446556Y-140796351D01*
X113451029Y-140800667D01*
X113461384Y-140813602D01*
X113483442Y-140842676D01*
X113515643Y-140885759D01*
X113556426Y-140940718D01*
X113604230Y-141005423D01*
X113657495Y-141077742D01*
X113714660Y-141155544D01*
X113774163Y-141236698D01*
X113834445Y-141319072D01*
X113893945Y-141400536D01*
X113951102Y-141478957D01*
X114004355Y-141552204D01*
X114052143Y-141618147D01*
X114092907Y-141674654D01*
X114125084Y-141719593D01*
X114147115Y-141750834D01*
X114151683Y-141757466D01*
X114174604Y-141794369D01*
X114201412Y-141842359D01*
X114226811Y-141891897D01*
X114230032Y-141898577D01*
X114251710Y-141946772D01*
X114264296Y-141984334D01*
X114270026Y-142020160D01*
X114271144Y-142062200D01*
X114270510Y-142138400D01*
X115424949Y-142138400D01*
X115333785Y-142044669D01*
X115286988Y-141994775D01*
X115236701Y-141938295D01*
X115190656Y-141884026D01*
X115170231Y-141858673D01*
X115139793Y-141819128D01*
X115099738Y-141765916D01*
X115051239Y-141700667D01*
X114995465Y-141625011D01*
X114933589Y-141540577D01*
X114866781Y-141448994D01*
X114796213Y-141351892D01*
X114723055Y-141250901D01*
X114648479Y-141147650D01*
X114573656Y-141043768D01*
X114499757Y-140940885D01*
X114427954Y-140840631D01*
X114359416Y-140744636D01*
X114295316Y-140654527D01*
X114236825Y-140571936D01*
X114185114Y-140498492D01*
X114141353Y-140435824D01*
X114106715Y-140385561D01*
X114082370Y-140349334D01*
X114069489Y-140328771D01*
X114067731Y-140324668D01*
X114075690Y-140313342D01*
X114096485Y-140286162D01*
X114128753Y-140244829D01*
X114171130Y-140191044D01*
X114222253Y-140126506D01*
X114280759Y-140052918D01*
X114345286Y-139971978D01*
X114414469Y-139885388D01*
X114486947Y-139794848D01*
X114561354Y-139702060D01*
X114621083Y-139627702D01*
X115632089Y-139627702D01*
X115637998Y-139640659D01*
X115652328Y-139662908D01*
X115653375Y-139664391D01*
X115672162Y-139694544D01*
X115691809Y-139731375D01*
X115695708Y-139739511D01*
X115699244Y-139747940D01*
X115702370Y-139758059D01*
X115705114Y-139771260D01*
X115707508Y-139788938D01*
X115709581Y-139812484D01*
X115711365Y-139843293D01*
X115712888Y-139882757D01*
X115714181Y-139932269D01*
X115715274Y-139993223D01*
X115716197Y-140067011D01*
X115716981Y-140155028D01*
X115717655Y-140258665D01*
X115718250Y-140379316D01*
X115718795Y-140518374D01*
X115719321Y-140677232D01*
X115719855Y-140856089D01*
X115720394Y-141041207D01*
X115720828Y-141205145D01*
X115721091Y-141349303D01*
X115721116Y-141475079D01*
X115720835Y-141583871D01*
X115720181Y-141677077D01*
X115719086Y-141756097D01*
X115717482Y-141822328D01*
X115715303Y-141877170D01*
X115712481Y-141922021D01*
X115708949Y-141958278D01*
X115704639Y-141987341D01*
X115699483Y-142010609D01*
X115693415Y-142029479D01*
X115686367Y-142045351D01*
X115678271Y-142059622D01*
X115669060Y-142073691D01*
X115660560Y-142086158D01*
X115643424Y-142112452D01*
X115633278Y-142130037D01*
X115632089Y-142133257D01*
X115642996Y-142134334D01*
X115674189Y-142135335D01*
X115723377Y-142136235D01*
X115788267Y-142137010D01*
X115866570Y-142137637D01*
X115955993Y-142138091D01*
X116054244Y-142138349D01*
X116123155Y-142138400D01*
X116228148Y-142138180D01*
X116324990Y-142137548D01*
X116411493Y-142136549D01*
X116485468Y-142135227D01*
X116544726Y-142133626D01*
X116587080Y-142131791D01*
X116610340Y-142129765D01*
X116614222Y-142128493D01*
X116606524Y-142113591D01*
X116598526Y-142105560D01*
X116585354Y-142088434D01*
X116568115Y-142058183D01*
X116556193Y-142033622D01*
X116529555Y-141974711D01*
X116526480Y-140797845D01*
X116523405Y-139620978D01*
X116077747Y-139620978D01*
X115979930Y-139621142D01*
X115889536Y-139621611D01*
X115808970Y-139622347D01*
X115740638Y-139623316D01*
X115686944Y-139624480D01*
X115650295Y-139625803D01*
X115633096Y-139627249D01*
X115632089Y-139627702D01*
X114621083Y-139627702D01*
X114636330Y-139608722D01*
X114710510Y-139516537D01*
X114782531Y-139427204D01*
X114851031Y-139342424D01*
X114914645Y-139263898D01*
X114972012Y-139193326D01*
X115021767Y-139132409D01*
X115062548Y-139082847D01*
X115079712Y-139062178D01*
X115166004Y-138961516D01*
X115242603Y-138878259D01*
X115311417Y-138810438D01*
X115374352Y-138756089D01*
X115383733Y-138748722D01*
X115423244Y-138718117D01*
X114291484Y-138717867D01*
X114296773Y-138765844D01*
X114293470Y-138823188D01*
X114271939Y-138891463D01*
X114231965Y-138971212D01*
X114186657Y-139043495D01*
X114170439Y-139066140D01*
X114142386Y-139103696D01*
X114104170Y-139154021D01*
X114057463Y-139214973D01*
X114003939Y-139284411D01*
X113945269Y-139360194D01*
X113883125Y-139440180D01*
X113819179Y-139522228D01*
X113755105Y-139604196D01*
X113692573Y-139683943D01*
X113633257Y-139759327D01*
X113578829Y-139828207D01*
X113530961Y-139888442D01*
X113491325Y-139937889D01*
X113461594Y-139974408D01*
X113443439Y-139995858D01*
X113440380Y-139999156D01*
X113437521Y-139991149D01*
X113435307Y-139960855D01*
X113433743Y-139908556D01*
X113432833Y-139834531D01*
X113432580Y-139739063D01*
X113432987Y-139622434D01*
X113433896Y-139502445D01*
X113435218Y-139370333D01*
X113436743Y-139258594D01*
X113438719Y-139165025D01*
X113441394Y-139087419D01*
X113445018Y-139023574D01*
X113449839Y-138971283D01*
X113456106Y-138928344D01*
X113464068Y-138892551D01*
X113473973Y-138861700D01*
X113486069Y-138833586D01*
X113500607Y-138806005D01*
X113515289Y-138780966D01*
X113553286Y-138717867D01*
X112493403Y-138717867D01*
X112190566Y-138717867D01*
X112190599Y-138711617D01*
X112191405Y-138609544D01*
X112192430Y-138520633D01*
X112193700Y-138443941D01*
X112195240Y-138378527D01*
X112197076Y-138323449D01*
X112199233Y-138277765D01*
X112201737Y-138240534D01*
X112204613Y-138210813D01*
X112207887Y-138187662D01*
X112211585Y-138170139D01*
X112215731Y-138157301D01*
X112220353Y-138148208D01*
X112225474Y-138141918D01*
X112231122Y-138137488D01*
X112237321Y-138133978D01*
X112244096Y-138130445D01*
X112250092Y-138126876D01*
X112255325Y-138124300D01*
X112263501Y-138121972D01*
X112275714Y-138119878D01*
X112293059Y-138118007D01*
X112316631Y-138116347D01*
X112347523Y-138114884D01*
X112386832Y-138113608D01*
X112435650Y-138112504D01*
X112495073Y-138111561D01*
X112566196Y-138110767D01*
X112650112Y-138110109D01*
X112747917Y-138109575D01*
X112860706Y-138109153D01*
X112989571Y-138108829D01*
X113135609Y-138108592D01*
X113299914Y-138108430D01*
X113483580Y-138108330D01*
X113687703Y-138108280D01*
X113898847Y-138108267D01*
X115519200Y-138108267D01*
X115519200Y-138205054D01*
G37*
X115519200Y-138205054D02*
X115530065Y-138318993D01*
X115561682Y-138426616D01*
X115612585Y-138525615D01*
X115681307Y-138613684D01*
X115766381Y-138688516D01*
X115863368Y-138746384D01*
X115969636Y-138786005D01*
X116076650Y-138804573D01*
X116182300Y-138803434D01*
X116284475Y-138783930D01*
X116381066Y-138747406D01*
X116469962Y-138695205D01*
X116549054Y-138628673D01*
X116616231Y-138549152D01*
X116669383Y-138457987D01*
X116706401Y-138356523D01*
X116725173Y-138246102D01*
X116727111Y-138196206D01*
X116727111Y-138108267D01*
X116779040Y-138108267D01*
X116815347Y-138111111D01*
X116842245Y-138122911D01*
X116869351Y-138146649D01*
X116907733Y-138185031D01*
X116907733Y-140376602D01*
X116907724Y-140638739D01*
X116907692Y-140879241D01*
X116907628Y-141099048D01*
X116907524Y-141299101D01*
X116907373Y-141480344D01*
X116907166Y-141643716D01*
X116906894Y-141790160D01*
X116906550Y-141920617D01*
X116906126Y-142036029D01*
X116905613Y-142137338D01*
X116905003Y-142225484D01*
X116904288Y-142301410D01*
X116903460Y-142366057D01*
X116902511Y-142420367D01*
X116901433Y-142465280D01*
X116900217Y-142501740D01*
X116898855Y-142530687D01*
X116897339Y-142553063D01*
X116895662Y-142569809D01*
X116893814Y-142581868D01*
X116891787Y-142590180D01*
X116889575Y-142595687D01*
X116888492Y-142597537D01*
X116884329Y-142604549D01*
X116880795Y-142610996D01*
X116876965Y-142616900D01*
X116871918Y-142622286D01*
X116864729Y-142627178D01*
X116854477Y-142631598D01*
X116840236Y-142635572D01*
X116821086Y-142639121D01*
X116796101Y-142642270D01*
X116764360Y-142645042D01*
X116724938Y-142647461D01*
X116676914Y-142649551D01*
X116619363Y-142651335D01*
X116551363Y-142652837D01*
X116471990Y-142654080D01*
X116380321Y-142655089D01*
X116275434Y-142655885D01*
X116156404Y-142656494D01*
X116022310Y-142656939D01*
X115872227Y-142657243D01*
X115705233Y-142657430D01*
X115520404Y-142657524D01*
X115316817Y-142657548D01*
X115093550Y-142657525D01*
X114849678Y-142657480D01*
X114584279Y-142657437D01*
X114545896Y-142657432D01*
X114278918Y-142657389D01*
X114033598Y-142657318D01*
X113809017Y-142657213D01*
X113604255Y-142657066D01*
X113418394Y-142656869D01*
X113250512Y-142656616D01*
X113099692Y-142656300D01*
X112965013Y-142655913D01*
X112845556Y-142655447D01*
X112740401Y-142654897D01*
X112648629Y-142654253D01*
X112569321Y-142653511D01*
X112501557Y-142652661D01*
X112444418Y-142651697D01*
X112396983Y-142650611D01*
X112358334Y-142649397D01*
X112327551Y-142648047D01*
X112303715Y-142646555D01*
X112285906Y-142644911D01*
X112273205Y-142643111D01*
X112264692Y-142641145D01*
X112260334Y-142639477D01*
X112251872Y-142635906D01*
X112244103Y-142633270D01*
X112236998Y-142630634D01*
X112230527Y-142627062D01*
X112224661Y-142621621D01*
X112219371Y-142613375D01*
X112214626Y-142601390D01*
X112210398Y-142584731D01*
X112206657Y-142562463D01*
X112203373Y-142533652D01*
X112200517Y-142497363D01*
X112198060Y-142452661D01*
X112195971Y-142398611D01*
X112194222Y-142334279D01*
X112192783Y-142258730D01*
X112191624Y-142171030D01*
X112190717Y-142070243D01*
X112190031Y-141955434D01*
X112189537Y-141825670D01*
X112189205Y-141680015D01*
X112189007Y-141517535D01*
X112188913Y-141337295D01*
X112188892Y-141138360D01*
X112188915Y-140919796D01*
X112188954Y-140680668D01*
X112188978Y-140420040D01*
X112188978Y-140377889D01*
X112188964Y-140114992D01*
X112188939Y-139873732D01*
X112188929Y-139653165D01*
X112188958Y-139452352D01*
X112189052Y-139270349D01*
X112189238Y-139106216D01*
X112189541Y-138959011D01*
X112189986Y-138827792D01*
X112190566Y-138717867D01*
X112493403Y-138717867D01*
X112533193Y-138775711D01*
X112544364Y-138791479D01*
X112554434Y-138805441D01*
X112563462Y-138818784D01*
X112571503Y-138832693D01*
X112578614Y-138848356D01*
X112584853Y-138866958D01*
X112590275Y-138889686D01*
X112594938Y-138917727D01*
X112598899Y-138952267D01*
X112602215Y-138994492D01*
X112604941Y-139045589D01*
X112607136Y-139106744D01*
X112608855Y-139179144D01*
X112610156Y-139263975D01*
X112611095Y-139362422D01*
X112611730Y-139475674D01*
X112612116Y-139604916D01*
X112612312Y-139751334D01*
X112612373Y-139916116D01*
X112612357Y-140100447D01*
X112612320Y-140305513D01*
X112612311Y-140428133D01*
X112612335Y-140645082D01*
X112612369Y-140840642D01*
X112612357Y-141015999D01*
X112612242Y-141172341D01*
X112611970Y-141310857D01*
X112611482Y-141432734D01*
X112610724Y-141539160D01*
X112609638Y-141631322D01*
X112608169Y-141710409D01*
X112606260Y-141777608D01*
X112603856Y-141834107D01*
X112600899Y-141881093D01*
X112597334Y-141919755D01*
X112593105Y-141951280D01*
X112588154Y-141976855D01*
X112582427Y-141997670D01*
X112575867Y-142014911D01*
X112568417Y-142029765D01*
X112560021Y-142043422D01*
X112550624Y-142057069D01*
X112540168Y-142071893D01*
X112534077Y-142080783D01*
X112495304Y-142138400D01*
X113026868Y-142138400D01*
X113150117Y-142138365D01*
X113252613Y-142138215D01*
X113336180Y-142137878D01*
X113402644Y-142137286D01*
X113453829Y-142136367D01*
X113491559Y-142135051D01*
X113517660Y-142133269D01*
X113533956Y-142130951D01*
X113542272Y-142128026D01*
X113544432Y-142124424D01*
X113542261Y-142120075D01*
X113541065Y-142118645D01*
X113515915Y-142081573D01*
X113490017Y-142028772D01*
X113466408Y-141966770D01*
X113458139Y-141940357D01*
X113453522Y-141922416D01*
X113449621Y-141901355D01*
X113446352Y-141875089D01*
X113443634Y-141841532D01*
X113441385Y-141798599D01*
X113439523Y-141744204D01*
X113437964Y-141676262D01*
X113436628Y-141592688D01*
X113435431Y-141491395D01*
X113434292Y-141370300D01*
X113433915Y-141325600D01*
X113432898Y-141200449D01*
X113432140Y-141096082D01*
X113431697Y-141010707D01*
X113431630Y-140942533D01*
X113431995Y-140889765D01*
X113432852Y-140850614D01*
X113434259Y-140823285D01*
X113436275Y-140805986D01*
X113438957Y-140796926D01*
X113442364Y-140794312D01*
X113446556Y-140796351D01*
X113451029Y-140800667D01*
X113461384Y-140813602D01*
X113483442Y-140842676D01*
X113515643Y-140885759D01*
X113556426Y-140940718D01*
X113604230Y-141005423D01*
X113657495Y-141077742D01*
X113714660Y-141155544D01*
X113774163Y-141236698D01*
X113834445Y-141319072D01*
X113893945Y-141400536D01*
X113951102Y-141478957D01*
X114004355Y-141552204D01*
X114052143Y-141618147D01*
X114092907Y-141674654D01*
X114125084Y-141719593D01*
X114147115Y-141750834D01*
X114151683Y-141757466D01*
X114174604Y-141794369D01*
X114201412Y-141842359D01*
X114226811Y-141891897D01*
X114230032Y-141898577D01*
X114251710Y-141946772D01*
X114264296Y-141984334D01*
X114270026Y-142020160D01*
X114271144Y-142062200D01*
X114270510Y-142138400D01*
X115424949Y-142138400D01*
X115333785Y-142044669D01*
X115286988Y-141994775D01*
X115236701Y-141938295D01*
X115190656Y-141884026D01*
X115170231Y-141858673D01*
X115139793Y-141819128D01*
X115099738Y-141765916D01*
X115051239Y-141700667D01*
X114995465Y-141625011D01*
X114933589Y-141540577D01*
X114866781Y-141448994D01*
X114796213Y-141351892D01*
X114723055Y-141250901D01*
X114648479Y-141147650D01*
X114573656Y-141043768D01*
X114499757Y-140940885D01*
X114427954Y-140840631D01*
X114359416Y-140744636D01*
X114295316Y-140654527D01*
X114236825Y-140571936D01*
X114185114Y-140498492D01*
X114141353Y-140435824D01*
X114106715Y-140385561D01*
X114082370Y-140349334D01*
X114069489Y-140328771D01*
X114067731Y-140324668D01*
X114075690Y-140313342D01*
X114096485Y-140286162D01*
X114128753Y-140244829D01*
X114171130Y-140191044D01*
X114222253Y-140126506D01*
X114280759Y-140052918D01*
X114345286Y-139971978D01*
X114414469Y-139885388D01*
X114486947Y-139794848D01*
X114561354Y-139702060D01*
X114621083Y-139627702D01*
X115632089Y-139627702D01*
X115637998Y-139640659D01*
X115652328Y-139662908D01*
X115653375Y-139664391D01*
X115672162Y-139694544D01*
X115691809Y-139731375D01*
X115695708Y-139739511D01*
X115699244Y-139747940D01*
X115702370Y-139758059D01*
X115705114Y-139771260D01*
X115707508Y-139788938D01*
X115709581Y-139812484D01*
X115711365Y-139843293D01*
X115712888Y-139882757D01*
X115714181Y-139932269D01*
X115715274Y-139993223D01*
X115716197Y-140067011D01*
X115716981Y-140155028D01*
X115717655Y-140258665D01*
X115718250Y-140379316D01*
X115718795Y-140518374D01*
X115719321Y-140677232D01*
X115719855Y-140856089D01*
X115720394Y-141041207D01*
X115720828Y-141205145D01*
X115721091Y-141349303D01*
X115721116Y-141475079D01*
X115720835Y-141583871D01*
X115720181Y-141677077D01*
X115719086Y-141756097D01*
X115717482Y-141822328D01*
X115715303Y-141877170D01*
X115712481Y-141922021D01*
X115708949Y-141958278D01*
X115704639Y-141987341D01*
X115699483Y-142010609D01*
X115693415Y-142029479D01*
X115686367Y-142045351D01*
X115678271Y-142059622D01*
X115669060Y-142073691D01*
X115660560Y-142086158D01*
X115643424Y-142112452D01*
X115633278Y-142130037D01*
X115632089Y-142133257D01*
X115642996Y-142134334D01*
X115674189Y-142135335D01*
X115723377Y-142136235D01*
X115788267Y-142137010D01*
X115866570Y-142137637D01*
X115955993Y-142138091D01*
X116054244Y-142138349D01*
X116123155Y-142138400D01*
X116228148Y-142138180D01*
X116324990Y-142137548D01*
X116411493Y-142136549D01*
X116485468Y-142135227D01*
X116544726Y-142133626D01*
X116587080Y-142131791D01*
X116610340Y-142129765D01*
X116614222Y-142128493D01*
X116606524Y-142113591D01*
X116598526Y-142105560D01*
X116585354Y-142088434D01*
X116568115Y-142058183D01*
X116556193Y-142033622D01*
X116529555Y-141974711D01*
X116526480Y-140797845D01*
X116523405Y-139620978D01*
X116077747Y-139620978D01*
X115979930Y-139621142D01*
X115889536Y-139621611D01*
X115808970Y-139622347D01*
X115740638Y-139623316D01*
X115686944Y-139624480D01*
X115650295Y-139625803D01*
X115633096Y-139627249D01*
X115632089Y-139627702D01*
X114621083Y-139627702D01*
X114636330Y-139608722D01*
X114710510Y-139516537D01*
X114782531Y-139427204D01*
X114851031Y-139342424D01*
X114914645Y-139263898D01*
X114972012Y-139193326D01*
X115021767Y-139132409D01*
X115062548Y-139082847D01*
X115079712Y-139062178D01*
X115166004Y-138961516D01*
X115242603Y-138878259D01*
X115311417Y-138810438D01*
X115374352Y-138756089D01*
X115383733Y-138748722D01*
X115423244Y-138718117D01*
X114291484Y-138717867D01*
X114296773Y-138765844D01*
X114293470Y-138823188D01*
X114271939Y-138891463D01*
X114231965Y-138971212D01*
X114186657Y-139043495D01*
X114170439Y-139066140D01*
X114142386Y-139103696D01*
X114104170Y-139154021D01*
X114057463Y-139214973D01*
X114003939Y-139284411D01*
X113945269Y-139360194D01*
X113883125Y-139440180D01*
X113819179Y-139522228D01*
X113755105Y-139604196D01*
X113692573Y-139683943D01*
X113633257Y-139759327D01*
X113578829Y-139828207D01*
X113530961Y-139888442D01*
X113491325Y-139937889D01*
X113461594Y-139974408D01*
X113443439Y-139995858D01*
X113440380Y-139999156D01*
X113437521Y-139991149D01*
X113435307Y-139960855D01*
X113433743Y-139908556D01*
X113432833Y-139834531D01*
X113432580Y-139739063D01*
X113432987Y-139622434D01*
X113433896Y-139502445D01*
X113435218Y-139370333D01*
X113436743Y-139258594D01*
X113438719Y-139165025D01*
X113441394Y-139087419D01*
X113445018Y-139023574D01*
X113449839Y-138971283D01*
X113456106Y-138928344D01*
X113464068Y-138892551D01*
X113473973Y-138861700D01*
X113486069Y-138833586D01*
X113500607Y-138806005D01*
X113515289Y-138780966D01*
X113553286Y-138717867D01*
X112493403Y-138717867D01*
X112190566Y-138717867D01*
X112190599Y-138711617D01*
X112191405Y-138609544D01*
X112192430Y-138520633D01*
X112193700Y-138443941D01*
X112195240Y-138378527D01*
X112197076Y-138323449D01*
X112199233Y-138277765D01*
X112201737Y-138240534D01*
X112204613Y-138210813D01*
X112207887Y-138187662D01*
X112211585Y-138170139D01*
X112215731Y-138157301D01*
X112220353Y-138148208D01*
X112225474Y-138141918D01*
X112231122Y-138137488D01*
X112237321Y-138133978D01*
X112244096Y-138130445D01*
X112250092Y-138126876D01*
X112255325Y-138124300D01*
X112263501Y-138121972D01*
X112275714Y-138119878D01*
X112293059Y-138118007D01*
X112316631Y-138116347D01*
X112347523Y-138114884D01*
X112386832Y-138113608D01*
X112435650Y-138112504D01*
X112495073Y-138111561D01*
X112566196Y-138110767D01*
X112650112Y-138110109D01*
X112747917Y-138109575D01*
X112860706Y-138109153D01*
X112989571Y-138108829D01*
X113135609Y-138108592D01*
X113299914Y-138108430D01*
X113483580Y-138108330D01*
X113687703Y-138108280D01*
X113898847Y-138108267D01*
X115519200Y-138108267D01*
X115519200Y-138205054D01*
G36*
X116192557Y-137742571D02*
G01*
X116288832Y-137766809D01*
X116375416Y-137809641D01*
X116450227Y-137869419D01*
X116511182Y-137944494D01*
X116556201Y-138033220D01*
X116582464Y-138129530D01*
X116588314Y-138226795D01*
X116573460Y-138320654D01*
X116539760Y-138408511D01*
X116489072Y-138487770D01*
X116423255Y-138555836D01*
X116344166Y-138610112D01*
X116253666Y-138648002D01*
X116202400Y-138660426D01*
X116157902Y-138667947D01*
X116123601Y-138670919D01*
X116090640Y-138669094D01*
X116050166Y-138662225D01*
X116017069Y-138655250D01*
X115923653Y-138623741D01*
X115839981Y-138572617D01*
X115767935Y-138503429D01*
X115709400Y-138417728D01*
X115695452Y-138390489D01*
X115679014Y-138354122D01*
X115668706Y-138323582D01*
X115663140Y-138291450D01*
X115660931Y-138250307D01*
X115660652Y-138204222D01*
X115664739Y-138119865D01*
X115678154Y-138050586D01*
X115703344Y-137989961D01*
X115742754Y-137931567D01*
X115781302Y-137887302D01*
X115853194Y-137821484D01*
X115928287Y-137776053D01*
X116011038Y-137748850D01*
X116088672Y-137738576D01*
X116192557Y-137742571D01*
G37*
X116192557Y-137742571D02*
X116288832Y-137766809D01*
X116375416Y-137809641D01*
X116450227Y-137869419D01*
X116511182Y-137944494D01*
X116556201Y-138033220D01*
X116582464Y-138129530D01*
X116588314Y-138226795D01*
X116573460Y-138320654D01*
X116539760Y-138408511D01*
X116489072Y-138487770D01*
X116423255Y-138555836D01*
X116344166Y-138610112D01*
X116253666Y-138648002D01*
X116202400Y-138660426D01*
X116157902Y-138667947D01*
X116123601Y-138670919D01*
X116090640Y-138669094D01*
X116050166Y-138662225D01*
X116017069Y-138655250D01*
X115923653Y-138623741D01*
X115839981Y-138572617D01*
X115767935Y-138503429D01*
X115709400Y-138417728D01*
X115695452Y-138390489D01*
X115679014Y-138354122D01*
X115668706Y-138323582D01*
X115663140Y-138291450D01*
X115660931Y-138250307D01*
X115660652Y-138204222D01*
X115664739Y-138119865D01*
X115678154Y-138050586D01*
X115703344Y-137989961D01*
X115742754Y-137931567D01*
X115781302Y-137887302D01*
X115853194Y-137821484D01*
X115928287Y-137776053D01*
X116011038Y-137748850D01*
X116088672Y-137738576D01*
X116192557Y-137742571D01*
G36*
X117165486Y-142989448D02*
G01*
X117189052Y-143003273D01*
X117219865Y-143025881D01*
X117259522Y-143058338D01*
X117309620Y-143101708D01*
X117371757Y-143157058D01*
X117447528Y-143225451D01*
X117534266Y-143304084D01*
X117714889Y-143467878D01*
X117720533Y-143248029D01*
X117722571Y-143172351D01*
X117724537Y-143115994D01*
X117726866Y-143075706D01*
X117729994Y-143048235D01*
X117734355Y-143030329D01*
X117740384Y-143018737D01*
X117748516Y-143010208D01*
X117752828Y-143006623D01*
X117787359Y-142987670D01*
X117820217Y-142990441D01*
X117846282Y-143006633D01*
X117872933Y-143028199D01*
X117876248Y-143343151D01*
X117877165Y-143435779D01*
X117877632Y-143508544D01*
X117877487Y-143564161D01*
X117876568Y-143605342D01*
X117874713Y-143634803D01*
X117871761Y-143655255D01*
X117867550Y-143669413D01*
X117861918Y-143679991D01*
X117855673Y-143688474D01*
X117842161Y-143704207D01*
X117828717Y-143714636D01*
X117813476Y-143718639D01*
X117794574Y-143715094D01*
X117770145Y-143702879D01*
X117738327Y-143680871D01*
X117697252Y-143647949D01*
X117645058Y-143602991D01*
X117579878Y-143544875D01*
X117506044Y-143478099D01*
X117240755Y-143237458D01*
X117235111Y-143456589D01*
X117233069Y-143532128D01*
X117231098Y-143588354D01*
X117228761Y-143628524D01*
X117225619Y-143655896D01*
X117221236Y-143673728D01*
X117215176Y-143685279D01*
X117207000Y-143693807D01*
X117202816Y-143697282D01*
X117165835Y-143716372D01*
X117130892Y-143713493D01*
X117100464Y-143689100D01*
X117093503Y-143679286D01*
X117088077Y-143667826D01*
X117083997Y-143651968D01*
X117081071Y-143628963D01*
X117079108Y-143596062D01*
X117077917Y-143550516D01*
X117077308Y-143489573D01*
X117077089Y-143410486D01*
X117077066Y-143351956D01*
X117077140Y-143260407D01*
X117077487Y-143188687D01*
X117078299Y-143134045D01*
X117079767Y-143093732D01*
X117082081Y-143064998D01*
X117085433Y-143045093D01*
X117090012Y-143031268D01*
X117096011Y-143020772D01*
X117100464Y-143014811D01*
X117111750Y-143000691D01*
X117122299Y-142990029D01*
X117133707Y-142983892D01*
X117147570Y-142983343D01*
X117165486Y-142989448D01*
G37*
X117165486Y-142989448D02*
X117189052Y-143003273D01*
X117219865Y-143025881D01*
X117259522Y-143058338D01*
X117309620Y-143101708D01*
X117371757Y-143157058D01*
X117447528Y-143225451D01*
X117534266Y-143304084D01*
X117714889Y-143467878D01*
X117720533Y-143248029D01*
X117722571Y-143172351D01*
X117724537Y-143115994D01*
X117726866Y-143075706D01*
X117729994Y-143048235D01*
X117734355Y-143030329D01*
X117740384Y-143018737D01*
X117748516Y-143010208D01*
X117752828Y-143006623D01*
X117787359Y-142987670D01*
X117820217Y-142990441D01*
X117846282Y-143006633D01*
X117872933Y-143028199D01*
X117876248Y-143343151D01*
X117877165Y-143435779D01*
X117877632Y-143508544D01*
X117877487Y-143564161D01*
X117876568Y-143605342D01*
X117874713Y-143634803D01*
X117871761Y-143655255D01*
X117867550Y-143669413D01*
X117861918Y-143679991D01*
X117855673Y-143688474D01*
X117842161Y-143704207D01*
X117828717Y-143714636D01*
X117813476Y-143718639D01*
X117794574Y-143715094D01*
X117770145Y-143702879D01*
X117738327Y-143680871D01*
X117697252Y-143647949D01*
X117645058Y-143602991D01*
X117579878Y-143544875D01*
X117506044Y-143478099D01*
X117240755Y-143237458D01*
X117235111Y-143456589D01*
X117233069Y-143532128D01*
X117231098Y-143588354D01*
X117228761Y-143628524D01*
X117225619Y-143655896D01*
X117221236Y-143673728D01*
X117215176Y-143685279D01*
X117207000Y-143693807D01*
X117202816Y-143697282D01*
X117165835Y-143716372D01*
X117130892Y-143713493D01*
X117100464Y-143689100D01*
X117093503Y-143679286D01*
X117088077Y-143667826D01*
X117083997Y-143651968D01*
X117081071Y-143628963D01*
X117079108Y-143596062D01*
X117077917Y-143550516D01*
X117077308Y-143489573D01*
X117077089Y-143410486D01*
X117077066Y-143351956D01*
X117077140Y-143260407D01*
X117077487Y-143188687D01*
X117078299Y-143134045D01*
X117079767Y-143093732D01*
X117082081Y-143064998D01*
X117085433Y-143045093D01*
X117090012Y-143031268D01*
X117096011Y-143020772D01*
X117100464Y-143014811D01*
X117111750Y-143000691D01*
X117122299Y-142990029D01*
X117133707Y-142983892D01*
X117147570Y-142983343D01*
X117165486Y-142989448D01*
G36*
X113752806Y-142985146D02*
G01*
X113822214Y-142985518D01*
X113874603Y-142986385D01*
X113912753Y-142987946D01*
X113939441Y-142990403D01*
X113957447Y-142993957D01*
X113969551Y-142998810D01*
X113978531Y-143005161D01*
X113981782Y-143008084D01*
X114001557Y-143039142D01*
X114005118Y-143074828D01*
X113992109Y-143106510D01*
X113986094Y-143112913D01*
X113976365Y-143119121D01*
X113960699Y-143123910D01*
X113936192Y-143127514D01*
X113899939Y-143130164D01*
X113849035Y-143132095D01*
X113780574Y-143133539D01*
X113717983Y-143134418D01*
X113470266Y-143137467D01*
X113466881Y-143202378D01*
X113463495Y-143267289D01*
X113631642Y-143267289D01*
X113704641Y-143267919D01*
X113758083Y-143270553D01*
X113794972Y-143276309D01*
X113818312Y-143286304D01*
X113831106Y-143301656D01*
X113836358Y-143323482D01*
X113837155Y-143343738D01*
X113834677Y-143368592D01*
X113825323Y-143386906D01*
X113806217Y-143399637D01*
X113774482Y-143407741D01*
X113727241Y-143412176D01*
X113661617Y-143413899D01*
X113625799Y-143414045D01*
X113464622Y-143414045D01*
X113464622Y-143572089D01*
X113712978Y-143572089D01*
X113794387Y-143572202D01*
X113856258Y-143572712D01*
X113901632Y-143573870D01*
X113933546Y-143575930D01*
X113955041Y-143579146D01*
X113969157Y-143583772D01*
X113978932Y-143590059D01*
X113983911Y-143594667D01*
X114000990Y-143621560D01*
X114006489Y-143645467D01*
X113998637Y-143674667D01*
X113983911Y-143696267D01*
X113976054Y-143703066D01*
X113965912Y-143708346D01*
X113950756Y-143712298D01*
X113927859Y-143715113D01*
X113894491Y-143716982D01*
X113847925Y-143718098D01*
X113785433Y-143718651D01*
X113704286Y-143718833D01*
X113662178Y-143718845D01*
X113572002Y-143718765D01*
X113501676Y-143718398D01*
X113448471Y-143717552D01*
X113409660Y-143716036D01*
X113382513Y-143713659D01*
X113364302Y-143710229D01*
X113352300Y-143705554D01*
X113343778Y-143699444D01*
X113340444Y-143696267D01*
X113333845Y-143688670D01*
X113328673Y-143678870D01*
X113324754Y-143664239D01*
X113321916Y-143642152D01*
X113319985Y-143609982D01*
X113318788Y-143565103D01*
X113318152Y-143504889D01*
X113317903Y-143426713D01*
X113317866Y-143353923D01*
X113317900Y-143260707D01*
X113318135Y-143187431D01*
X113318770Y-143131458D01*
X113320006Y-143090151D01*
X113322044Y-143060872D01*
X113325083Y-143040984D01*
X113329323Y-143027850D01*
X113334965Y-143018832D01*
X113342209Y-143011293D01*
X113343994Y-143009612D01*
X113352655Y-143002172D01*
X113362718Y-142996409D01*
X113376975Y-142992112D01*
X113398217Y-142989064D01*
X113429236Y-142987051D01*
X113472823Y-142985860D01*
X113531769Y-142985275D01*
X113608866Y-142985083D01*
X113663599Y-142985067D01*
X113752806Y-142985146D01*
G37*
X113752806Y-142985146D02*
X113822214Y-142985518D01*
X113874603Y-142986385D01*
X113912753Y-142987946D01*
X113939441Y-142990403D01*
X113957447Y-142993957D01*
X113969551Y-142998810D01*
X113978531Y-143005161D01*
X113981782Y-143008084D01*
X114001557Y-143039142D01*
X114005118Y-143074828D01*
X113992109Y-143106510D01*
X113986094Y-143112913D01*
X113976365Y-143119121D01*
X113960699Y-143123910D01*
X113936192Y-143127514D01*
X113899939Y-143130164D01*
X113849035Y-143132095D01*
X113780574Y-143133539D01*
X113717983Y-143134418D01*
X113470266Y-143137467D01*
X113466881Y-143202378D01*
X113463495Y-143267289D01*
X113631642Y-143267289D01*
X113704641Y-143267919D01*
X113758083Y-143270553D01*
X113794972Y-143276309D01*
X113818312Y-143286304D01*
X113831106Y-143301656D01*
X113836358Y-143323482D01*
X113837155Y-143343738D01*
X113834677Y-143368592D01*
X113825323Y-143386906D01*
X113806217Y-143399637D01*
X113774482Y-143407741D01*
X113727241Y-143412176D01*
X113661617Y-143413899D01*
X113625799Y-143414045D01*
X113464622Y-143414045D01*
X113464622Y-143572089D01*
X113712978Y-143572089D01*
X113794387Y-143572202D01*
X113856258Y-143572712D01*
X113901632Y-143573870D01*
X113933546Y-143575930D01*
X113955041Y-143579146D01*
X113969157Y-143583772D01*
X113978932Y-143590059D01*
X113983911Y-143594667D01*
X114000990Y-143621560D01*
X114006489Y-143645467D01*
X113998637Y-143674667D01*
X113983911Y-143696267D01*
X113976054Y-143703066D01*
X113965912Y-143708346D01*
X113950756Y-143712298D01*
X113927859Y-143715113D01*
X113894491Y-143716982D01*
X113847925Y-143718098D01*
X113785433Y-143718651D01*
X113704286Y-143718833D01*
X113662178Y-143718845D01*
X113572002Y-143718765D01*
X113501676Y-143718398D01*
X113448471Y-143717552D01*
X113409660Y-143716036D01*
X113382513Y-143713659D01*
X113364302Y-143710229D01*
X113352300Y-143705554D01*
X113343778Y-143699444D01*
X113340444Y-143696267D01*
X113333845Y-143688670D01*
X113328673Y-143678870D01*
X113324754Y-143664239D01*
X113321916Y-143642152D01*
X113319985Y-143609982D01*
X113318788Y-143565103D01*
X113318152Y-143504889D01*
X113317903Y-143426713D01*
X113317866Y-143353923D01*
X113317900Y-143260707D01*
X113318135Y-143187431D01*
X113318770Y-143131458D01*
X113320006Y-143090151D01*
X113322044Y-143060872D01*
X113325083Y-143040984D01*
X113329323Y-143027850D01*
X113334965Y-143018832D01*
X113342209Y-143011293D01*
X113343994Y-143009612D01*
X113352655Y-143002172D01*
X113362718Y-142996409D01*
X113376975Y-142992112D01*
X113398217Y-142989064D01*
X113429236Y-142987051D01*
X113472823Y-142985860D01*
X113531769Y-142985275D01*
X113608866Y-142985083D01*
X113663599Y-142985067D01*
X113752806Y-142985146D01*
G36*
X118695943Y-142985260D02*
G01*
X118772301Y-142986174D01*
X118830817Y-142988311D01*
X118873855Y-142992175D01*
X118903783Y-142998267D01*
X118922968Y-143007090D01*
X118933776Y-143019146D01*
X118938573Y-143034939D01*
X118939727Y-143054970D01*
X118939733Y-143057335D01*
X118938731Y-143079992D01*
X118933996Y-143097503D01*
X118922933Y-143110574D01*
X118902948Y-143119913D01*
X118871446Y-143126227D01*
X118825832Y-143130222D01*
X118763513Y-143132606D01*
X118681893Y-143134086D01*
X118656877Y-143134414D01*
X118414800Y-143137467D01*
X118411414Y-143202378D01*
X118408029Y-143267289D01*
X118576176Y-143267289D01*
X118641866Y-143267531D01*
X118688772Y-143268556D01*
X118720683Y-143270811D01*
X118741391Y-143274742D01*
X118754684Y-143280798D01*
X118764355Y-143289424D01*
X118764417Y-143289493D01*
X118781956Y-143323112D01*
X118781322Y-143359448D01*
X118762914Y-143390423D01*
X118759271Y-143393607D01*
X118746341Y-143401812D01*
X118728624Y-143407521D01*
X118702170Y-143411162D01*
X118663032Y-143413167D01*
X118607262Y-143413964D01*
X118571594Y-143414045D01*
X118409155Y-143414045D01*
X118409155Y-143572089D01*
X118655761Y-143572089D01*
X118737180Y-143572231D01*
X118799010Y-143572814D01*
X118844237Y-143574068D01*
X118875848Y-143576227D01*
X118896831Y-143579523D01*
X118910173Y-143584189D01*
X118918861Y-143590457D01*
X118921050Y-143592733D01*
X118937214Y-143624280D01*
X118938397Y-143660168D01*
X118925136Y-143691285D01*
X118914643Y-143701271D01*
X118903729Y-143706769D01*
X118886817Y-143711022D01*
X118861233Y-143714180D01*
X118824301Y-143716392D01*
X118773346Y-143717806D01*
X118705694Y-143718572D01*
X118618669Y-143718838D01*
X118598994Y-143718845D01*
X118510511Y-143718787D01*
X118441827Y-143718467D01*
X118390164Y-143717667D01*
X118352745Y-143716167D01*
X118326790Y-143713749D01*
X118309522Y-143710194D01*
X118298162Y-143705282D01*
X118289932Y-143698795D01*
X118285417Y-143694138D01*
X118278621Y-143685889D01*
X118273312Y-143675669D01*
X118269306Y-143660800D01*
X118266421Y-143638602D01*
X118264474Y-143606393D01*
X118263281Y-143561496D01*
X118262661Y-143501228D01*
X118262429Y-143422911D01*
X118262400Y-143356994D01*
X118262471Y-143264628D01*
X118262808Y-143192117D01*
X118263598Y-143136737D01*
X118265026Y-143095765D01*
X118267279Y-143066478D01*
X118270543Y-143046153D01*
X118275004Y-143032066D01*
X118280848Y-143021495D01*
X118285797Y-143014811D01*
X118309194Y-142985067D01*
X118599374Y-142985067D01*
X118695943Y-142985260D01*
G37*
X118695943Y-142985260D02*
X118772301Y-142986174D01*
X118830817Y-142988311D01*
X118873855Y-142992175D01*
X118903783Y-142998267D01*
X118922968Y-143007090D01*
X118933776Y-143019146D01*
X118938573Y-143034939D01*
X118939727Y-143054970D01*
X118939733Y-143057335D01*
X118938731Y-143079992D01*
X118933996Y-143097503D01*
X118922933Y-143110574D01*
X118902948Y-143119913D01*
X118871446Y-143126227D01*
X118825832Y-143130222D01*
X118763513Y-143132606D01*
X118681893Y-143134086D01*
X118656877Y-143134414D01*
X118414800Y-143137467D01*
X118411414Y-143202378D01*
X118408029Y-143267289D01*
X118576176Y-143267289D01*
X118641866Y-143267531D01*
X118688772Y-143268556D01*
X118720683Y-143270811D01*
X118741391Y-143274742D01*
X118754684Y-143280798D01*
X118764355Y-143289424D01*
X118764417Y-143289493D01*
X118781956Y-143323112D01*
X118781322Y-143359448D01*
X118762914Y-143390423D01*
X118759271Y-143393607D01*
X118746341Y-143401812D01*
X118728624Y-143407521D01*
X118702170Y-143411162D01*
X118663032Y-143413167D01*
X118607262Y-143413964D01*
X118571594Y-143414045D01*
X118409155Y-143414045D01*
X118409155Y-143572089D01*
X118655761Y-143572089D01*
X118737180Y-143572231D01*
X118799010Y-143572814D01*
X118844237Y-143574068D01*
X118875848Y-143576227D01*
X118896831Y-143579523D01*
X118910173Y-143584189D01*
X118918861Y-143590457D01*
X118921050Y-143592733D01*
X118937214Y-143624280D01*
X118938397Y-143660168D01*
X118925136Y-143691285D01*
X118914643Y-143701271D01*
X118903729Y-143706769D01*
X118886817Y-143711022D01*
X118861233Y-143714180D01*
X118824301Y-143716392D01*
X118773346Y-143717806D01*
X118705694Y-143718572D01*
X118618669Y-143718838D01*
X118598994Y-143718845D01*
X118510511Y-143718787D01*
X118441827Y-143718467D01*
X118390164Y-143717667D01*
X118352745Y-143716167D01*
X118326790Y-143713749D01*
X118309522Y-143710194D01*
X118298162Y-143705282D01*
X118289932Y-143698795D01*
X118285417Y-143694138D01*
X118278621Y-143685889D01*
X118273312Y-143675669D01*
X118269306Y-143660800D01*
X118266421Y-143638602D01*
X118264474Y-143606393D01*
X118263281Y-143561496D01*
X118262661Y-143501228D01*
X118262429Y-143422911D01*
X118262400Y-143356994D01*
X118262471Y-143264628D01*
X118262808Y-143192117D01*
X118263598Y-143136737D01*
X118265026Y-143095765D01*
X118267279Y-143066478D01*
X118270543Y-143046153D01*
X118275004Y-143032066D01*
X118280848Y-143021495D01*
X118285797Y-143014811D01*
X118309194Y-142985067D01*
X118599374Y-142985067D01*
X118695943Y-142985260D01*
G36*
X122654214Y-142991877D02*
G01*
X122677927Y-143006647D01*
X122704578Y-143028227D01*
X122704578Y-143349773D01*
X122704493Y-143443830D01*
X122704129Y-143517932D01*
X122703324Y-143574704D01*
X122701913Y-143616768D01*
X122699733Y-143646748D01*
X122696621Y-143667267D01*
X122692414Y-143680949D01*
X122686948Y-143690416D01*
X122683072Y-143695082D01*
X122651634Y-143715575D01*
X122615833Y-143714739D01*
X122584473Y-143697264D01*
X122557822Y-143675684D01*
X122557822Y-143028227D01*
X122584473Y-143006647D01*
X122610194Y-142990949D01*
X122631200Y-142985067D01*
X122654214Y-142991877D01*
G37*
X122654214Y-142991877D02*
X122677927Y-143006647D01*
X122704578Y-143028227D01*
X122704578Y-143349773D01*
X122704493Y-143443830D01*
X122704129Y-143517932D01*
X122703324Y-143574704D01*
X122701913Y-143616768D01*
X122699733Y-143646748D01*
X122696621Y-143667267D01*
X122692414Y-143680949D01*
X122686948Y-143690416D01*
X122683072Y-143695082D01*
X122651634Y-143715575D01*
X122615833Y-143714739D01*
X122584473Y-143697264D01*
X122557822Y-143675684D01*
X122557822Y-143028227D01*
X122584473Y-143006647D01*
X122610194Y-142990949D01*
X122631200Y-142985067D01*
X122654214Y-142991877D01*
G36*
X124694423Y-142990533D02*
G01*
X124725802Y-143012776D01*
X124753511Y-143040485D01*
X124753511Y-143349920D01*
X124753438Y-143441799D01*
X124753095Y-143513840D01*
X124752292Y-143568780D01*
X124750841Y-143609360D01*
X124748552Y-143638317D01*
X124745236Y-143658391D01*
X124740705Y-143672321D01*
X124734769Y-143682845D01*
X124730114Y-143689100D01*
X124699383Y-143713673D01*
X124664096Y-143716341D01*
X124631845Y-143701271D01*
X124621188Y-143692374D01*
X124614064Y-143680557D01*
X124609767Y-143661526D01*
X124607591Y-143630992D01*
X124606828Y-143584662D01*
X124606755Y-143548871D01*
X124606755Y-143414045D01*
X124110044Y-143414045D01*
X124110044Y-143536700D01*
X124109531Y-143592787D01*
X124107476Y-143631333D01*
X124103108Y-143657361D01*
X124095656Y-143675897D01*
X124086647Y-143689100D01*
X124055744Y-143713604D01*
X124020796Y-143716506D01*
X123987338Y-143699089D01*
X123978204Y-143689959D01*
X123971752Y-143677855D01*
X123967497Y-143659001D01*
X123964952Y-143629620D01*
X123963629Y-143585937D01*
X123963043Y-143524175D01*
X123962975Y-143510000D01*
X123962491Y-143393631D01*
X123962241Y-143297727D01*
X123962323Y-143220177D01*
X123962831Y-143158869D01*
X123963862Y-143111690D01*
X123965513Y-143076530D01*
X123967879Y-143051276D01*
X123971057Y-143033817D01*
X123975144Y-143022041D01*
X123980234Y-143013835D01*
X123985866Y-143007645D01*
X124017728Y-142987844D01*
X124050957Y-142990533D01*
X124082335Y-143012776D01*
X124095033Y-143027126D01*
X124103126Y-143042978D01*
X124107642Y-143065554D01*
X124109606Y-143100078D01*
X124110044Y-143151776D01*
X124110044Y-143267289D01*
X124606755Y-143267289D01*
X124606755Y-143148756D01*
X124607262Y-143094148D01*
X124609298Y-143057275D01*
X124613635Y-143033307D01*
X124621047Y-143017415D01*
X124629333Y-143007645D01*
X124661194Y-142987844D01*
X124694423Y-142990533D01*
G37*
X124694423Y-142990533D02*
X124725802Y-143012776D01*
X124753511Y-143040485D01*
X124753511Y-143349920D01*
X124753438Y-143441799D01*
X124753095Y-143513840D01*
X124752292Y-143568780D01*
X124750841Y-143609360D01*
X124748552Y-143638317D01*
X124745236Y-143658391D01*
X124740705Y-143672321D01*
X124734769Y-143682845D01*
X124730114Y-143689100D01*
X124699383Y-143713673D01*
X124664096Y-143716341D01*
X124631845Y-143701271D01*
X124621188Y-143692374D01*
X124614064Y-143680557D01*
X124609767Y-143661526D01*
X124607591Y-143630992D01*
X124606828Y-143584662D01*
X124606755Y-143548871D01*
X124606755Y-143414045D01*
X124110044Y-143414045D01*
X124110044Y-143536700D01*
X124109531Y-143592787D01*
X124107476Y-143631333D01*
X124103108Y-143657361D01*
X124095656Y-143675897D01*
X124086647Y-143689100D01*
X124055744Y-143713604D01*
X124020796Y-143716506D01*
X123987338Y-143699089D01*
X123978204Y-143689959D01*
X123971752Y-143677855D01*
X123967497Y-143659001D01*
X123964952Y-143629620D01*
X123963629Y-143585937D01*
X123963043Y-143524175D01*
X123962975Y-143510000D01*
X123962491Y-143393631D01*
X123962241Y-143297727D01*
X123962323Y-143220177D01*
X123962831Y-143158869D01*
X123963862Y-143111690D01*
X123965513Y-143076530D01*
X123967879Y-143051276D01*
X123971057Y-143033817D01*
X123975144Y-143022041D01*
X123980234Y-143013835D01*
X123985866Y-143007645D01*
X124017728Y-142987844D01*
X124050957Y-142990533D01*
X124082335Y-143012776D01*
X124095033Y-143027126D01*
X124103126Y-143042978D01*
X124107642Y-143065554D01*
X124109606Y-143100078D01*
X124110044Y-143151776D01*
X124110044Y-143267289D01*
X124606755Y-143267289D01*
X124606755Y-143148756D01*
X124607262Y-143094148D01*
X124609298Y-143057275D01*
X124613635Y-143033307D01*
X124621047Y-143017415D01*
X124629333Y-143007645D01*
X124661194Y-142987844D01*
X124694423Y-142990533D01*
G36*
X116515519Y-142990599D02*
G01*
X116584035Y-143002095D01*
X116636657Y-143019967D01*
X116670892Y-143043499D01*
X116680221Y-143056924D01*
X116689707Y-143088148D01*
X116683323Y-143116395D01*
X116663170Y-143143182D01*
X116631855Y-143155713D01*
X116586417Y-143154696D01*
X116551274Y-143147906D01*
X116473181Y-143134971D01*
X116393374Y-143133742D01*
X116304045Y-143144241D01*
X116279371Y-143148690D01*
X116196309Y-143172108D01*
X116131327Y-143206945D01*
X116085139Y-143252604D01*
X116058455Y-143308494D01*
X116052937Y-143337388D01*
X116056549Y-143396012D01*
X116079871Y-143447879D01*
X116120776Y-143491978D01*
X116177141Y-143527299D01*
X116246840Y-143552829D01*
X116327748Y-143567559D01*
X116417740Y-143570478D01*
X116514690Y-143560575D01*
X116520164Y-143559641D01*
X116558725Y-143552459D01*
X116580106Y-143545521D01*
X116589373Y-143535227D01*
X116591594Y-143517976D01*
X116591644Y-143508841D01*
X116591644Y-143470489D01*
X116523169Y-143470489D01*
X116462700Y-143466347D01*
X116421435Y-143453147D01*
X116397425Y-143429730D01*
X116388723Y-143394936D01*
X116388617Y-143390394D01*
X116393708Y-143360654D01*
X116411167Y-143339419D01*
X116443661Y-143325366D01*
X116493857Y-143317173D01*
X116542477Y-143314161D01*
X116613144Y-143312433D01*
X116664402Y-143315070D01*
X116699361Y-143324800D01*
X116721130Y-143344353D01*
X116732820Y-143376456D01*
X116737540Y-143423838D01*
X116738400Y-143486071D01*
X116736991Y-143555535D01*
X116732752Y-143602786D01*
X116725664Y-143628012D01*
X116724289Y-143629988D01*
X116685372Y-143661508D01*
X116628314Y-143686470D01*
X116556731Y-143704340D01*
X116474242Y-143714586D01*
X116384461Y-143716673D01*
X116291008Y-143710068D01*
X116236044Y-143701956D01*
X116149834Y-143677554D01*
X116069708Y-143637662D01*
X116002623Y-143585887D01*
X115992427Y-143575539D01*
X115959298Y-143532035D01*
X115929406Y-143478118D01*
X115906243Y-143421592D01*
X115893302Y-143370259D01*
X115891742Y-143350544D01*
X115898382Y-143309419D01*
X115916032Y-143258252D01*
X115941303Y-143204394D01*
X115970811Y-143155195D01*
X115996881Y-143122334D01*
X116057835Y-143073452D01*
X116136631Y-143034545D01*
X116230443Y-143006494D01*
X116336450Y-142990179D01*
X116433600Y-142986192D01*
X116515519Y-142990599D01*
G37*
X116515519Y-142990599D02*
X116584035Y-143002095D01*
X116636657Y-143019967D01*
X116670892Y-143043499D01*
X116680221Y-143056924D01*
X116689707Y-143088148D01*
X116683323Y-143116395D01*
X116663170Y-143143182D01*
X116631855Y-143155713D01*
X116586417Y-143154696D01*
X116551274Y-143147906D01*
X116473181Y-143134971D01*
X116393374Y-143133742D01*
X116304045Y-143144241D01*
X116279371Y-143148690D01*
X116196309Y-143172108D01*
X116131327Y-143206945D01*
X116085139Y-143252604D01*
X116058455Y-143308494D01*
X116052937Y-143337388D01*
X116056549Y-143396012D01*
X116079871Y-143447879D01*
X116120776Y-143491978D01*
X116177141Y-143527299D01*
X116246840Y-143552829D01*
X116327748Y-143567559D01*
X116417740Y-143570478D01*
X116514690Y-143560575D01*
X116520164Y-143559641D01*
X116558725Y-143552459D01*
X116580106Y-143545521D01*
X116589373Y-143535227D01*
X116591594Y-143517976D01*
X116591644Y-143508841D01*
X116591644Y-143470489D01*
X116523169Y-143470489D01*
X116462700Y-143466347D01*
X116421435Y-143453147D01*
X116397425Y-143429730D01*
X116388723Y-143394936D01*
X116388617Y-143390394D01*
X116393708Y-143360654D01*
X116411167Y-143339419D01*
X116443661Y-143325366D01*
X116493857Y-143317173D01*
X116542477Y-143314161D01*
X116613144Y-143312433D01*
X116664402Y-143315070D01*
X116699361Y-143324800D01*
X116721130Y-143344353D01*
X116732820Y-143376456D01*
X116737540Y-143423838D01*
X116738400Y-143486071D01*
X116736991Y-143555535D01*
X116732752Y-143602786D01*
X116725664Y-143628012D01*
X116724289Y-143629988D01*
X116685372Y-143661508D01*
X116628314Y-143686470D01*
X116556731Y-143704340D01*
X116474242Y-143714586D01*
X116384461Y-143716673D01*
X116291008Y-143710068D01*
X116236044Y-143701956D01*
X116149834Y-143677554D01*
X116069708Y-143637662D01*
X116002623Y-143585887D01*
X115992427Y-143575539D01*
X115959298Y-143532035D01*
X115929406Y-143478118D01*
X115906243Y-143421592D01*
X115893302Y-143370259D01*
X115891742Y-143350544D01*
X115898382Y-143309419D01*
X115916032Y-143258252D01*
X115941303Y-143204394D01*
X115970811Y-143155195D01*
X115996881Y-143122334D01*
X116057835Y-143073452D01*
X116136631Y-143034545D01*
X116230443Y-143006494D01*
X116336450Y-142990179D01*
X116433600Y-142986192D01*
X116515519Y-142990599D01*
G36*
X119278650Y-143490311D02*
G01*
X119278425Y-143411526D01*
X119278400Y-143349920D01*
X119278400Y-143040485D01*
X119306109Y-143012776D01*
X119318406Y-143001544D01*
X119331703Y-142993853D01*
X119350272Y-142989040D01*
X119378386Y-142986446D01*
X119420317Y-142985410D01*
X119480337Y-142985270D01*
X119483909Y-142985275D01*
X119612888Y-142989636D01*
X119722591Y-143002861D01*
X119814826Y-143025741D01*
X119891402Y-143059070D01*
X119954127Y-143103638D01*
X120004812Y-143160236D01*
X120045263Y-143229658D01*
X120046059Y-143231351D01*
X120070201Y-143293483D01*
X120078803Y-143348509D01*
X120071831Y-143403887D01*
X120049254Y-143467073D01*
X120044972Y-143476689D01*
X120015772Y-143532966D01*
X119982956Y-143576451D01*
X119940602Y-143613417D01*
X119882790Y-143650135D01*
X119879431Y-143652052D01*
X119829104Y-143676227D01*
X119772221Y-143694282D01*
X119705127Y-143706839D01*
X119624165Y-143714522D01*
X119525682Y-143717953D01*
X119490886Y-143718251D01*
X119325194Y-143718845D01*
X119301797Y-143689100D01*
X119294857Y-143679319D01*
X119289442Y-143667897D01*
X119285365Y-143652095D01*
X119282437Y-143629175D01*
X119280467Y-143596396D01*
X119279825Y-143572089D01*
X119436444Y-143572089D01*
X119530326Y-143572089D01*
X119585264Y-143570483D01*
X119641660Y-143566255D01*
X119687945Y-143560292D01*
X119690739Y-143559790D01*
X119772948Y-143537736D01*
X119836714Y-143504600D01*
X119884052Y-143458847D01*
X119916982Y-143398939D01*
X119922708Y-143383061D01*
X119928321Y-143358333D01*
X119925891Y-143333902D01*
X119914067Y-143301400D01*
X119906940Y-143285434D01*
X119883600Y-143243006D01*
X119855480Y-143213240D01*
X119824540Y-143192511D01*
X119762566Y-143165537D01*
X119683251Y-143145998D01*
X119590853Y-143134746D01*
X119523933Y-143132270D01*
X119436444Y-143131822D01*
X119436444Y-143572089D01*
X119279825Y-143572089D01*
X119279268Y-143551021D01*
X119278650Y-143490311D01*
G37*
X119278650Y-143490311D02*
X119278425Y-143411526D01*
X119278400Y-143349920D01*
X119278400Y-143040485D01*
X119306109Y-143012776D01*
X119318406Y-143001544D01*
X119331703Y-142993853D01*
X119350272Y-142989040D01*
X119378386Y-142986446D01*
X119420317Y-142985410D01*
X119480337Y-142985270D01*
X119483909Y-142985275D01*
X119612888Y-142989636D01*
X119722591Y-143002861D01*
X119814826Y-143025741D01*
X119891402Y-143059070D01*
X119954127Y-143103638D01*
X120004812Y-143160236D01*
X120045263Y-143229658D01*
X120046059Y-143231351D01*
X120070201Y-143293483D01*
X120078803Y-143348509D01*
X120071831Y-143403887D01*
X120049254Y-143467073D01*
X120044972Y-143476689D01*
X120015772Y-143532966D01*
X119982956Y-143576451D01*
X119940602Y-143613417D01*
X119882790Y-143650135D01*
X119879431Y-143652052D01*
X119829104Y-143676227D01*
X119772221Y-143694282D01*
X119705127Y-143706839D01*
X119624165Y-143714522D01*
X119525682Y-143717953D01*
X119490886Y-143718251D01*
X119325194Y-143718845D01*
X119301797Y-143689100D01*
X119294857Y-143679319D01*
X119289442Y-143667897D01*
X119285365Y-143652095D01*
X119282437Y-143629175D01*
X119280467Y-143596396D01*
X119279825Y-143572089D01*
X119436444Y-143572089D01*
X119530326Y-143572089D01*
X119585264Y-143570483D01*
X119641660Y-143566255D01*
X119687945Y-143560292D01*
X119690739Y-143559790D01*
X119772948Y-143537736D01*
X119836714Y-143504600D01*
X119884052Y-143458847D01*
X119916982Y-143398939D01*
X119922708Y-143383061D01*
X119928321Y-143358333D01*
X119925891Y-143333902D01*
X119914067Y-143301400D01*
X119906940Y-143285434D01*
X119883600Y-143243006D01*
X119855480Y-143213240D01*
X119824540Y-143192511D01*
X119762566Y-143165537D01*
X119683251Y-143145998D01*
X119590853Y-143134746D01*
X119523933Y-143132270D01*
X119436444Y-143131822D01*
X119436444Y-143572089D01*
X119279825Y-143572089D01*
X119279268Y-143551021D01*
X119278650Y-143490311D01*
G36*
X118794029Y-138665071D02*
G01*
X118954170Y-138686245D01*
X119118110Y-138726385D01*
X119287913Y-138785889D01*
X119465643Y-138865154D01*
X119476910Y-138870699D01*
X119534605Y-138898725D01*
X119586152Y-138922802D01*
X119627791Y-138941249D01*
X119655762Y-138952386D01*
X119665333Y-138954933D01*
X119684550Y-138959941D01*
X119689161Y-138964147D01*
X119684058Y-138974580D01*
X119668018Y-139000868D01*
X119642888Y-139040257D01*
X119610514Y-139089991D01*
X119572743Y-139147315D01*
X119531422Y-139209476D01*
X119488398Y-139273718D01*
X119445517Y-139337285D01*
X119404626Y-139397425D01*
X119367571Y-139451380D01*
X119336200Y-139496397D01*
X119312359Y-139529721D01*
X119297894Y-139548597D01*
X119295909Y-139550787D01*
X119285791Y-139546138D01*
X119263450Y-139528962D01*
X119232880Y-139502440D01*
X119217136Y-139487964D01*
X119120647Y-139412682D01*
X119013936Y-139357241D01*
X118898432Y-139322141D01*
X118775562Y-139307880D01*
X118706161Y-139309051D01*
X118585023Y-139326212D01*
X118475805Y-139362094D01*
X118378182Y-139416959D01*
X118291828Y-139491070D01*
X118216415Y-139584688D01*
X118151618Y-139698076D01*
X118114201Y-139784667D01*
X118070348Y-139920366D01*
X118038028Y-140067850D01*
X118017157Y-140223314D01*
X118007651Y-140382956D01*
X118009427Y-140542973D01*
X118022403Y-140699561D01*
X118046494Y-140848918D01*
X118081618Y-140987240D01*
X118127692Y-141110724D01*
X118143973Y-141144978D01*
X118212220Y-141259064D01*
X118292679Y-141355557D01*
X118384170Y-141433670D01*
X118485511Y-141492617D01*
X118595520Y-141531612D01*
X118713015Y-141549868D01*
X118754483Y-141551211D01*
X118876041Y-141540290D01*
X118996478Y-141507474D01*
X119114266Y-141453439D01*
X119227877Y-141378865D01*
X119319285Y-141300539D01*
X119365815Y-141256008D01*
X119547083Y-141553271D01*
X119592180Y-141627433D01*
X119633419Y-141695646D01*
X119669335Y-141755459D01*
X119698466Y-141804420D01*
X119719350Y-141840079D01*
X119730524Y-141859984D01*
X119731975Y-141863079D01*
X119723746Y-141872718D01*
X119698167Y-141889999D01*
X119658473Y-141913283D01*
X119607897Y-141940934D01*
X119549674Y-141971315D01*
X119487037Y-142002790D01*
X119423221Y-142033722D01*
X119361460Y-142062473D01*
X119304988Y-142087408D01*
X119257038Y-142106889D01*
X119233586Y-142115318D01*
X119099821Y-142153133D01*
X118961927Y-142178136D01*
X118814222Y-142191140D01*
X118687433Y-142193468D01*
X118619478Y-142192373D01*
X118553877Y-142190275D01*
X118496447Y-142187434D01*
X118453003Y-142184106D01*
X118438898Y-142182422D01*
X118299884Y-142153587D01*
X118158357Y-142108468D01*
X118020875Y-142049750D01*
X117893994Y-141980120D01*
X117816489Y-141927441D01*
X117689081Y-141819239D01*
X117570778Y-141692671D01*
X117463772Y-141550866D01*
X117370252Y-141396951D01*
X117292410Y-141234053D01*
X117248556Y-141116756D01*
X117198308Y-140933128D01*
X117164809Y-140738581D01*
X117148049Y-140537325D01*
X117148016Y-140333568D01*
X117164701Y-140131521D01*
X117198093Y-139935392D01*
X117248180Y-139749391D01*
X117251997Y-139737803D01*
X117314881Y-139575750D01*
X117391628Y-139427832D01*
X117484842Y-139289865D01*
X117597127Y-139157661D01*
X117640992Y-139112399D01*
X117777134Y-138988457D01*
X117917091Y-138885915D01*
X118063011Y-138803656D01*
X118217042Y-138740564D01*
X118381332Y-138695523D01*
X118476889Y-138678033D01*
X118635623Y-138662466D01*
X118794029Y-138665071D01*
G37*
X118794029Y-138665071D02*
X118954170Y-138686245D01*
X119118110Y-138726385D01*
X119287913Y-138785889D01*
X119465643Y-138865154D01*
X119476910Y-138870699D01*
X119534605Y-138898725D01*
X119586152Y-138922802D01*
X119627791Y-138941249D01*
X119655762Y-138952386D01*
X119665333Y-138954933D01*
X119684550Y-138959941D01*
X119689161Y-138964147D01*
X119684058Y-138974580D01*
X119668018Y-139000868D01*
X119642888Y-139040257D01*
X119610514Y-139089991D01*
X119572743Y-139147315D01*
X119531422Y-139209476D01*
X119488398Y-139273718D01*
X119445517Y-139337285D01*
X119404626Y-139397425D01*
X119367571Y-139451380D01*
X119336200Y-139496397D01*
X119312359Y-139529721D01*
X119297894Y-139548597D01*
X119295909Y-139550787D01*
X119285791Y-139546138D01*
X119263450Y-139528962D01*
X119232880Y-139502440D01*
X119217136Y-139487964D01*
X119120647Y-139412682D01*
X119013936Y-139357241D01*
X118898432Y-139322141D01*
X118775562Y-139307880D01*
X118706161Y-139309051D01*
X118585023Y-139326212D01*
X118475805Y-139362094D01*
X118378182Y-139416959D01*
X118291828Y-139491070D01*
X118216415Y-139584688D01*
X118151618Y-139698076D01*
X118114201Y-139784667D01*
X118070348Y-139920366D01*
X118038028Y-140067850D01*
X118017157Y-140223314D01*
X118007651Y-140382956D01*
X118009427Y-140542973D01*
X118022403Y-140699561D01*
X118046494Y-140848918D01*
X118081618Y-140987240D01*
X118127692Y-141110724D01*
X118143973Y-141144978D01*
X118212220Y-141259064D01*
X118292679Y-141355557D01*
X118384170Y-141433670D01*
X118485511Y-141492617D01*
X118595520Y-141531612D01*
X118713015Y-141549868D01*
X118754483Y-141551211D01*
X118876041Y-141540290D01*
X118996478Y-141507474D01*
X119114266Y-141453439D01*
X119227877Y-141378865D01*
X119319285Y-141300539D01*
X119365815Y-141256008D01*
X119547083Y-141553271D01*
X119592180Y-141627433D01*
X119633419Y-141695646D01*
X119669335Y-141755459D01*
X119698466Y-141804420D01*
X119719350Y-141840079D01*
X119730524Y-141859984D01*
X119731975Y-141863079D01*
X119723746Y-141872718D01*
X119698167Y-141889999D01*
X119658473Y-141913283D01*
X119607897Y-141940934D01*
X119549674Y-141971315D01*
X119487037Y-142002790D01*
X119423221Y-142033722D01*
X119361460Y-142062473D01*
X119304988Y-142087408D01*
X119257038Y-142106889D01*
X119233586Y-142115318D01*
X119099821Y-142153133D01*
X118961927Y-142178136D01*
X118814222Y-142191140D01*
X118687433Y-142193468D01*
X118619478Y-142192373D01*
X118553877Y-142190275D01*
X118496447Y-142187434D01*
X118453003Y-142184106D01*
X118438898Y-142182422D01*
X118299884Y-142153587D01*
X118158357Y-142108468D01*
X118020875Y-142049750D01*
X117893994Y-141980120D01*
X117816489Y-141927441D01*
X117689081Y-141819239D01*
X117570778Y-141692671D01*
X117463772Y-141550866D01*
X117370252Y-141396951D01*
X117292410Y-141234053D01*
X117248556Y-141116756D01*
X117198308Y-140933128D01*
X117164809Y-140738581D01*
X117148049Y-140537325D01*
X117148016Y-140333568D01*
X117164701Y-140131521D01*
X117198093Y-139935392D01*
X117248180Y-139749391D01*
X117251997Y-139737803D01*
X117314881Y-139575750D01*
X117391628Y-139427832D01*
X117484842Y-139289865D01*
X117597127Y-139157661D01*
X117640992Y-139112399D01*
X117777134Y-138988457D01*
X117917091Y-138885915D01*
X118063011Y-138803656D01*
X118217042Y-138740564D01*
X118381332Y-138695523D01*
X118476889Y-138678033D01*
X118635623Y-138662466D01*
X118794029Y-138665071D01*
G36*
X115541778Y-143007645D02*
G01*
X115548358Y-143015218D01*
X115553521Y-143024987D01*
X115557436Y-143039571D01*
X115560276Y-143061585D01*
X115562213Y-143093648D01*
X115563417Y-143138375D01*
X115564061Y-143198385D01*
X115564316Y-143276294D01*
X115564355Y-143351956D01*
X115564286Y-143445802D01*
X115563962Y-143519689D01*
X115563214Y-143576232D01*
X115561868Y-143618049D01*
X115559754Y-143647757D01*
X115556700Y-143667973D01*
X115552534Y-143681314D01*
X115547084Y-143690398D01*
X115541778Y-143696267D01*
X115508774Y-143715947D01*
X115473609Y-143714181D01*
X115442145Y-143692717D01*
X115434916Y-143684337D01*
X115429266Y-143674614D01*
X115425001Y-143660861D01*
X115421927Y-143640389D01*
X115419848Y-143610512D01*
X115418570Y-143568541D01*
X115417899Y-143511789D01*
X115417641Y-143437567D01*
X115417600Y-143353537D01*
X115417600Y-143040485D01*
X115445309Y-143012776D01*
X115479463Y-142989463D01*
X115512594Y-142988623D01*
X115541778Y-143007645D01*
G37*
X115541778Y-143007645D02*
X115548358Y-143015218D01*
X115553521Y-143024987D01*
X115557436Y-143039571D01*
X115560276Y-143061585D01*
X115562213Y-143093648D01*
X115563417Y-143138375D01*
X115564061Y-143198385D01*
X115564316Y-143276294D01*
X115564355Y-143351956D01*
X115564286Y-143445802D01*
X115563962Y-143519689D01*
X115563214Y-143576232D01*
X115561868Y-143618049D01*
X115559754Y-143647757D01*
X115556700Y-143667973D01*
X115552534Y-143681314D01*
X115547084Y-143690398D01*
X115541778Y-143696267D01*
X115508774Y-143715947D01*
X115473609Y-143714181D01*
X115442145Y-143692717D01*
X115434916Y-143684337D01*
X115429266Y-143674614D01*
X115425001Y-143660861D01*
X115421927Y-143640389D01*
X115419848Y-143610512D01*
X115418570Y-143568541D01*
X115417899Y-143511789D01*
X115417641Y-143437567D01*
X115417600Y-143353537D01*
X115417600Y-143040485D01*
X115445309Y-143012776D01*
X115479463Y-142989463D01*
X115512594Y-142988623D01*
X115541778Y-143007645D01*
G36*
X119748122Y-141186812D02*
G01*
X119764368Y-141115590D01*
X119790005Y-141044864D01*
X119814001Y-140992493D01*
X119872620Y-140897196D01*
X119950717Y-140809170D01*
X120045915Y-140730017D01*
X120155838Y-140661340D01*
X120278110Y-140604741D01*
X120410355Y-140561821D01*
X120475022Y-140546882D01*
X120611204Y-140524777D01*
X120759649Y-140510194D01*
X120911105Y-140503813D01*
X121037664Y-140505445D01*
X121199550Y-140512224D01*
X121192130Y-140453245D01*
X121172838Y-140354092D01*
X121141704Y-140273372D01*
X121097869Y-140210466D01*
X121040471Y-140164756D01*
X120968648Y-140135622D01*
X120881541Y-140122447D01*
X120778286Y-140124611D01*
X120740311Y-140128612D01*
X120599120Y-140153780D01*
X120462307Y-140194814D01*
X120367778Y-140232815D01*
X120322618Y-140252190D01*
X120284185Y-140267760D01*
X120257834Y-140277405D01*
X120250146Y-140279452D01*
X120240402Y-140270374D01*
X120223683Y-140241405D01*
X120199832Y-140192217D01*
X120168693Y-140122484D01*
X120130107Y-140031879D01*
X120123510Y-140016089D01*
X120093453Y-139943772D01*
X120066474Y-139878425D01*
X120043736Y-139822906D01*
X120026406Y-139780072D01*
X120015648Y-139752781D01*
X120012541Y-139743942D01*
X120022540Y-139739187D01*
X120048817Y-139733910D01*
X120077089Y-139730231D01*
X120107246Y-139725474D01*
X120155033Y-139716028D01*
X120216212Y-139702820D01*
X120286546Y-139686776D01*
X120361794Y-139668820D01*
X120390355Y-139661797D01*
X120495416Y-139636209D01*
X120583080Y-139616147D01*
X120657668Y-139600969D01*
X120723503Y-139590035D01*
X120784907Y-139582704D01*
X120846202Y-139578335D01*
X120911710Y-139576287D01*
X120969728Y-139575889D01*
X121139174Y-139582552D01*
X121291092Y-139602567D01*
X121426356Y-139636202D01*
X121545839Y-139683725D01*
X121650415Y-139745405D01*
X121728024Y-139808965D01*
X121796865Y-139883099D01*
X121850606Y-139962871D01*
X121893510Y-140055091D01*
X121908984Y-140098161D01*
X121921844Y-140137142D01*
X121933046Y-140173289D01*
X121942720Y-140208434D01*
X121950996Y-140244410D01*
X121958003Y-140283050D01*
X121963872Y-140326185D01*
X121968731Y-140375649D01*
X121972710Y-140433273D01*
X121975940Y-140500891D01*
X121978549Y-140580334D01*
X121980667Y-140673436D01*
X121982424Y-140782027D01*
X121983949Y-140907942D01*
X121985372Y-141053012D01*
X121986625Y-141195778D01*
X121987951Y-141351968D01*
X121989156Y-141487239D01*
X121990366Y-141603246D01*
X121991706Y-141701645D01*
X121993300Y-141784093D01*
X121995275Y-141852246D01*
X121997756Y-141907760D01*
X122000869Y-141952292D01*
X122004738Y-141987498D01*
X122009489Y-142015034D01*
X122015248Y-142036556D01*
X122022139Y-142053722D01*
X122030289Y-142068186D01*
X122039823Y-142081606D01*
X122050866Y-142095638D01*
X122055166Y-142101071D01*
X122070986Y-142123910D01*
X122078022Y-142139463D01*
X122078044Y-142139922D01*
X122067167Y-142142121D01*
X122036182Y-142144147D01*
X121987557Y-142145942D01*
X121923763Y-142147451D01*
X121847269Y-142148616D01*
X121760544Y-142149380D01*
X121666057Y-142149686D01*
X121655150Y-142149689D01*
X121232257Y-142149689D01*
X121228995Y-142053622D01*
X121225733Y-141957556D01*
X121163644Y-142008543D01*
X121066314Y-142076057D01*
X120956413Y-142130749D01*
X120869949Y-142160978D01*
X120800878Y-142175666D01*
X120717525Y-142185659D01*
X120627759Y-142190646D01*
X120539445Y-142190313D01*
X120460451Y-142184351D01*
X120424222Y-142178638D01*
X120284203Y-142140776D01*
X120157778Y-142085932D01*
X120045860Y-142014924D01*
X119949362Y-141928568D01*
X119869200Y-141827679D01*
X119806287Y-141713076D01*
X119761912Y-141586984D01*
X119749578Y-141530401D01*
X119741968Y-141468202D01*
X119738339Y-141393363D01*
X119737845Y-141359467D01*
X119737910Y-141356282D01*
X120497848Y-141356282D01*
X120507141Y-141431333D01*
X120535328Y-141495160D01*
X120583797Y-141550798D01*
X120588854Y-141555211D01*
X120637148Y-141590037D01*
X120688857Y-141612620D01*
X120749589Y-141624540D01*
X120824952Y-141627383D01*
X120843059Y-141626978D01*
X120896878Y-141624325D01*
X120936908Y-141618909D01*
X120971924Y-141608745D01*
X121010703Y-141591850D01*
X121021345Y-141586672D01*
X121081996Y-141550844D01*
X121128815Y-141508212D01*
X121141552Y-141492973D01*
X121186222Y-141436462D01*
X121186222Y-141240586D01*
X121185686Y-141161939D01*
X121183996Y-141103988D01*
X121181028Y-141064875D01*
X121176657Y-141042741D01*
X121172572Y-141036274D01*
X121156647Y-141033111D01*
X121122864Y-141030488D01*
X121075940Y-141028655D01*
X121020593Y-141027857D01*
X121011706Y-141027842D01*
X120890930Y-141033096D01*
X120788260Y-141049263D01*
X120701706Y-141076961D01*
X120629281Y-141116808D01*
X120574351Y-141163758D01*
X120529804Y-141221645D01*
X120505080Y-141284693D01*
X120497848Y-141356282D01*
X119737910Y-141356282D01*
X119739778Y-141265712D01*
X119748122Y-141186812D01*
G37*
X119748122Y-141186812D02*
X119764368Y-141115590D01*
X119790005Y-141044864D01*
X119814001Y-140992493D01*
X119872620Y-140897196D01*
X119950717Y-140809170D01*
X120045915Y-140730017D01*
X120155838Y-140661340D01*
X120278110Y-140604741D01*
X120410355Y-140561821D01*
X120475022Y-140546882D01*
X120611204Y-140524777D01*
X120759649Y-140510194D01*
X120911105Y-140503813D01*
X121037664Y-140505445D01*
X121199550Y-140512224D01*
X121192130Y-140453245D01*
X121172838Y-140354092D01*
X121141704Y-140273372D01*
X121097869Y-140210466D01*
X121040471Y-140164756D01*
X120968648Y-140135622D01*
X120881541Y-140122447D01*
X120778286Y-140124611D01*
X120740311Y-140128612D01*
X120599120Y-140153780D01*
X120462307Y-140194814D01*
X120367778Y-140232815D01*
X120322618Y-140252190D01*
X120284185Y-140267760D01*
X120257834Y-140277405D01*
X120250146Y-140279452D01*
X120240402Y-140270374D01*
X120223683Y-140241405D01*
X120199832Y-140192217D01*
X120168693Y-140122484D01*
X120130107Y-140031879D01*
X120123510Y-140016089D01*
X120093453Y-139943772D01*
X120066474Y-139878425D01*
X120043736Y-139822906D01*
X120026406Y-139780072D01*
X120015648Y-139752781D01*
X120012541Y-139743942D01*
X120022540Y-139739187D01*
X120048817Y-139733910D01*
X120077089Y-139730231D01*
X120107246Y-139725474D01*
X120155033Y-139716028D01*
X120216212Y-139702820D01*
X120286546Y-139686776D01*
X120361794Y-139668820D01*
X120390355Y-139661797D01*
X120495416Y-139636209D01*
X120583080Y-139616147D01*
X120657668Y-139600969D01*
X120723503Y-139590035D01*
X120784907Y-139582704D01*
X120846202Y-139578335D01*
X120911710Y-139576287D01*
X120969728Y-139575889D01*
X121139174Y-139582552D01*
X121291092Y-139602567D01*
X121426356Y-139636202D01*
X121545839Y-139683725D01*
X121650415Y-139745405D01*
X121728024Y-139808965D01*
X121796865Y-139883099D01*
X121850606Y-139962871D01*
X121893510Y-140055091D01*
X121908984Y-140098161D01*
X121921844Y-140137142D01*
X121933046Y-140173289D01*
X121942720Y-140208434D01*
X121950996Y-140244410D01*
X121958003Y-140283050D01*
X121963872Y-140326185D01*
X121968731Y-140375649D01*
X121972710Y-140433273D01*
X121975940Y-140500891D01*
X121978549Y-140580334D01*
X121980667Y-140673436D01*
X121982424Y-140782027D01*
X121983949Y-140907942D01*
X121985372Y-141053012D01*
X121986625Y-141195778D01*
X121987951Y-141351968D01*
X121989156Y-141487239D01*
X121990366Y-141603246D01*
X121991706Y-141701645D01*
X121993300Y-141784093D01*
X121995275Y-141852246D01*
X121997756Y-141907760D01*
X122000869Y-141952292D01*
X122004738Y-141987498D01*
X122009489Y-142015034D01*
X122015248Y-142036556D01*
X122022139Y-142053722D01*
X122030289Y-142068186D01*
X122039823Y-142081606D01*
X122050866Y-142095638D01*
X122055166Y-142101071D01*
X122070986Y-142123910D01*
X122078022Y-142139463D01*
X122078044Y-142139922D01*
X122067167Y-142142121D01*
X122036182Y-142144147D01*
X121987557Y-142145942D01*
X121923763Y-142147451D01*
X121847269Y-142148616D01*
X121760544Y-142149380D01*
X121666057Y-142149686D01*
X121655150Y-142149689D01*
X121232257Y-142149689D01*
X121228995Y-142053622D01*
X121225733Y-141957556D01*
X121163644Y-142008543D01*
X121066314Y-142076057D01*
X120956413Y-142130749D01*
X120869949Y-142160978D01*
X120800878Y-142175666D01*
X120717525Y-142185659D01*
X120627759Y-142190646D01*
X120539445Y-142190313D01*
X120460451Y-142184351D01*
X120424222Y-142178638D01*
X120284203Y-142140776D01*
X120157778Y-142085932D01*
X120045860Y-142014924D01*
X119949362Y-141928568D01*
X119869200Y-141827679D01*
X119806287Y-141713076D01*
X119761912Y-141586984D01*
X119749578Y-141530401D01*
X119741968Y-141468202D01*
X119738339Y-141393363D01*
X119737845Y-141359467D01*
X119737910Y-141356282D01*
X120497848Y-141356282D01*
X120507141Y-141431333D01*
X120535328Y-141495160D01*
X120583797Y-141550798D01*
X120588854Y-141555211D01*
X120637148Y-141590037D01*
X120688857Y-141612620D01*
X120749589Y-141624540D01*
X120824952Y-141627383D01*
X120843059Y-141626978D01*
X120896878Y-141624325D01*
X120936908Y-141618909D01*
X120971924Y-141608745D01*
X121010703Y-141591850D01*
X121021345Y-141586672D01*
X121081996Y-141550844D01*
X121128815Y-141508212D01*
X121141552Y-141492973D01*
X121186222Y-141436462D01*
X121186222Y-141240586D01*
X121185686Y-141161939D01*
X121183996Y-141103988D01*
X121181028Y-141064875D01*
X121176657Y-141042741D01*
X121172572Y-141036274D01*
X121156647Y-141033111D01*
X121122864Y-141030488D01*
X121075940Y-141028655D01*
X121020593Y-141027857D01*
X121011706Y-141027842D01*
X120890930Y-141033096D01*
X120788260Y-141049263D01*
X120701706Y-141076961D01*
X120629281Y-141116808D01*
X120574351Y-141163758D01*
X120529804Y-141221645D01*
X120505080Y-141284693D01*
X120497848Y-141356282D01*
X119737910Y-141356282D01*
X119739778Y-141265712D01*
X119748122Y-141186812D01*
G36*
X114773897Y-142986351D02*
G01*
X114848712Y-142991581D01*
X114918294Y-142999750D01*
X114978598Y-143010550D01*
X115025580Y-143023673D01*
X115055194Y-143038813D01*
X115059740Y-143043269D01*
X115075546Y-143077850D01*
X115070753Y-143113351D01*
X115046236Y-143143725D01*
X115045066Y-143144596D01*
X115030646Y-143153954D01*
X115015592Y-143158876D01*
X114994595Y-143159473D01*
X114962343Y-143155861D01*
X114913527Y-143148154D01*
X114909600Y-143147505D01*
X114836861Y-143138569D01*
X114758383Y-143134161D01*
X114679673Y-143134119D01*
X114606239Y-143138279D01*
X114543589Y-143146479D01*
X114497230Y-143158557D01*
X114494184Y-143159771D01*
X114460552Y-143178615D01*
X114448736Y-143197685D01*
X114457986Y-143216439D01*
X114487553Y-143234337D01*
X114536689Y-143250837D01*
X114604643Y-143265396D01*
X114649955Y-143272406D01*
X114744144Y-143285889D01*
X114819056Y-143298214D01*
X114877883Y-143310449D01*
X114923815Y-143323661D01*
X114960045Y-143338917D01*
X114989762Y-143357285D01*
X115016158Y-143379831D01*
X115037370Y-143401971D01*
X115062535Y-143432819D01*
X115074919Y-143459345D01*
X115078792Y-143492026D01*
X115078933Y-143503995D01*
X115076024Y-143543712D01*
X115064398Y-143573259D01*
X115044277Y-143599486D01*
X115003384Y-143639576D01*
X114957783Y-143670149D01*
X114904087Y-143692203D01*
X114838908Y-143706735D01*
X114758856Y-143714741D01*
X114660543Y-143717218D01*
X114644311Y-143717177D01*
X114578751Y-143715818D01*
X114513734Y-143712730D01*
X114456348Y-143708356D01*
X114413678Y-143703140D01*
X114410228Y-143702541D01*
X114367804Y-143692491D01*
X114331820Y-143679796D01*
X114311450Y-143668190D01*
X114292493Y-143637572D01*
X114291173Y-143601918D01*
X114307515Y-143570144D01*
X114311171Y-143566551D01*
X114326285Y-143555876D01*
X114345185Y-143551276D01*
X114374438Y-143552059D01*
X114409949Y-143556127D01*
X114449630Y-143559762D01*
X114505255Y-143562828D01*
X114570194Y-143565053D01*
X114637815Y-143566164D01*
X114655600Y-143566237D01*
X114723472Y-143565964D01*
X114773146Y-143564646D01*
X114808990Y-143561827D01*
X114835376Y-143557050D01*
X114856674Y-143549857D01*
X114869474Y-143543867D01*
X114897600Y-143527233D01*
X114915532Y-143512168D01*
X114918153Y-143507897D01*
X114912624Y-143490263D01*
X114886340Y-143473192D01*
X114841122Y-143457458D01*
X114778792Y-143443838D01*
X114760429Y-143440804D01*
X114664510Y-143425738D01*
X114587959Y-143413146D01*
X114527820Y-143402111D01*
X114481140Y-143391720D01*
X114444963Y-143381056D01*
X114416335Y-143369205D01*
X114392302Y-143355251D01*
X114369908Y-143338281D01*
X114346198Y-143317378D01*
X114338220Y-143310049D01*
X114310247Y-143282699D01*
X114295440Y-143261029D01*
X114289648Y-143236232D01*
X114288711Y-143204983D01*
X114299025Y-143143705D01*
X114329848Y-143091640D01*
X114381005Y-143048958D01*
X114452317Y-143015825D01*
X114503200Y-143000964D01*
X114558500Y-142991366D01*
X114624747Y-142985936D01*
X114697894Y-142984367D01*
X114773897Y-142986351D01*
G37*
X114773897Y-142986351D02*
X114848712Y-142991581D01*
X114918294Y-142999750D01*
X114978598Y-143010550D01*
X115025580Y-143023673D01*
X115055194Y-143038813D01*
X115059740Y-143043269D01*
X115075546Y-143077850D01*
X115070753Y-143113351D01*
X115046236Y-143143725D01*
X115045066Y-143144596D01*
X115030646Y-143153954D01*
X115015592Y-143158876D01*
X114994595Y-143159473D01*
X114962343Y-143155861D01*
X114913527Y-143148154D01*
X114909600Y-143147505D01*
X114836861Y-143138569D01*
X114758383Y-143134161D01*
X114679673Y-143134119D01*
X114606239Y-143138279D01*
X114543589Y-143146479D01*
X114497230Y-143158557D01*
X114494184Y-143159771D01*
X114460552Y-143178615D01*
X114448736Y-143197685D01*
X114457986Y-143216439D01*
X114487553Y-143234337D01*
X114536689Y-143250837D01*
X114604643Y-143265396D01*
X114649955Y-143272406D01*
X114744144Y-143285889D01*
X114819056Y-143298214D01*
X114877883Y-143310449D01*
X114923815Y-143323661D01*
X114960045Y-143338917D01*
X114989762Y-143357285D01*
X115016158Y-143379831D01*
X115037370Y-143401971D01*
X115062535Y-143432819D01*
X115074919Y-143459345D01*
X115078792Y-143492026D01*
X115078933Y-143503995D01*
X115076024Y-143543712D01*
X115064398Y-143573259D01*
X115044277Y-143599486D01*
X115003384Y-143639576D01*
X114957783Y-143670149D01*
X114904087Y-143692203D01*
X114838908Y-143706735D01*
X114758856Y-143714741D01*
X114660543Y-143717218D01*
X114644311Y-143717177D01*
X114578751Y-143715818D01*
X114513734Y-143712730D01*
X114456348Y-143708356D01*
X114413678Y-143703140D01*
X114410228Y-143702541D01*
X114367804Y-143692491D01*
X114331820Y-143679796D01*
X114311450Y-143668190D01*
X114292493Y-143637572D01*
X114291173Y-143601918D01*
X114307515Y-143570144D01*
X114311171Y-143566551D01*
X114326285Y-143555876D01*
X114345185Y-143551276D01*
X114374438Y-143552059D01*
X114409949Y-143556127D01*
X114449630Y-143559762D01*
X114505255Y-143562828D01*
X114570194Y-143565053D01*
X114637815Y-143566164D01*
X114655600Y-143566237D01*
X114723472Y-143565964D01*
X114773146Y-143564646D01*
X114808990Y-143561827D01*
X114835376Y-143557050D01*
X114856674Y-143549857D01*
X114869474Y-143543867D01*
X114897600Y-143527233D01*
X114915532Y-143512168D01*
X114918153Y-143507897D01*
X114912624Y-143490263D01*
X114886340Y-143473192D01*
X114841122Y-143457458D01*
X114778792Y-143443838D01*
X114760429Y-143440804D01*
X114664510Y-143425738D01*
X114587959Y-143413146D01*
X114527820Y-143402111D01*
X114481140Y-143391720D01*
X114444963Y-143381056D01*
X114416335Y-143369205D01*
X114392302Y-143355251D01*
X114369908Y-143338281D01*
X114346198Y-143317378D01*
X114338220Y-143310049D01*
X114310247Y-143282699D01*
X114295440Y-143261029D01*
X114289648Y-143236232D01*
X114288711Y-143204983D01*
X114299025Y-143143705D01*
X114329848Y-143091640D01*
X114381005Y-143048958D01*
X114452317Y-143015825D01*
X114503200Y-143000964D01*
X114558500Y-142991366D01*
X114624747Y-142985936D01*
X114697894Y-142984367D01*
X114773897Y-142986351D01*
D11*
%TO.C,R6*%
X175370258Y-139177500D02*
X174895742Y-139177500D01*
X175370258Y-140222500D02*
X174895742Y-140222500D01*
%TO.C,D2*%
X135538000Y-92838000D02*
X135538000Y-96138000D01*
X135538000Y-96138000D02*
X140938000Y-96138000D01*
X135538000Y-92838000D02*
X140938000Y-92838000D01*
%TO.C,R12*%
X163465742Y-122696500D02*
X163940258Y-122696500D01*
X163465742Y-121651500D02*
X163940258Y-121651500D01*
%TO.C,R1*%
X150636500Y-120903276D02*
X150636500Y-121412724D01*
X149591500Y-120903276D02*
X149591500Y-121412724D01*
%TO.C,EXP1*%
X153180000Y-133288500D02*
X153180000Y-134598500D01*
X160120000Y-126788500D02*
X160120000Y-133288500D01*
X149080000Y-133288500D02*
X142140000Y-133288500D01*
X146550000Y-135988500D02*
X146050000Y-134988500D01*
X146050000Y-134988500D02*
X145550000Y-135988500D01*
X142140000Y-126788500D02*
X160120000Y-126788500D01*
X140840000Y-125478500D02*
X161420000Y-125478500D01*
X145550000Y-135988500D02*
X146550000Y-135988500D01*
X161420000Y-125478500D02*
X161420000Y-134598500D01*
X149080000Y-134598500D02*
X149080000Y-133288500D01*
X140840000Y-134598500D02*
X140840000Y-125478500D01*
X142140000Y-133288500D02*
X142140000Y-126788500D01*
X161420000Y-134598500D02*
X140840000Y-134598500D01*
X160120000Y-133288500D02*
X153180000Y-133288500D01*
X153180000Y-133288500D02*
X153180000Y-133288500D01*
%TO.C,C5*%
X163843580Y-119886000D02*
X163562420Y-119886000D01*
X163843580Y-120906000D02*
X163562420Y-120906000D01*
%TO.C,EXT-ENCODER1*%
X144872000Y-138249000D02*
X143072000Y-138249000D01*
X154872000Y-138999000D02*
X154872000Y-138249000D01*
X142772000Y-137949000D02*
X142772000Y-139199000D01*
X146372000Y-138999000D02*
X154872000Y-138999000D01*
X143062000Y-138239000D02*
X143062000Y-144209000D01*
X158172000Y-138249000D02*
X156372000Y-138249000D01*
X144872000Y-138999000D02*
X144872000Y-138249000D01*
X144022000Y-137949000D02*
X142772000Y-137949000D01*
X156372000Y-138999000D02*
X158172000Y-138999000D01*
X143822000Y-140499000D02*
X143822000Y-143449000D01*
X146372000Y-138249000D02*
X146372000Y-138999000D01*
X143072000Y-140499000D02*
X143822000Y-140499000D01*
X143822000Y-143449000D02*
X150622000Y-143449000D01*
X143062000Y-144209000D02*
X158182000Y-144209000D01*
X157422000Y-143449000D02*
X150622000Y-143449000D01*
X157422000Y-140499000D02*
X157422000Y-143449000D01*
X154872000Y-138249000D02*
X146372000Y-138249000D01*
X158172000Y-138999000D02*
X158172000Y-138249000D01*
X156372000Y-138249000D02*
X156372000Y-138999000D01*
X158182000Y-144209000D02*
X158182000Y-138239000D01*
X158172000Y-140499000D02*
X157422000Y-140499000D01*
X143072000Y-138249000D02*
X143072000Y-138999000D01*
X158182000Y-138239000D02*
X143062000Y-138239000D01*
X143072000Y-138999000D02*
X144872000Y-138999000D01*
%TO.C,C2*%
X146492381Y-123261200D02*
X146492381Y-122631200D01*
X142907140Y-120067200D02*
X142907140Y-117901200D01*
X142266140Y-124168200D02*
X142266140Y-122147200D01*
X146807381Y-122946200D02*
X146177381Y-122946200D01*
X142146140Y-124125200D02*
X142146140Y-122147200D01*
X141266140Y-120067200D02*
X141266140Y-118591200D01*
X141866140Y-120067200D02*
X141866140Y-118211200D01*
X141186140Y-120067200D02*
X141186140Y-118657200D01*
X140826140Y-123199200D02*
X140826140Y-119015200D01*
X142907140Y-124313200D02*
X142907140Y-122147200D01*
X142586140Y-120067200D02*
X142586140Y-117957200D01*
X141306140Y-120067200D02*
X141306140Y-118559200D01*
X142386140Y-124205200D02*
X142386140Y-122147200D01*
X140706140Y-123051200D02*
X140706140Y-119163200D01*
X142146140Y-120067200D02*
X142146140Y-118089200D01*
X140106140Y-121740200D02*
X140106140Y-120474200D01*
X142346140Y-124193200D02*
X142346140Y-122147200D01*
X140266140Y-122272200D02*
X140266140Y-119942200D01*
X142546140Y-120067200D02*
X142546140Y-117966200D01*
X141906140Y-124023200D02*
X141906140Y-122147200D01*
X141626140Y-123873200D02*
X141626140Y-122147200D01*
X142426140Y-124217200D02*
X142426140Y-122147200D01*
X142747140Y-120067200D02*
X142747140Y-117925200D01*
X142066140Y-120067200D02*
X142066140Y-118121200D01*
X140746140Y-123102200D02*
X140746140Y-119112200D01*
X142466140Y-120067200D02*
X142466140Y-117986200D01*
X140986140Y-123372200D02*
X140986140Y-118842200D01*
X142987140Y-120067200D02*
X142987140Y-117892200D01*
X140546140Y-122821200D02*
X140546140Y-119393200D01*
X141266140Y-123623200D02*
X141266140Y-122147200D01*
X141666140Y-123897200D02*
X141666140Y-122147200D01*
X141826140Y-120067200D02*
X141826140Y-118231200D01*
X140306140Y-122369200D02*
X140306140Y-119845200D01*
X143067140Y-124329200D02*
X143067140Y-122147200D01*
X140866140Y-123244200D02*
X140866140Y-118970200D01*
X141786140Y-123963200D02*
X141786140Y-122147200D01*
X142867140Y-120067200D02*
X142867140Y-117906200D01*
X141066140Y-120067200D02*
X141066140Y-118764200D01*
X141386140Y-120067200D02*
X141386140Y-118500200D01*
X140586140Y-122883200D02*
X140586140Y-119331200D01*
X140146140Y-121909200D02*
X140146140Y-120305200D01*
X141666140Y-120067200D02*
X141666140Y-118317200D01*
X140226140Y-122166200D02*
X140226140Y-120048200D01*
X142586140Y-124257200D02*
X142586140Y-122147200D01*
X142947140Y-124318200D02*
X142947140Y-122147200D01*
X142386140Y-120067200D02*
X142386140Y-118009200D01*
X142667140Y-120067200D02*
X142667140Y-117940200D01*
X141506140Y-123797200D02*
X141506140Y-122147200D01*
X142627140Y-120067200D02*
X142627140Y-117948200D01*
X141946140Y-124041200D02*
X141946140Y-122147200D01*
X141986140Y-124059200D02*
X141986140Y-122147200D01*
X141546140Y-123823200D02*
X141546140Y-122147200D01*
X142186140Y-124140200D02*
X142186140Y-122147200D01*
X141426140Y-123743200D02*
X141426140Y-122147200D01*
X142226140Y-120067200D02*
X142226140Y-118060200D01*
X141786140Y-120067200D02*
X141786140Y-118251200D01*
X141106140Y-123487200D02*
X141106140Y-122147200D01*
X141466140Y-123771200D02*
X141466140Y-122147200D01*
X141026140Y-120067200D02*
X141026140Y-118802200D01*
X142306140Y-120067200D02*
X142306140Y-118033200D01*
X143307140Y-124337200D02*
X143307140Y-117877200D01*
X141186140Y-123557200D02*
X141186140Y-122147200D01*
X141946140Y-120067200D02*
X141946140Y-118173200D01*
X142707140Y-124282200D02*
X142707140Y-122147200D01*
X143147140Y-124334200D02*
X143147140Y-117880200D01*
X142106140Y-120067200D02*
X142106140Y-118105200D01*
X142867140Y-124308200D02*
X142867140Y-122147200D01*
X140626140Y-122941200D02*
X140626140Y-119273200D01*
X140386140Y-122539200D02*
X140386140Y-119675200D01*
X141746140Y-120067200D02*
X141746140Y-118273200D01*
X142066140Y-124093200D02*
X142066140Y-122147200D01*
X143027140Y-120067200D02*
X143027140Y-117889200D01*
X142506140Y-120067200D02*
X142506140Y-117976200D01*
X141586140Y-123849200D02*
X141586140Y-122147200D01*
X140506140Y-122757200D02*
X140506140Y-119457200D01*
X142827140Y-120067200D02*
X142827140Y-117912200D01*
X142947140Y-120067200D02*
X142947140Y-117896200D01*
X141586140Y-120067200D02*
X141586140Y-118365200D01*
X141506140Y-120067200D02*
X141506140Y-118417200D01*
X142787140Y-124296200D02*
X142787140Y-122147200D01*
X142026140Y-124077200D02*
X142026140Y-122147200D01*
X142186140Y-120067200D02*
X142186140Y-118074200D01*
X143267140Y-124337200D02*
X143267140Y-117877200D01*
X141146140Y-120067200D02*
X141146140Y-118691200D01*
X141906140Y-120067200D02*
X141906140Y-118191200D01*
X142466140Y-124228200D02*
X142466140Y-122147200D01*
X142707140Y-120067200D02*
X142707140Y-117932200D01*
X142306140Y-124181200D02*
X142306140Y-122147200D01*
X141826140Y-123983200D02*
X141826140Y-122147200D01*
X141026140Y-123412200D02*
X141026140Y-122147200D01*
X141866140Y-124003200D02*
X141866140Y-122147200D01*
X142787140Y-120067200D02*
X142787140Y-117918200D01*
X140186140Y-122047200D02*
X140186140Y-120167200D01*
X143227140Y-124337200D02*
X143227140Y-117877200D01*
X141306140Y-123655200D02*
X141306140Y-122147200D01*
X142426140Y-120067200D02*
X142426140Y-117997200D01*
X143107140Y-124331200D02*
X143107140Y-117883200D01*
X140066140Y-121509200D02*
X140066140Y-120705200D01*
X141226140Y-123591200D02*
X141226140Y-122147200D01*
X141386140Y-123714200D02*
X141386140Y-122147200D01*
X141626140Y-120067200D02*
X141626140Y-118341200D01*
X142506140Y-124238200D02*
X142506140Y-122147200D01*
X142827140Y-124302200D02*
X142827140Y-122147200D01*
X140906140Y-123289200D02*
X140906140Y-118925200D01*
X140786140Y-123151200D02*
X140786140Y-119063200D01*
X141706140Y-123919200D02*
X141706140Y-122147200D01*
X141546140Y-120067200D02*
X141546140Y-118391200D01*
X141346140Y-120067200D02*
X141346140Y-118529200D01*
X143067140Y-120067200D02*
X143067140Y-117885200D01*
X140466140Y-122688200D02*
X140466140Y-119526200D01*
X141466140Y-120067200D02*
X141466140Y-118443200D01*
X142226140Y-124154200D02*
X142226140Y-122147200D01*
X142747140Y-124289200D02*
X142747140Y-122147200D01*
X140346140Y-122457200D02*
X140346140Y-119757200D01*
X140666140Y-122997200D02*
X140666140Y-119217200D01*
X143187140Y-124335200D02*
X143187140Y-117879200D01*
X141746140Y-123941200D02*
X141746140Y-122147200D01*
X143027140Y-124325200D02*
X143027140Y-122147200D01*
X142546140Y-124248200D02*
X142546140Y-122147200D01*
X141426140Y-120067200D02*
X141426140Y-118471200D01*
X142346140Y-120067200D02*
X142346140Y-118021200D01*
X142026140Y-120067200D02*
X142026140Y-118137200D01*
X141346140Y-123685200D02*
X141346140Y-122147200D01*
X142266140Y-120067200D02*
X142266140Y-118046200D01*
X141106140Y-120067200D02*
X141106140Y-118727200D01*
X141146140Y-123523200D02*
X141146140Y-122147200D01*
X140946140Y-123331200D02*
X140946140Y-118883200D01*
X141706140Y-120067200D02*
X141706140Y-118295200D01*
X141066140Y-123450200D02*
X141066140Y-122147200D01*
X142987140Y-124322200D02*
X142987140Y-122147200D01*
X142106140Y-124109200D02*
X142106140Y-122147200D01*
X140426140Y-122616200D02*
X140426140Y-119598200D01*
X142627140Y-124266200D02*
X142627140Y-122147200D01*
X141986140Y-120067200D02*
X141986140Y-118155200D01*
X141226140Y-120067200D02*
X141226140Y-118623200D01*
X142667140Y-124274200D02*
X142667140Y-122147200D01*
X146577140Y-121107200D02*
G75*
G03*
X146577140Y-121107200I-3270000J0D01*
G01*
%TO.C,PWR1*%
X173074000Y-122516000D02*
X173074000Y-120231000D01*
X171604000Y-122516000D02*
X173074000Y-122516000D01*
X171604000Y-120231000D02*
X171604000Y-122516000D01*
%TO.C,SMALL-LCD1*%
X177565000Y-111640000D02*
X177565000Y-124260000D01*
X182775000Y-112400000D02*
X182775000Y-117950000D01*
X179825000Y-124250000D02*
X179825000Y-123500000D01*
X177575000Y-124250000D02*
X178325000Y-124250000D01*
X178325000Y-120950000D02*
X178325000Y-114950000D01*
X177575000Y-122450000D02*
X177575000Y-124250000D01*
X177575000Y-113450000D02*
X178325000Y-113450000D01*
X177575000Y-114950000D02*
X177575000Y-120950000D01*
X178325000Y-124250000D02*
X178325000Y-122450000D01*
X182775000Y-123500000D02*
X182775000Y-117950000D01*
X179825000Y-111650000D02*
X179825000Y-112400000D01*
X177565000Y-124260000D02*
X183535000Y-124260000D01*
X183535000Y-111640000D02*
X177565000Y-111640000D01*
X178325000Y-111650000D02*
X177575000Y-111650000D01*
X178325000Y-113450000D02*
X178325000Y-111650000D01*
X177275000Y-124550000D02*
X178525000Y-124550000D01*
X179825000Y-112400000D02*
X182775000Y-112400000D01*
X183535000Y-124260000D02*
X183535000Y-111640000D01*
X178325000Y-122450000D02*
X177575000Y-122450000D01*
X177575000Y-120950000D02*
X178325000Y-120950000D01*
X178325000Y-114950000D02*
X177575000Y-114950000D01*
X177275000Y-123300000D02*
X177275000Y-124550000D01*
X179825000Y-123500000D02*
X182775000Y-123500000D01*
X177575000Y-111650000D02*
X177575000Y-113450000D01*
%TO.C,R8*%
X158207064Y-95144000D02*
X156752936Y-95144000D01*
X158207064Y-93324000D02*
X156752936Y-93324000D01*
%TO.C,U2*%
X154492000Y-101159000D02*
X146752000Y-101159000D01*
X146752000Y-101159000D02*
X146752000Y-103394000D01*
X146752000Y-107629000D02*
X154492000Y-107629000D01*
X146752000Y-105394000D02*
X146752000Y-107629000D01*
X154492000Y-107629000D02*
X154492000Y-101159000D01*
X146752000Y-105394000D02*
G75*
G03*
X146752000Y-103394000I0J1000000D01*
G01*
%TO.C,R18*%
X148167000Y-93764263D02*
X148167000Y-95211737D01*
X145457000Y-93764263D02*
X145457000Y-95211737D01*
%TO.C,C3*%
X175059420Y-107890000D02*
X175340580Y-107890000D01*
X175059420Y-108910000D02*
X175340580Y-108910000D01*
%TO.C,J3*%
X106165500Y-103644000D02*
X104665500Y-103394000D01*
X104665500Y-103394000D02*
X104665500Y-105394000D01*
X116885500Y-115934000D02*
X116885500Y-92854000D01*
X117685500Y-97074000D02*
X117085500Y-96774000D01*
X107965500Y-115934000D02*
X106165500Y-115934000D01*
X104665500Y-95774000D02*
X104665500Y-97774000D01*
X117685500Y-96474000D02*
X117685500Y-97074000D01*
X106165500Y-112764000D02*
X106165500Y-111264000D01*
X104665500Y-92854000D02*
X104665500Y-115934000D01*
X104665500Y-111014000D02*
X104665500Y-113014000D01*
X116885500Y-92854000D02*
X104665500Y-92854000D01*
X106165500Y-111264000D02*
X104665500Y-111014000D01*
X104665500Y-115934000D02*
X116885500Y-115934000D01*
X106165500Y-96024000D02*
X104665500Y-95774000D01*
X104665500Y-113014000D02*
X106165500Y-112764000D01*
X106165500Y-105144000D02*
X106165500Y-103644000D01*
X106165500Y-92854000D02*
X107965500Y-92854000D01*
X106165500Y-97524000D02*
X106165500Y-96024000D01*
X117085500Y-96774000D02*
X117685500Y-96474000D01*
X106165500Y-115934000D02*
X106165500Y-92854000D01*
X107965500Y-92854000D02*
X107965500Y-115934000D01*
X104665500Y-105394000D02*
X106165500Y-105144000D01*
X104665500Y-97774000D02*
X106165500Y-97524000D01*
%TO.C,R11*%
X174895742Y-140955500D02*
X175370258Y-140955500D01*
X174895742Y-142000500D02*
X175370258Y-142000500D01*
%TO.C,Y1*%
X159100000Y-103405000D02*
X160100000Y-103405000D01*
X162700000Y-105805000D02*
X161900000Y-105805000D01*
X160100000Y-105805000D02*
X160100000Y-106205000D01*
X162700000Y-105405000D02*
X162700000Y-105805000D01*
X162700000Y-103405000D02*
X162700000Y-105405000D01*
X160100000Y-105805000D02*
X159100000Y-105805000D01*
X159100000Y-105405000D02*
X159100000Y-105805000D01*
X159100000Y-105405000D02*
X159100000Y-103405000D01*
X158900000Y-103405000D02*
X158900000Y-105405000D01*
X158900000Y-105405000D02*
X158900000Y-105805000D01*
X161900000Y-103405000D02*
X162700000Y-103405000D01*
%TO.C,J2*%
X179800000Y-110500000D02*
X179800000Y-109750000D01*
X178300000Y-110500000D02*
X178300000Y-108700000D01*
X178300000Y-104700000D02*
X178300000Y-102900000D01*
X178300000Y-107200000D02*
X178300000Y-106200000D01*
X178300000Y-102900000D02*
X177550000Y-102900000D01*
X183510000Y-110510000D02*
X183510000Y-102890000D01*
X178300000Y-108700000D02*
X177550000Y-108700000D01*
X182750000Y-103650000D02*
X182750000Y-106700000D01*
X177250000Y-110800000D02*
X178500000Y-110800000D01*
X179800000Y-109750000D02*
X182750000Y-109750000D01*
X177540000Y-110510000D02*
X183510000Y-110510000D01*
X179800000Y-103650000D02*
X182750000Y-103650000D01*
X177550000Y-107200000D02*
X178300000Y-107200000D01*
X177550000Y-108700000D02*
X177550000Y-110500000D01*
X177550000Y-110500000D02*
X178300000Y-110500000D01*
X177250000Y-109550000D02*
X177250000Y-110800000D01*
X177540000Y-102890000D02*
X177540000Y-110510000D01*
X183510000Y-102890000D02*
X177540000Y-102890000D01*
X177550000Y-102900000D02*
X177550000Y-104700000D01*
X177550000Y-106200000D02*
X177550000Y-107200000D01*
X177550000Y-104700000D02*
X178300000Y-104700000D01*
X179800000Y-102900000D02*
X179800000Y-103650000D01*
X182750000Y-109750000D02*
X182750000Y-106700000D01*
X178300000Y-106200000D02*
X177550000Y-106200000D01*
%TO.C,EXP2*%
X167394000Y-135998000D02*
X168394000Y-135998000D01*
X162684000Y-125488000D02*
X183264000Y-125488000D01*
X183264000Y-125488000D02*
X183264000Y-134608000D01*
X181964000Y-126798000D02*
X181964000Y-133298000D01*
X163984000Y-133298000D02*
X163984000Y-126798000D01*
X175024000Y-133298000D02*
X175024000Y-133298000D01*
X170924000Y-133298000D02*
X163984000Y-133298000D01*
X170924000Y-134608000D02*
X170924000Y-133298000D01*
X168394000Y-135998000D02*
X167894000Y-134998000D01*
X163984000Y-126798000D02*
X181964000Y-126798000D01*
X181964000Y-133298000D02*
X175024000Y-133298000D01*
X183264000Y-134608000D02*
X162684000Y-134608000D01*
X167894000Y-134998000D02*
X167394000Y-135998000D01*
X162684000Y-134608000D02*
X162684000Y-125488000D01*
X175024000Y-133298000D02*
X175024000Y-134608000D01*
%TO.C,R7*%
X163465742Y-123429500D02*
X163940258Y-123429500D01*
X163465742Y-124474500D02*
X163940258Y-124474500D01*
%TO.C,UART1*%
X132909000Y-115899000D02*
X135569000Y-115899000D01*
X132909000Y-108159000D02*
X134239000Y-108159000D01*
X135569000Y-110759000D02*
X135569000Y-115899000D01*
X132909000Y-110759000D02*
X132909000Y-115899000D01*
X132909000Y-110759000D02*
X135569000Y-110759000D01*
X132909000Y-109489000D02*
X132909000Y-108159000D01*
%TO.C,R15*%
X121228263Y-110586000D02*
X122675737Y-110586000D01*
X121228263Y-113296000D02*
X122675737Y-113296000D01*
%TO.C,C1*%
X152402000Y-121017420D02*
X152402000Y-121298580D01*
X151382000Y-121017420D02*
X151382000Y-121298580D01*
%TO.C,R14*%
X138210936Y-98446000D02*
X139665064Y-98446000D01*
X138210936Y-96626000D02*
X139665064Y-96626000D01*
%TO.C,U3*%
X170043000Y-140716000D02*
X170043000Y-138766000D01*
X161173000Y-140716000D02*
X161173000Y-144166000D01*
X161173000Y-140716000D02*
X161173000Y-138766000D01*
X170043000Y-140716000D02*
X170043000Y-142666000D01*
%TO.C,PS1*%
X104567500Y-123500000D02*
X104567500Y-125510000D01*
X139157500Y-116900000D02*
X104957500Y-116900000D01*
X104957500Y-137100000D02*
X139157500Y-137100000D01*
X139157500Y-137100000D02*
X139157500Y-116900000D01*
X104957500Y-116900000D02*
X104957500Y-137100000D01*
%TO.C,R16*%
X122675737Y-109740000D02*
X121228263Y-109740000D01*
X122675737Y-107030000D02*
X121228263Y-107030000D01*
%TO.C,ISP1*%
X145482000Y-117408000D02*
X145482000Y-116078000D01*
X145482000Y-112208000D02*
X153222000Y-112208000D01*
X148082000Y-114808000D02*
X145482000Y-114808000D01*
X148082000Y-117408000D02*
X153222000Y-117408000D01*
X148082000Y-117408000D02*
X148082000Y-114808000D01*
X146812000Y-117408000D02*
X145482000Y-117408000D01*
X153222000Y-117408000D02*
X153222000Y-112208000D01*
X145482000Y-114808000D02*
X145482000Y-112208000D01*
D14*
%TO.C,Q1*%
X161926000Y-86982000D02*
X161526000Y-86982000D01*
X151726000Y-85982000D02*
X151726000Y-82582000D01*
X161926000Y-86982000D02*
X161926000Y-86582000D01*
X161926000Y-82182000D02*
X161926000Y-82582000D01*
X151726000Y-83292000D02*
X161826000Y-83292000D01*
X151726000Y-82182000D02*
X151726000Y-82582000D01*
X161526000Y-82182000D02*
X161926000Y-82182000D01*
X151726000Y-82182000D02*
X152126000Y-82182000D01*
%TO.C,Q2*%
X126126000Y-82182000D02*
X126126000Y-82582000D01*
X135926000Y-82182000D02*
X136326000Y-82182000D01*
X126126000Y-86982000D02*
X126526000Y-86982000D01*
X126126000Y-86982000D02*
X126126000Y-82582000D01*
X126126000Y-83292000D02*
X136226000Y-83292000D01*
X136326000Y-82182000D02*
X136326000Y-82582000D01*
X126126000Y-82182000D02*
X126526000Y-82182000D01*
D10*
%TO.C,U1*%
X159675000Y-115425000D02*
X159675000Y-115100000D01*
X166925000Y-115425000D02*
X166925000Y-115100000D01*
X166925000Y-115425000D02*
X166600000Y-115425000D01*
X159675000Y-108175000D02*
X159675000Y-108500000D01*
X166700000Y-108175000D02*
X166700000Y-106750000D01*
X159675000Y-108175000D02*
X160000000Y-108175000D01*
X166925000Y-108175000D02*
X166925000Y-108500000D01*
X166925000Y-108175000D02*
X166700000Y-108175000D01*
X159675000Y-115425000D02*
X160000000Y-115425000D01*
D11*
%TO.C,R17*%
X142240724Y-114695500D02*
X141731276Y-114695500D01*
X142240724Y-113650500D02*
X141731276Y-113650500D01*
%TO.C,C7*%
X151434748Y-95144000D02*
X152857252Y-95144000D01*
X151434748Y-93324000D02*
X152857252Y-93324000D01*
%TO.C,R3*%
X155941500Y-105663276D02*
X155941500Y-106172724D01*
X156986500Y-105663276D02*
X156986500Y-106172724D01*
%TO.C,D1*%
X160118000Y-89282000D02*
X154718000Y-89282000D01*
X160118000Y-92582000D02*
X154718000Y-92582000D01*
X160118000Y-92582000D02*
X160118000Y-89282000D01*
%TO.C,J1*%
X132278000Y-137949000D02*
X131028000Y-137949000D01*
X133128000Y-138249000D02*
X131328000Y-138249000D01*
X132078000Y-140499000D02*
X132078000Y-143449000D01*
X131318000Y-138239000D02*
X131318000Y-144209000D01*
X133128000Y-138999000D02*
X133128000Y-138249000D01*
X131028000Y-137949000D02*
X131028000Y-139199000D01*
X134628000Y-138999000D02*
X135628000Y-138999000D01*
X131328000Y-140499000D02*
X132078000Y-140499000D01*
X137128000Y-138249000D02*
X137128000Y-138999000D01*
X132078000Y-143449000D02*
X135128000Y-143449000D01*
X138928000Y-138249000D02*
X137128000Y-138249000D01*
X135628000Y-138249000D02*
X134628000Y-138249000D01*
X138928000Y-138999000D02*
X138928000Y-138249000D01*
X131328000Y-138999000D02*
X133128000Y-138999000D01*
X138938000Y-144209000D02*
X138938000Y-138239000D01*
X131318000Y-144209000D02*
X138938000Y-144209000D01*
X138938000Y-138239000D02*
X131318000Y-138239000D01*
X134628000Y-138249000D02*
X134628000Y-138999000D01*
X138178000Y-140499000D02*
X138178000Y-143449000D01*
X137128000Y-138999000D02*
X138928000Y-138999000D01*
X138928000Y-140499000D02*
X138178000Y-140499000D01*
X135628000Y-138999000D02*
X135628000Y-138249000D01*
X131328000Y-138249000D02*
X131328000Y-138999000D01*
X138178000Y-143449000D02*
X135128000Y-143449000D01*
%TO.C,C4*%
X157874580Y-120652000D02*
X157593420Y-120652000D01*
X157874580Y-119632000D02*
X157593420Y-119632000D01*
%TO.C,R4*%
X174962742Y-103877500D02*
X175437258Y-103877500D01*
X174962742Y-104922500D02*
X175437258Y-104922500D01*
%TO.C,R9*%
X157496742Y-123175500D02*
X157971258Y-123175500D01*
X157496742Y-124220500D02*
X157971258Y-124220500D01*
%TO.C,C6*%
X175273580Y-143766000D02*
X174992420Y-143766000D01*
X175273580Y-142746000D02*
X174992420Y-142746000D01*
D14*
%TO.C,U4*%
X139586000Y-104923000D02*
X139586000Y-105223000D01*
X139586000Y-111723000D02*
X139586000Y-111323000D01*
X144386000Y-111423000D02*
X144386000Y-106123000D01*
X144086000Y-111723000D02*
X144386000Y-111723000D01*
X144386000Y-111723000D02*
X144386000Y-111423000D01*
X139886000Y-104923000D02*
X139586000Y-104923000D01*
X139586000Y-105223000D02*
X139586000Y-111323000D01*
X144386000Y-105623000D02*
X144386000Y-106123000D01*
X139886000Y-111723000D02*
X139586000Y-111723000D01*
X144086000Y-105323000D02*
X144386000Y-105623000D01*
X144086000Y-105323000D02*
X144086000Y-104123000D01*
D11*
%TO.C,HS*%
X181776000Y-60591800D02*
X182026000Y-60591800D01*
X106026000Y-81341800D02*
X106026000Y-81591800D01*
X182026000Y-81591800D02*
X182026000Y-81341800D01*
X182026000Y-60841800D02*
X182026000Y-60591800D01*
X106026000Y-60591800D02*
X106276000Y-60591800D01*
X106026000Y-60841800D02*
X106026000Y-60591800D01*
X182026000Y-81591800D02*
X181776000Y-81591800D01*
X106026000Y-81591800D02*
X106276000Y-81591800D01*
X181776000Y-81591800D02*
X182026000Y-81591800D01*
%TO.C,R10*%
X138214263Y-98975000D02*
X139661737Y-98975000D01*
X138214263Y-101685000D02*
X139661737Y-101685000D01*
%TO.C,R5*%
X175437258Y-106922500D02*
X174962742Y-106922500D01*
X175437258Y-105877500D02*
X174962742Y-105877500D01*
%TO.C,R13*%
X157496742Y-122442500D02*
X157971258Y-122442500D01*
X157496742Y-121397500D02*
X157971258Y-121397500D01*
%TD*%
M02*
