%TF.GenerationSoftware,KiCad,Pcbnew,(6.0.10)*%
%TF.CreationDate,2023-05-17T01:35:15+02:00*%
%TF.ProjectId,spotter,73706f74-7465-4722-9e6b-696361645f70,1.0*%
%TF.SameCoordinates,Original*%
%TF.FileFunction,Paste,Top*%
%TF.FilePolarity,Positive*%
%FSLAX46Y46*%
G04 Gerber Fmt 4.6, Leading zero omitted, Abs format (unit mm)*
G04 Created by KiCad (PCBNEW (6.0.10)) date 2023-05-17 01:35:15*
%MOMM*%
%LPD*%
G01*
G04 APERTURE LIST*
G04 Aperture macros list*
%AMRoundRect*
0 Rectangle with rounded corners*
0 $1 Rounding radius*
0 $2 $3 $4 $5 $6 $7 $8 $9 X,Y pos of 4 corners*
0 Add a 4 corners polygon primitive as box body*
4,1,4,$2,$3,$4,$5,$6,$7,$8,$9,$2,$3,0*
0 Add four circle primitives for the rounded corners*
1,1,$1+$1,$2,$3*
1,1,$1+$1,$4,$5*
1,1,$1+$1,$6,$7*
1,1,$1+$1,$8,$9*
0 Add four rect primitives between the rounded corners*
20,1,$1+$1,$2,$3,$4,$5,0*
20,1,$1+$1,$4,$5,$6,$7,0*
20,1,$1+$1,$6,$7,$8,$9,0*
20,1,$1+$1,$8,$9,$2,$3,0*%
G04 Aperture macros list end*
%ADD10R,1.000000X0.800000*%
%ADD11RoundRect,0.237500X0.237500X-0.250000X0.237500X0.250000X-0.237500X0.250000X-0.237500X-0.250000X0*%
%ADD12RoundRect,0.200000X0.200000X0.275000X-0.200000X0.275000X-0.200000X-0.275000X0.200000X-0.275000X0*%
%ADD13R,2.500000X1.800000*%
%ADD14RoundRect,0.200000X-0.200000X-0.275000X0.200000X-0.275000X0.200000X0.275000X-0.200000X0.275000X0*%
%ADD15RoundRect,0.237500X-0.237500X0.250000X-0.237500X-0.250000X0.237500X-0.250000X0.237500X0.250000X0*%
%ADD16RoundRect,0.225000X0.225000X0.250000X-0.225000X0.250000X-0.225000X-0.250000X0.225000X-0.250000X0*%
%ADD17RoundRect,0.218750X0.256250X-0.218750X0.256250X0.218750X-0.256250X0.218750X-0.256250X-0.218750X0*%
%ADD18RoundRect,0.250000X0.400000X0.625000X-0.400000X0.625000X-0.400000X-0.625000X0.400000X-0.625000X0*%
%ADD19R,1.780000X2.000000*%
%ADD20RoundRect,0.250000X-1.075000X0.312500X-1.075000X-0.312500X1.075000X-0.312500X1.075000X0.312500X0*%
%ADD21RoundRect,0.225000X-0.225000X-0.250000X0.225000X-0.250000X0.225000X0.250000X-0.225000X0.250000X0*%
%ADD22R,0.400000X1.900000*%
%ADD23RoundRect,0.250000X-0.400000X-1.075000X0.400000X-1.075000X0.400000X1.075000X-0.400000X1.075000X0*%
%ADD24RoundRect,0.225000X-0.250000X0.225000X-0.250000X-0.225000X0.250000X-0.225000X0.250000X0.225000X0*%
%ADD25RoundRect,0.250000X-0.400000X-0.625000X0.400000X-0.625000X0.400000X0.625000X-0.400000X0.625000X0*%
%ADD26RoundRect,0.150000X0.150000X-0.825000X0.150000X0.825000X-0.150000X0.825000X-0.150000X-0.825000X0*%
%ADD27RoundRect,0.250000X0.400000X1.075000X-0.400000X1.075000X-0.400000X-1.075000X0.400000X-1.075000X0*%
%ADD28R,1.600000X0.550000*%
%ADD29R,0.550000X1.600000*%
%ADD30RoundRect,0.237500X0.250000X0.237500X-0.250000X0.237500X-0.250000X-0.237500X0.250000X-0.237500X0*%
%ADD31RoundRect,0.250000X-0.325000X-0.650000X0.325000X-0.650000X0.325000X0.650000X-0.325000X0.650000X0*%
%ADD32R,1.500000X1.300000*%
G04 APERTURE END LIST*
D10*
%TO.C,D3*%
X123671000Y-103124000D03*
X123671000Y-105664000D03*
X129821000Y-105664000D03*
X129821000Y-103124000D03*
%TD*%
D11*
%TO.C,R2*%
X173888400Y-121968900D03*
X173888400Y-120143900D03*
%TD*%
D12*
%TO.C,R6*%
X175958000Y-139700000D03*
X174308000Y-139700000D03*
%TD*%
D13*
%TO.C,D2*%
X136938000Y-94488000D03*
X140938000Y-94488000D03*
%TD*%
D14*
%TO.C,R12*%
X162878000Y-122174000D03*
X164528000Y-122174000D03*
%TD*%
D15*
%TO.C,R1*%
X150114000Y-120245500D03*
X150114000Y-122070500D03*
%TD*%
D16*
%TO.C,C5*%
X164478000Y-120396000D03*
X162928000Y-120396000D03*
%TD*%
D17*
%TO.C,PWR1*%
X172339000Y-120243500D03*
X172339000Y-121818500D03*
%TD*%
D18*
%TO.C,R8*%
X159030000Y-94234000D03*
X155930000Y-94234000D03*
%TD*%
D19*
%TO.C,U2*%
X148082000Y-109159000D03*
X150622000Y-109159000D03*
X153162000Y-109159000D03*
X153162000Y-99629000D03*
X150622000Y-99629000D03*
X148082000Y-99629000D03*
%TD*%
D20*
%TO.C,R18*%
X146812000Y-93025500D03*
X146812000Y-95950500D03*
%TD*%
D21*
%TO.C,C3*%
X174425000Y-108400000D03*
X175975000Y-108400000D03*
%TD*%
D14*
%TO.C,R11*%
X174308000Y-141478000D03*
X175958000Y-141478000D03*
%TD*%
D22*
%TO.C,Y1*%
X159700000Y-104605000D03*
X160900000Y-104605000D03*
X162100000Y-104605000D03*
%TD*%
D14*
%TO.C,R7*%
X162878000Y-123952000D03*
X164528000Y-123952000D03*
%TD*%
D23*
%TO.C,R15*%
X120402000Y-111941000D03*
X123502000Y-111941000D03*
%TD*%
D24*
%TO.C,C1*%
X151892000Y-120383000D03*
X151892000Y-121933000D03*
%TD*%
D25*
%TO.C,R14*%
X137388000Y-97536000D03*
X140488000Y-97536000D03*
%TD*%
D26*
%TO.C,U3*%
X161798000Y-143191000D03*
X163068000Y-143191000D03*
X164338000Y-143191000D03*
X165608000Y-143191000D03*
X166878000Y-143191000D03*
X168148000Y-143191000D03*
X169418000Y-143191000D03*
X169418000Y-138241000D03*
X168148000Y-138241000D03*
X166878000Y-138241000D03*
X165608000Y-138241000D03*
X164338000Y-138241000D03*
X163068000Y-138241000D03*
X161798000Y-138241000D03*
%TD*%
D27*
%TO.C,R16*%
X123502000Y-108385000D03*
X120402000Y-108385000D03*
%TD*%
D28*
%TO.C,U1*%
X167550000Y-109000000D03*
X167550000Y-109800000D03*
X167550000Y-110600000D03*
X167550000Y-111400000D03*
X167550000Y-112200000D03*
X167550000Y-113000000D03*
X167550000Y-113800000D03*
X167550000Y-114600000D03*
D29*
X166100000Y-116050000D03*
X165300000Y-116050000D03*
X164500000Y-116050000D03*
X163700000Y-116050000D03*
X162900000Y-116050000D03*
X162100000Y-116050000D03*
X161300000Y-116050000D03*
X160500000Y-116050000D03*
D28*
X159050000Y-114600000D03*
X159050000Y-113800000D03*
X159050000Y-113000000D03*
X159050000Y-112200000D03*
X159050000Y-111400000D03*
X159050000Y-110600000D03*
X159050000Y-109800000D03*
X159050000Y-109000000D03*
D29*
X160500000Y-107550000D03*
X161300000Y-107550000D03*
X162100000Y-107550000D03*
X162900000Y-107550000D03*
X163700000Y-107550000D03*
X164500000Y-107550000D03*
X165300000Y-107550000D03*
X166100000Y-107550000D03*
%TD*%
D30*
%TO.C,R17*%
X141073500Y-114173000D03*
X142898500Y-114173000D03*
%TD*%
D31*
%TO.C,C7*%
X150671000Y-94234000D03*
X153621000Y-94234000D03*
%TD*%
D15*
%TO.C,R3*%
X156464000Y-105005500D03*
X156464000Y-106830500D03*
%TD*%
D13*
%TO.C,D1*%
X158718000Y-90932000D03*
X154718000Y-90932000D03*
%TD*%
D16*
%TO.C,C4*%
X158509000Y-120142000D03*
X156959000Y-120142000D03*
%TD*%
D14*
%TO.C,R4*%
X174375000Y-104400000D03*
X176025000Y-104400000D03*
%TD*%
%TO.C,R9*%
X156909000Y-123698000D03*
X158559000Y-123698000D03*
%TD*%
D16*
%TO.C,C6*%
X175908000Y-143256000D03*
X174358000Y-143256000D03*
%TD*%
D32*
%TO.C,U4*%
X143256000Y-112323000D03*
X140716000Y-112323000D03*
X140716000Y-104323000D03*
X143256000Y-104323000D03*
%TD*%
D23*
%TO.C,R10*%
X137388000Y-100330000D03*
X140488000Y-100330000D03*
%TD*%
D12*
%TO.C,R5*%
X176025000Y-106400000D03*
X174375000Y-106400000D03*
%TD*%
D14*
%TO.C,R13*%
X156909000Y-121920000D03*
X158559000Y-121920000D03*
%TD*%
M02*
