M48
; DRILL file {KiCad (6.0.10)} date Wed May 17 01:35:19 2023
; FORMAT={-:-/ absolute / inch / decimal}
; #@! TF.CreationDate,2023-05-17T01:35:19+02:00
; #@! TF.GenerationSoftware,Kicad,Pcbnew,(6.0.10)
; #@! TF.FileFunction,Plated,1,2,PTH
FMAT,2
INCH
; #@! TA.AperFunction,Plated,PTH,ViaDrill
T1C0.0118
; #@! TA.AperFunction,Plated,PTH,ViaDrill
T2C0.0157
; #@! TA.AperFunction,Plated,PTH,ComponentDrill
T3C0.0315
; #@! TA.AperFunction,Plated,PTH,ComponentDrill
T4C0.0374
; #@! TA.AperFunction,Plated,PTH,ComponentDrill
T5C0.0394
; #@! TA.AperFunction,Plated,PTH,ComponentDrill
T6C0.0551
; #@! TA.AperFunction,Plated,PTH,ComponentDrill
T7C0.1260
%
G90
G05
T1
X5.51Y-4.495
X5.61Y-5.17
X5.64Y-4.3697
X5.975Y-5.29
X5.99Y-4.946
X5.996Y-4.866
X6.05Y-4.4917
X6.06Y-4.715
X6.08Y-4.802
X6.095Y-4.895
X6.115Y-4.765
X6.185Y-4.4803
X6.185Y-4.535
X6.185Y-4.615
X6.2Y-4.2696
X6.205Y-4.955
X6.2139Y-4.9161
X6.25Y-4.59
X6.315Y-4.48
X6.33Y-5.64
X6.4236Y-4.3568
X6.4449Y-5.0751
X6.45Y-4.374
X6.48Y-4.9204
X6.492Y-4.302
X6.5079Y-4.6329
X6.52Y-5.37
X6.52Y-5.57
X6.525Y-4.975
X6.5398Y-4.3858
X6.54Y-4.186
X6.54Y-4.945
X6.573Y-4.634
X6.575Y-4.765
X6.605Y-4.55
X6.62Y-5.505
X6.62Y-5.575
X6.655Y-4.45
X6.674Y-4.292
X6.675Y-4.515
X6.6825Y-4.7775
X6.745Y-5.3676
X6.76Y-4.51
X6.81Y-5.366
X6.82Y-5.535
X6.83Y-4.11
X6.84Y-4.83
X6.875Y-4.48
X6.8751Y-4.6299
T2
X4.27Y-3.69
X4.27Y-3.74
X4.27Y-3.79
X4.27Y-3.84
X4.27Y-3.89
X4.27Y-3.94
X4.27Y-3.99
X4.27Y-4.04
X4.27Y-4.09
X4.27Y-4.14
X4.27Y-4.19
X4.27Y-4.24
X4.27Y-4.296
X4.31Y-3.65
X4.31Y-4.34
X4.35Y-3.61
X4.35Y-4.38
X4.39Y-4.41
X4.4Y-3.59
X4.45Y-3.59
X4.5Y-3.59
X4.55Y-3.59
X4.6Y-3.56
X4.64Y-3.52
X4.68Y-3.48
X4.72Y-3.44
X4.76Y-3.4
X4.8Y-3.36
X4.84Y-3.33
X4.89Y-3.33
X4.94Y-3.33
X4.99Y-3.33
X5.295Y-3.52
X5.345Y-3.52
X5.48Y-3.59
X5.52Y-3.59
X5.56Y-3.59
X5.6Y-3.59
X5.64Y-3.59
X5.68Y-3.59
X5.72Y-3.59
X5.76Y-3.59
X5.8Y-3.59
X5.84Y-3.59
X6.13Y-5.38
X6.13Y-5.42
X6.17Y-5.38
X6.17Y-5.42
X6.33Y-5.44
X6.3504Y-4.6346
X6.382Y-4.338
X6.39Y-4.46
X6.485Y-4.14
X6.725Y-4.965
X6.774Y-4.19
X6.975Y-5.5
T3
X5.5928Y-4.768
X5.6912Y-4.768
T4
X5.7331Y-5.5393
X5.8316Y-5.5393
X5.93Y-5.5393
X6.0284Y-5.5393
X6.1269Y-5.5393
X7.0876Y-4.4961
X7.0876Y-4.5945
X7.0876Y-4.6929
X7.0876Y-4.7913
T5
X4.2267Y-4.9016
X4.2267Y-5.0984
X5.0664Y-3.33
X5.1664Y-3.33
X5.2664Y-3.33
X5.2708Y-5.5393
X5.285Y-4.3106
X5.285Y-4.4106
X5.285Y-4.5106
X5.3692Y-5.5393
X5.3842Y-4.6969
X5.3842Y-5.3031
X5.75Y-5.0696
X5.75Y-5.1696
X5.78Y-4.47
X5.78Y-4.57
X5.85Y-5.0696
X5.85Y-5.1696
X5.88Y-4.47
X5.88Y-4.57
X5.95Y-5.0696
X5.95Y-5.1696
X5.98Y-4.47
X5.98Y-4.57
X6.05Y-5.0696
X6.05Y-5.1696
X6.0743Y-3.33
X6.15Y-5.0696
X6.15Y-5.1696
X6.1743Y-3.33
X6.2743Y-3.33
X6.61Y-5.07
X6.61Y-5.17
X6.71Y-5.07
X6.71Y-5.17
X6.81Y-5.07
X6.81Y-5.17
X6.91Y-5.07
X6.91Y-5.17
X7.01Y-5.07
X7.01Y-5.17
X7.0866Y-4.1516
X7.0866Y-4.25
T6
X4.5187Y-3.81
X4.5187Y-4.11
X4.5187Y-4.41
T7
X4.21Y-5.59
X4.2136Y-3.3346
X7.127Y-3.3346
X7.13Y-5.59
T0
M30
