%TF.GenerationSoftware,KiCad,Pcbnew,(6.0.10)*%
%TF.CreationDate,2023-05-17T01:35:15+02:00*%
%TF.ProjectId,spotter,73706f74-7465-4722-9e6b-696361645f70,1.0*%
%TF.SameCoordinates,Original*%
%TF.FileFunction,Legend,Bot*%
%TF.FilePolarity,Positive*%
%FSLAX46Y46*%
G04 Gerber Fmt 4.6, Leading zero omitted, Abs format (unit mm)*
G04 Created by KiCad (PCBNEW (6.0.10)) date 2023-05-17 01:35:15*
%MOMM*%
%LPD*%
G01*
G04 APERTURE LIST*
%ADD10C,0.150000*%
%ADD11C,0.010000*%
%ADD12C,0.120000*%
G04 APERTURE END LIST*
D10*
X138775000Y-106450000D02*
X139775000Y-106450000D01*
X171775000Y-102200000D02*
X172775000Y-102200000D01*
X159775000Y-102200000D02*
X160775000Y-102200000D01*
X144525000Y-105450000D02*
X145025000Y-104950000D01*
X130048000Y-109462000D02*
X130048000Y-108462000D01*
X131096000Y-106700000D02*
X131346000Y-106450000D01*
X153775000Y-102200000D02*
X154775000Y-102200000D01*
X146775000Y-103200000D02*
X147275000Y-102700000D01*
X131346000Y-106450000D02*
X131596000Y-106450000D01*
X165775000Y-102200000D02*
X166775000Y-102200000D01*
X143525000Y-106450000D02*
X143775000Y-106200000D01*
X130048000Y-113462000D02*
X130048000Y-112462000D01*
X130048000Y-111462000D02*
X130048000Y-110462000D01*
X173775000Y-102200000D02*
X174775000Y-102200000D01*
X175775000Y-102200000D02*
X176775000Y-102200000D01*
X130048000Y-127462000D02*
X130048000Y-126462000D01*
X134775000Y-106450000D02*
X135775000Y-106450000D01*
X163775000Y-102200000D02*
X164775000Y-102200000D01*
X183775000Y-102200000D02*
X183775000Y-102200000D01*
X130048000Y-115462000D02*
X130048000Y-114462000D01*
X132596000Y-106450000D02*
X133596000Y-106450000D01*
X130048000Y-119462000D02*
X130048000Y-118462000D01*
X130048000Y-131462000D02*
X130048000Y-130462000D01*
X130048000Y-144780000D02*
X130048000Y-144462000D01*
X147775000Y-102200000D02*
X148775000Y-102200000D01*
X179775000Y-102200000D02*
X180775000Y-102200000D01*
X130048000Y-135462000D02*
X130048000Y-134462000D01*
X130048000Y-139462000D02*
X130048000Y-138462000D01*
X130084000Y-107700000D02*
X130584000Y-107200000D01*
X157775000Y-102200000D02*
X158775000Y-102200000D01*
X177775000Y-102200000D02*
X178775000Y-102200000D01*
X181775000Y-102200000D02*
X182775000Y-102200000D01*
X169775000Y-102200000D02*
X170775000Y-102200000D01*
X167775000Y-102200000D02*
X168775000Y-102200000D01*
X136775000Y-106450000D02*
X137775000Y-106450000D01*
X145525000Y-104450000D02*
X146025000Y-103950000D01*
X130048000Y-117462000D02*
X130048000Y-116462000D01*
X149775000Y-102200000D02*
X150775000Y-102200000D01*
X142775000Y-106450000D02*
X143525000Y-106450000D01*
X130048000Y-125462000D02*
X130048000Y-124462000D01*
X130048000Y-129462000D02*
X130048000Y-128462000D01*
X151775000Y-102200000D02*
X152775000Y-102200000D01*
X130048000Y-123462000D02*
X130048000Y-122462000D01*
X130048000Y-141462000D02*
X130048000Y-140462000D01*
X130048000Y-143462000D02*
X130048000Y-142462000D01*
X140775000Y-106450000D02*
X141775000Y-106450000D01*
X130048000Y-133462000D02*
X130048000Y-132462000D01*
X130048000Y-137462000D02*
X130048000Y-136462000D01*
X161775000Y-102200000D02*
X162775000Y-102200000D01*
X130048000Y-121462000D02*
X130048000Y-120462000D01*
X155775000Y-102200000D02*
X156775000Y-102200000D01*
X174176819Y-94731876D02*
X174272057Y-94684257D01*
X174462533Y-94684257D01*
X174557771Y-94731876D01*
X174653009Y-94827114D01*
X174700628Y-94922352D01*
X174700628Y-95112828D01*
X174653009Y-95208066D01*
X174557771Y-95303304D01*
X174462533Y-95350923D01*
X174272057Y-95350923D01*
X174176819Y-95303304D01*
X174367295Y-94350923D02*
X174605390Y-94398542D01*
X174843485Y-94541400D01*
X174986342Y-94779495D01*
X175033961Y-95017590D01*
X174986342Y-95255685D01*
X174843485Y-95493780D01*
X174605390Y-95636638D01*
X174367295Y-95684257D01*
X174129200Y-95636638D01*
X173891104Y-95493780D01*
X173748247Y-95255685D01*
X173700628Y-95017590D01*
X173748247Y-94779495D01*
X173891104Y-94541400D01*
X174129200Y-94398542D01*
X174367295Y-94350923D01*
X172938723Y-94969971D02*
X173272057Y-94969971D01*
X173272057Y-95493780D02*
X173272057Y-94493780D01*
X172795866Y-94493780D01*
X172272057Y-95493780D02*
X172367295Y-95446161D01*
X172414914Y-95398542D01*
X172462533Y-95303304D01*
X172462533Y-95017590D01*
X172414914Y-94922352D01*
X172367295Y-94874733D01*
X172272057Y-94827114D01*
X172129200Y-94827114D01*
X172033961Y-94874733D01*
X171986342Y-94922352D01*
X171938723Y-95017590D01*
X171938723Y-95303304D01*
X171986342Y-95398542D01*
X172033961Y-95446161D01*
X172129200Y-95493780D01*
X172272057Y-95493780D01*
X171605390Y-95493780D02*
X171081580Y-94827114D01*
X171605390Y-94827114D02*
X171081580Y-95493780D01*
X170272057Y-95493780D02*
X170272057Y-94493780D01*
X170272057Y-95446161D02*
X170367295Y-95493780D01*
X170557771Y-95493780D01*
X170653009Y-95446161D01*
X170700628Y-95398542D01*
X170748247Y-95303304D01*
X170748247Y-95017590D01*
X170700628Y-94922352D01*
X170653009Y-94874733D01*
X170557771Y-94827114D01*
X170367295Y-94827114D01*
X170272057Y-94874733D01*
X169653009Y-95493780D02*
X169748247Y-95446161D01*
X169795866Y-95398542D01*
X169843485Y-95303304D01*
X169843485Y-95017590D01*
X169795866Y-94922352D01*
X169748247Y-94874733D01*
X169653009Y-94827114D01*
X169510152Y-94827114D01*
X169414914Y-94874733D01*
X169367295Y-94922352D01*
X169319676Y-95017590D01*
X169319676Y-95303304D01*
X169367295Y-95398542D01*
X169414914Y-95446161D01*
X169510152Y-95493780D01*
X169653009Y-95493780D01*
X168462533Y-94827114D02*
X168462533Y-95636638D01*
X168510152Y-95731876D01*
X168557771Y-95779495D01*
X168653009Y-95827114D01*
X168795866Y-95827114D01*
X168891104Y-95779495D01*
X168462533Y-95446161D02*
X168557771Y-95493780D01*
X168748247Y-95493780D01*
X168843485Y-95446161D01*
X168891104Y-95398542D01*
X168938723Y-95303304D01*
X168938723Y-95017590D01*
X168891104Y-94922352D01*
X168843485Y-94874733D01*
X168748247Y-94827114D01*
X168557771Y-94827114D01*
X168462533Y-94874733D01*
X168129200Y-94827114D02*
X167748247Y-94827114D01*
X167986342Y-95493780D02*
X167986342Y-94636638D01*
X167938723Y-94541400D01*
X167843485Y-94493780D01*
X167748247Y-94493780D01*
X166986342Y-95493780D02*
X166986342Y-94969971D01*
X167033961Y-94874733D01*
X167129200Y-94827114D01*
X167319676Y-94827114D01*
X167414914Y-94874733D01*
X166986342Y-95446161D02*
X167081580Y-95493780D01*
X167319676Y-95493780D01*
X167414914Y-95446161D01*
X167462533Y-95350923D01*
X167462533Y-95255685D01*
X167414914Y-95160447D01*
X167319676Y-95112828D01*
X167081580Y-95112828D01*
X166986342Y-95065209D01*
X166081580Y-95446161D02*
X166176819Y-95493780D01*
X166367295Y-95493780D01*
X166462533Y-95446161D01*
X166510152Y-95398542D01*
X166557771Y-95303304D01*
X166557771Y-95017590D01*
X166510152Y-94922352D01*
X166462533Y-94874733D01*
X166367295Y-94827114D01*
X166176819Y-94827114D01*
X166081580Y-94874733D01*
X165272057Y-95446161D02*
X165367295Y-95493780D01*
X165557771Y-95493780D01*
X165653009Y-95446161D01*
X165700628Y-95350923D01*
X165700628Y-94969971D01*
X165653009Y-94874733D01*
X165557771Y-94827114D01*
X165367295Y-94827114D01*
X165272057Y-94874733D01*
X165224438Y-94969971D01*
X165224438Y-95065209D01*
X165700628Y-95160447D01*
X181938723Y-97103780D02*
X181938723Y-96103780D01*
X181510152Y-97103780D02*
X181510152Y-96579971D01*
X181557771Y-96484733D01*
X181653009Y-96437114D01*
X181795866Y-96437114D01*
X181891104Y-96484733D01*
X181938723Y-96532352D01*
X181176819Y-96437114D02*
X180795866Y-96437114D01*
X181033961Y-96103780D02*
X181033961Y-96960923D01*
X180986342Y-97056161D01*
X180891104Y-97103780D01*
X180795866Y-97103780D01*
X180605390Y-96437114D02*
X180224438Y-96437114D01*
X180462533Y-96103780D02*
X180462533Y-96960923D01*
X180414914Y-97056161D01*
X180319676Y-97103780D01*
X180224438Y-97103780D01*
X179891104Y-96437114D02*
X179891104Y-97437114D01*
X179891104Y-96484733D02*
X179795866Y-96437114D01*
X179605390Y-96437114D01*
X179510152Y-96484733D01*
X179462533Y-96532352D01*
X179414914Y-96627590D01*
X179414914Y-96913304D01*
X179462533Y-97008542D01*
X179510152Y-97056161D01*
X179605390Y-97103780D01*
X179795866Y-97103780D01*
X179891104Y-97056161D01*
X179033961Y-97056161D02*
X178938723Y-97103780D01*
X178748247Y-97103780D01*
X178653009Y-97056161D01*
X178605390Y-96960923D01*
X178605390Y-96913304D01*
X178653009Y-96818066D01*
X178748247Y-96770447D01*
X178891104Y-96770447D01*
X178986342Y-96722828D01*
X179033961Y-96627590D01*
X179033961Y-96579971D01*
X178986342Y-96484733D01*
X178891104Y-96437114D01*
X178748247Y-96437114D01*
X178653009Y-96484733D01*
X178176819Y-97008542D02*
X178129200Y-97056161D01*
X178176819Y-97103780D01*
X178224438Y-97056161D01*
X178176819Y-97008542D01*
X178176819Y-97103780D01*
X178176819Y-96484733D02*
X178129200Y-96532352D01*
X178176819Y-96579971D01*
X178224438Y-96532352D01*
X178176819Y-96484733D01*
X178176819Y-96579971D01*
X176986342Y-96056161D02*
X177843485Y-97341876D01*
X175938723Y-96056161D02*
X176795866Y-97341876D01*
X175176819Y-96437114D02*
X175176819Y-97246638D01*
X175224438Y-97341876D01*
X175272057Y-97389495D01*
X175367295Y-97437114D01*
X175510152Y-97437114D01*
X175605390Y-97389495D01*
X175176819Y-97056161D02*
X175272057Y-97103780D01*
X175462533Y-97103780D01*
X175557771Y-97056161D01*
X175605390Y-97008542D01*
X175653009Y-96913304D01*
X175653009Y-96627590D01*
X175605390Y-96532352D01*
X175557771Y-96484733D01*
X175462533Y-96437114D01*
X175272057Y-96437114D01*
X175176819Y-96484733D01*
X174700628Y-97103780D02*
X174700628Y-96437114D01*
X174700628Y-96103780D02*
X174748247Y-96151400D01*
X174700628Y-96199019D01*
X174653009Y-96151400D01*
X174700628Y-96103780D01*
X174700628Y-96199019D01*
X174367295Y-96437114D02*
X173986342Y-96437114D01*
X174224438Y-96103780D02*
X174224438Y-96960923D01*
X174176819Y-97056161D01*
X174081580Y-97103780D01*
X173986342Y-97103780D01*
X173653009Y-97103780D02*
X173653009Y-96103780D01*
X173224438Y-97103780D02*
X173224438Y-96579971D01*
X173272057Y-96484733D01*
X173367295Y-96437114D01*
X173510152Y-96437114D01*
X173605390Y-96484733D01*
X173653009Y-96532352D01*
X172319676Y-96437114D02*
X172319676Y-97103780D01*
X172748247Y-96437114D02*
X172748247Y-96960923D01*
X172700628Y-97056161D01*
X172605390Y-97103780D01*
X172462533Y-97103780D01*
X172367295Y-97056161D01*
X172319676Y-97008542D01*
X171843485Y-97103780D02*
X171843485Y-96103780D01*
X171843485Y-96484733D02*
X171748247Y-96437114D01*
X171557771Y-96437114D01*
X171462533Y-96484733D01*
X171414914Y-96532352D01*
X171367295Y-96627590D01*
X171367295Y-96913304D01*
X171414914Y-97008542D01*
X171462533Y-97056161D01*
X171557771Y-97103780D01*
X171748247Y-97103780D01*
X171843485Y-97056161D01*
X170938723Y-97008542D02*
X170891104Y-97056161D01*
X170938723Y-97103780D01*
X170986342Y-97056161D01*
X170938723Y-97008542D01*
X170938723Y-97103780D01*
X170033961Y-97056161D02*
X170129200Y-97103780D01*
X170319676Y-97103780D01*
X170414914Y-97056161D01*
X170462533Y-97008542D01*
X170510152Y-96913304D01*
X170510152Y-96627590D01*
X170462533Y-96532352D01*
X170414914Y-96484733D01*
X170319676Y-96437114D01*
X170129200Y-96437114D01*
X170033961Y-96484733D01*
X169462533Y-97103780D02*
X169557771Y-97056161D01*
X169605390Y-97008542D01*
X169653009Y-96913304D01*
X169653009Y-96627590D01*
X169605390Y-96532352D01*
X169557771Y-96484733D01*
X169462533Y-96437114D01*
X169319676Y-96437114D01*
X169224438Y-96484733D01*
X169176819Y-96532352D01*
X169129200Y-96627590D01*
X169129200Y-96913304D01*
X169176819Y-97008542D01*
X169224438Y-97056161D01*
X169319676Y-97103780D01*
X169462533Y-97103780D01*
X168700628Y-97103780D02*
X168700628Y-96437114D01*
X168700628Y-96532352D02*
X168653009Y-96484733D01*
X168557771Y-96437114D01*
X168414914Y-96437114D01*
X168319676Y-96484733D01*
X168272057Y-96579971D01*
X168272057Y-97103780D01*
X168272057Y-96579971D02*
X168224438Y-96484733D01*
X168129200Y-96437114D01*
X167986342Y-96437114D01*
X167891104Y-96484733D01*
X167843485Y-96579971D01*
X167843485Y-97103780D01*
X166653009Y-96056161D02*
X167510152Y-97341876D01*
X165986342Y-96579971D02*
X166319676Y-96579971D01*
X166319676Y-97103780D02*
X166319676Y-96103780D01*
X165843485Y-96103780D01*
X165319676Y-97103780D02*
X165414914Y-97056161D01*
X165462533Y-97008542D01*
X165510152Y-96913304D01*
X165510152Y-96627590D01*
X165462533Y-96532352D01*
X165414914Y-96484733D01*
X165319676Y-96437114D01*
X165176819Y-96437114D01*
X165081580Y-96484733D01*
X165033961Y-96532352D01*
X164986342Y-96627590D01*
X164986342Y-96913304D01*
X165033961Y-97008542D01*
X165081580Y-97056161D01*
X165176819Y-97103780D01*
X165319676Y-97103780D01*
X164653009Y-97103780D02*
X164129200Y-96437114D01*
X164653009Y-96437114D02*
X164129200Y-97103780D01*
X163319676Y-97103780D02*
X163319676Y-96103780D01*
X163319676Y-97056161D02*
X163414914Y-97103780D01*
X163605390Y-97103780D01*
X163700628Y-97056161D01*
X163748247Y-97008542D01*
X163795866Y-96913304D01*
X163795866Y-96627590D01*
X163748247Y-96532352D01*
X163700628Y-96484733D01*
X163605390Y-96437114D01*
X163414914Y-96437114D01*
X163319676Y-96484733D01*
X162700628Y-97103780D02*
X162795866Y-97056161D01*
X162843485Y-97008542D01*
X162891104Y-96913304D01*
X162891104Y-96627590D01*
X162843485Y-96532352D01*
X162795866Y-96484733D01*
X162700628Y-96437114D01*
X162557771Y-96437114D01*
X162462533Y-96484733D01*
X162414914Y-96532352D01*
X162367295Y-96627590D01*
X162367295Y-96913304D01*
X162414914Y-97008542D01*
X162462533Y-97056161D01*
X162557771Y-97103780D01*
X162700628Y-97103780D01*
X161510152Y-96437114D02*
X161510152Y-97246638D01*
X161557771Y-97341876D01*
X161605390Y-97389495D01*
X161700628Y-97437114D01*
X161843485Y-97437114D01*
X161938723Y-97389495D01*
X161510152Y-97056161D02*
X161605390Y-97103780D01*
X161795866Y-97103780D01*
X161891104Y-97056161D01*
X161938723Y-97008542D01*
X161986342Y-96913304D01*
X161986342Y-96627590D01*
X161938723Y-96532352D01*
X161891104Y-96484733D01*
X161795866Y-96437114D01*
X161605390Y-96437114D01*
X161510152Y-96484733D01*
X161176819Y-96437114D02*
X160795866Y-96437114D01*
X161033961Y-97103780D02*
X161033961Y-96246638D01*
X160986342Y-96151400D01*
X160891104Y-96103780D01*
X160795866Y-96103780D01*
X160033961Y-97103780D02*
X160033961Y-96579971D01*
X160081580Y-96484733D01*
X160176819Y-96437114D01*
X160367295Y-96437114D01*
X160462533Y-96484733D01*
X160033961Y-97056161D02*
X160129200Y-97103780D01*
X160367295Y-97103780D01*
X160462533Y-97056161D01*
X160510152Y-96960923D01*
X160510152Y-96865685D01*
X160462533Y-96770447D01*
X160367295Y-96722828D01*
X160129200Y-96722828D01*
X160033961Y-96675209D01*
X159129200Y-97056161D02*
X159224438Y-97103780D01*
X159414914Y-97103780D01*
X159510152Y-97056161D01*
X159557771Y-97008542D01*
X159605390Y-96913304D01*
X159605390Y-96627590D01*
X159557771Y-96532352D01*
X159510152Y-96484733D01*
X159414914Y-96437114D01*
X159224438Y-96437114D01*
X159129200Y-96484733D01*
X158319676Y-97056161D02*
X158414914Y-97103780D01*
X158605390Y-97103780D01*
X158700628Y-97056161D01*
X158748247Y-96960923D01*
X158748247Y-96579971D01*
X158700628Y-96484733D01*
X158605390Y-96437114D01*
X158414914Y-96437114D01*
X158319676Y-96484733D01*
X158272057Y-96579971D01*
X158272057Y-96675209D01*
X158748247Y-96770447D01*
X174367295Y-91208066D02*
X173891104Y-91208066D01*
X174462533Y-91493780D02*
X174129200Y-90493780D01*
X173795866Y-91493780D01*
X173605390Y-90493780D02*
X173272057Y-91493780D01*
X172938723Y-90493780D01*
X172033961Y-91493780D02*
X172367295Y-91017590D01*
X172605390Y-91493780D02*
X172605390Y-90493780D01*
X172224438Y-90493780D01*
X172129200Y-90541400D01*
X172081580Y-90589019D01*
X172033961Y-90684257D01*
X172033961Y-90827114D01*
X172081580Y-90922352D01*
X172129200Y-90969971D01*
X172224438Y-91017590D01*
X172605390Y-91017590D01*
X170891104Y-91446161D02*
X170748247Y-91493780D01*
X170510152Y-91493780D01*
X170414914Y-91446161D01*
X170367295Y-91398542D01*
X170319676Y-91303304D01*
X170319676Y-91208066D01*
X170367295Y-91112828D01*
X170414914Y-91065209D01*
X170510152Y-91017590D01*
X170700628Y-90969971D01*
X170795866Y-90922352D01*
X170843485Y-90874733D01*
X170891104Y-90779495D01*
X170891104Y-90684257D01*
X170843485Y-90589019D01*
X170795866Y-90541400D01*
X170700628Y-90493780D01*
X170462533Y-90493780D01*
X170319676Y-90541400D01*
X169891104Y-90827114D02*
X169891104Y-91827114D01*
X169891104Y-90874733D02*
X169795866Y-90827114D01*
X169605390Y-90827114D01*
X169510152Y-90874733D01*
X169462533Y-90922352D01*
X169414914Y-91017590D01*
X169414914Y-91303304D01*
X169462533Y-91398542D01*
X169510152Y-91446161D01*
X169605390Y-91493780D01*
X169795866Y-91493780D01*
X169891104Y-91446161D01*
X168843485Y-91493780D02*
X168938723Y-91446161D01*
X168986342Y-91398542D01*
X169033961Y-91303304D01*
X169033961Y-91017590D01*
X168986342Y-90922352D01*
X168938723Y-90874733D01*
X168843485Y-90827114D01*
X168700628Y-90827114D01*
X168605390Y-90874733D01*
X168557771Y-90922352D01*
X168510152Y-91017590D01*
X168510152Y-91303304D01*
X168557771Y-91398542D01*
X168605390Y-91446161D01*
X168700628Y-91493780D01*
X168843485Y-91493780D01*
X168224438Y-90827114D02*
X167843485Y-90827114D01*
X168081580Y-90493780D02*
X168081580Y-91350923D01*
X168033961Y-91446161D01*
X167938723Y-91493780D01*
X167843485Y-91493780D01*
X167653009Y-90827114D02*
X167272057Y-90827114D01*
X167510152Y-90493780D02*
X167510152Y-91350923D01*
X167462533Y-91446161D01*
X167367295Y-91493780D01*
X167272057Y-91493780D01*
X166557771Y-91446161D02*
X166653009Y-91493780D01*
X166843485Y-91493780D01*
X166938723Y-91446161D01*
X166986342Y-91350923D01*
X166986342Y-90969971D01*
X166938723Y-90874733D01*
X166843485Y-90827114D01*
X166653009Y-90827114D01*
X166557771Y-90874733D01*
X166510152Y-90969971D01*
X166510152Y-91065209D01*
X166986342Y-91160447D01*
X166081580Y-91493780D02*
X166081580Y-90827114D01*
X166081580Y-91017590D02*
X166033961Y-90922352D01*
X165986342Y-90874733D01*
X165891104Y-90827114D01*
X165795866Y-90827114D01*
X172200628Y-93103780D02*
X172533961Y-92627590D01*
X172772057Y-93103780D02*
X172772057Y-92103780D01*
X172391104Y-92103780D01*
X172295866Y-92151400D01*
X172248247Y-92199019D01*
X172200628Y-92294257D01*
X172200628Y-92437114D01*
X172248247Y-92532352D01*
X172295866Y-92579971D01*
X172391104Y-92627590D01*
X172772057Y-92627590D01*
X171391104Y-93056161D02*
X171486342Y-93103780D01*
X171676819Y-93103780D01*
X171772057Y-93056161D01*
X171819676Y-92960923D01*
X171819676Y-92579971D01*
X171772057Y-92484733D01*
X171676819Y-92437114D01*
X171486342Y-92437114D01*
X171391104Y-92484733D01*
X171343485Y-92579971D01*
X171343485Y-92675209D01*
X171819676Y-92770447D01*
X171010152Y-92437114D02*
X170772057Y-93103780D01*
X170533961Y-92437114D01*
X168867295Y-93103780D02*
X169438723Y-93103780D01*
X169153009Y-93103780D02*
X169153009Y-92103780D01*
X169248247Y-92246638D01*
X169343485Y-92341876D01*
X169438723Y-92389495D01*
X168438723Y-93008542D02*
X168391104Y-93056161D01*
X168438723Y-93103780D01*
X168486342Y-93056161D01*
X168438723Y-93008542D01*
X168438723Y-93103780D01*
X167772057Y-92103780D02*
X167676819Y-92103780D01*
X167581580Y-92151400D01*
X167533961Y-92199019D01*
X167486342Y-92294257D01*
X167438723Y-92484733D01*
X167438723Y-92722828D01*
X167486342Y-92913304D01*
X167533961Y-93008542D01*
X167581580Y-93056161D01*
X167676819Y-93103780D01*
X167772057Y-93103780D01*
X167867295Y-93056161D01*
X167914914Y-93008542D01*
X167962533Y-92913304D01*
X168010152Y-92722828D01*
X168010152Y-92484733D01*
X167962533Y-92294257D01*
X167914914Y-92199019D01*
X167867295Y-92151400D01*
X167772057Y-92103780D01*
%TO.C,TP15*%
X155662095Y-117739980D02*
X155090666Y-117739980D01*
X155376380Y-118739980D02*
X155376380Y-117739980D01*
X154757333Y-118739980D02*
X154757333Y-117739980D01*
X154376380Y-117739980D01*
X154281142Y-117787600D01*
X154233523Y-117835219D01*
X154185904Y-117930457D01*
X154185904Y-118073314D01*
X154233523Y-118168552D01*
X154281142Y-118216171D01*
X154376380Y-118263790D01*
X154757333Y-118263790D01*
X153233523Y-118739980D02*
X153804952Y-118739980D01*
X153519238Y-118739980D02*
X153519238Y-117739980D01*
X153614476Y-117882838D01*
X153709714Y-117978076D01*
X153804952Y-118025695D01*
X152328761Y-117739980D02*
X152804952Y-117739980D01*
X152852571Y-118216171D01*
X152804952Y-118168552D01*
X152709714Y-118120933D01*
X152471619Y-118120933D01*
X152376380Y-118168552D01*
X152328761Y-118216171D01*
X152281142Y-118311409D01*
X152281142Y-118549504D01*
X152328761Y-118644742D01*
X152376380Y-118692361D01*
X152471619Y-118739980D01*
X152709714Y-118739980D01*
X152804952Y-118692361D01*
X152852571Y-118644742D01*
%TO.C,TP14*%
X168717695Y-122083580D02*
X168146266Y-122083580D01*
X168431980Y-123083580D02*
X168431980Y-122083580D01*
X167812933Y-123083580D02*
X167812933Y-122083580D01*
X167431980Y-122083580D01*
X167336742Y-122131200D01*
X167289123Y-122178819D01*
X167241504Y-122274057D01*
X167241504Y-122416914D01*
X167289123Y-122512152D01*
X167336742Y-122559771D01*
X167431980Y-122607390D01*
X167812933Y-122607390D01*
X166289123Y-123083580D02*
X166860552Y-123083580D01*
X166574838Y-123083580D02*
X166574838Y-122083580D01*
X166670076Y-122226438D01*
X166765314Y-122321676D01*
X166860552Y-122369295D01*
X165431980Y-122416914D02*
X165431980Y-123083580D01*
X165670076Y-122035961D02*
X165908171Y-122750247D01*
X165289123Y-122750247D01*
%TO.C,TP13*%
X176337695Y-115606380D02*
X175766266Y-115606380D01*
X176051980Y-116606380D02*
X176051980Y-115606380D01*
X175432933Y-116606380D02*
X175432933Y-115606380D01*
X175051980Y-115606380D01*
X174956742Y-115654000D01*
X174909123Y-115701619D01*
X174861504Y-115796857D01*
X174861504Y-115939714D01*
X174909123Y-116034952D01*
X174956742Y-116082571D01*
X175051980Y-116130190D01*
X175432933Y-116130190D01*
X173909123Y-116606380D02*
X174480552Y-116606380D01*
X174194838Y-116606380D02*
X174194838Y-115606380D01*
X174290076Y-115749238D01*
X174385314Y-115844476D01*
X174480552Y-115892095D01*
X173575790Y-115606380D02*
X172956742Y-115606380D01*
X173290076Y-115987333D01*
X173147219Y-115987333D01*
X173051980Y-116034952D01*
X173004361Y-116082571D01*
X172956742Y-116177809D01*
X172956742Y-116415904D01*
X173004361Y-116511142D01*
X173051980Y-116558761D01*
X173147219Y-116606380D01*
X173432933Y-116606380D01*
X173528171Y-116558761D01*
X173575790Y-116511142D01*
%TO.C,TP12*%
X176388495Y-111796380D02*
X175817066Y-111796380D01*
X176102780Y-112796380D02*
X176102780Y-111796380D01*
X175483733Y-112796380D02*
X175483733Y-111796380D01*
X175102780Y-111796380D01*
X175007542Y-111844000D01*
X174959923Y-111891619D01*
X174912304Y-111986857D01*
X174912304Y-112129714D01*
X174959923Y-112224952D01*
X175007542Y-112272571D01*
X175102780Y-112320190D01*
X175483733Y-112320190D01*
X173959923Y-112796380D02*
X174531352Y-112796380D01*
X174245638Y-112796380D02*
X174245638Y-111796380D01*
X174340876Y-111939238D01*
X174436114Y-112034476D01*
X174531352Y-112082095D01*
X173578971Y-111891619D02*
X173531352Y-111844000D01*
X173436114Y-111796380D01*
X173198019Y-111796380D01*
X173102780Y-111844000D01*
X173055161Y-111891619D01*
X173007542Y-111986857D01*
X173007542Y-112082095D01*
X173055161Y-112224952D01*
X173626590Y-112796380D01*
X173007542Y-112796380D01*
%TO.C,TP11*%
X156932095Y-122235980D02*
X156360666Y-122235980D01*
X156646380Y-123235980D02*
X156646380Y-122235980D01*
X156027333Y-123235980D02*
X156027333Y-122235980D01*
X155646380Y-122235980D01*
X155551142Y-122283600D01*
X155503523Y-122331219D01*
X155455904Y-122426457D01*
X155455904Y-122569314D01*
X155503523Y-122664552D01*
X155551142Y-122712171D01*
X155646380Y-122759790D01*
X156027333Y-122759790D01*
X154503523Y-123235980D02*
X155074952Y-123235980D01*
X154789238Y-123235980D02*
X154789238Y-122235980D01*
X154884476Y-122378838D01*
X154979714Y-122474076D01*
X155074952Y-122521695D01*
X153551142Y-123235980D02*
X154122571Y-123235980D01*
X153836857Y-123235980D02*
X153836857Y-122235980D01*
X153932095Y-122378838D01*
X154027333Y-122474076D01*
X154122571Y-122521695D01*
%TO.C,TP10*%
X154036495Y-126503180D02*
X153465066Y-126503180D01*
X153750780Y-127503180D02*
X153750780Y-126503180D01*
X153131733Y-127503180D02*
X153131733Y-126503180D01*
X152750780Y-126503180D01*
X152655542Y-126550800D01*
X152607923Y-126598419D01*
X152560304Y-126693657D01*
X152560304Y-126836514D01*
X152607923Y-126931752D01*
X152655542Y-126979371D01*
X152750780Y-127026990D01*
X153131733Y-127026990D01*
X151607923Y-127503180D02*
X152179352Y-127503180D01*
X151893638Y-127503180D02*
X151893638Y-126503180D01*
X151988876Y-126646038D01*
X152084114Y-126741276D01*
X152179352Y-126788895D01*
X150988876Y-126503180D02*
X150893638Y-126503180D01*
X150798400Y-126550800D01*
X150750780Y-126598419D01*
X150703161Y-126693657D01*
X150655542Y-126884133D01*
X150655542Y-127122228D01*
X150703161Y-127312704D01*
X150750780Y-127407942D01*
X150798400Y-127455561D01*
X150893638Y-127503180D01*
X150988876Y-127503180D01*
X151084114Y-127455561D01*
X151131733Y-127407942D01*
X151179352Y-127312704D01*
X151226971Y-127122228D01*
X151226971Y-126884133D01*
X151179352Y-126693657D01*
X151131733Y-126598419D01*
X151084114Y-126550800D01*
X150988876Y-126503180D01*
%TO.C,TP9*%
X170781504Y-107021180D02*
X170210076Y-107021180D01*
X170495790Y-108021180D02*
X170495790Y-107021180D01*
X169876742Y-108021180D02*
X169876742Y-107021180D01*
X169495790Y-107021180D01*
X169400552Y-107068800D01*
X169352933Y-107116419D01*
X169305314Y-107211657D01*
X169305314Y-107354514D01*
X169352933Y-107449752D01*
X169400552Y-107497371D01*
X169495790Y-107544990D01*
X169876742Y-107544990D01*
X168829123Y-108021180D02*
X168638647Y-108021180D01*
X168543409Y-107973561D01*
X168495790Y-107925942D01*
X168400552Y-107783085D01*
X168352933Y-107592609D01*
X168352933Y-107211657D01*
X168400552Y-107116419D01*
X168448171Y-107068800D01*
X168543409Y-107021180D01*
X168733885Y-107021180D01*
X168829123Y-107068800D01*
X168876742Y-107116419D01*
X168924361Y-107211657D01*
X168924361Y-107449752D01*
X168876742Y-107544990D01*
X168829123Y-107592609D01*
X168733885Y-107640228D01*
X168543409Y-107640228D01*
X168448171Y-107592609D01*
X168400552Y-107544990D01*
X168352933Y-107449752D01*
%TO.C,TP8*%
X167073104Y-115530380D02*
X166501676Y-115530380D01*
X166787390Y-116530380D02*
X166787390Y-115530380D01*
X166168342Y-116530380D02*
X166168342Y-115530380D01*
X165787390Y-115530380D01*
X165692152Y-115578000D01*
X165644533Y-115625619D01*
X165596914Y-115720857D01*
X165596914Y-115863714D01*
X165644533Y-115958952D01*
X165692152Y-116006571D01*
X165787390Y-116054190D01*
X166168342Y-116054190D01*
X165025485Y-115958952D02*
X165120723Y-115911333D01*
X165168342Y-115863714D01*
X165215961Y-115768476D01*
X165215961Y-115720857D01*
X165168342Y-115625619D01*
X165120723Y-115578000D01*
X165025485Y-115530380D01*
X164835009Y-115530380D01*
X164739771Y-115578000D01*
X164692152Y-115625619D01*
X164644533Y-115720857D01*
X164644533Y-115768476D01*
X164692152Y-115863714D01*
X164739771Y-115911333D01*
X164835009Y-115958952D01*
X165025485Y-115958952D01*
X165120723Y-116006571D01*
X165168342Y-116054190D01*
X165215961Y-116149428D01*
X165215961Y-116339904D01*
X165168342Y-116435142D01*
X165120723Y-116482761D01*
X165025485Y-116530380D01*
X164835009Y-116530380D01*
X164739771Y-116482761D01*
X164692152Y-116435142D01*
X164644533Y-116339904D01*
X164644533Y-116149428D01*
X164692152Y-116054190D01*
X164739771Y-116006571D01*
X164835009Y-115958952D01*
%TO.C,TP7*%
X172051504Y-124140780D02*
X171480076Y-124140780D01*
X171765790Y-125140780D02*
X171765790Y-124140780D01*
X171146742Y-125140780D02*
X171146742Y-124140780D01*
X170765790Y-124140780D01*
X170670552Y-124188400D01*
X170622933Y-124236019D01*
X170575314Y-124331257D01*
X170575314Y-124474114D01*
X170622933Y-124569352D01*
X170670552Y-124616971D01*
X170765790Y-124664590D01*
X171146742Y-124664590D01*
X170241980Y-124140780D02*
X169575314Y-124140780D01*
X170003885Y-125140780D01*
%TO.C,TP6*%
X171238704Y-115784380D02*
X170667276Y-115784380D01*
X170952990Y-116784380D02*
X170952990Y-115784380D01*
X170333942Y-116784380D02*
X170333942Y-115784380D01*
X169952990Y-115784380D01*
X169857752Y-115832000D01*
X169810133Y-115879619D01*
X169762514Y-115974857D01*
X169762514Y-116117714D01*
X169810133Y-116212952D01*
X169857752Y-116260571D01*
X169952990Y-116308190D01*
X170333942Y-116308190D01*
X168905371Y-115784380D02*
X169095847Y-115784380D01*
X169191085Y-115832000D01*
X169238704Y-115879619D01*
X169333942Y-116022476D01*
X169381561Y-116212952D01*
X169381561Y-116593904D01*
X169333942Y-116689142D01*
X169286323Y-116736761D01*
X169191085Y-116784380D01*
X169000609Y-116784380D01*
X168905371Y-116736761D01*
X168857752Y-116689142D01*
X168810133Y-116593904D01*
X168810133Y-116355809D01*
X168857752Y-116260571D01*
X168905371Y-116212952D01*
X169000609Y-116165333D01*
X169191085Y-116165333D01*
X169286323Y-116212952D01*
X169333942Y-116260571D01*
X169381561Y-116355809D01*
%TO.C,TP5*%
X143857504Y-132294380D02*
X143286076Y-132294380D01*
X143571790Y-133294380D02*
X143571790Y-132294380D01*
X142952742Y-133294380D02*
X142952742Y-132294380D01*
X142571790Y-132294380D01*
X142476552Y-132342000D01*
X142428933Y-132389619D01*
X142381314Y-132484857D01*
X142381314Y-132627714D01*
X142428933Y-132722952D01*
X142476552Y-132770571D01*
X142571790Y-132818190D01*
X142952742Y-132818190D01*
X141476552Y-132294380D02*
X141952742Y-132294380D01*
X142000361Y-132770571D01*
X141952742Y-132722952D01*
X141857504Y-132675333D01*
X141619409Y-132675333D01*
X141524171Y-132722952D01*
X141476552Y-132770571D01*
X141428933Y-132865809D01*
X141428933Y-133103904D01*
X141476552Y-133199142D01*
X141524171Y-133246761D01*
X141619409Y-133294380D01*
X141857504Y-133294380D01*
X141952742Y-133246761D01*
X142000361Y-133199142D01*
%TO.C,TP4*%
X173321504Y-104430380D02*
X172750076Y-104430380D01*
X173035790Y-105430380D02*
X173035790Y-104430380D01*
X172416742Y-105430380D02*
X172416742Y-104430380D01*
X172035790Y-104430380D01*
X171940552Y-104478000D01*
X171892933Y-104525619D01*
X171845314Y-104620857D01*
X171845314Y-104763714D01*
X171892933Y-104858952D01*
X171940552Y-104906571D01*
X172035790Y-104954190D01*
X172416742Y-104954190D01*
X170988171Y-104763714D02*
X170988171Y-105430380D01*
X171226266Y-104382761D02*
X171464361Y-105097047D01*
X170845314Y-105097047D01*
%TO.C,TP3*%
X153103104Y-135291580D02*
X152531676Y-135291580D01*
X152817390Y-136291580D02*
X152817390Y-135291580D01*
X152198342Y-136291580D02*
X152198342Y-135291580D01*
X151817390Y-135291580D01*
X151722152Y-135339200D01*
X151674533Y-135386819D01*
X151626914Y-135482057D01*
X151626914Y-135624914D01*
X151674533Y-135720152D01*
X151722152Y-135767771D01*
X151817390Y-135815390D01*
X152198342Y-135815390D01*
X151293580Y-135291580D02*
X150674533Y-135291580D01*
X151007866Y-135672533D01*
X150865009Y-135672533D01*
X150769771Y-135720152D01*
X150722152Y-135767771D01*
X150674533Y-135863009D01*
X150674533Y-136101104D01*
X150722152Y-136196342D01*
X150769771Y-136243961D01*
X150865009Y-136291580D01*
X151150723Y-136291580D01*
X151245961Y-136243961D01*
X151293580Y-136196342D01*
%TO.C,TP2*%
X174489904Y-138618780D02*
X173918476Y-138618780D01*
X174204190Y-139618780D02*
X174204190Y-138618780D01*
X173585142Y-139618780D02*
X173585142Y-138618780D01*
X173204190Y-138618780D01*
X173108952Y-138666400D01*
X173061333Y-138714019D01*
X173013714Y-138809257D01*
X173013714Y-138952114D01*
X173061333Y-139047352D01*
X173108952Y-139094971D01*
X173204190Y-139142590D01*
X173585142Y-139142590D01*
X172632761Y-138714019D02*
X172585142Y-138666400D01*
X172489904Y-138618780D01*
X172251809Y-138618780D01*
X172156571Y-138666400D01*
X172108952Y-138714019D01*
X172061333Y-138809257D01*
X172061333Y-138904495D01*
X172108952Y-139047352D01*
X172680380Y-139618780D01*
X172061333Y-139618780D01*
%TO.C,TP1*%
X166158704Y-107275180D02*
X165587276Y-107275180D01*
X165872990Y-108275180D02*
X165872990Y-107275180D01*
X165253942Y-108275180D02*
X165253942Y-107275180D01*
X164872990Y-107275180D01*
X164777752Y-107322800D01*
X164730133Y-107370419D01*
X164682514Y-107465657D01*
X164682514Y-107608514D01*
X164730133Y-107703752D01*
X164777752Y-107751371D01*
X164872990Y-107798990D01*
X165253942Y-107798990D01*
X163730133Y-108275180D02*
X164301561Y-108275180D01*
X164015847Y-108275180D02*
X164015847Y-107275180D01*
X164111085Y-107418038D01*
X164206323Y-107513276D01*
X164301561Y-107560895D01*
%TO.C,REF\u002A\u002A*%
G36*
X117648763Y-143578375D02*
G01*
X117645835Y-143601295D01*
X117641758Y-143617097D01*
X117636343Y-143628519D01*
X117629403Y-143638300D01*
X117606006Y-143668045D01*
X117440314Y-143667451D01*
X117405518Y-143667153D01*
X117307035Y-143663722D01*
X117226073Y-143656039D01*
X117158979Y-143643482D01*
X117102096Y-143625427D01*
X117051769Y-143601252D01*
X117048410Y-143599335D01*
X116990598Y-143562617D01*
X116948244Y-143525651D01*
X116915428Y-143482166D01*
X116886228Y-143425889D01*
X116881946Y-143416273D01*
X116859369Y-143353087D01*
X116853634Y-143307533D01*
X117002879Y-143307533D01*
X117008492Y-143332261D01*
X117014218Y-143348139D01*
X117047148Y-143408047D01*
X117094486Y-143453800D01*
X117158252Y-143486936D01*
X117240461Y-143508990D01*
X117243255Y-143509492D01*
X117289540Y-143515455D01*
X117345936Y-143519683D01*
X117400874Y-143521289D01*
X117494756Y-143521289D01*
X117494756Y-143081022D01*
X117407267Y-143081470D01*
X117340347Y-143083946D01*
X117247949Y-143095198D01*
X117168634Y-143114737D01*
X117106660Y-143141711D01*
X117075720Y-143162440D01*
X117047600Y-143192206D01*
X117024260Y-143234634D01*
X117017133Y-143250600D01*
X117005309Y-143283102D01*
X117002879Y-143307533D01*
X116853634Y-143307533D01*
X116852397Y-143297709D01*
X116860999Y-143242683D01*
X116885141Y-143180551D01*
X116885937Y-143178858D01*
X116926388Y-143109436D01*
X116977073Y-143052838D01*
X117039798Y-143008270D01*
X117116374Y-142974941D01*
X117208609Y-142952061D01*
X117318312Y-142938836D01*
X117447291Y-142934475D01*
X117450863Y-142934470D01*
X117510883Y-142934610D01*
X117552814Y-142935646D01*
X117580928Y-142938240D01*
X117599497Y-142943053D01*
X117612794Y-142950744D01*
X117625091Y-142961976D01*
X117652800Y-142989685D01*
X117652800Y-143299120D01*
X117652775Y-143360726D01*
X117652550Y-143439511D01*
X117651932Y-143500221D01*
X117651375Y-143521289D01*
X117650733Y-143545596D01*
X117648763Y-143578375D01*
G37*
D11*
X117648763Y-143578375D02*
X117645835Y-143601295D01*
X117641758Y-143617097D01*
X117636343Y-143628519D01*
X117629403Y-143638300D01*
X117606006Y-143668045D01*
X117440314Y-143667451D01*
X117405518Y-143667153D01*
X117307035Y-143663722D01*
X117226073Y-143656039D01*
X117158979Y-143643482D01*
X117102096Y-143625427D01*
X117051769Y-143601252D01*
X117048410Y-143599335D01*
X116990598Y-143562617D01*
X116948244Y-143525651D01*
X116915428Y-143482166D01*
X116886228Y-143425889D01*
X116881946Y-143416273D01*
X116859369Y-143353087D01*
X116853634Y-143307533D01*
X117002879Y-143307533D01*
X117008492Y-143332261D01*
X117014218Y-143348139D01*
X117047148Y-143408047D01*
X117094486Y-143453800D01*
X117158252Y-143486936D01*
X117240461Y-143508990D01*
X117243255Y-143509492D01*
X117289540Y-143515455D01*
X117345936Y-143519683D01*
X117400874Y-143521289D01*
X117494756Y-143521289D01*
X117494756Y-143081022D01*
X117407267Y-143081470D01*
X117340347Y-143083946D01*
X117247949Y-143095198D01*
X117168634Y-143114737D01*
X117106660Y-143141711D01*
X117075720Y-143162440D01*
X117047600Y-143192206D01*
X117024260Y-143234634D01*
X117017133Y-143250600D01*
X117005309Y-143283102D01*
X117002879Y-143307533D01*
X116853634Y-143307533D01*
X116852397Y-143297709D01*
X116860999Y-143242683D01*
X116885141Y-143180551D01*
X116885937Y-143178858D01*
X116926388Y-143109436D01*
X116977073Y-143052838D01*
X117039798Y-143008270D01*
X117116374Y-142974941D01*
X117208609Y-142952061D01*
X117318312Y-142938836D01*
X117447291Y-142934475D01*
X117450863Y-142934470D01*
X117510883Y-142934610D01*
X117552814Y-142935646D01*
X117580928Y-142938240D01*
X117599497Y-142943053D01*
X117612794Y-142950744D01*
X117625091Y-142961976D01*
X117652800Y-142989685D01*
X117652800Y-143299120D01*
X117652775Y-143360726D01*
X117652550Y-143439511D01*
X117651932Y-143500221D01*
X117651375Y-143521289D01*
X117650733Y-143545596D01*
X117648763Y-143578375D01*
G36*
X120920162Y-137698050D02*
G01*
X121002913Y-137725253D01*
X121078006Y-137770684D01*
X121149898Y-137836502D01*
X121188446Y-137880767D01*
X121227856Y-137939161D01*
X121253046Y-137999786D01*
X121266461Y-138069065D01*
X121270548Y-138153422D01*
X121270269Y-138199507D01*
X121268060Y-138240650D01*
X121262494Y-138272782D01*
X121252186Y-138303322D01*
X121235748Y-138339689D01*
X121221800Y-138366928D01*
X121163265Y-138452629D01*
X121091219Y-138521817D01*
X121007547Y-138572941D01*
X120914131Y-138604450D01*
X120881034Y-138611425D01*
X120840560Y-138618294D01*
X120807599Y-138620119D01*
X120773298Y-138617147D01*
X120728800Y-138609626D01*
X120677534Y-138597202D01*
X120587034Y-138559312D01*
X120507945Y-138505036D01*
X120442128Y-138436970D01*
X120391440Y-138357711D01*
X120357740Y-138269854D01*
X120342886Y-138175995D01*
X120348736Y-138078730D01*
X120374999Y-137982420D01*
X120420018Y-137893694D01*
X120480973Y-137818619D01*
X120555784Y-137758841D01*
X120642368Y-137716009D01*
X120738643Y-137691771D01*
X120842528Y-137687776D01*
X120920162Y-137698050D01*
G37*
X120920162Y-137698050D02*
X121002913Y-137725253D01*
X121078006Y-137770684D01*
X121149898Y-137836502D01*
X121188446Y-137880767D01*
X121227856Y-137939161D01*
X121253046Y-137999786D01*
X121266461Y-138069065D01*
X121270548Y-138153422D01*
X121270269Y-138199507D01*
X121268060Y-138240650D01*
X121262494Y-138272782D01*
X121252186Y-138303322D01*
X121235748Y-138339689D01*
X121221800Y-138366928D01*
X121163265Y-138452629D01*
X121091219Y-138521817D01*
X121007547Y-138572941D01*
X120914131Y-138604450D01*
X120881034Y-138611425D01*
X120840560Y-138618294D01*
X120807599Y-138620119D01*
X120773298Y-138617147D01*
X120728800Y-138609626D01*
X120677534Y-138597202D01*
X120587034Y-138559312D01*
X120507945Y-138505036D01*
X120442128Y-138436970D01*
X120391440Y-138357711D01*
X120357740Y-138269854D01*
X120342886Y-138175995D01*
X120348736Y-138078730D01*
X120374999Y-137982420D01*
X120420018Y-137893694D01*
X120480973Y-137818619D01*
X120555784Y-137758841D01*
X120642368Y-137716009D01*
X120738643Y-137691771D01*
X120842528Y-137687776D01*
X120920162Y-137698050D01*
G36*
X120594750Y-142939379D02*
G01*
X120700757Y-142955694D01*
X120794569Y-142983745D01*
X120873365Y-143022652D01*
X120934319Y-143071534D01*
X120960389Y-143104395D01*
X120989897Y-143153594D01*
X121015168Y-143207452D01*
X121032818Y-143258619D01*
X121039458Y-143299744D01*
X121037898Y-143319459D01*
X121024957Y-143370792D01*
X121001794Y-143427318D01*
X120971902Y-143481235D01*
X120938773Y-143524739D01*
X120928577Y-143535087D01*
X120861492Y-143586862D01*
X120781366Y-143626754D01*
X120695156Y-143651156D01*
X120640192Y-143659268D01*
X120546739Y-143665873D01*
X120456958Y-143663786D01*
X120374469Y-143653540D01*
X120302886Y-143635670D01*
X120245828Y-143610708D01*
X120206911Y-143579188D01*
X120205536Y-143577212D01*
X120198448Y-143551986D01*
X120194209Y-143504735D01*
X120192800Y-143435271D01*
X120193660Y-143373038D01*
X120198380Y-143325656D01*
X120210070Y-143293553D01*
X120231839Y-143274000D01*
X120266798Y-143264270D01*
X120318056Y-143261633D01*
X120388723Y-143263361D01*
X120437343Y-143266373D01*
X120487539Y-143274566D01*
X120520033Y-143288619D01*
X120537492Y-143309854D01*
X120542583Y-143339594D01*
X120542477Y-143344136D01*
X120533775Y-143378930D01*
X120509765Y-143402347D01*
X120468500Y-143415547D01*
X120408031Y-143419689D01*
X120339556Y-143419689D01*
X120339556Y-143458041D01*
X120339606Y-143467176D01*
X120341827Y-143484427D01*
X120351094Y-143494721D01*
X120372475Y-143501659D01*
X120411036Y-143508841D01*
X120416510Y-143509775D01*
X120513460Y-143519678D01*
X120603452Y-143516759D01*
X120684360Y-143502029D01*
X120754059Y-143476499D01*
X120810424Y-143441178D01*
X120851329Y-143397079D01*
X120874651Y-143345212D01*
X120878263Y-143286588D01*
X120872745Y-143257694D01*
X120846061Y-143201804D01*
X120799873Y-143156145D01*
X120734891Y-143121308D01*
X120651829Y-143097890D01*
X120627155Y-143093441D01*
X120537826Y-143082942D01*
X120458019Y-143084171D01*
X120379926Y-143097106D01*
X120344783Y-143103896D01*
X120299345Y-143104913D01*
X120268030Y-143092382D01*
X120247877Y-143065595D01*
X120241493Y-143037348D01*
X120250979Y-143006124D01*
X120260308Y-142992699D01*
X120294543Y-142969167D01*
X120347165Y-142951295D01*
X120415681Y-142939799D01*
X120497600Y-142935392D01*
X120594750Y-142939379D01*
G37*
X120594750Y-142939379D02*
X120700757Y-142955694D01*
X120794569Y-142983745D01*
X120873365Y-143022652D01*
X120934319Y-143071534D01*
X120960389Y-143104395D01*
X120989897Y-143153594D01*
X121015168Y-143207452D01*
X121032818Y-143258619D01*
X121039458Y-143299744D01*
X121037898Y-143319459D01*
X121024957Y-143370792D01*
X121001794Y-143427318D01*
X120971902Y-143481235D01*
X120938773Y-143524739D01*
X120928577Y-143535087D01*
X120861492Y-143586862D01*
X120781366Y-143626754D01*
X120695156Y-143651156D01*
X120640192Y-143659268D01*
X120546739Y-143665873D01*
X120456958Y-143663786D01*
X120374469Y-143653540D01*
X120302886Y-143635670D01*
X120245828Y-143610708D01*
X120206911Y-143579188D01*
X120205536Y-143577212D01*
X120198448Y-143551986D01*
X120194209Y-143504735D01*
X120192800Y-143435271D01*
X120193660Y-143373038D01*
X120198380Y-143325656D01*
X120210070Y-143293553D01*
X120231839Y-143274000D01*
X120266798Y-143264270D01*
X120318056Y-143261633D01*
X120388723Y-143263361D01*
X120437343Y-143266373D01*
X120487539Y-143274566D01*
X120520033Y-143288619D01*
X120537492Y-143309854D01*
X120542583Y-143339594D01*
X120542477Y-143344136D01*
X120533775Y-143378930D01*
X120509765Y-143402347D01*
X120468500Y-143415547D01*
X120408031Y-143419689D01*
X120339556Y-143419689D01*
X120339556Y-143458041D01*
X120339606Y-143467176D01*
X120341827Y-143484427D01*
X120351094Y-143494721D01*
X120372475Y-143501659D01*
X120411036Y-143508841D01*
X120416510Y-143509775D01*
X120513460Y-143519678D01*
X120603452Y-143516759D01*
X120684360Y-143502029D01*
X120754059Y-143476499D01*
X120810424Y-143441178D01*
X120851329Y-143397079D01*
X120874651Y-143345212D01*
X120878263Y-143286588D01*
X120872745Y-143257694D01*
X120846061Y-143201804D01*
X120799873Y-143156145D01*
X120734891Y-143121308D01*
X120651829Y-143097890D01*
X120627155Y-143093441D01*
X120537826Y-143082942D01*
X120458019Y-143084171D01*
X120379926Y-143097106D01*
X120344783Y-143103896D01*
X120299345Y-143104913D01*
X120268030Y-143092382D01*
X120247877Y-143065595D01*
X120241493Y-143037348D01*
X120250979Y-143006124D01*
X120260308Y-142992699D01*
X120294543Y-142969167D01*
X120347165Y-142951295D01*
X120415681Y-142939799D01*
X120497600Y-142935392D01*
X120594750Y-142939379D01*
G36*
X112945334Y-142956845D02*
G01*
X112950966Y-142963035D01*
X112956056Y-142971241D01*
X112960143Y-142983017D01*
X112963321Y-143000476D01*
X112965687Y-143025730D01*
X112967338Y-143060890D01*
X112968369Y-143108069D01*
X112968877Y-143169377D01*
X112968959Y-143246927D01*
X112968709Y-143342831D01*
X112968225Y-143459200D01*
X112968157Y-143473375D01*
X112967571Y-143535137D01*
X112966248Y-143578820D01*
X112963703Y-143608201D01*
X112959448Y-143627055D01*
X112952996Y-143639159D01*
X112943862Y-143648289D01*
X112910404Y-143665706D01*
X112875456Y-143662804D01*
X112844553Y-143638300D01*
X112835544Y-143625097D01*
X112828092Y-143606561D01*
X112823724Y-143580533D01*
X112821669Y-143541987D01*
X112821156Y-143485900D01*
X112821156Y-143363245D01*
X112324445Y-143363245D01*
X112324445Y-143498071D01*
X112324372Y-143533862D01*
X112323609Y-143580192D01*
X112321433Y-143610726D01*
X112317136Y-143629757D01*
X112310012Y-143641574D01*
X112299355Y-143650471D01*
X112267104Y-143665541D01*
X112231817Y-143662873D01*
X112201086Y-143638300D01*
X112196431Y-143632045D01*
X112190495Y-143621521D01*
X112185964Y-143607591D01*
X112182648Y-143587517D01*
X112180359Y-143558560D01*
X112178908Y-143517980D01*
X112178105Y-143463040D01*
X112177762Y-143390999D01*
X112177689Y-143299120D01*
X112177689Y-142989685D01*
X112205398Y-142961976D01*
X112236777Y-142939733D01*
X112270006Y-142937044D01*
X112301867Y-142956845D01*
X112310153Y-142966615D01*
X112317565Y-142982507D01*
X112321902Y-143006475D01*
X112323938Y-143043348D01*
X112324445Y-143097956D01*
X112324445Y-143216489D01*
X112821156Y-143216489D01*
X112821156Y-143100976D01*
X112821594Y-143049278D01*
X112823558Y-143014754D01*
X112828074Y-142992178D01*
X112836167Y-142976326D01*
X112848865Y-142961976D01*
X112880243Y-142939733D01*
X112913472Y-142937044D01*
X112945334Y-142956845D01*
G37*
X112945334Y-142956845D02*
X112950966Y-142963035D01*
X112956056Y-142971241D01*
X112960143Y-142983017D01*
X112963321Y-143000476D01*
X112965687Y-143025730D01*
X112967338Y-143060890D01*
X112968369Y-143108069D01*
X112968877Y-143169377D01*
X112968959Y-143246927D01*
X112968709Y-143342831D01*
X112968225Y-143459200D01*
X112968157Y-143473375D01*
X112967571Y-143535137D01*
X112966248Y-143578820D01*
X112963703Y-143608201D01*
X112959448Y-143627055D01*
X112952996Y-143639159D01*
X112943862Y-143648289D01*
X112910404Y-143665706D01*
X112875456Y-143662804D01*
X112844553Y-143638300D01*
X112835544Y-143625097D01*
X112828092Y-143606561D01*
X112823724Y-143580533D01*
X112821669Y-143541987D01*
X112821156Y-143485900D01*
X112821156Y-143363245D01*
X112324445Y-143363245D01*
X112324445Y-143498071D01*
X112324372Y-143533862D01*
X112323609Y-143580192D01*
X112321433Y-143610726D01*
X112317136Y-143629757D01*
X112310012Y-143641574D01*
X112299355Y-143650471D01*
X112267104Y-143665541D01*
X112231817Y-143662873D01*
X112201086Y-143638300D01*
X112196431Y-143632045D01*
X112190495Y-143621521D01*
X112185964Y-143607591D01*
X112182648Y-143587517D01*
X112180359Y-143558560D01*
X112178908Y-143517980D01*
X112178105Y-143463040D01*
X112177762Y-143390999D01*
X112177689Y-143299120D01*
X112177689Y-142989685D01*
X112205398Y-142961976D01*
X112236777Y-142939733D01*
X112270006Y-142937044D01*
X112301867Y-142956845D01*
X112310153Y-142966615D01*
X112317565Y-142982507D01*
X112321902Y-143006475D01*
X112323938Y-143043348D01*
X112324445Y-143097956D01*
X112324445Y-143216489D01*
X112821156Y-143216489D01*
X112821156Y-143100976D01*
X112821594Y-143049278D01*
X112823558Y-143014754D01*
X112828074Y-142992178D01*
X112836167Y-142976326D01*
X112848865Y-142961976D01*
X112880243Y-142939733D01*
X112913472Y-142937044D01*
X112945334Y-142956845D01*
G36*
X121451737Y-142938663D02*
G01*
X121485891Y-142961976D01*
X121513600Y-142989685D01*
X121513600Y-143302737D01*
X121513559Y-143386767D01*
X121513301Y-143460989D01*
X121512630Y-143517741D01*
X121511352Y-143559712D01*
X121509273Y-143589589D01*
X121506199Y-143610061D01*
X121501934Y-143623814D01*
X121496284Y-143633537D01*
X121489055Y-143641917D01*
X121457591Y-143663381D01*
X121422426Y-143665147D01*
X121389422Y-143645467D01*
X121384116Y-143639598D01*
X121378666Y-143630514D01*
X121374500Y-143617173D01*
X121371446Y-143596957D01*
X121369332Y-143567249D01*
X121367986Y-143525432D01*
X121367238Y-143468889D01*
X121366914Y-143395002D01*
X121366845Y-143301156D01*
X121366884Y-143225494D01*
X121367139Y-143147585D01*
X121367783Y-143087575D01*
X121368987Y-143042848D01*
X121370924Y-143010785D01*
X121373764Y-142988771D01*
X121377679Y-142974187D01*
X121382842Y-142964418D01*
X121389422Y-142956845D01*
X121418606Y-142937823D01*
X121451737Y-142938663D01*
G37*
X121451737Y-142938663D02*
X121485891Y-142961976D01*
X121513600Y-142989685D01*
X121513600Y-143302737D01*
X121513559Y-143386767D01*
X121513301Y-143460989D01*
X121512630Y-143517741D01*
X121511352Y-143559712D01*
X121509273Y-143589589D01*
X121506199Y-143610061D01*
X121501934Y-143623814D01*
X121496284Y-143633537D01*
X121489055Y-143641917D01*
X121457591Y-143663381D01*
X121422426Y-143665147D01*
X121389422Y-143645467D01*
X121384116Y-143639598D01*
X121378666Y-143630514D01*
X121374500Y-143617173D01*
X121371446Y-143596957D01*
X121369332Y-143567249D01*
X121367986Y-143525432D01*
X121367238Y-143468889D01*
X121366914Y-143395002D01*
X121366845Y-143301156D01*
X121366884Y-143225494D01*
X121367139Y-143147585D01*
X121367783Y-143087575D01*
X121368987Y-143042848D01*
X121370924Y-143010785D01*
X121373764Y-142988771D01*
X121377679Y-142974187D01*
X121382842Y-142964418D01*
X121389422Y-142956845D01*
X121418606Y-142937823D01*
X121451737Y-142938663D01*
G36*
X124742470Y-143200241D02*
G01*
X124742222Y-143301156D01*
X124742183Y-143376817D01*
X124741928Y-143454726D01*
X124741284Y-143514736D01*
X124740080Y-143559464D01*
X124738143Y-143591526D01*
X124735303Y-143613540D01*
X124731388Y-143628124D01*
X124726226Y-143637894D01*
X124719645Y-143645467D01*
X124712677Y-143651701D01*
X124699679Y-143659001D01*
X124680531Y-143663754D01*
X124651128Y-143666492D01*
X124607362Y-143667745D01*
X124545128Y-143668045D01*
X124496182Y-143667669D01*
X124389322Y-143663241D01*
X124300094Y-143653153D01*
X124225296Y-143636565D01*
X124161725Y-143612635D01*
X124106179Y-143580521D01*
X124055454Y-143539382D01*
X124049466Y-143533530D01*
X124012599Y-143485021D01*
X123981499Y-143424213D01*
X123960017Y-143359969D01*
X123954736Y-143321226D01*
X124101953Y-143321226D01*
X124120235Y-143372161D01*
X124149905Y-143418078D01*
X124196602Y-143460487D01*
X124257992Y-143490290D01*
X124337138Y-143509426D01*
X124338628Y-143509664D01*
X124387599Y-143515456D01*
X124446293Y-143519596D01*
X124502334Y-143521204D01*
X124595467Y-143521289D01*
X124595467Y-143081022D01*
X124519267Y-143081008D01*
X124516239Y-143081017D01*
X124465119Y-143082982D01*
X124405016Y-143087707D01*
X124348308Y-143094235D01*
X124298350Y-143103531D01*
X124223598Y-143129800D01*
X124166089Y-143169099D01*
X124124588Y-143222133D01*
X124103371Y-143273400D01*
X124101953Y-143321226D01*
X123954736Y-143321226D01*
X123952000Y-143301156D01*
X123953279Y-143279939D01*
X123965591Y-143222523D01*
X123988120Y-143162613D01*
X124017350Y-143108563D01*
X124049767Y-143068732D01*
X124069308Y-143051710D01*
X124124020Y-143012522D01*
X124184323Y-142982393D01*
X124253519Y-142960432D01*
X124334911Y-142945750D01*
X124431800Y-142937459D01*
X124547489Y-142934667D01*
X124586971Y-142934266D01*
X124632682Y-142933853D01*
X124668483Y-142935657D01*
X124695574Y-142941939D01*
X124715156Y-142954959D01*
X124728430Y-142976978D01*
X124736598Y-143010255D01*
X124740860Y-143057051D01*
X124741457Y-143081022D01*
X124742417Y-143119627D01*
X124742470Y-143200241D01*
G37*
X124742470Y-143200241D02*
X124742222Y-143301156D01*
X124742183Y-143376817D01*
X124741928Y-143454726D01*
X124741284Y-143514736D01*
X124740080Y-143559464D01*
X124738143Y-143591526D01*
X124735303Y-143613540D01*
X124731388Y-143628124D01*
X124726226Y-143637894D01*
X124719645Y-143645467D01*
X124712677Y-143651701D01*
X124699679Y-143659001D01*
X124680531Y-143663754D01*
X124651128Y-143666492D01*
X124607362Y-143667745D01*
X124545128Y-143668045D01*
X124496182Y-143667669D01*
X124389322Y-143663241D01*
X124300094Y-143653153D01*
X124225296Y-143636565D01*
X124161725Y-143612635D01*
X124106179Y-143580521D01*
X124055454Y-143539382D01*
X124049466Y-143533530D01*
X124012599Y-143485021D01*
X123981499Y-143424213D01*
X123960017Y-143359969D01*
X123954736Y-143321226D01*
X124101953Y-143321226D01*
X124120235Y-143372161D01*
X124149905Y-143418078D01*
X124196602Y-143460487D01*
X124257992Y-143490290D01*
X124337138Y-143509426D01*
X124338628Y-143509664D01*
X124387599Y-143515456D01*
X124446293Y-143519596D01*
X124502334Y-143521204D01*
X124595467Y-143521289D01*
X124595467Y-143081022D01*
X124519267Y-143081008D01*
X124516239Y-143081017D01*
X124465119Y-143082982D01*
X124405016Y-143087707D01*
X124348308Y-143094235D01*
X124298350Y-143103531D01*
X124223598Y-143129800D01*
X124166089Y-143169099D01*
X124124588Y-143222133D01*
X124103371Y-143273400D01*
X124101953Y-143321226D01*
X123954736Y-143321226D01*
X123952000Y-143301156D01*
X123953279Y-143279939D01*
X123965591Y-143222523D01*
X123988120Y-143162613D01*
X124017350Y-143108563D01*
X124049767Y-143068732D01*
X124069308Y-143051710D01*
X124124020Y-143012522D01*
X124184323Y-142982393D01*
X124253519Y-142960432D01*
X124334911Y-142945750D01*
X124431800Y-142937459D01*
X124547489Y-142934667D01*
X124586971Y-142934266D01*
X124632682Y-142933853D01*
X124668483Y-142935657D01*
X124695574Y-142941939D01*
X124715156Y-142954959D01*
X124728430Y-142976978D01*
X124736598Y-143010255D01*
X124740860Y-143057051D01*
X124741457Y-143081022D01*
X124742417Y-143119627D01*
X124742470Y-143200241D01*
G36*
X114650868Y-140985358D02*
G01*
X114642289Y-141136794D01*
X114623433Y-141273483D01*
X114593437Y-141399476D01*
X114551436Y-141518825D01*
X114496569Y-141635581D01*
X114429767Y-141746379D01*
X114338963Y-141859939D01*
X114235308Y-141955411D01*
X114119487Y-142032273D01*
X113992186Y-142089997D01*
X113854089Y-142128058D01*
X113816393Y-142133866D01*
X113737352Y-142139596D01*
X113649229Y-142139783D01*
X113559836Y-142134739D01*
X113476984Y-142124778D01*
X113408487Y-142110212D01*
X113377635Y-142100564D01*
X113300330Y-142070323D01*
X113223279Y-142032817D01*
X113153800Y-141991814D01*
X113099215Y-141951079D01*
X113076516Y-141931705D01*
X113053801Y-141913862D01*
X113042379Y-141906978D01*
X113041137Y-141908624D01*
X113038328Y-141926405D01*
X113036376Y-141959570D01*
X113035645Y-142002933D01*
X113035645Y-142098889D01*
X112177496Y-142098889D01*
X112211761Y-142038174D01*
X112216955Y-142029068D01*
X112225315Y-142014449D01*
X112232888Y-142000373D01*
X112239712Y-141985740D01*
X112245827Y-141969449D01*
X112251273Y-141950398D01*
X112256087Y-141927486D01*
X112260308Y-141899613D01*
X112263977Y-141865678D01*
X112267131Y-141824579D01*
X112269811Y-141775215D01*
X112272054Y-141716486D01*
X112273899Y-141647290D01*
X112275387Y-141566526D01*
X112276555Y-141473094D01*
X112277278Y-141385921D01*
X113080800Y-141385921D01*
X113151356Y-141432289D01*
X113192017Y-141455991D01*
X113246146Y-141481839D01*
X113295289Y-141500029D01*
X113358765Y-141515751D01*
X113454931Y-141526741D01*
X113539500Y-141518565D01*
X113612819Y-141491005D01*
X113675237Y-141443842D01*
X113727102Y-141376858D01*
X113768760Y-141289833D01*
X113800562Y-141182550D01*
X113803145Y-141170209D01*
X113811600Y-141108972D01*
X113817263Y-141031892D01*
X113820176Y-140944202D01*
X113820383Y-140851134D01*
X113817930Y-140757920D01*
X113812861Y-140669794D01*
X113805219Y-140591988D01*
X113795048Y-140529733D01*
X113793767Y-140523866D01*
X113764726Y-140413321D01*
X113730210Y-140322775D01*
X113689056Y-140250153D01*
X113640099Y-140193381D01*
X113582174Y-140150384D01*
X113550220Y-140134815D01*
X113477384Y-140115922D01*
X113396043Y-140112665D01*
X113310919Y-140124589D01*
X113226733Y-140151240D01*
X113148208Y-140192162D01*
X113080800Y-140235730D01*
X113080800Y-141385921D01*
X112277278Y-141385921D01*
X112277444Y-141365892D01*
X112278091Y-141243820D01*
X112278536Y-141105776D01*
X112278818Y-140950659D01*
X112278975Y-140777368D01*
X112279048Y-140584803D01*
X112279074Y-140371862D01*
X112279093Y-140137445D01*
X112279289Y-138452578D01*
X113184617Y-138452578D01*
X113160185Y-138489267D01*
X113153918Y-138498847D01*
X113127808Y-138545181D01*
X113110069Y-138592302D01*
X113098508Y-138647451D01*
X113090931Y-138717867D01*
X113090439Y-138724850D01*
X113088662Y-138762841D01*
X113087044Y-138816776D01*
X113085599Y-138883903D01*
X113084340Y-138961471D01*
X113083280Y-139046728D01*
X113082429Y-139136924D01*
X113081803Y-139229307D01*
X113081412Y-139321125D01*
X113081270Y-139409627D01*
X113081390Y-139492062D01*
X113081783Y-139565679D01*
X113082462Y-139627726D01*
X113083441Y-139675451D01*
X113084732Y-139706104D01*
X113086347Y-139716933D01*
X113094557Y-139712533D01*
X113116247Y-139697562D01*
X113145614Y-139675648D01*
X113194479Y-139641436D01*
X113282725Y-139594914D01*
X113381516Y-139561246D01*
X113494110Y-139539431D01*
X113623764Y-139528465D01*
X113716270Y-139527419D01*
X113837611Y-139537214D01*
X113947699Y-139561374D01*
X114050989Y-139600985D01*
X114151938Y-139657132D01*
X114197103Y-139688083D01*
X114302511Y-139779315D01*
X114394138Y-139888306D01*
X114471932Y-140014926D01*
X114535841Y-140159045D01*
X114585814Y-140320532D01*
X114621798Y-140499259D01*
X114643743Y-140695095D01*
X114649500Y-140851134D01*
X114651594Y-140907911D01*
X114650868Y-140985358D01*
G37*
X114650868Y-140985358D02*
X114642289Y-141136794D01*
X114623433Y-141273483D01*
X114593437Y-141399476D01*
X114551436Y-141518825D01*
X114496569Y-141635581D01*
X114429767Y-141746379D01*
X114338963Y-141859939D01*
X114235308Y-141955411D01*
X114119487Y-142032273D01*
X113992186Y-142089997D01*
X113854089Y-142128058D01*
X113816393Y-142133866D01*
X113737352Y-142139596D01*
X113649229Y-142139783D01*
X113559836Y-142134739D01*
X113476984Y-142124778D01*
X113408487Y-142110212D01*
X113377635Y-142100564D01*
X113300330Y-142070323D01*
X113223279Y-142032817D01*
X113153800Y-141991814D01*
X113099215Y-141951079D01*
X113076516Y-141931705D01*
X113053801Y-141913862D01*
X113042379Y-141906978D01*
X113041137Y-141908624D01*
X113038328Y-141926405D01*
X113036376Y-141959570D01*
X113035645Y-142002933D01*
X113035645Y-142098889D01*
X112177496Y-142098889D01*
X112211761Y-142038174D01*
X112216955Y-142029068D01*
X112225315Y-142014449D01*
X112232888Y-142000373D01*
X112239712Y-141985740D01*
X112245827Y-141969449D01*
X112251273Y-141950398D01*
X112256087Y-141927486D01*
X112260308Y-141899613D01*
X112263977Y-141865678D01*
X112267131Y-141824579D01*
X112269811Y-141775215D01*
X112272054Y-141716486D01*
X112273899Y-141647290D01*
X112275387Y-141566526D01*
X112276555Y-141473094D01*
X112277278Y-141385921D01*
X113080800Y-141385921D01*
X113151356Y-141432289D01*
X113192017Y-141455991D01*
X113246146Y-141481839D01*
X113295289Y-141500029D01*
X113358765Y-141515751D01*
X113454931Y-141526741D01*
X113539500Y-141518565D01*
X113612819Y-141491005D01*
X113675237Y-141443842D01*
X113727102Y-141376858D01*
X113768760Y-141289833D01*
X113800562Y-141182550D01*
X113803145Y-141170209D01*
X113811600Y-141108972D01*
X113817263Y-141031892D01*
X113820176Y-140944202D01*
X113820383Y-140851134D01*
X113817930Y-140757920D01*
X113812861Y-140669794D01*
X113805219Y-140591988D01*
X113795048Y-140529733D01*
X113793767Y-140523866D01*
X113764726Y-140413321D01*
X113730210Y-140322775D01*
X113689056Y-140250153D01*
X113640099Y-140193381D01*
X113582174Y-140150384D01*
X113550220Y-140134815D01*
X113477384Y-140115922D01*
X113396043Y-140112665D01*
X113310919Y-140124589D01*
X113226733Y-140151240D01*
X113148208Y-140192162D01*
X113080800Y-140235730D01*
X113080800Y-141385921D01*
X112277278Y-141385921D01*
X112277444Y-141365892D01*
X112278091Y-141243820D01*
X112278536Y-141105776D01*
X112278818Y-140950659D01*
X112278975Y-140777368D01*
X112279048Y-140584803D01*
X112279074Y-140371862D01*
X112279093Y-140137445D01*
X112279289Y-138452578D01*
X113184617Y-138452578D01*
X113160185Y-138489267D01*
X113153918Y-138498847D01*
X113127808Y-138545181D01*
X113110069Y-138592302D01*
X113098508Y-138647451D01*
X113090931Y-138717867D01*
X113090439Y-138724850D01*
X113088662Y-138762841D01*
X113087044Y-138816776D01*
X113085599Y-138883903D01*
X113084340Y-138961471D01*
X113083280Y-139046728D01*
X113082429Y-139136924D01*
X113081803Y-139229307D01*
X113081412Y-139321125D01*
X113081270Y-139409627D01*
X113081390Y-139492062D01*
X113081783Y-139565679D01*
X113082462Y-139627726D01*
X113083441Y-139675451D01*
X113084732Y-139706104D01*
X113086347Y-139716933D01*
X113094557Y-139712533D01*
X113116247Y-139697562D01*
X113145614Y-139675648D01*
X113194479Y-139641436D01*
X113282725Y-139594914D01*
X113381516Y-139561246D01*
X113494110Y-139539431D01*
X113623764Y-139528465D01*
X113716270Y-139527419D01*
X113837611Y-139537214D01*
X113947699Y-139561374D01*
X114050989Y-139600985D01*
X114151938Y-139657132D01*
X114197103Y-139688083D01*
X114302511Y-139779315D01*
X114394138Y-139888306D01*
X114471932Y-140014926D01*
X114535841Y-140159045D01*
X114585814Y-140320532D01*
X114621798Y-140499259D01*
X114643743Y-140695095D01*
X114649500Y-140851134D01*
X114651594Y-140907911D01*
X114650868Y-140985358D01*
G36*
X123322334Y-142934283D02*
G01*
X123399431Y-142934475D01*
X123458377Y-142935060D01*
X123501964Y-142936251D01*
X123532983Y-142938264D01*
X123554225Y-142941312D01*
X123568482Y-142945609D01*
X123578545Y-142951372D01*
X123587206Y-142958812D01*
X123588991Y-142960493D01*
X123596235Y-142968032D01*
X123601877Y-142977050D01*
X123606117Y-142990184D01*
X123609156Y-143010072D01*
X123611194Y-143039351D01*
X123612430Y-143080658D01*
X123613065Y-143136631D01*
X123613300Y-143209907D01*
X123613334Y-143303123D01*
X123613297Y-143375913D01*
X123613048Y-143454089D01*
X123612412Y-143514303D01*
X123611215Y-143559182D01*
X123609284Y-143591352D01*
X123606446Y-143613439D01*
X123602527Y-143628070D01*
X123597355Y-143637870D01*
X123590756Y-143645467D01*
X123587422Y-143648644D01*
X123578900Y-143654754D01*
X123566898Y-143659429D01*
X123548687Y-143662859D01*
X123521540Y-143665236D01*
X123482729Y-143666752D01*
X123429524Y-143667598D01*
X123359198Y-143667965D01*
X123269022Y-143668045D01*
X123226914Y-143668033D01*
X123145767Y-143667851D01*
X123083275Y-143667298D01*
X123036709Y-143666182D01*
X123003341Y-143664313D01*
X122980444Y-143661498D01*
X122965288Y-143657546D01*
X122955146Y-143652266D01*
X122947289Y-143645467D01*
X122932563Y-143623867D01*
X122924711Y-143594667D01*
X122930210Y-143570760D01*
X122947289Y-143543867D01*
X122952268Y-143539259D01*
X122962043Y-143532972D01*
X122976159Y-143528346D01*
X122997654Y-143525130D01*
X123029568Y-143523070D01*
X123074942Y-143521912D01*
X123136813Y-143521402D01*
X123218222Y-143521289D01*
X123466578Y-143521289D01*
X123466578Y-143363245D01*
X123305401Y-143363245D01*
X123269583Y-143363099D01*
X123203959Y-143361376D01*
X123156718Y-143356941D01*
X123124983Y-143348837D01*
X123105877Y-143336106D01*
X123096523Y-143317792D01*
X123094045Y-143292938D01*
X123094842Y-143272682D01*
X123100094Y-143250856D01*
X123112888Y-143235504D01*
X123136228Y-143225509D01*
X123173117Y-143219753D01*
X123226559Y-143217119D01*
X123299558Y-143216489D01*
X123467705Y-143216489D01*
X123464319Y-143151578D01*
X123460934Y-143086667D01*
X123213217Y-143083618D01*
X123150626Y-143082739D01*
X123082165Y-143081295D01*
X123031261Y-143079364D01*
X122995008Y-143076714D01*
X122970501Y-143073110D01*
X122954835Y-143068321D01*
X122945106Y-143062113D01*
X122939091Y-143055710D01*
X122926082Y-143024028D01*
X122929643Y-142988342D01*
X122949418Y-142957284D01*
X122952669Y-142954361D01*
X122961649Y-142948010D01*
X122973753Y-142943157D01*
X122991759Y-142939603D01*
X123018447Y-142937146D01*
X123056597Y-142935585D01*
X123108986Y-142934718D01*
X123178394Y-142934346D01*
X123267601Y-142934267D01*
X123322334Y-142934283D01*
G37*
X123322334Y-142934283D02*
X123399431Y-142934475D01*
X123458377Y-142935060D01*
X123501964Y-142936251D01*
X123532983Y-142938264D01*
X123554225Y-142941312D01*
X123568482Y-142945609D01*
X123578545Y-142951372D01*
X123587206Y-142958812D01*
X123588991Y-142960493D01*
X123596235Y-142968032D01*
X123601877Y-142977050D01*
X123606117Y-142990184D01*
X123609156Y-143010072D01*
X123611194Y-143039351D01*
X123612430Y-143080658D01*
X123613065Y-143136631D01*
X123613300Y-143209907D01*
X123613334Y-143303123D01*
X123613297Y-143375913D01*
X123613048Y-143454089D01*
X123612412Y-143514303D01*
X123611215Y-143559182D01*
X123609284Y-143591352D01*
X123606446Y-143613439D01*
X123602527Y-143628070D01*
X123597355Y-143637870D01*
X123590756Y-143645467D01*
X123587422Y-143648644D01*
X123578900Y-143654754D01*
X123566898Y-143659429D01*
X123548687Y-143662859D01*
X123521540Y-143665236D01*
X123482729Y-143666752D01*
X123429524Y-143667598D01*
X123359198Y-143667965D01*
X123269022Y-143668045D01*
X123226914Y-143668033D01*
X123145767Y-143667851D01*
X123083275Y-143667298D01*
X123036709Y-143666182D01*
X123003341Y-143664313D01*
X122980444Y-143661498D01*
X122965288Y-143657546D01*
X122955146Y-143652266D01*
X122947289Y-143645467D01*
X122932563Y-143623867D01*
X122924711Y-143594667D01*
X122930210Y-143570760D01*
X122947289Y-143543867D01*
X122952268Y-143539259D01*
X122962043Y-143532972D01*
X122976159Y-143528346D01*
X122997654Y-143525130D01*
X123029568Y-143523070D01*
X123074942Y-143521912D01*
X123136813Y-143521402D01*
X123218222Y-143521289D01*
X123466578Y-143521289D01*
X123466578Y-143363245D01*
X123305401Y-143363245D01*
X123269583Y-143363099D01*
X123203959Y-143361376D01*
X123156718Y-143356941D01*
X123124983Y-143348837D01*
X123105877Y-143336106D01*
X123096523Y-143317792D01*
X123094045Y-143292938D01*
X123094842Y-143272682D01*
X123100094Y-143250856D01*
X123112888Y-143235504D01*
X123136228Y-143225509D01*
X123173117Y-143219753D01*
X123226559Y-143217119D01*
X123299558Y-143216489D01*
X123467705Y-143216489D01*
X123464319Y-143151578D01*
X123460934Y-143086667D01*
X123213217Y-143083618D01*
X123150626Y-143082739D01*
X123082165Y-143081295D01*
X123031261Y-143079364D01*
X122995008Y-143076714D01*
X122970501Y-143073110D01*
X122954835Y-143068321D01*
X122945106Y-143062113D01*
X122939091Y-143055710D01*
X122926082Y-143024028D01*
X122929643Y-142988342D01*
X122949418Y-142957284D01*
X122952669Y-142954361D01*
X122961649Y-142948010D01*
X122973753Y-142943157D01*
X122991759Y-142939603D01*
X123018447Y-142937146D01*
X123056597Y-142935585D01*
X123108986Y-142934718D01*
X123178394Y-142934346D01*
X123267601Y-142934267D01*
X123322334Y-142934283D01*
G36*
X122306453Y-142935136D02*
G01*
X122372700Y-142940566D01*
X122428000Y-142950164D01*
X122478883Y-142965025D01*
X122550195Y-142998158D01*
X122601352Y-143040840D01*
X122632175Y-143092905D01*
X122642489Y-143154183D01*
X122641552Y-143185432D01*
X122635760Y-143210229D01*
X122620953Y-143231899D01*
X122592980Y-143259249D01*
X122585002Y-143266578D01*
X122561292Y-143287481D01*
X122538898Y-143304451D01*
X122514865Y-143318405D01*
X122486237Y-143330256D01*
X122450060Y-143340920D01*
X122403380Y-143351311D01*
X122343241Y-143362346D01*
X122266690Y-143374938D01*
X122170771Y-143390004D01*
X122152408Y-143393038D01*
X122090078Y-143406658D01*
X122044860Y-143422392D01*
X122018576Y-143439463D01*
X122013047Y-143457097D01*
X122015668Y-143461368D01*
X122033600Y-143476433D01*
X122061726Y-143493067D01*
X122074526Y-143499057D01*
X122095824Y-143506250D01*
X122122210Y-143511027D01*
X122158054Y-143513846D01*
X122207728Y-143515164D01*
X122275600Y-143515437D01*
X122293385Y-143515364D01*
X122361006Y-143514253D01*
X122425945Y-143512028D01*
X122481570Y-143508962D01*
X122521251Y-143505327D01*
X122556762Y-143501259D01*
X122586015Y-143500476D01*
X122604915Y-143505076D01*
X122620029Y-143515751D01*
X122623685Y-143519344D01*
X122640027Y-143551118D01*
X122638707Y-143586772D01*
X122619750Y-143617390D01*
X122599380Y-143628996D01*
X122563396Y-143641691D01*
X122520972Y-143651741D01*
X122517522Y-143652340D01*
X122474852Y-143657556D01*
X122417466Y-143661930D01*
X122352449Y-143665018D01*
X122286889Y-143666377D01*
X122270657Y-143666418D01*
X122172344Y-143663941D01*
X122092292Y-143655935D01*
X122027113Y-143641403D01*
X121973417Y-143619349D01*
X121927816Y-143588776D01*
X121886923Y-143548686D01*
X121866802Y-143522459D01*
X121855176Y-143492912D01*
X121852267Y-143453195D01*
X121852408Y-143441226D01*
X121856281Y-143408545D01*
X121868665Y-143382019D01*
X121893830Y-143351171D01*
X121915042Y-143329031D01*
X121941438Y-143306485D01*
X121971155Y-143288117D01*
X122007385Y-143272861D01*
X122053317Y-143259649D01*
X122112144Y-143247414D01*
X122187056Y-143235089D01*
X122281245Y-143221606D01*
X122326557Y-143214596D01*
X122394511Y-143200037D01*
X122443647Y-143183537D01*
X122473214Y-143165639D01*
X122482464Y-143146885D01*
X122470648Y-143127815D01*
X122437016Y-143108971D01*
X122433970Y-143107757D01*
X122387611Y-143095679D01*
X122324961Y-143087479D01*
X122251527Y-143083319D01*
X122172817Y-143083361D01*
X122094339Y-143087769D01*
X122021600Y-143096705D01*
X122017673Y-143097354D01*
X121968857Y-143105061D01*
X121936605Y-143108673D01*
X121915608Y-143108076D01*
X121900554Y-143103154D01*
X121886134Y-143093796D01*
X121884964Y-143092925D01*
X121860447Y-143062551D01*
X121855654Y-143027050D01*
X121871460Y-142992469D01*
X121876006Y-142988013D01*
X121905620Y-142972873D01*
X121952602Y-142959750D01*
X122012906Y-142948950D01*
X122082488Y-142940781D01*
X122157303Y-142935551D01*
X122233306Y-142933567D01*
X122306453Y-142935136D01*
G37*
X122306453Y-142935136D02*
X122372700Y-142940566D01*
X122428000Y-142950164D01*
X122478883Y-142965025D01*
X122550195Y-142998158D01*
X122601352Y-143040840D01*
X122632175Y-143092905D01*
X122642489Y-143154183D01*
X122641552Y-143185432D01*
X122635760Y-143210229D01*
X122620953Y-143231899D01*
X122592980Y-143259249D01*
X122585002Y-143266578D01*
X122561292Y-143287481D01*
X122538898Y-143304451D01*
X122514865Y-143318405D01*
X122486237Y-143330256D01*
X122450060Y-143340920D01*
X122403380Y-143351311D01*
X122343241Y-143362346D01*
X122266690Y-143374938D01*
X122170771Y-143390004D01*
X122152408Y-143393038D01*
X122090078Y-143406658D01*
X122044860Y-143422392D01*
X122018576Y-143439463D01*
X122013047Y-143457097D01*
X122015668Y-143461368D01*
X122033600Y-143476433D01*
X122061726Y-143493067D01*
X122074526Y-143499057D01*
X122095824Y-143506250D01*
X122122210Y-143511027D01*
X122158054Y-143513846D01*
X122207728Y-143515164D01*
X122275600Y-143515437D01*
X122293385Y-143515364D01*
X122361006Y-143514253D01*
X122425945Y-143512028D01*
X122481570Y-143508962D01*
X122521251Y-143505327D01*
X122556762Y-143501259D01*
X122586015Y-143500476D01*
X122604915Y-143505076D01*
X122620029Y-143515751D01*
X122623685Y-143519344D01*
X122640027Y-143551118D01*
X122638707Y-143586772D01*
X122619750Y-143617390D01*
X122599380Y-143628996D01*
X122563396Y-143641691D01*
X122520972Y-143651741D01*
X122517522Y-143652340D01*
X122474852Y-143657556D01*
X122417466Y-143661930D01*
X122352449Y-143665018D01*
X122286889Y-143666377D01*
X122270657Y-143666418D01*
X122172344Y-143663941D01*
X122092292Y-143655935D01*
X122027113Y-143641403D01*
X121973417Y-143619349D01*
X121927816Y-143588776D01*
X121886923Y-143548686D01*
X121866802Y-143522459D01*
X121855176Y-143492912D01*
X121852267Y-143453195D01*
X121852408Y-143441226D01*
X121856281Y-143408545D01*
X121868665Y-143382019D01*
X121893830Y-143351171D01*
X121915042Y-143329031D01*
X121941438Y-143306485D01*
X121971155Y-143288117D01*
X122007385Y-143272861D01*
X122053317Y-143259649D01*
X122112144Y-143247414D01*
X122187056Y-143235089D01*
X122281245Y-143221606D01*
X122326557Y-143214596D01*
X122394511Y-143200037D01*
X122443647Y-143183537D01*
X122473214Y-143165639D01*
X122482464Y-143146885D01*
X122470648Y-143127815D01*
X122437016Y-143108971D01*
X122433970Y-143107757D01*
X122387611Y-143095679D01*
X122324961Y-143087479D01*
X122251527Y-143083319D01*
X122172817Y-143083361D01*
X122094339Y-143087769D01*
X122021600Y-143096705D01*
X122017673Y-143097354D01*
X121968857Y-143105061D01*
X121936605Y-143108673D01*
X121915608Y-143108076D01*
X121900554Y-143103154D01*
X121886134Y-143093796D01*
X121884964Y-143092925D01*
X121860447Y-143062551D01*
X121855654Y-143027050D01*
X121871460Y-142992469D01*
X121876006Y-142988013D01*
X121905620Y-142972873D01*
X121952602Y-142959750D01*
X122012906Y-142948950D01*
X122082488Y-142940781D01*
X122157303Y-142935551D01*
X122233306Y-142933567D01*
X122306453Y-142935136D01*
G36*
X113621367Y-142934268D02*
G01*
X113715490Y-142934358D01*
X113790005Y-142934698D01*
X113847411Y-142935439D01*
X113890211Y-142936735D01*
X113920904Y-142938737D01*
X113941991Y-142941596D01*
X113955973Y-142945466D01*
X113965350Y-142950498D01*
X113972622Y-142956845D01*
X113991428Y-142989562D01*
X113992875Y-143027139D01*
X113976517Y-143060378D01*
X113975157Y-143061831D01*
X113963954Y-143070192D01*
X113946852Y-143075747D01*
X113919682Y-143079040D01*
X113878278Y-143080618D01*
X113818473Y-143081022D01*
X113679111Y-143081022D01*
X113679111Y-143344789D01*
X113679036Y-143420617D01*
X113678628Y-143487283D01*
X113677646Y-143537067D01*
X113675850Y-143572984D01*
X113672999Y-143598050D01*
X113668853Y-143615281D01*
X113663171Y-143627692D01*
X113655714Y-143638300D01*
X113653424Y-143641106D01*
X113622246Y-143663748D01*
X113587866Y-143665312D01*
X113554934Y-143645467D01*
X113547955Y-143637391D01*
X113542483Y-143626793D01*
X113538463Y-143610949D01*
X113535672Y-143586973D01*
X113533888Y-143551974D01*
X113532889Y-143503064D01*
X113532452Y-143437354D01*
X113532356Y-143351956D01*
X113532356Y-143081022D01*
X113386420Y-143081022D01*
X113375320Y-143081021D01*
X113318802Y-143080796D01*
X113279958Y-143079657D01*
X113254565Y-143076857D01*
X113238404Y-143071650D01*
X113227252Y-143063289D01*
X113216889Y-143051026D01*
X113201041Y-143020338D01*
X113204143Y-142986558D01*
X113229787Y-142954022D01*
X113234729Y-142950305D01*
X113244938Y-142945469D01*
X113260364Y-142941706D01*
X113283486Y-142938883D01*
X113316783Y-142936870D01*
X113362737Y-142935533D01*
X113423828Y-142934742D01*
X113502535Y-142934363D01*
X113601340Y-142934267D01*
X113621367Y-142934268D01*
G37*
X113621367Y-142934268D02*
X113715490Y-142934358D01*
X113790005Y-142934698D01*
X113847411Y-142935439D01*
X113890211Y-142936735D01*
X113920904Y-142938737D01*
X113941991Y-142941596D01*
X113955973Y-142945466D01*
X113965350Y-142950498D01*
X113972622Y-142956845D01*
X113991428Y-142989562D01*
X113992875Y-143027139D01*
X113976517Y-143060378D01*
X113975157Y-143061831D01*
X113963954Y-143070192D01*
X113946852Y-143075747D01*
X113919682Y-143079040D01*
X113878278Y-143080618D01*
X113818473Y-143081022D01*
X113679111Y-143081022D01*
X113679111Y-143344789D01*
X113679036Y-143420617D01*
X113678628Y-143487283D01*
X113677646Y-143537067D01*
X113675850Y-143572984D01*
X113672999Y-143598050D01*
X113668853Y-143615281D01*
X113663171Y-143627692D01*
X113655714Y-143638300D01*
X113653424Y-143641106D01*
X113622246Y-143663748D01*
X113587866Y-143665312D01*
X113554934Y-143645467D01*
X113547955Y-143637391D01*
X113542483Y-143626793D01*
X113538463Y-143610949D01*
X113535672Y-143586973D01*
X113533888Y-143551974D01*
X113532889Y-143503064D01*
X113532452Y-143437354D01*
X113532356Y-143351956D01*
X113532356Y-143081022D01*
X113386420Y-143081022D01*
X113375320Y-143081021D01*
X113318802Y-143080796D01*
X113279958Y-143079657D01*
X113254565Y-143076857D01*
X113238404Y-143071650D01*
X113227252Y-143063289D01*
X113216889Y-143051026D01*
X113201041Y-143020338D01*
X113204143Y-142986558D01*
X113229787Y-142954022D01*
X113234729Y-142950305D01*
X113244938Y-142945469D01*
X113260364Y-142941706D01*
X113283486Y-142938883D01*
X113316783Y-142936870D01*
X113362737Y-142935533D01*
X113423828Y-142934742D01*
X113502535Y-142934363D01*
X113601340Y-142934267D01*
X113621367Y-142934268D01*
G36*
X114321006Y-142940149D02*
G01*
X114346727Y-142955847D01*
X114373378Y-142977427D01*
X114373378Y-143624884D01*
X114346727Y-143646464D01*
X114315367Y-143663939D01*
X114279566Y-143664775D01*
X114248128Y-143644282D01*
X114244252Y-143639616D01*
X114238786Y-143630149D01*
X114234579Y-143616467D01*
X114231467Y-143595948D01*
X114229287Y-143565968D01*
X114227876Y-143523904D01*
X114227071Y-143467132D01*
X114226707Y-143393030D01*
X114226622Y-143298973D01*
X114226622Y-142977427D01*
X114253273Y-142955847D01*
X114276986Y-142941077D01*
X114300000Y-142934267D01*
X114321006Y-142940149D01*
G37*
X114321006Y-142940149D02*
X114346727Y-142955847D01*
X114373378Y-142977427D01*
X114373378Y-143624884D01*
X114346727Y-143646464D01*
X114315367Y-143663939D01*
X114279566Y-143664775D01*
X114248128Y-143644282D01*
X114244252Y-143639616D01*
X114238786Y-143630149D01*
X114234579Y-143616467D01*
X114231467Y-143595948D01*
X114229287Y-143565968D01*
X114227876Y-143523904D01*
X114227071Y-143467132D01*
X114226707Y-143393030D01*
X114226622Y-143298973D01*
X114226622Y-142977427D01*
X114253273Y-142955847D01*
X114276986Y-142941077D01*
X114300000Y-142934267D01*
X114321006Y-142940149D01*
G36*
X118645403Y-142964011D02*
G01*
X118650352Y-142970695D01*
X118656196Y-142981266D01*
X118660657Y-142995353D01*
X118663921Y-143015678D01*
X118666174Y-143044965D01*
X118667602Y-143085937D01*
X118668392Y-143141317D01*
X118668729Y-143213828D01*
X118668800Y-143306194D01*
X118668771Y-143372111D01*
X118668539Y-143450428D01*
X118667919Y-143510696D01*
X118666726Y-143555593D01*
X118664779Y-143587802D01*
X118661894Y-143610000D01*
X118657888Y-143624869D01*
X118652579Y-143635089D01*
X118645783Y-143643338D01*
X118641268Y-143647995D01*
X118633038Y-143654482D01*
X118621678Y-143659394D01*
X118604410Y-143662949D01*
X118578455Y-143665367D01*
X118541036Y-143666867D01*
X118489373Y-143667667D01*
X118420689Y-143667987D01*
X118332206Y-143668045D01*
X118312531Y-143668038D01*
X118225506Y-143667772D01*
X118157854Y-143667006D01*
X118106899Y-143665592D01*
X118069967Y-143663380D01*
X118044383Y-143660222D01*
X118027471Y-143655969D01*
X118016557Y-143650471D01*
X118006064Y-143640485D01*
X117992803Y-143609368D01*
X117993986Y-143573480D01*
X118010150Y-143541933D01*
X118012339Y-143539657D01*
X118021027Y-143533389D01*
X118034369Y-143528723D01*
X118055352Y-143525427D01*
X118086963Y-143523268D01*
X118132190Y-143522014D01*
X118194020Y-143521431D01*
X118275439Y-143521289D01*
X118522045Y-143521289D01*
X118522045Y-143363245D01*
X118359606Y-143363245D01*
X118323938Y-143363164D01*
X118268168Y-143362367D01*
X118229030Y-143360362D01*
X118202576Y-143356721D01*
X118184859Y-143351012D01*
X118171929Y-143342807D01*
X118168286Y-143339623D01*
X118149878Y-143308648D01*
X118149244Y-143272312D01*
X118166783Y-143238693D01*
X118166845Y-143238624D01*
X118176516Y-143229998D01*
X118189809Y-143223942D01*
X118210517Y-143220011D01*
X118242428Y-143217756D01*
X118289334Y-143216731D01*
X118355024Y-143216489D01*
X118523171Y-143216489D01*
X118519786Y-143151578D01*
X118516400Y-143086667D01*
X118274323Y-143083614D01*
X118249307Y-143083286D01*
X118167687Y-143081806D01*
X118105368Y-143079422D01*
X118059754Y-143075427D01*
X118028252Y-143069113D01*
X118008267Y-143059774D01*
X117997204Y-143046703D01*
X117992469Y-143029192D01*
X117991467Y-143006535D01*
X117991473Y-143004170D01*
X117992627Y-142984139D01*
X117997424Y-142968346D01*
X118008232Y-142956290D01*
X118027417Y-142947467D01*
X118057345Y-142941375D01*
X118100383Y-142937511D01*
X118158899Y-142935374D01*
X118235257Y-142934460D01*
X118331826Y-142934267D01*
X118622006Y-142934267D01*
X118645403Y-142964011D01*
G37*
X118645403Y-142964011D02*
X118650352Y-142970695D01*
X118656196Y-142981266D01*
X118660657Y-142995353D01*
X118663921Y-143015678D01*
X118666174Y-143044965D01*
X118667602Y-143085937D01*
X118668392Y-143141317D01*
X118668729Y-143213828D01*
X118668800Y-143306194D01*
X118668771Y-143372111D01*
X118668539Y-143450428D01*
X118667919Y-143510696D01*
X118666726Y-143555593D01*
X118664779Y-143587802D01*
X118661894Y-143610000D01*
X118657888Y-143624869D01*
X118652579Y-143635089D01*
X118645783Y-143643338D01*
X118641268Y-143647995D01*
X118633038Y-143654482D01*
X118621678Y-143659394D01*
X118604410Y-143662949D01*
X118578455Y-143665367D01*
X118541036Y-143666867D01*
X118489373Y-143667667D01*
X118420689Y-143667987D01*
X118332206Y-143668045D01*
X118312531Y-143668038D01*
X118225506Y-143667772D01*
X118157854Y-143667006D01*
X118106899Y-143665592D01*
X118069967Y-143663380D01*
X118044383Y-143660222D01*
X118027471Y-143655969D01*
X118016557Y-143650471D01*
X118006064Y-143640485D01*
X117992803Y-143609368D01*
X117993986Y-143573480D01*
X118010150Y-143541933D01*
X118012339Y-143539657D01*
X118021027Y-143533389D01*
X118034369Y-143528723D01*
X118055352Y-143525427D01*
X118086963Y-143523268D01*
X118132190Y-143522014D01*
X118194020Y-143521431D01*
X118275439Y-143521289D01*
X118522045Y-143521289D01*
X118522045Y-143363245D01*
X118359606Y-143363245D01*
X118323938Y-143363164D01*
X118268168Y-143362367D01*
X118229030Y-143360362D01*
X118202576Y-143356721D01*
X118184859Y-143351012D01*
X118171929Y-143342807D01*
X118168286Y-143339623D01*
X118149878Y-143308648D01*
X118149244Y-143272312D01*
X118166783Y-143238693D01*
X118166845Y-143238624D01*
X118176516Y-143229998D01*
X118189809Y-143223942D01*
X118210517Y-143220011D01*
X118242428Y-143217756D01*
X118289334Y-143216731D01*
X118355024Y-143216489D01*
X118523171Y-143216489D01*
X118519786Y-143151578D01*
X118516400Y-143086667D01*
X118274323Y-143083614D01*
X118249307Y-143083286D01*
X118167687Y-143081806D01*
X118105368Y-143079422D01*
X118059754Y-143075427D01*
X118028252Y-143069113D01*
X118008267Y-143059774D01*
X117997204Y-143046703D01*
X117992469Y-143029192D01*
X117991467Y-143006535D01*
X117991473Y-143004170D01*
X117992627Y-142984139D01*
X117997424Y-142968346D01*
X118008232Y-142956290D01*
X118027417Y-142947467D01*
X118057345Y-142941375D01*
X118100383Y-142937511D01*
X118158899Y-142935374D01*
X118235257Y-142934460D01*
X118331826Y-142934267D01*
X118622006Y-142934267D01*
X118645403Y-142964011D01*
G36*
X124741659Y-138908211D02*
G01*
X124741962Y-139055416D01*
X124742148Y-139219549D01*
X124742242Y-139401552D01*
X124742271Y-139602365D01*
X124742261Y-139822932D01*
X124742236Y-140064192D01*
X124742222Y-140327089D01*
X124742222Y-140369240D01*
X124742246Y-140629868D01*
X124742285Y-140868996D01*
X124742308Y-141087560D01*
X124742287Y-141286495D01*
X124742193Y-141466735D01*
X124741995Y-141629215D01*
X124741663Y-141774870D01*
X124741169Y-141904634D01*
X124740483Y-142019443D01*
X124739576Y-142120230D01*
X124738417Y-142207930D01*
X124736978Y-142283479D01*
X124735229Y-142347811D01*
X124733140Y-142401861D01*
X124730683Y-142446563D01*
X124727827Y-142482852D01*
X124724543Y-142511663D01*
X124720802Y-142533931D01*
X124716574Y-142550590D01*
X124711829Y-142562575D01*
X124706539Y-142570821D01*
X124700673Y-142576262D01*
X124694202Y-142579834D01*
X124687097Y-142582470D01*
X124679328Y-142585106D01*
X124670866Y-142588677D01*
X124666508Y-142590345D01*
X124657995Y-142592311D01*
X124645294Y-142594111D01*
X124627485Y-142595755D01*
X124603649Y-142597247D01*
X124572866Y-142598597D01*
X124534217Y-142599811D01*
X124486782Y-142600897D01*
X124429643Y-142601861D01*
X124361879Y-142602711D01*
X124282571Y-142603453D01*
X124190799Y-142604097D01*
X124085644Y-142604647D01*
X123966187Y-142605113D01*
X123831508Y-142605500D01*
X123680688Y-142605816D01*
X123512806Y-142606069D01*
X123326945Y-142606266D01*
X123122183Y-142606413D01*
X122897602Y-142606518D01*
X122652282Y-142606589D01*
X122385304Y-142606632D01*
X122346921Y-142606637D01*
X122081522Y-142606680D01*
X121837650Y-142606725D01*
X121614383Y-142606748D01*
X121410796Y-142606724D01*
X121225967Y-142606630D01*
X121058973Y-142606443D01*
X120908890Y-142606139D01*
X120774796Y-142605694D01*
X120655766Y-142605085D01*
X120550879Y-142604289D01*
X120459210Y-142603280D01*
X120379837Y-142602037D01*
X120311837Y-142600535D01*
X120254286Y-142598751D01*
X120206262Y-142596661D01*
X120166840Y-142594242D01*
X120135099Y-142591470D01*
X120110114Y-142588321D01*
X120090964Y-142584772D01*
X120076723Y-142580798D01*
X120066471Y-142576378D01*
X120059282Y-142571486D01*
X120054235Y-142566100D01*
X120050405Y-142560196D01*
X120046871Y-142553749D01*
X120042708Y-142546737D01*
X120041625Y-142544887D01*
X120039413Y-142539380D01*
X120037386Y-142531068D01*
X120035538Y-142519009D01*
X120033861Y-142502263D01*
X120032345Y-142479887D01*
X120030983Y-142450940D01*
X120029767Y-142414480D01*
X120028689Y-142369567D01*
X120027740Y-142315257D01*
X120026912Y-142250610D01*
X120026197Y-142174684D01*
X120025587Y-142086538D01*
X120025542Y-142077693D01*
X120316978Y-142077693D01*
X120320860Y-142078965D01*
X120344120Y-142080991D01*
X120386474Y-142082826D01*
X120445732Y-142084427D01*
X120519707Y-142085749D01*
X120606210Y-142086748D01*
X120703052Y-142087380D01*
X120808045Y-142087600D01*
X121506251Y-142087600D01*
X122660690Y-142087600D01*
X122660056Y-142011400D01*
X122661174Y-141969360D01*
X122666904Y-141933534D01*
X122679490Y-141895972D01*
X122701168Y-141847777D01*
X122704389Y-141841097D01*
X122729788Y-141791559D01*
X122756596Y-141743569D01*
X122779517Y-141706666D01*
X122784085Y-141700034D01*
X122806116Y-141668793D01*
X122838293Y-141623854D01*
X122879057Y-141567347D01*
X122926845Y-141501404D01*
X122980098Y-141428157D01*
X123037255Y-141349736D01*
X123096755Y-141268272D01*
X123157037Y-141185898D01*
X123216540Y-141104744D01*
X123273705Y-141026942D01*
X123326970Y-140954623D01*
X123374774Y-140889918D01*
X123415557Y-140834959D01*
X123447758Y-140791876D01*
X123469816Y-140762802D01*
X123480171Y-140749867D01*
X123484644Y-140745551D01*
X123488836Y-140743512D01*
X123492243Y-140746126D01*
X123494925Y-140755186D01*
X123496941Y-140772485D01*
X123498348Y-140799814D01*
X123499205Y-140838965D01*
X123499570Y-140891733D01*
X123499503Y-140959907D01*
X123499060Y-141045282D01*
X123498302Y-141149649D01*
X123497285Y-141274800D01*
X123496908Y-141319500D01*
X123495769Y-141440595D01*
X123494572Y-141541888D01*
X123493236Y-141625462D01*
X123491677Y-141693404D01*
X123489815Y-141747799D01*
X123487566Y-141790732D01*
X123484848Y-141824289D01*
X123481579Y-141850555D01*
X123477678Y-141871616D01*
X123473061Y-141889557D01*
X123464792Y-141915970D01*
X123441183Y-141977972D01*
X123415285Y-142030773D01*
X123390135Y-142067845D01*
X123388939Y-142069275D01*
X123386768Y-142073624D01*
X123388928Y-142077226D01*
X123397244Y-142080151D01*
X123413540Y-142082469D01*
X123439641Y-142084251D01*
X123477371Y-142085567D01*
X123528556Y-142086486D01*
X123595020Y-142087078D01*
X123678587Y-142087415D01*
X123781083Y-142087565D01*
X123904332Y-142087600D01*
X124435896Y-142087600D01*
X124397123Y-142029983D01*
X124391032Y-142021093D01*
X124380576Y-142006269D01*
X124371179Y-141992622D01*
X124362783Y-141978965D01*
X124355333Y-141964111D01*
X124348773Y-141946870D01*
X124343046Y-141926055D01*
X124338095Y-141900480D01*
X124333866Y-141868955D01*
X124330301Y-141830293D01*
X124327344Y-141783307D01*
X124324940Y-141726808D01*
X124323031Y-141659609D01*
X124321562Y-141580522D01*
X124320476Y-141488360D01*
X124319718Y-141381934D01*
X124319230Y-141260057D01*
X124318958Y-141121541D01*
X124318843Y-140965199D01*
X124318831Y-140789842D01*
X124318865Y-140594282D01*
X124318889Y-140377333D01*
X124318880Y-140254713D01*
X124318843Y-140049647D01*
X124318827Y-139865316D01*
X124318888Y-139700534D01*
X124319084Y-139554116D01*
X124319470Y-139424874D01*
X124320105Y-139311622D01*
X124321044Y-139213175D01*
X124322345Y-139128344D01*
X124324064Y-139055944D01*
X124326259Y-138994789D01*
X124328985Y-138943692D01*
X124332301Y-138901467D01*
X124336262Y-138866927D01*
X124340925Y-138838886D01*
X124346347Y-138816158D01*
X124352586Y-138797556D01*
X124359697Y-138781893D01*
X124367738Y-138767984D01*
X124376766Y-138754641D01*
X124386836Y-138740679D01*
X124398007Y-138724911D01*
X124437797Y-138667067D01*
X123377914Y-138667067D01*
X123415911Y-138730166D01*
X123430593Y-138755205D01*
X123445131Y-138782786D01*
X123457227Y-138810900D01*
X123467132Y-138841751D01*
X123475094Y-138877544D01*
X123481361Y-138920483D01*
X123486182Y-138972774D01*
X123489806Y-139036619D01*
X123492481Y-139114225D01*
X123494457Y-139207794D01*
X123495982Y-139319533D01*
X123497304Y-139451645D01*
X123498213Y-139571634D01*
X123498620Y-139688263D01*
X123498367Y-139783731D01*
X123497457Y-139857756D01*
X123495893Y-139910055D01*
X123493679Y-139940349D01*
X123490820Y-139948356D01*
X123487761Y-139945058D01*
X123469606Y-139923608D01*
X123439875Y-139887089D01*
X123400239Y-139837642D01*
X123352371Y-139777407D01*
X123297943Y-139708527D01*
X123238627Y-139633143D01*
X123176095Y-139553396D01*
X123112021Y-139471428D01*
X123048075Y-139389380D01*
X122985931Y-139309394D01*
X122927261Y-139233611D01*
X122873737Y-139164173D01*
X122827030Y-139103221D01*
X122788814Y-139052896D01*
X122760761Y-139015340D01*
X122744543Y-138992695D01*
X122699235Y-138920412D01*
X122659261Y-138840663D01*
X122637730Y-138772388D01*
X122634427Y-138715044D01*
X122639716Y-138667067D01*
X121507956Y-138667317D01*
X121547467Y-138697922D01*
X121556848Y-138705289D01*
X121619783Y-138759638D01*
X121688597Y-138827459D01*
X121765196Y-138910716D01*
X121851488Y-139011378D01*
X121868652Y-139032047D01*
X121909433Y-139081609D01*
X121959188Y-139142526D01*
X122016555Y-139213098D01*
X122080169Y-139291624D01*
X122148669Y-139376404D01*
X122220690Y-139465737D01*
X122294870Y-139557922D01*
X122310117Y-139576902D01*
X122369846Y-139651260D01*
X122444253Y-139744048D01*
X122516731Y-139834588D01*
X122585914Y-139921178D01*
X122650441Y-140002118D01*
X122708947Y-140075706D01*
X122760070Y-140140244D01*
X122802447Y-140194029D01*
X122834715Y-140235362D01*
X122855510Y-140262542D01*
X122863469Y-140273868D01*
X122861711Y-140277971D01*
X122848830Y-140298534D01*
X122824485Y-140334761D01*
X122789847Y-140385024D01*
X122746086Y-140447692D01*
X122694375Y-140521136D01*
X122635884Y-140603727D01*
X122571784Y-140693836D01*
X122503246Y-140789831D01*
X122431443Y-140890085D01*
X122357544Y-140992968D01*
X122282721Y-141096850D01*
X122208145Y-141200101D01*
X122134987Y-141301092D01*
X122064419Y-141398194D01*
X121997611Y-141489777D01*
X121935735Y-141574211D01*
X121879961Y-141649867D01*
X121831462Y-141715116D01*
X121791407Y-141768328D01*
X121760969Y-141807873D01*
X121740544Y-141833226D01*
X121694499Y-141887495D01*
X121644212Y-141943975D01*
X121597415Y-141993869D01*
X121506251Y-142087600D01*
X120808045Y-142087600D01*
X120876956Y-142087549D01*
X120975207Y-142087291D01*
X121064630Y-142086837D01*
X121142933Y-142086210D01*
X121207823Y-142085435D01*
X121257011Y-142084535D01*
X121288204Y-142083534D01*
X121299111Y-142082457D01*
X121297922Y-142079237D01*
X121287776Y-142061652D01*
X121270640Y-142035358D01*
X121262140Y-142022891D01*
X121252929Y-142008822D01*
X121244833Y-141994551D01*
X121237785Y-141978679D01*
X121231717Y-141959809D01*
X121226561Y-141936541D01*
X121222251Y-141907478D01*
X121218719Y-141871221D01*
X121215897Y-141826370D01*
X121213718Y-141771528D01*
X121212114Y-141705297D01*
X121211019Y-141626277D01*
X121210365Y-141533071D01*
X121210084Y-141424279D01*
X121210109Y-141298503D01*
X121210372Y-141154345D01*
X121210806Y-140990407D01*
X121211345Y-140805289D01*
X121211879Y-140626432D01*
X121212405Y-140467574D01*
X121212950Y-140328516D01*
X121213545Y-140207865D01*
X121214219Y-140104228D01*
X121215003Y-140016211D01*
X121215926Y-139942423D01*
X121217019Y-139881469D01*
X121218312Y-139831957D01*
X121219835Y-139792493D01*
X121221619Y-139761684D01*
X121223692Y-139738138D01*
X121226086Y-139720460D01*
X121228830Y-139707259D01*
X121231956Y-139697140D01*
X121235492Y-139688711D01*
X121239391Y-139680575D01*
X121259038Y-139643744D01*
X121277825Y-139613591D01*
X121278872Y-139612108D01*
X121293202Y-139589859D01*
X121299111Y-139576902D01*
X121298104Y-139576449D01*
X121280905Y-139575003D01*
X121244256Y-139573680D01*
X121190562Y-139572516D01*
X121122230Y-139571547D01*
X121041664Y-139570811D01*
X120951270Y-139570342D01*
X120853453Y-139570178D01*
X120407795Y-139570178D01*
X120404720Y-140747045D01*
X120401645Y-141923911D01*
X120375007Y-141982822D01*
X120363085Y-142007383D01*
X120345846Y-142037634D01*
X120332674Y-142054760D01*
X120324676Y-142062791D01*
X120316978Y-142077693D01*
X120025542Y-142077693D01*
X120025074Y-141985229D01*
X120024650Y-141869817D01*
X120024306Y-141739360D01*
X120024034Y-141592916D01*
X120023827Y-141429544D01*
X120023676Y-141248301D01*
X120023572Y-141048248D01*
X120023508Y-140828441D01*
X120023476Y-140587939D01*
X120023467Y-140325802D01*
X120023467Y-138134231D01*
X120061849Y-138095849D01*
X120088955Y-138072111D01*
X120115853Y-138060311D01*
X120152160Y-138057467D01*
X120204089Y-138057467D01*
X120204089Y-138145406D01*
X120206027Y-138195302D01*
X120224799Y-138305723D01*
X120261817Y-138407187D01*
X120314969Y-138498352D01*
X120382146Y-138577873D01*
X120461238Y-138644405D01*
X120550134Y-138696606D01*
X120646725Y-138733130D01*
X120748900Y-138752634D01*
X120854550Y-138753773D01*
X120961564Y-138735205D01*
X121067832Y-138695584D01*
X121164819Y-138637716D01*
X121249893Y-138562884D01*
X121318615Y-138474815D01*
X121369518Y-138375816D01*
X121401135Y-138268193D01*
X121412000Y-138154254D01*
X121412000Y-138057467D01*
X123032353Y-138057467D01*
X123243497Y-138057480D01*
X123447620Y-138057530D01*
X123631286Y-138057630D01*
X123795591Y-138057792D01*
X123941629Y-138058029D01*
X124070494Y-138058353D01*
X124183283Y-138058775D01*
X124281088Y-138059309D01*
X124365004Y-138059967D01*
X124436127Y-138060761D01*
X124495550Y-138061704D01*
X124544368Y-138062808D01*
X124583677Y-138064084D01*
X124614569Y-138065547D01*
X124638141Y-138067207D01*
X124655486Y-138069078D01*
X124667699Y-138071172D01*
X124675875Y-138073500D01*
X124681108Y-138076076D01*
X124687104Y-138079645D01*
X124693879Y-138083178D01*
X124700078Y-138086688D01*
X124705726Y-138091118D01*
X124710847Y-138097408D01*
X124715469Y-138106501D01*
X124719615Y-138119339D01*
X124723313Y-138136862D01*
X124726587Y-138160013D01*
X124729463Y-138189734D01*
X124731967Y-138226965D01*
X124734124Y-138272649D01*
X124735960Y-138327727D01*
X124737500Y-138393141D01*
X124738770Y-138469833D01*
X124739795Y-138558744D01*
X124740601Y-138660817D01*
X124740634Y-138667067D01*
X124741214Y-138776992D01*
X124741659Y-138908211D01*
G37*
X124741659Y-138908211D02*
X124741962Y-139055416D01*
X124742148Y-139219549D01*
X124742242Y-139401552D01*
X124742271Y-139602365D01*
X124742261Y-139822932D01*
X124742236Y-140064192D01*
X124742222Y-140327089D01*
X124742222Y-140369240D01*
X124742246Y-140629868D01*
X124742285Y-140868996D01*
X124742308Y-141087560D01*
X124742287Y-141286495D01*
X124742193Y-141466735D01*
X124741995Y-141629215D01*
X124741663Y-141774870D01*
X124741169Y-141904634D01*
X124740483Y-142019443D01*
X124739576Y-142120230D01*
X124738417Y-142207930D01*
X124736978Y-142283479D01*
X124735229Y-142347811D01*
X124733140Y-142401861D01*
X124730683Y-142446563D01*
X124727827Y-142482852D01*
X124724543Y-142511663D01*
X124720802Y-142533931D01*
X124716574Y-142550590D01*
X124711829Y-142562575D01*
X124706539Y-142570821D01*
X124700673Y-142576262D01*
X124694202Y-142579834D01*
X124687097Y-142582470D01*
X124679328Y-142585106D01*
X124670866Y-142588677D01*
X124666508Y-142590345D01*
X124657995Y-142592311D01*
X124645294Y-142594111D01*
X124627485Y-142595755D01*
X124603649Y-142597247D01*
X124572866Y-142598597D01*
X124534217Y-142599811D01*
X124486782Y-142600897D01*
X124429643Y-142601861D01*
X124361879Y-142602711D01*
X124282571Y-142603453D01*
X124190799Y-142604097D01*
X124085644Y-142604647D01*
X123966187Y-142605113D01*
X123831508Y-142605500D01*
X123680688Y-142605816D01*
X123512806Y-142606069D01*
X123326945Y-142606266D01*
X123122183Y-142606413D01*
X122897602Y-142606518D01*
X122652282Y-142606589D01*
X122385304Y-142606632D01*
X122346921Y-142606637D01*
X122081522Y-142606680D01*
X121837650Y-142606725D01*
X121614383Y-142606748D01*
X121410796Y-142606724D01*
X121225967Y-142606630D01*
X121058973Y-142606443D01*
X120908890Y-142606139D01*
X120774796Y-142605694D01*
X120655766Y-142605085D01*
X120550879Y-142604289D01*
X120459210Y-142603280D01*
X120379837Y-142602037D01*
X120311837Y-142600535D01*
X120254286Y-142598751D01*
X120206262Y-142596661D01*
X120166840Y-142594242D01*
X120135099Y-142591470D01*
X120110114Y-142588321D01*
X120090964Y-142584772D01*
X120076723Y-142580798D01*
X120066471Y-142576378D01*
X120059282Y-142571486D01*
X120054235Y-142566100D01*
X120050405Y-142560196D01*
X120046871Y-142553749D01*
X120042708Y-142546737D01*
X120041625Y-142544887D01*
X120039413Y-142539380D01*
X120037386Y-142531068D01*
X120035538Y-142519009D01*
X120033861Y-142502263D01*
X120032345Y-142479887D01*
X120030983Y-142450940D01*
X120029767Y-142414480D01*
X120028689Y-142369567D01*
X120027740Y-142315257D01*
X120026912Y-142250610D01*
X120026197Y-142174684D01*
X120025587Y-142086538D01*
X120025542Y-142077693D01*
X120316978Y-142077693D01*
X120320860Y-142078965D01*
X120344120Y-142080991D01*
X120386474Y-142082826D01*
X120445732Y-142084427D01*
X120519707Y-142085749D01*
X120606210Y-142086748D01*
X120703052Y-142087380D01*
X120808045Y-142087600D01*
X121506251Y-142087600D01*
X122660690Y-142087600D01*
X122660056Y-142011400D01*
X122661174Y-141969360D01*
X122666904Y-141933534D01*
X122679490Y-141895972D01*
X122701168Y-141847777D01*
X122704389Y-141841097D01*
X122729788Y-141791559D01*
X122756596Y-141743569D01*
X122779517Y-141706666D01*
X122784085Y-141700034D01*
X122806116Y-141668793D01*
X122838293Y-141623854D01*
X122879057Y-141567347D01*
X122926845Y-141501404D01*
X122980098Y-141428157D01*
X123037255Y-141349736D01*
X123096755Y-141268272D01*
X123157037Y-141185898D01*
X123216540Y-141104744D01*
X123273705Y-141026942D01*
X123326970Y-140954623D01*
X123374774Y-140889918D01*
X123415557Y-140834959D01*
X123447758Y-140791876D01*
X123469816Y-140762802D01*
X123480171Y-140749867D01*
X123484644Y-140745551D01*
X123488836Y-140743512D01*
X123492243Y-140746126D01*
X123494925Y-140755186D01*
X123496941Y-140772485D01*
X123498348Y-140799814D01*
X123499205Y-140838965D01*
X123499570Y-140891733D01*
X123499503Y-140959907D01*
X123499060Y-141045282D01*
X123498302Y-141149649D01*
X123497285Y-141274800D01*
X123496908Y-141319500D01*
X123495769Y-141440595D01*
X123494572Y-141541888D01*
X123493236Y-141625462D01*
X123491677Y-141693404D01*
X123489815Y-141747799D01*
X123487566Y-141790732D01*
X123484848Y-141824289D01*
X123481579Y-141850555D01*
X123477678Y-141871616D01*
X123473061Y-141889557D01*
X123464792Y-141915970D01*
X123441183Y-141977972D01*
X123415285Y-142030773D01*
X123390135Y-142067845D01*
X123388939Y-142069275D01*
X123386768Y-142073624D01*
X123388928Y-142077226D01*
X123397244Y-142080151D01*
X123413540Y-142082469D01*
X123439641Y-142084251D01*
X123477371Y-142085567D01*
X123528556Y-142086486D01*
X123595020Y-142087078D01*
X123678587Y-142087415D01*
X123781083Y-142087565D01*
X123904332Y-142087600D01*
X124435896Y-142087600D01*
X124397123Y-142029983D01*
X124391032Y-142021093D01*
X124380576Y-142006269D01*
X124371179Y-141992622D01*
X124362783Y-141978965D01*
X124355333Y-141964111D01*
X124348773Y-141946870D01*
X124343046Y-141926055D01*
X124338095Y-141900480D01*
X124333866Y-141868955D01*
X124330301Y-141830293D01*
X124327344Y-141783307D01*
X124324940Y-141726808D01*
X124323031Y-141659609D01*
X124321562Y-141580522D01*
X124320476Y-141488360D01*
X124319718Y-141381934D01*
X124319230Y-141260057D01*
X124318958Y-141121541D01*
X124318843Y-140965199D01*
X124318831Y-140789842D01*
X124318865Y-140594282D01*
X124318889Y-140377333D01*
X124318880Y-140254713D01*
X124318843Y-140049647D01*
X124318827Y-139865316D01*
X124318888Y-139700534D01*
X124319084Y-139554116D01*
X124319470Y-139424874D01*
X124320105Y-139311622D01*
X124321044Y-139213175D01*
X124322345Y-139128344D01*
X124324064Y-139055944D01*
X124326259Y-138994789D01*
X124328985Y-138943692D01*
X124332301Y-138901467D01*
X124336262Y-138866927D01*
X124340925Y-138838886D01*
X124346347Y-138816158D01*
X124352586Y-138797556D01*
X124359697Y-138781893D01*
X124367738Y-138767984D01*
X124376766Y-138754641D01*
X124386836Y-138740679D01*
X124398007Y-138724911D01*
X124437797Y-138667067D01*
X123377914Y-138667067D01*
X123415911Y-138730166D01*
X123430593Y-138755205D01*
X123445131Y-138782786D01*
X123457227Y-138810900D01*
X123467132Y-138841751D01*
X123475094Y-138877544D01*
X123481361Y-138920483D01*
X123486182Y-138972774D01*
X123489806Y-139036619D01*
X123492481Y-139114225D01*
X123494457Y-139207794D01*
X123495982Y-139319533D01*
X123497304Y-139451645D01*
X123498213Y-139571634D01*
X123498620Y-139688263D01*
X123498367Y-139783731D01*
X123497457Y-139857756D01*
X123495893Y-139910055D01*
X123493679Y-139940349D01*
X123490820Y-139948356D01*
X123487761Y-139945058D01*
X123469606Y-139923608D01*
X123439875Y-139887089D01*
X123400239Y-139837642D01*
X123352371Y-139777407D01*
X123297943Y-139708527D01*
X123238627Y-139633143D01*
X123176095Y-139553396D01*
X123112021Y-139471428D01*
X123048075Y-139389380D01*
X122985931Y-139309394D01*
X122927261Y-139233611D01*
X122873737Y-139164173D01*
X122827030Y-139103221D01*
X122788814Y-139052896D01*
X122760761Y-139015340D01*
X122744543Y-138992695D01*
X122699235Y-138920412D01*
X122659261Y-138840663D01*
X122637730Y-138772388D01*
X122634427Y-138715044D01*
X122639716Y-138667067D01*
X121507956Y-138667317D01*
X121547467Y-138697922D01*
X121556848Y-138705289D01*
X121619783Y-138759638D01*
X121688597Y-138827459D01*
X121765196Y-138910716D01*
X121851488Y-139011378D01*
X121868652Y-139032047D01*
X121909433Y-139081609D01*
X121959188Y-139142526D01*
X122016555Y-139213098D01*
X122080169Y-139291624D01*
X122148669Y-139376404D01*
X122220690Y-139465737D01*
X122294870Y-139557922D01*
X122310117Y-139576902D01*
X122369846Y-139651260D01*
X122444253Y-139744048D01*
X122516731Y-139834588D01*
X122585914Y-139921178D01*
X122650441Y-140002118D01*
X122708947Y-140075706D01*
X122760070Y-140140244D01*
X122802447Y-140194029D01*
X122834715Y-140235362D01*
X122855510Y-140262542D01*
X122863469Y-140273868D01*
X122861711Y-140277971D01*
X122848830Y-140298534D01*
X122824485Y-140334761D01*
X122789847Y-140385024D01*
X122746086Y-140447692D01*
X122694375Y-140521136D01*
X122635884Y-140603727D01*
X122571784Y-140693836D01*
X122503246Y-140789831D01*
X122431443Y-140890085D01*
X122357544Y-140992968D01*
X122282721Y-141096850D01*
X122208145Y-141200101D01*
X122134987Y-141301092D01*
X122064419Y-141398194D01*
X121997611Y-141489777D01*
X121935735Y-141574211D01*
X121879961Y-141649867D01*
X121831462Y-141715116D01*
X121791407Y-141768328D01*
X121760969Y-141807873D01*
X121740544Y-141833226D01*
X121694499Y-141887495D01*
X121644212Y-141943975D01*
X121597415Y-141993869D01*
X121506251Y-142087600D01*
X120808045Y-142087600D01*
X120876956Y-142087549D01*
X120975207Y-142087291D01*
X121064630Y-142086837D01*
X121142933Y-142086210D01*
X121207823Y-142085435D01*
X121257011Y-142084535D01*
X121288204Y-142083534D01*
X121299111Y-142082457D01*
X121297922Y-142079237D01*
X121287776Y-142061652D01*
X121270640Y-142035358D01*
X121262140Y-142022891D01*
X121252929Y-142008822D01*
X121244833Y-141994551D01*
X121237785Y-141978679D01*
X121231717Y-141959809D01*
X121226561Y-141936541D01*
X121222251Y-141907478D01*
X121218719Y-141871221D01*
X121215897Y-141826370D01*
X121213718Y-141771528D01*
X121212114Y-141705297D01*
X121211019Y-141626277D01*
X121210365Y-141533071D01*
X121210084Y-141424279D01*
X121210109Y-141298503D01*
X121210372Y-141154345D01*
X121210806Y-140990407D01*
X121211345Y-140805289D01*
X121211879Y-140626432D01*
X121212405Y-140467574D01*
X121212950Y-140328516D01*
X121213545Y-140207865D01*
X121214219Y-140104228D01*
X121215003Y-140016211D01*
X121215926Y-139942423D01*
X121217019Y-139881469D01*
X121218312Y-139831957D01*
X121219835Y-139792493D01*
X121221619Y-139761684D01*
X121223692Y-139738138D01*
X121226086Y-139720460D01*
X121228830Y-139707259D01*
X121231956Y-139697140D01*
X121235492Y-139688711D01*
X121239391Y-139680575D01*
X121259038Y-139643744D01*
X121277825Y-139613591D01*
X121278872Y-139612108D01*
X121293202Y-139589859D01*
X121299111Y-139576902D01*
X121298104Y-139576449D01*
X121280905Y-139575003D01*
X121244256Y-139573680D01*
X121190562Y-139572516D01*
X121122230Y-139571547D01*
X121041664Y-139570811D01*
X120951270Y-139570342D01*
X120853453Y-139570178D01*
X120407795Y-139570178D01*
X120404720Y-140747045D01*
X120401645Y-141923911D01*
X120375007Y-141982822D01*
X120363085Y-142007383D01*
X120345846Y-142037634D01*
X120332674Y-142054760D01*
X120324676Y-142062791D01*
X120316978Y-142077693D01*
X120025542Y-142077693D01*
X120025074Y-141985229D01*
X120024650Y-141869817D01*
X120024306Y-141739360D01*
X120024034Y-141592916D01*
X120023827Y-141429544D01*
X120023676Y-141248301D01*
X120023572Y-141048248D01*
X120023508Y-140828441D01*
X120023476Y-140587939D01*
X120023467Y-140325802D01*
X120023467Y-138134231D01*
X120061849Y-138095849D01*
X120088955Y-138072111D01*
X120115853Y-138060311D01*
X120152160Y-138057467D01*
X120204089Y-138057467D01*
X120204089Y-138145406D01*
X120206027Y-138195302D01*
X120224799Y-138305723D01*
X120261817Y-138407187D01*
X120314969Y-138498352D01*
X120382146Y-138577873D01*
X120461238Y-138644405D01*
X120550134Y-138696606D01*
X120646725Y-138733130D01*
X120748900Y-138752634D01*
X120854550Y-138753773D01*
X120961564Y-138735205D01*
X121067832Y-138695584D01*
X121164819Y-138637716D01*
X121249893Y-138562884D01*
X121318615Y-138474815D01*
X121369518Y-138375816D01*
X121401135Y-138268193D01*
X121412000Y-138154254D01*
X121412000Y-138057467D01*
X123032353Y-138057467D01*
X123243497Y-138057480D01*
X123447620Y-138057530D01*
X123631286Y-138057630D01*
X123795591Y-138057792D01*
X123941629Y-138058029D01*
X124070494Y-138058353D01*
X124183283Y-138058775D01*
X124281088Y-138059309D01*
X124365004Y-138059967D01*
X124436127Y-138060761D01*
X124495550Y-138061704D01*
X124544368Y-138062808D01*
X124583677Y-138064084D01*
X124614569Y-138065547D01*
X124638141Y-138067207D01*
X124655486Y-138069078D01*
X124667699Y-138071172D01*
X124675875Y-138073500D01*
X124681108Y-138076076D01*
X124687104Y-138079645D01*
X124693879Y-138083178D01*
X124700078Y-138086688D01*
X124705726Y-138091118D01*
X124710847Y-138097408D01*
X124715469Y-138106501D01*
X124719615Y-138119339D01*
X124723313Y-138136862D01*
X124726587Y-138160013D01*
X124729463Y-138189734D01*
X124731967Y-138226965D01*
X124734124Y-138272649D01*
X124735960Y-138327727D01*
X124737500Y-138393141D01*
X124738770Y-138469833D01*
X124739795Y-138558744D01*
X124740601Y-138660817D01*
X124740634Y-138667067D01*
X124741214Y-138776992D01*
X124741659Y-138908211D01*
G36*
X117192861Y-141342563D02*
G01*
X117189232Y-141417402D01*
X117181622Y-141479601D01*
X117169288Y-141536184D01*
X117124913Y-141662276D01*
X117062000Y-141776879D01*
X116981838Y-141877768D01*
X116885340Y-141964124D01*
X116773422Y-142035132D01*
X116646997Y-142089976D01*
X116506978Y-142127838D01*
X116470749Y-142133551D01*
X116391755Y-142139513D01*
X116303441Y-142139846D01*
X116213675Y-142134859D01*
X116130322Y-142124866D01*
X116061251Y-142110178D01*
X115974787Y-142079949D01*
X115864886Y-142025257D01*
X115767556Y-141957743D01*
X115705467Y-141906756D01*
X115702205Y-142002822D01*
X115698943Y-142098889D01*
X115276050Y-142098889D01*
X115265143Y-142098886D01*
X115170656Y-142098580D01*
X115083931Y-142097816D01*
X115007437Y-142096651D01*
X114943643Y-142095142D01*
X114895018Y-142093347D01*
X114864033Y-142091321D01*
X114853156Y-142089122D01*
X114853178Y-142088663D01*
X114860214Y-142073110D01*
X114876034Y-142050271D01*
X114880334Y-142044838D01*
X114891377Y-142030806D01*
X114900911Y-142017386D01*
X114909061Y-142002922D01*
X114915952Y-141985756D01*
X114921711Y-141964234D01*
X114926462Y-141936698D01*
X114930331Y-141901492D01*
X114933444Y-141856960D01*
X114935925Y-141801446D01*
X114937900Y-141733293D01*
X114939494Y-141650845D01*
X114940834Y-141552446D01*
X114942044Y-141436439D01*
X114942496Y-141385662D01*
X115744978Y-141385662D01*
X115789648Y-141442173D01*
X115802385Y-141457412D01*
X115849204Y-141500044D01*
X115909855Y-141535872D01*
X115920497Y-141541050D01*
X115959276Y-141557945D01*
X115994292Y-141568109D01*
X116034322Y-141573525D01*
X116088141Y-141576178D01*
X116106248Y-141576583D01*
X116181611Y-141573740D01*
X116242343Y-141561820D01*
X116294052Y-141539237D01*
X116342346Y-141504411D01*
X116347403Y-141499998D01*
X116395872Y-141444360D01*
X116424059Y-141380533D01*
X116433352Y-141305482D01*
X116426120Y-141233893D01*
X116401396Y-141170845D01*
X116356849Y-141112958D01*
X116301919Y-141066008D01*
X116229494Y-141026161D01*
X116142940Y-140998463D01*
X116040270Y-140982296D01*
X115919494Y-140977042D01*
X115910607Y-140977057D01*
X115855260Y-140977855D01*
X115808336Y-140979688D01*
X115774553Y-140982311D01*
X115758628Y-140985474D01*
X115754543Y-140991941D01*
X115750172Y-141014075D01*
X115747204Y-141053188D01*
X115745514Y-141111139D01*
X115744978Y-141189786D01*
X115744978Y-141385662D01*
X114942496Y-141385662D01*
X114943249Y-141301168D01*
X114944575Y-141144978D01*
X114945828Y-141002212D01*
X114947251Y-140857142D01*
X114948776Y-140731227D01*
X114950533Y-140622636D01*
X114952651Y-140529534D01*
X114955260Y-140450091D01*
X114958490Y-140382473D01*
X114962469Y-140324849D01*
X114967328Y-140275385D01*
X114973197Y-140232250D01*
X114980204Y-140193610D01*
X114988480Y-140157634D01*
X114998154Y-140122489D01*
X115009356Y-140086342D01*
X115022216Y-140047361D01*
X115037690Y-140004291D01*
X115080594Y-139912071D01*
X115134335Y-139832299D01*
X115203176Y-139758165D01*
X115280785Y-139694605D01*
X115385361Y-139632925D01*
X115504844Y-139585402D01*
X115640108Y-139551767D01*
X115792026Y-139531752D01*
X115961472Y-139525089D01*
X116019490Y-139525487D01*
X116084998Y-139527535D01*
X116146293Y-139531904D01*
X116207697Y-139539235D01*
X116273532Y-139550169D01*
X116348120Y-139565347D01*
X116435784Y-139585409D01*
X116540845Y-139610997D01*
X116569406Y-139618020D01*
X116644654Y-139635976D01*
X116714988Y-139652020D01*
X116776167Y-139665228D01*
X116823954Y-139674674D01*
X116854111Y-139679431D01*
X116882383Y-139683110D01*
X116908660Y-139688387D01*
X116918659Y-139693142D01*
X116915552Y-139701981D01*
X116904794Y-139729272D01*
X116887464Y-139772106D01*
X116864726Y-139827625D01*
X116837747Y-139892972D01*
X116807690Y-139965289D01*
X116801093Y-139981079D01*
X116762507Y-140071684D01*
X116731368Y-140141417D01*
X116707517Y-140190605D01*
X116690798Y-140219574D01*
X116681054Y-140228652D01*
X116673366Y-140226605D01*
X116647015Y-140216960D01*
X116608582Y-140201390D01*
X116563422Y-140182015D01*
X116468893Y-140144014D01*
X116332080Y-140102980D01*
X116190889Y-140077812D01*
X116152914Y-140073811D01*
X116049659Y-140071647D01*
X115962552Y-140084822D01*
X115890729Y-140113956D01*
X115833331Y-140159666D01*
X115789496Y-140222572D01*
X115758362Y-140303292D01*
X115739070Y-140402445D01*
X115731650Y-140461424D01*
X115893536Y-140454645D01*
X116020095Y-140453013D01*
X116171551Y-140459394D01*
X116319996Y-140473977D01*
X116456178Y-140496082D01*
X116520845Y-140511021D01*
X116653090Y-140553941D01*
X116775362Y-140610540D01*
X116885285Y-140679217D01*
X116980483Y-140758370D01*
X117058580Y-140846396D01*
X117117199Y-140941693D01*
X117141195Y-140994064D01*
X117166832Y-141064790D01*
X117183078Y-141136012D01*
X117191422Y-141214912D01*
X117193290Y-141305482D01*
X117193355Y-141308667D01*
X117192861Y-141342563D01*
G37*
X117192861Y-141342563D02*
X117189232Y-141417402D01*
X117181622Y-141479601D01*
X117169288Y-141536184D01*
X117124913Y-141662276D01*
X117062000Y-141776879D01*
X116981838Y-141877768D01*
X116885340Y-141964124D01*
X116773422Y-142035132D01*
X116646997Y-142089976D01*
X116506978Y-142127838D01*
X116470749Y-142133551D01*
X116391755Y-142139513D01*
X116303441Y-142139846D01*
X116213675Y-142134859D01*
X116130322Y-142124866D01*
X116061251Y-142110178D01*
X115974787Y-142079949D01*
X115864886Y-142025257D01*
X115767556Y-141957743D01*
X115705467Y-141906756D01*
X115702205Y-142002822D01*
X115698943Y-142098889D01*
X115276050Y-142098889D01*
X115265143Y-142098886D01*
X115170656Y-142098580D01*
X115083931Y-142097816D01*
X115007437Y-142096651D01*
X114943643Y-142095142D01*
X114895018Y-142093347D01*
X114864033Y-142091321D01*
X114853156Y-142089122D01*
X114853178Y-142088663D01*
X114860214Y-142073110D01*
X114876034Y-142050271D01*
X114880334Y-142044838D01*
X114891377Y-142030806D01*
X114900911Y-142017386D01*
X114909061Y-142002922D01*
X114915952Y-141985756D01*
X114921711Y-141964234D01*
X114926462Y-141936698D01*
X114930331Y-141901492D01*
X114933444Y-141856960D01*
X114935925Y-141801446D01*
X114937900Y-141733293D01*
X114939494Y-141650845D01*
X114940834Y-141552446D01*
X114942044Y-141436439D01*
X114942496Y-141385662D01*
X115744978Y-141385662D01*
X115789648Y-141442173D01*
X115802385Y-141457412D01*
X115849204Y-141500044D01*
X115909855Y-141535872D01*
X115920497Y-141541050D01*
X115959276Y-141557945D01*
X115994292Y-141568109D01*
X116034322Y-141573525D01*
X116088141Y-141576178D01*
X116106248Y-141576583D01*
X116181611Y-141573740D01*
X116242343Y-141561820D01*
X116294052Y-141539237D01*
X116342346Y-141504411D01*
X116347403Y-141499998D01*
X116395872Y-141444360D01*
X116424059Y-141380533D01*
X116433352Y-141305482D01*
X116426120Y-141233893D01*
X116401396Y-141170845D01*
X116356849Y-141112958D01*
X116301919Y-141066008D01*
X116229494Y-141026161D01*
X116142940Y-140998463D01*
X116040270Y-140982296D01*
X115919494Y-140977042D01*
X115910607Y-140977057D01*
X115855260Y-140977855D01*
X115808336Y-140979688D01*
X115774553Y-140982311D01*
X115758628Y-140985474D01*
X115754543Y-140991941D01*
X115750172Y-141014075D01*
X115747204Y-141053188D01*
X115745514Y-141111139D01*
X115744978Y-141189786D01*
X115744978Y-141385662D01*
X114942496Y-141385662D01*
X114943249Y-141301168D01*
X114944575Y-141144978D01*
X114945828Y-141002212D01*
X114947251Y-140857142D01*
X114948776Y-140731227D01*
X114950533Y-140622636D01*
X114952651Y-140529534D01*
X114955260Y-140450091D01*
X114958490Y-140382473D01*
X114962469Y-140324849D01*
X114967328Y-140275385D01*
X114973197Y-140232250D01*
X114980204Y-140193610D01*
X114988480Y-140157634D01*
X114998154Y-140122489D01*
X115009356Y-140086342D01*
X115022216Y-140047361D01*
X115037690Y-140004291D01*
X115080594Y-139912071D01*
X115134335Y-139832299D01*
X115203176Y-139758165D01*
X115280785Y-139694605D01*
X115385361Y-139632925D01*
X115504844Y-139585402D01*
X115640108Y-139551767D01*
X115792026Y-139531752D01*
X115961472Y-139525089D01*
X116019490Y-139525487D01*
X116084998Y-139527535D01*
X116146293Y-139531904D01*
X116207697Y-139539235D01*
X116273532Y-139550169D01*
X116348120Y-139565347D01*
X116435784Y-139585409D01*
X116540845Y-139610997D01*
X116569406Y-139618020D01*
X116644654Y-139635976D01*
X116714988Y-139652020D01*
X116776167Y-139665228D01*
X116823954Y-139674674D01*
X116854111Y-139679431D01*
X116882383Y-139683110D01*
X116908660Y-139688387D01*
X116918659Y-139693142D01*
X116915552Y-139701981D01*
X116904794Y-139729272D01*
X116887464Y-139772106D01*
X116864726Y-139827625D01*
X116837747Y-139892972D01*
X116807690Y-139965289D01*
X116801093Y-139981079D01*
X116762507Y-140071684D01*
X116731368Y-140141417D01*
X116707517Y-140190605D01*
X116690798Y-140219574D01*
X116681054Y-140228652D01*
X116673366Y-140226605D01*
X116647015Y-140216960D01*
X116608582Y-140201390D01*
X116563422Y-140182015D01*
X116468893Y-140144014D01*
X116332080Y-140102980D01*
X116190889Y-140077812D01*
X116152914Y-140073811D01*
X116049659Y-140071647D01*
X115962552Y-140084822D01*
X115890729Y-140113956D01*
X115833331Y-140159666D01*
X115789496Y-140222572D01*
X115758362Y-140303292D01*
X115739070Y-140402445D01*
X115731650Y-140461424D01*
X115893536Y-140454645D01*
X116020095Y-140453013D01*
X116171551Y-140459394D01*
X116319996Y-140473977D01*
X116456178Y-140496082D01*
X116520845Y-140511021D01*
X116653090Y-140553941D01*
X116775362Y-140610540D01*
X116885285Y-140679217D01*
X116980483Y-140758370D01*
X117058580Y-140846396D01*
X117117199Y-140941693D01*
X117141195Y-140994064D01*
X117166832Y-141064790D01*
X117183078Y-141136012D01*
X117191422Y-141214912D01*
X117193290Y-141305482D01*
X117193355Y-141308667D01*
X117192861Y-141342563D01*
G36*
X114755302Y-142943678D02*
G01*
X114773263Y-142962189D01*
X114793863Y-142993271D01*
X114818695Y-143038956D01*
X114849350Y-143101278D01*
X114887420Y-143182271D01*
X114902054Y-143213654D01*
X114931803Y-143276838D01*
X114957897Y-143331444D01*
X114978892Y-143374490D01*
X114993339Y-143402993D01*
X114999791Y-143413970D01*
X115001150Y-143413389D01*
X115011142Y-143399442D01*
X115028433Y-143369904D01*
X115051030Y-143328287D01*
X115076938Y-143278103D01*
X115092911Y-143246614D01*
X115121861Y-143191261D01*
X115144349Y-143152244D01*
X115162565Y-143126766D01*
X115178696Y-143112031D01*
X115194930Y-143105242D01*
X115213457Y-143103600D01*
X115223960Y-143104075D01*
X115240076Y-143108282D01*
X115255390Y-143119146D01*
X115271988Y-143139419D01*
X115291957Y-143171854D01*
X115317383Y-143219204D01*
X115350352Y-143284222D01*
X115360085Y-143303477D01*
X115384543Y-143350146D01*
X115404778Y-143386309D01*
X115418911Y-143408697D01*
X115425060Y-143414045D01*
X115426427Y-143410773D01*
X115435802Y-143389864D01*
X115452662Y-143352925D01*
X115475579Y-143303074D01*
X115503120Y-143243426D01*
X115533855Y-143177098D01*
X115560570Y-143119877D01*
X115590193Y-143057888D01*
X115613264Y-143012149D01*
X115631243Y-142980108D01*
X115645590Y-142959214D01*
X115657766Y-142946918D01*
X115669232Y-142940666D01*
X115678642Y-142937774D01*
X115703747Y-142937625D01*
X115730890Y-142952968D01*
X115732190Y-142953953D01*
X115754274Y-142976588D01*
X115765323Y-142998813D01*
X115765369Y-142999453D01*
X115760828Y-143017115D01*
X115747964Y-143051681D01*
X115728205Y-143100026D01*
X115702981Y-143159025D01*
X115673719Y-143225555D01*
X115641850Y-143296491D01*
X115608801Y-143368707D01*
X115576001Y-143439080D01*
X115544880Y-143504485D01*
X115516865Y-143561797D01*
X115493386Y-143607892D01*
X115475872Y-143639646D01*
X115465751Y-143653933D01*
X115431343Y-143667302D01*
X115389646Y-143660941D01*
X115384281Y-143656244D01*
X115368452Y-143634093D01*
X115346250Y-143597332D01*
X115319833Y-143549615D01*
X115291360Y-143494593D01*
X115211586Y-143335350D01*
X115138399Y-143481942D01*
X115128703Y-143501232D01*
X115101725Y-143553580D01*
X115077696Y-143598370D01*
X115058932Y-143631354D01*
X115047746Y-143648289D01*
X115046600Y-143649532D01*
X115018479Y-143664819D01*
X114983417Y-143666502D01*
X114952376Y-143653933D01*
X114949950Y-143651084D01*
X114937690Y-143630459D01*
X114917952Y-143592908D01*
X114892048Y-143541080D01*
X114861285Y-143477623D01*
X114826975Y-143405185D01*
X114790425Y-143326416D01*
X114770185Y-143282293D01*
X114733412Y-143201565D01*
X114704955Y-143137887D01*
X114683931Y-143088952D01*
X114669454Y-143052457D01*
X114660639Y-143026095D01*
X114656604Y-143007561D01*
X114656462Y-142994552D01*
X114659330Y-142984761D01*
X114673987Y-142963878D01*
X114700590Y-142943577D01*
X114701345Y-142943235D01*
X114720935Y-142936234D01*
X114738390Y-142935704D01*
X114755302Y-142943678D01*
G37*
X114755302Y-142943678D02*
X114773263Y-142962189D01*
X114793863Y-142993271D01*
X114818695Y-143038956D01*
X114849350Y-143101278D01*
X114887420Y-143182271D01*
X114902054Y-143213654D01*
X114931803Y-143276838D01*
X114957897Y-143331444D01*
X114978892Y-143374490D01*
X114993339Y-143402993D01*
X114999791Y-143413970D01*
X115001150Y-143413389D01*
X115011142Y-143399442D01*
X115028433Y-143369904D01*
X115051030Y-143328287D01*
X115076938Y-143278103D01*
X115092911Y-143246614D01*
X115121861Y-143191261D01*
X115144349Y-143152244D01*
X115162565Y-143126766D01*
X115178696Y-143112031D01*
X115194930Y-143105242D01*
X115213457Y-143103600D01*
X115223960Y-143104075D01*
X115240076Y-143108282D01*
X115255390Y-143119146D01*
X115271988Y-143139419D01*
X115291957Y-143171854D01*
X115317383Y-143219204D01*
X115350352Y-143284222D01*
X115360085Y-143303477D01*
X115384543Y-143350146D01*
X115404778Y-143386309D01*
X115418911Y-143408697D01*
X115425060Y-143414045D01*
X115426427Y-143410773D01*
X115435802Y-143389864D01*
X115452662Y-143352925D01*
X115475579Y-143303074D01*
X115503120Y-143243426D01*
X115533855Y-143177098D01*
X115560570Y-143119877D01*
X115590193Y-143057888D01*
X115613264Y-143012149D01*
X115631243Y-142980108D01*
X115645590Y-142959214D01*
X115657766Y-142946918D01*
X115669232Y-142940666D01*
X115678642Y-142937774D01*
X115703747Y-142937625D01*
X115730890Y-142952968D01*
X115732190Y-142953953D01*
X115754274Y-142976588D01*
X115765323Y-142998813D01*
X115765369Y-142999453D01*
X115760828Y-143017115D01*
X115747964Y-143051681D01*
X115728205Y-143100026D01*
X115702981Y-143159025D01*
X115673719Y-143225555D01*
X115641850Y-143296491D01*
X115608801Y-143368707D01*
X115576001Y-143439080D01*
X115544880Y-143504485D01*
X115516865Y-143561797D01*
X115493386Y-143607892D01*
X115475872Y-143639646D01*
X115465751Y-143653933D01*
X115431343Y-143667302D01*
X115389646Y-143660941D01*
X115384281Y-143656244D01*
X115368452Y-143634093D01*
X115346250Y-143597332D01*
X115319833Y-143549615D01*
X115291360Y-143494593D01*
X115211586Y-143335350D01*
X115138399Y-143481942D01*
X115128703Y-143501232D01*
X115101725Y-143553580D01*
X115077696Y-143598370D01*
X115058932Y-143631354D01*
X115047746Y-143648289D01*
X115046600Y-143649532D01*
X115018479Y-143664819D01*
X114983417Y-143666502D01*
X114952376Y-143653933D01*
X114949950Y-143651084D01*
X114937690Y-143630459D01*
X114917952Y-143592908D01*
X114892048Y-143541080D01*
X114861285Y-143477623D01*
X114826975Y-143405185D01*
X114790425Y-143326416D01*
X114770185Y-143282293D01*
X114733412Y-143201565D01*
X114704955Y-143137887D01*
X114683931Y-143088952D01*
X114669454Y-143052457D01*
X114660639Y-143026095D01*
X114656604Y-143007561D01*
X114656462Y-142994552D01*
X114659330Y-142984761D01*
X114673987Y-142963878D01*
X114700590Y-142943577D01*
X114701345Y-142943235D01*
X114720935Y-142936234D01*
X114738390Y-142935704D01*
X114755302Y-142943678D01*
G36*
X118454311Y-138627233D02*
G01*
X118549868Y-138644723D01*
X118714158Y-138689764D01*
X118868189Y-138752856D01*
X119014109Y-138835115D01*
X119154066Y-138937657D01*
X119290208Y-139061599D01*
X119334073Y-139106861D01*
X119446358Y-139239065D01*
X119539572Y-139377032D01*
X119616319Y-139524950D01*
X119679203Y-139687003D01*
X119683020Y-139698591D01*
X119733107Y-139884592D01*
X119766499Y-140080721D01*
X119783184Y-140282768D01*
X119783151Y-140486525D01*
X119766391Y-140687781D01*
X119732892Y-140882328D01*
X119682644Y-141065956D01*
X119638790Y-141183253D01*
X119560948Y-141346151D01*
X119467428Y-141500066D01*
X119360422Y-141641871D01*
X119242119Y-141768439D01*
X119114711Y-141876641D01*
X119037206Y-141929320D01*
X118910325Y-141998950D01*
X118772843Y-142057668D01*
X118631316Y-142102787D01*
X118492302Y-142131622D01*
X118478197Y-142133306D01*
X118434753Y-142136634D01*
X118377323Y-142139475D01*
X118311722Y-142141573D01*
X118243767Y-142142668D01*
X118116978Y-142140340D01*
X117969273Y-142127336D01*
X117831379Y-142102333D01*
X117697614Y-142064518D01*
X117674162Y-142056089D01*
X117626212Y-142036608D01*
X117569740Y-142011673D01*
X117507979Y-141982922D01*
X117444163Y-141951990D01*
X117381526Y-141920515D01*
X117323303Y-141890134D01*
X117272727Y-141862483D01*
X117233033Y-141839199D01*
X117207454Y-141821918D01*
X117199225Y-141812279D01*
X117200676Y-141809184D01*
X117211850Y-141789279D01*
X117232734Y-141753620D01*
X117261865Y-141704659D01*
X117297781Y-141644846D01*
X117339020Y-141576633D01*
X117384117Y-141502471D01*
X117565385Y-141205208D01*
X117611915Y-141249739D01*
X117703323Y-141328065D01*
X117816934Y-141402639D01*
X117934722Y-141456674D01*
X118055159Y-141489490D01*
X118176717Y-141500411D01*
X118218185Y-141499068D01*
X118335680Y-141480812D01*
X118445689Y-141441817D01*
X118547030Y-141382870D01*
X118638521Y-141304757D01*
X118718980Y-141208264D01*
X118787227Y-141094178D01*
X118803508Y-141059924D01*
X118849582Y-140936440D01*
X118884706Y-140798118D01*
X118908797Y-140648761D01*
X118921773Y-140492173D01*
X118923549Y-140332156D01*
X118914043Y-140172514D01*
X118893172Y-140017050D01*
X118860852Y-139869566D01*
X118816999Y-139733867D01*
X118779582Y-139647276D01*
X118714785Y-139533888D01*
X118639372Y-139440270D01*
X118553018Y-139366159D01*
X118455395Y-139311294D01*
X118346177Y-139275412D01*
X118225039Y-139258251D01*
X118155638Y-139257080D01*
X118032768Y-139271341D01*
X117917264Y-139306441D01*
X117810553Y-139361882D01*
X117714064Y-139437164D01*
X117698320Y-139451640D01*
X117667750Y-139478162D01*
X117645409Y-139495338D01*
X117635291Y-139499987D01*
X117633306Y-139497797D01*
X117618841Y-139478921D01*
X117595000Y-139445597D01*
X117563629Y-139400580D01*
X117526574Y-139346625D01*
X117485683Y-139286485D01*
X117442802Y-139222918D01*
X117399778Y-139158676D01*
X117358457Y-139096515D01*
X117320686Y-139039191D01*
X117288312Y-138989457D01*
X117263182Y-138950068D01*
X117247142Y-138923780D01*
X117242039Y-138913347D01*
X117246650Y-138909141D01*
X117265867Y-138904133D01*
X117275438Y-138901586D01*
X117303409Y-138890449D01*
X117345048Y-138872002D01*
X117396595Y-138847925D01*
X117454290Y-138819899D01*
X117465557Y-138814354D01*
X117643287Y-138735089D01*
X117813090Y-138675585D01*
X117977030Y-138635445D01*
X118137171Y-138614271D01*
X118295577Y-138611666D01*
X118454311Y-138627233D01*
G37*
X118454311Y-138627233D02*
X118549868Y-138644723D01*
X118714158Y-138689764D01*
X118868189Y-138752856D01*
X119014109Y-138835115D01*
X119154066Y-138937657D01*
X119290208Y-139061599D01*
X119334073Y-139106861D01*
X119446358Y-139239065D01*
X119539572Y-139377032D01*
X119616319Y-139524950D01*
X119679203Y-139687003D01*
X119683020Y-139698591D01*
X119733107Y-139884592D01*
X119766499Y-140080721D01*
X119783184Y-140282768D01*
X119783151Y-140486525D01*
X119766391Y-140687781D01*
X119732892Y-140882328D01*
X119682644Y-141065956D01*
X119638790Y-141183253D01*
X119560948Y-141346151D01*
X119467428Y-141500066D01*
X119360422Y-141641871D01*
X119242119Y-141768439D01*
X119114711Y-141876641D01*
X119037206Y-141929320D01*
X118910325Y-141998950D01*
X118772843Y-142057668D01*
X118631316Y-142102787D01*
X118492302Y-142131622D01*
X118478197Y-142133306D01*
X118434753Y-142136634D01*
X118377323Y-142139475D01*
X118311722Y-142141573D01*
X118243767Y-142142668D01*
X118116978Y-142140340D01*
X117969273Y-142127336D01*
X117831379Y-142102333D01*
X117697614Y-142064518D01*
X117674162Y-142056089D01*
X117626212Y-142036608D01*
X117569740Y-142011673D01*
X117507979Y-141982922D01*
X117444163Y-141951990D01*
X117381526Y-141920515D01*
X117323303Y-141890134D01*
X117272727Y-141862483D01*
X117233033Y-141839199D01*
X117207454Y-141821918D01*
X117199225Y-141812279D01*
X117200676Y-141809184D01*
X117211850Y-141789279D01*
X117232734Y-141753620D01*
X117261865Y-141704659D01*
X117297781Y-141644846D01*
X117339020Y-141576633D01*
X117384117Y-141502471D01*
X117565385Y-141205208D01*
X117611915Y-141249739D01*
X117703323Y-141328065D01*
X117816934Y-141402639D01*
X117934722Y-141456674D01*
X118055159Y-141489490D01*
X118176717Y-141500411D01*
X118218185Y-141499068D01*
X118335680Y-141480812D01*
X118445689Y-141441817D01*
X118547030Y-141382870D01*
X118638521Y-141304757D01*
X118718980Y-141208264D01*
X118787227Y-141094178D01*
X118803508Y-141059924D01*
X118849582Y-140936440D01*
X118884706Y-140798118D01*
X118908797Y-140648761D01*
X118921773Y-140492173D01*
X118923549Y-140332156D01*
X118914043Y-140172514D01*
X118893172Y-140017050D01*
X118860852Y-139869566D01*
X118816999Y-139733867D01*
X118779582Y-139647276D01*
X118714785Y-139533888D01*
X118639372Y-139440270D01*
X118553018Y-139366159D01*
X118455395Y-139311294D01*
X118346177Y-139275412D01*
X118225039Y-139258251D01*
X118155638Y-139257080D01*
X118032768Y-139271341D01*
X117917264Y-139306441D01*
X117810553Y-139361882D01*
X117714064Y-139437164D01*
X117698320Y-139451640D01*
X117667750Y-139478162D01*
X117645409Y-139495338D01*
X117635291Y-139499987D01*
X117633306Y-139497797D01*
X117618841Y-139478921D01*
X117595000Y-139445597D01*
X117563629Y-139400580D01*
X117526574Y-139346625D01*
X117485683Y-139286485D01*
X117442802Y-139222918D01*
X117399778Y-139158676D01*
X117358457Y-139096515D01*
X117320686Y-139039191D01*
X117288312Y-138989457D01*
X117263182Y-138950068D01*
X117247142Y-138923780D01*
X117242039Y-138913347D01*
X117246650Y-138909141D01*
X117265867Y-138904133D01*
X117275438Y-138901586D01*
X117303409Y-138890449D01*
X117345048Y-138872002D01*
X117396595Y-138847925D01*
X117454290Y-138819899D01*
X117465557Y-138814354D01*
X117643287Y-138735089D01*
X117813090Y-138675585D01*
X117977030Y-138635445D01*
X118137171Y-138614271D01*
X118295577Y-138611666D01*
X118454311Y-138627233D01*
G36*
X119797493Y-142933092D02*
G01*
X119808901Y-142939229D01*
X119819450Y-142949891D01*
X119830736Y-142964011D01*
X119835189Y-142969972D01*
X119841188Y-142980468D01*
X119845767Y-142994293D01*
X119849119Y-143014198D01*
X119851433Y-143042932D01*
X119852901Y-143083245D01*
X119853713Y-143137887D01*
X119854060Y-143209607D01*
X119854134Y-143301156D01*
X119854111Y-143359686D01*
X119853892Y-143438773D01*
X119853283Y-143499716D01*
X119852092Y-143545262D01*
X119850129Y-143578163D01*
X119847203Y-143601168D01*
X119843123Y-143617026D01*
X119837697Y-143628486D01*
X119830736Y-143638300D01*
X119800308Y-143662693D01*
X119765365Y-143665572D01*
X119728384Y-143646482D01*
X119724200Y-143643007D01*
X119716024Y-143634479D01*
X119709964Y-143622928D01*
X119705581Y-143605096D01*
X119702439Y-143577724D01*
X119700102Y-143537554D01*
X119698131Y-143481328D01*
X119696089Y-143405789D01*
X119690445Y-143186658D01*
X119425156Y-143427299D01*
X119351322Y-143494075D01*
X119286142Y-143552191D01*
X119233948Y-143597149D01*
X119192873Y-143630071D01*
X119161055Y-143652079D01*
X119136626Y-143664294D01*
X119117724Y-143667839D01*
X119102483Y-143663836D01*
X119089039Y-143653407D01*
X119075527Y-143637674D01*
X119069282Y-143629191D01*
X119063650Y-143618613D01*
X119059439Y-143604455D01*
X119056487Y-143584003D01*
X119054632Y-143554542D01*
X119053713Y-143513361D01*
X119053568Y-143457744D01*
X119054035Y-143384979D01*
X119054952Y-143292351D01*
X119058267Y-142977399D01*
X119084918Y-142955833D01*
X119110983Y-142939641D01*
X119143841Y-142936870D01*
X119178372Y-142955823D01*
X119182684Y-142959408D01*
X119190816Y-142967937D01*
X119196845Y-142979529D01*
X119201206Y-142997435D01*
X119204334Y-143024906D01*
X119206663Y-143065194D01*
X119208629Y-143121551D01*
X119210667Y-143197229D01*
X119216311Y-143417078D01*
X119396934Y-143253284D01*
X119483672Y-143174651D01*
X119559443Y-143106258D01*
X119621580Y-143050908D01*
X119671678Y-143007538D01*
X119711335Y-142975081D01*
X119742148Y-142952473D01*
X119765714Y-142938648D01*
X119783630Y-142932543D01*
X119797493Y-142933092D01*
G37*
X119797493Y-142933092D02*
X119808901Y-142939229D01*
X119819450Y-142949891D01*
X119830736Y-142964011D01*
X119835189Y-142969972D01*
X119841188Y-142980468D01*
X119845767Y-142994293D01*
X119849119Y-143014198D01*
X119851433Y-143042932D01*
X119852901Y-143083245D01*
X119853713Y-143137887D01*
X119854060Y-143209607D01*
X119854134Y-143301156D01*
X119854111Y-143359686D01*
X119853892Y-143438773D01*
X119853283Y-143499716D01*
X119852092Y-143545262D01*
X119850129Y-143578163D01*
X119847203Y-143601168D01*
X119843123Y-143617026D01*
X119837697Y-143628486D01*
X119830736Y-143638300D01*
X119800308Y-143662693D01*
X119765365Y-143665572D01*
X119728384Y-143646482D01*
X119724200Y-143643007D01*
X119716024Y-143634479D01*
X119709964Y-143622928D01*
X119705581Y-143605096D01*
X119702439Y-143577724D01*
X119700102Y-143537554D01*
X119698131Y-143481328D01*
X119696089Y-143405789D01*
X119690445Y-143186658D01*
X119425156Y-143427299D01*
X119351322Y-143494075D01*
X119286142Y-143552191D01*
X119233948Y-143597149D01*
X119192873Y-143630071D01*
X119161055Y-143652079D01*
X119136626Y-143664294D01*
X119117724Y-143667839D01*
X119102483Y-143663836D01*
X119089039Y-143653407D01*
X119075527Y-143637674D01*
X119069282Y-143629191D01*
X119063650Y-143618613D01*
X119059439Y-143604455D01*
X119056487Y-143584003D01*
X119054632Y-143554542D01*
X119053713Y-143513361D01*
X119053568Y-143457744D01*
X119054035Y-143384979D01*
X119054952Y-143292351D01*
X119058267Y-142977399D01*
X119084918Y-142955833D01*
X119110983Y-142939641D01*
X119143841Y-142936870D01*
X119178372Y-142955823D01*
X119182684Y-142959408D01*
X119190816Y-142967937D01*
X119196845Y-142979529D01*
X119201206Y-142997435D01*
X119204334Y-143024906D01*
X119206663Y-143065194D01*
X119208629Y-143121551D01*
X119210667Y-143197229D01*
X119216311Y-143417078D01*
X119396934Y-143253284D01*
X119483672Y-143174651D01*
X119559443Y-143106258D01*
X119621580Y-143050908D01*
X119671678Y-143007538D01*
X119711335Y-142975081D01*
X119742148Y-142952473D01*
X119765714Y-142938648D01*
X119783630Y-142932543D01*
X119797493Y-142933092D01*
D12*
%TO.C,TP15*%
X154624000Y-119735600D02*
G75*
G03*
X154624000Y-119735600I-700000J0D01*
G01*
%TO.C,TP14*%
X167679600Y-121056400D02*
G75*
G03*
X167679600Y-121056400I-700000J0D01*
G01*
%TO.C,TP13*%
X175299600Y-117602000D02*
G75*
G03*
X175299600Y-117602000I-700000J0D01*
G01*
%TO.C,TP12*%
X175350400Y-113792000D02*
G75*
G03*
X175350400Y-113792000I-700000J0D01*
G01*
%TO.C,TP11*%
X155487600Y-124307600D02*
G75*
G03*
X155487600Y-124307600I-700000J0D01*
G01*
%TO.C,TP10*%
X152846000Y-125628400D02*
G75*
G03*
X152846000Y-125628400I-700000J0D01*
G01*
%TO.C,TP9*%
X170219600Y-109016800D02*
G75*
G03*
X170219600Y-109016800I-700000J0D01*
G01*
%TO.C,TP8*%
X167628800Y-117703600D02*
G75*
G03*
X167628800Y-117703600I-700000J0D01*
G01*
%TO.C,TP7*%
X171489600Y-126136400D02*
G75*
G03*
X171489600Y-126136400I-700000J0D01*
G01*
%TO.C,TP6*%
X170270400Y-114706400D02*
G75*
G03*
X170270400Y-114706400I-700000J0D01*
G01*
%TO.C,TP5*%
X143194000Y-131318000D02*
G75*
G03*
X143194000Y-131318000I-700000J0D01*
G01*
%TO.C,TP4*%
X172759600Y-106426000D02*
G75*
G03*
X172759600Y-106426000I-700000J0D01*
G01*
%TO.C,TP3*%
X152439600Y-134366000D02*
G75*
G03*
X152439600Y-134366000I-700000J0D01*
G01*
%TO.C,TP2*%
X173928000Y-140614400D02*
G75*
G03*
X173928000Y-140614400I-700000J0D01*
G01*
%TO.C,TP1*%
X165596800Y-109270800D02*
G75*
G03*
X165596800Y-109270800I-700000J0D01*
G01*
%TD*%
M02*
