<svg height='300px' width='300px'  fill="#000000" xmlns="http://www.w3.org/2000/svg" xmlns:xlink="http://www.w3.org/1999/xlink" version="1.0" x="0px" y="0px" viewBox="0 0 100 100" enable-background="new 0 0 100 100" xml:space="preserve"><path d="M77.9460297,62.2695236C84.0310745,63.0518456,90.0363846,63.7469292,96,64.4005585  c-5.2520752-2.5022469-10.6786957-4.9798622-16.2800522-7.4148407c2.1146088-0.1145668,4.1962509-0.2544441,6.2945175-0.3816833  c-4.5424957-1.7957726-9.1340561-3.5766144-13.8188629-5.3231277c5.7892151-0.7587395,11.3898315-1.6228256,16.794014-2.56884  c-3.3319321-0.6603508-6.6810989-1.3110428-10.0602036-1.9442329c1.4996414-0.4602013,2.9827881-0.9266548,4.4616165-1.3945618  c-5.4689865-0.0513535-11.1044083,0.0065536-16.8865204,0.1901169c0.1937943-0.1061592,0.3839493-0.2129211,0.5772018-0.3191795  c-1.2425232,0.5747719-2.4999161,1.14674-3.7813606,1.7129288c2.3413887,0.1570396,4.6533852,0.3360405,6.9496346,0.5259514  c-3.6160049,1.0104141-7.3785858,1.970993-11.272522,2.8628159c4.3372154,1.1557274,8.4497452,2.4072723,12.2790146,3.720005  c-2.4731522,0.0181084-4.9701614,0.0174675-7.4932556-0.0063858c-2.045826-0.2765427-4.1334114-0.5910568-6.2583008-0.9470634  c2.1321869,1.5722771,4.1759186,3.1481705,6.1288338,4.7162247c-0.6645775-0.2506943-1.3303032-0.503109-2.0002174-0.762455  c1.0362282,1.1852226,2.0567093,2.3682861,3.0682678,3.5498924c-2.2121887-1.1908989-4.471817-2.4669037-6.7694855-3.8342361  c1.1904945,1.9556847,2.3378067,3.897316,3.4631615,5.8303986c-0.7910042-0.5487595-1.5794411-1.0882225-2.3726768-1.6461716  c1.3251648,2.4630547,2.5753937,4.8919487,3.7558861,7.2802696c-1.9602127-1.9248734-3.9236679-3.8764725-5.8911095-5.8820229  c0.3428612,1.0646744,0.6719398,2.1195793,0.9947357,3.1696968c-0.7557335-1.07164-1.5113983-2.1559067-2.2657776-3.2632866  c0.037571,0.3249931,0.0687218,0.644104,0.1054802,0.9683838c-0.4451675-0.6316338-0.8909416-1.2569504-1.3353004-1.8966255  c0.2929955,1.9717674,0.5565262,3.915863,0.7950592,5.8327942c-1.2321167-2.6539764-2.4480209-5.3957367-3.6371613-8.2208099  c-0.1177788,1.6389046-0.2547493,3.2518616-0.4066505,4.8402901c-0.0360184-0.1433868-0.0731163-0.2840729-0.1089287-0.4278679  c-0.4623299,1.896965-0.9337158,3.7769318-1.4131432,5.639473c-0.3117142-1.6762085-0.6172104-3.3637619-0.9137192-5.0661545  c-0.1160202,0.3863144-0.234272,0.7663422-0.3514442,1.1496429c-0.0550041-2.2724609-0.0759506-4.5938835-0.053112-6.96521  c-1.0907555,2.2235107-2.1990814,4.3761368-3.3167305,6.4511871c0.3844185-2.1281624,0.8018837-4.2872086,1.2567139-6.4751396  c-0.763504,0.9536858-1.5274086,1.8848-2.2911148,2.8051071c0.2580605-0.6809311,0.5212555-1.3651009,0.7910042-2.0530243  c-1.8255386,1.595253-3.6439171,3.1420555-5.4564857,4.6607513c0.6753197-1.1665077,1.3633461-2.3387909,2.0736694-3.5198555  c-0.1906242,0.1158867-0.3804359,0.2291718-0.5709229,0.3446198c1.0439301-1.5752182,2.1260376-3.1639175,3.2511864-4.7633247  c-2.7368927,1.5357552-5.4333076,2.9630547-8.0649185,4.2761612c1.2546196-1.2794876,2.5238342-2.5607986,3.8232536-3.8447113  c-1.106163,0.3660393-2.2026634,0.7175522-3.2942314,1.0621719c1.3597641-0.9721336,2.7546654-1.9446373,4.1911888-2.9141998  c-1.3424644,0.1548424-2.6741829,0.2976227-4.0004311,0.4350967c0.0862923-0.0596313,0.171299-0.1194,0.2577896-0.178997  c-1.2979317,0.1822433-2.5803909,0.3490791-3.8536606,0.5074692c1.3548279-0.6289978,2.7295227-1.2542839,4.1304398-1.8732147  c-2.3419304-0.1570358-4.6544685-0.336071-6.9511909-0.5260162c3.5158005-0.9824715,7.1692467-1.9179802,10.9487839-2.7884178  c-1.5343018-0.381649-3.0403595-0.7772179-4.5233078-1.1821823c-2.8172379-0.8410416-5.5575733-1.7113419-8.2051353-2.6068115  c2.7470284-0.024971,5.5258827-0.0251389,8.3350105,0.0018234c-0.2225838-0.1140976-0.4402351-0.2290726-0.6615372-0.3434372  c2.1066437,0.3187714,4.2490997,0.6732941,6.4285851,1.0737953c-2.1445503-1.5575485-4.2027435-3.1209412-6.1737022-4.6788597  c0.8196564,0.3073196,1.6432991,0.6208229,2.4712639,0.9414215c-1.1504898-1.3159447-2.2833443-2.6295547-3.403492-3.9409332  c2.2882767,1.2557335,4.6265564,2.6058998,6.998085,4.0461082c-1.1509666-1.8937874-2.2609787-3.774128-3.3509254-5.6466675  c0.7888412,0.5473709,1.5752525,1.085453,2.3664589,1.6420135c-1.3254356-2.4637642-2.5760689-4.8933678-3.7568321-7.2822952  c1.9604149,1.9250069,3.9239388,3.8767052,5.8915863,5.8823929c-0.3429337-1.0644341-0.6719437-2.1191063-0.9946709-3.1689835  c0.7559357,1.0719032,1.5116692,2.1565437,2.2661819,3.2642632c-0.037571-0.3255997-0.0687866-0.6453171-0.1056824-0.9702415  c0.4450989,0.6313629,0.8906059,1.2563438,1.3349648,1.8957138c-0.2928619-1.9713593-0.5562592-3.9150505-0.7947884-5.831646  c1.2769165,2.7502708,2.535862,5.5967979,3.7665596,8.5300903c0.1630554-1.8417931,0.350769-3.6450996,0.5568657-5.4137115  c0.4078674-1.6620483,0.8212776-3.3132515,1.2423897-4.9486103c0.311779,1.6765766,0.6173439,3.364439,0.9138527,5.0672016  c0.0379753-0.1267662,0.0770988-0.2507629,0.1152763-0.3771591c0.0853462,2.1639786,0.1356888,4.3836708,0.1494713,6.6492767  c1.1103516-2.2226639,2.2371941-4.3687019,3.3715324-6.4362869c-0.3801613,2.0817413-0.7933693,4.1939926-1.2405624,6.331955  c0.6322098-0.7633324,1.2637405-1.5104141,1.8947334-2.2498283c-0.1628494,0.4360123-0.3160362,0.8656731-0.4836845,1.3047256  c1.8798714-1.6451569,3.7527122-3.239769,5.6190643-4.8037682c-0.6770782,1.1695442-1.366993,2.3449364-2.0793419,3.5291138  c0.0300026-0.0182457,0.0597343-0.035984,0.0897369-0.0541954c-1.0062904,1.5737648-2.0515022,3.1637154-3.1427994,4.768158  c2.7476349-1.5157204,5.4493866-2.9192696,8.0822144-4.2073059c-1.139473,1.158432-2.2923279,2.3184509-3.4684982,3.4802933  c0.95541-0.3162079,1.9044685-0.6228523,2.8491325-0.9230766c-1.2817192,0.9316902-2.5973549,1.8645287-3.9508324,2.7958145  c1.4142914-0.1641006,2.8177757-0.3162384,4.2140923-0.4610481c-0.0885849,0.0611534-0.1758232,0.1224442-0.2644081,0.1835976  c1.2713776-0.1785622,2.5271454-0.3416138,3.7746735-0.4971313c3.8257523-2.1067467,7.5519028-4.2301445,11.1669006-6.3616867  c4.360733-3.3682251,8.6452332-6.7408714,12.8636551-10.1136551c-8.3429108,2.9219379-17.0892334,6.3315506-26.0914536,10.2090645  c5.4752045-6.7912102,10.6321335-13.5229244,15.4703293-20.1421299c-4.1958466,2.7767582-8.404068,5.5935879-12.6330261,8.4876881  c1.5672073-2.9549484,3.0809021-5.8855362,4.5556107-8.7955837c-1.9697418,1.9916-3.9438095,4.0099602-5.9236832,6.0757885  c0.0695267-0.2246456,0.1362915-0.4476013,0.2055511-0.6721458c-2.1997528,2.1349907-4.4019432,4.292345-6.6064339,6.4847717  c1.0636597-3.4264698,2.0602226-6.8043556,3.0001564-10.1344662c-1.2147522,1.7913151-2.428627,3.5997601-3.6404724,5.4331036  c0.4478722-3.5823593,0.8583755-7.1300869,1.2479973-10.6570377c-2.7764893,5.7670822-5.5150032,11.8254013-8.180809,18.1381321  c-0.2956276-4.2270355-0.6507225-8.3669357-1.0507507-12.4264603c-0.0268288,0.0717964-0.0540581,0.1425457-0.0806808,0.2142391  c-0.3780708-2.9939365-0.7826271-5.9424658-1.2012405-8.8637638c-1.0886612,5.2049122-2.1469803,10.4709435-3.1492195,15.8332996  c-0.3055611-0.9797688-0.6232185-1.9238586-0.9329071-2.8919373c-0.083519,2.121069-0.1575775,4.2560596-0.2106895,6.4196987  c-2.1216431-4.2718372-4.2666664-8.4538689-6.4272308-12.538765c0.8476295,5.079565,1.8140526,10.2838345,2.9123764,15.5970993  c-3.0848923-3.8680573-6.1703224-7.6080627-9.2405472-11.2051525c0.105278,0.2684994,0.2056885,0.5340252,0.311779,0.8028297  c-2.8093987-2.520525-5.6142006-5.0032425-8.4142723-7.4582214c1.4872055,3.3744392,3.0090065,6.76577,4.5550671,10.1681175  c2.0359612,3.3126087,4.1505108,6.6599522,6.3592548,10.039896c-6.0745049-3.3694038-12.0804214-6.5516319-17.9871426-9.5444889  c2.9988708,2.9656601,6.0769367,5.9443264,9.242981,8.9304905c-1.626133-0.496521-3.2348328-0.9667244-4.8515072-1.4484177  c0.5022678,0.5075722,0.9878445,1.0138588,1.4922733,1.5216675c-2.7910862-0.8808746-5.5531807-1.7204323-8.2982492-2.5380249  c1.9721727,1.3651009,3.9616442,2.7298317,5.9881449,4.0926323C15.7197371,36.9682236,9.7140894,36.2730713,3.75,35.619442  c5.2534971,2.5028877,10.681736,4.9812126,16.2844486,7.4170036c-2.1093464,0.1142654-4.1854458,0.2537346-6.2783709,0.3805351  c4.3999872,1.7396889,8.8448439,3.4656601,13.3782206,5.1594009c-6.0143642,0.733532-11.8502016,1.5767365-17.472374,2.5142059  c3.6935167,0.7362709,7.4119005,1.4591293,11.1635294,2.1621857c-1.8535156,0.5687599-3.6901379,1.1438026-5.5115566,1.7241135  c5.4862843,0.0094948,11.1295395-0.0893288,16.9130745-0.3148537c-4.28018,2.2577362-8.4345417,4.5441895-12.4793682,6.8438187  c0.5342293-0.1028442,1.0629845-0.1997108,1.5989704-0.3046532c-4.8556309,3.7492638-9.6226044,7.5042763-14.3014641,11.258709  c5.7520466-2.0410995,11.6289673-4.2506561,17.5983295-6.6142426c3.0911732-1.3089828,6.209446-2.6653328,9.3573132-4.0836449  c-5.3078918,6.6000175-10.311573,13.1412773-15.0154362,19.5770531c4.1967297-2.7773666,8.4058247-5.5948029,12.6356659-8.4896469  c-1.567009,2.9545746-3.0804977,5.8847275-4.5549316,8.7943649c1.9702797-1.9921036,3.9450207-4.0110397,5.9254398-6.0774384  c-0.0677109,0.2190704-0.1329842,0.4364853-0.2004204,0.6553879c2.0896111-2.0278549,4.1812553-4.0720596,6.2750587-6.1516037  c-1.1544113,3.604248-2.2334099,7.1573486-3.2525406,10.6622696c1.406929-2.0660629,2.8130455-4.1505432,4.2161255-6.2731323  c-0.4944992,3.9582977-0.9404755,7.8712616-1.3641586,11.7615814c2.740406-5.8083725,5.4377022-11.900238,8.0578957-18.232872  c0.230896,4.2640305,0.5209846,8.4516449,0.8585091,12.564476c0.1708221-0.4554367,0.343338-0.9061813,0.5138206-1.3626633  c0.3772583,2.9859314,0.7808037,5.926651,1.1983337,8.840416c1.057579-5.0544968,2.0872498-10.1650467,3.0635376-15.3683319  c0.4665871,1.5447388,0.9395294,3.0739746,1.4168625,4.5908127c0.0666237-2.6106339,0.1191292-5.2402191,0.1402779-7.907814  c2.1761093,4.3679581,4.3770828,8.6359406,6.5931244,12.8062134c-0.8864861-5.0698318-1.8934517-10.2603531-3.026577-15.548645  c3.1648293,4.0989838,6.3372955,8.0531616,9.5020523,11.8773956c-0.3168411-0.8159027-0.6274109-1.6276169-0.9504013-2.4471741  c2.8089218,2.5199509,5.6131134,5.0021973,8.4126434,7.4566345c-1.6939774-3.8430557-3.4253845-7.7051315-5.1953812-11.5840988  c0.2556915,0.1983185,0.5094299,0.3895187,0.7648544,0.5869293c-1.8856125-2.9303131-3.8299484-5.8824234-5.8422546-8.8531532  c5.8571854,3.239666,11.6474762,6.3005333,17.347229,9.1887245c-2.9993439-2.966301-6.0781555-5.9454117-9.2450104-8.9321175  c1.6267395,0.4969597,3.2363205,0.9674034,4.8534698,1.4494972c-0.5012589-0.5066528-0.985817-1.012001-1.4893723-1.5188255  c2.7903442,0.8805046,5.5517654,1.7196541,8.2962265,2.5369072C81.9628143,64.9977646,79.9729385,63.6326981,77.9460297,62.2695236z  "></path></svg>