<?xml version="1.0" encoding="UTF-8" standalone="no"?>
<svg
   height="300"
   width="675"
   fill="#000000"
   version="1.0"
   x="0px"
   y="0px"
   viewBox="0 0 224.99884 99.999952"
   enable-background="new 0 0 100 100"
   xml:space="preserve"
   id="svg12"
   sodipodi:docname="logo.svg"
   inkscape:version="1.2.2 (732a01da63, 2022-12-09)"
   xmlns:inkscape="http://www.inkscape.org/namespaces/inkscape"
   xmlns:sodipodi="http://sodipodi.sourceforge.net/DTD/sodipodi-0.dtd"
   xmlns="http://www.w3.org/2000/svg"
   xmlns:svg="http://www.w3.org/2000/svg"><defs
     id="defs16" /><sodipodi:namedview
     id="namedview14"
     pagecolor="#0d1117"
     bordercolor="#000000"
     borderopacity="0.25"
     inkscape:showpageshadow="2"
     inkscape:pageopacity="0"
     inkscape:pagecheckerboard="0"
     inkscape:deskcolor="#bcbcbc"
     showgrid="false"
     inkscape:zoom="1.7116667"
     inkscape:cx="337.09834"
     inkscape:cy="192.79454"
     inkscape:window-width="2560"
     inkscape:window-height="1377"
     inkscape:window-x="2552"
     inkscape:window-y="32"
     inkscape:window-maximized="1"
     inkscape:current-layer="svg12" /><path
     d="m 77.459175,61.782669 c 6.085044,0.782322 12.090355,1.477405 18.05397,2.131035 -5.252075,-2.502247 -10.678696,-4.979863 -16.280052,-7.414841 2.114609,-0.114567 4.196251,-0.254444 6.294517,-0.381683 -4.542495,-1.795773 -9.134056,-3.576615 -13.818863,-5.323128 5.789215,-0.75874 11.389832,-1.622826 16.794014,-2.56884 -3.331932,-0.660351 -6.681099,-1.311043 -10.060203,-1.944233 1.499641,-0.460201 2.982788,-0.926655 4.461616,-1.394562 -5.468986,-0.05135 -11.104408,0.0066 -16.88652,0.190117 0.193794,-0.106159 0.383949,-0.212921 0.577202,-0.319179 -1.242524,0.574771 -2.499916,1.14674 -3.781361,1.712928 2.341389,0.15704 4.653385,0.336041 6.949635,0.525952 -3.616005,1.010414 -7.378586,1.970993 -11.272522,2.862816 4.337215,1.155727 8.449745,2.407272 12.279014,3.720005 -2.473152,0.01811 -4.970161,0.01747 -7.493255,-0.0064 -2.045826,-0.276543 -4.133412,-0.591057 -6.258301,-0.947064 2.132187,1.572278 4.175918,3.148171 6.128834,4.716225 -0.664578,-0.250694 -1.330304,-0.503109 -2.000218,-0.762455 1.036228,1.185223 2.05671,2.368286 3.068268,3.549893 -2.212189,-1.190899 -4.471817,-2.466904 -6.769485,-3.834237 1.190494,1.955685 2.337806,3.897316 3.463161,5.830399 -0.791004,-0.548759 -1.579441,-1.088222 -2.372677,-1.646172 1.325165,2.463055 2.575394,4.891949 3.755886,7.28027 -1.960212,-1.924873 -3.923668,-3.876472 -5.891109,-5.882023 0.342861,1.064675 0.67194,2.119579 0.994736,3.169697 -0.755734,-1.07164 -1.511399,-2.155907 -2.265778,-3.263287 0.03757,0.324993 0.06872,0.644104 0.10548,0.968384 -0.445167,-0.631634 -0.890941,-1.25695 -1.3353,-1.896625 0.292995,1.971767 0.556526,3.915863 0.795059,5.832794 -1.232117,-2.653977 -2.448021,-5.395737 -3.637161,-8.22081 -0.117779,1.638905 -0.25475,3.251862 -0.406651,4.84029 -0.03602,-0.143387 -0.07312,-0.284073 -0.108929,-0.427868 -0.462329,1.896965 -0.933715,3.776932 -1.413143,5.639473 -0.311714,-1.676208 -0.61721,-3.363762 -0.913719,-5.066154 -0.11602,0.386314 -0.234272,0.766342 -0.351444,1.149643 -0.055,-2.272461 -0.07595,-4.593884 -0.05311,-6.96521 -1.090756,2.22351 -2.199082,4.376136 -3.316731,6.451187 0.384419,-2.128163 0.801884,-4.287209 1.256714,-6.47514 -0.763504,0.953686 -1.527408,1.8848 -2.291115,2.805107 0.258061,-0.680931 0.521256,-1.365101 0.791005,-2.053024 -1.825539,1.595253 -3.643917,3.142055 -5.456486,4.660751 0.67532,-1.166508 1.363346,-2.338791 2.073669,-3.519855 -0.190624,0.115886 -0.380436,0.229171 -0.570923,0.344619 1.043931,-1.575218 2.126038,-3.163917 3.251187,-4.763324 -2.736893,1.535755 -5.433308,2.963054 -8.064919,4.276161 1.25462,-1.279488 2.523835,-2.560799 3.823254,-3.844711 -1.106163,0.366039 -2.202663,0.717552 -3.294231,1.062172 1.359764,-0.972134 2.754665,-1.944638 4.191188,-2.9142 -1.342464,0.154842 -2.674183,0.297622 -4.000431,0.435096 0.08629,-0.05963 0.171299,-0.1194 0.25779,-0.178997 -1.297932,0.182244 -2.580391,0.34908 -3.853661,0.50747 1.354828,-0.628998 2.729523,-1.254284 4.13044,-1.873215 -2.34193,-0.157036 -4.654468,-0.336071 -6.951191,-0.526016 3.515801,-0.982472 7.169247,-1.91798 10.948784,-2.788418 -1.534302,-0.381649 -3.040359,-0.777218 -4.523308,-1.182182 -2.817238,-0.841042 -5.557573,-1.711342 -8.205135,-2.606812 2.747028,-0.02497 5.525883,-0.02514 8.33501,0.0018 -0.222583,-0.114098 -0.440235,-0.229073 -0.661537,-0.343438 2.106644,0.318772 4.2491,0.673294 6.428585,1.073796 -2.14455,-1.557549 -4.202743,-3.120942 -6.173702,-4.67886 0.819657,0.30732 1.643299,0.620823 2.471264,0.941421 -1.15049,-1.315944 -2.283344,-2.629554 -3.403492,-3.940933 2.288277,1.255734 4.626556,2.6059 6.998085,4.046108 -1.150967,-1.893787 -2.260979,-3.774128 -3.350925,-5.646667 0.788841,0.547371 1.575252,1.085453 2.366459,1.642013 -1.325436,-2.463764 -2.576069,-4.893367 -3.756833,-7.282295 1.960415,1.925007 3.923939,3.876705 5.891587,5.882393 -0.342934,-1.064434 -0.671944,-2.119106 -0.994671,-3.168983 0.755936,1.071903 1.511669,2.156543 2.266182,3.264263 -0.03757,-0.3256 -0.06879,-0.645317 -0.105683,-0.970242 0.445099,0.631363 0.890606,1.256344 1.334965,1.895714 -0.292862,-1.971359 -0.556259,-3.91505 -0.794788,-5.831646 1.276916,2.750271 2.535862,5.596798 3.766559,8.53009 0.163056,-1.841793 0.350769,-3.645099 0.556866,-5.413711 0.407867,-1.662048 0.821278,-3.313252 1.24239,-4.94861 0.311779,1.676576 0.617344,3.364439 0.913852,5.067201 0.03798,-0.126766 0.0771,-0.250763 0.115277,-0.377159 0.08535,2.163979 0.135689,4.383671 0.149471,6.649277 1.110352,-2.222664 2.237194,-4.368702 3.371532,-6.436287 -0.380161,2.081741 -0.793369,4.193993 -1.240562,6.331955 0.63221,-0.763332 1.263741,-1.510414 1.894733,-2.249828 -0.162849,0.436012 -0.316036,0.865673 -0.483684,1.304725 1.879871,-1.645157 3.752712,-3.239769 5.619064,-4.803768 -0.677078,1.169544 -1.366993,2.344936 -2.079342,3.529114 0.03,-0.01825 0.05974,-0.03598 0.08974,-0.0542 -1.00629,1.573765 -2.051502,3.163716 -3.142799,4.768158 2.747635,-1.51572 5.449386,-2.919269 8.082214,-4.207305 -1.139473,1.158432 -2.292328,2.31845 -3.468498,3.480293 0.95541,-0.316208 1.904469,-0.622852 2.849133,-0.923077 -1.28172,0.93169 -2.597355,1.864529 -3.950833,2.795815 1.414292,-0.164101 2.817776,-0.316239 4.214092,-0.461048 -0.08858,0.06115 -0.175823,0.122444 -0.264408,0.183597 1.271378,-0.178562 2.527146,-0.341614 3.774674,-0.497131 3.825752,-2.106747 7.551903,-4.230145 11.1669,-6.361687 4.360733,-3.368225 8.645234,-6.740871 12.863656,-10.113655 -8.342911,2.921938 -17.089234,6.331551 -26.091454,10.209065 5.475204,-6.791211 10.632133,-13.522925 15.470329,-20.14213 -4.195846,2.776758 -8.404068,5.593588 -12.633026,8.487688 1.567207,-2.954949 3.080902,-5.885536 4.555611,-8.795584 -1.969742,1.9916 -3.94381,4.00996 -5.923683,6.075789 0.06953,-0.224646 0.136291,-0.447602 0.205551,-0.672146 -2.199753,2.134991 -4.401943,4.292345 -6.606434,6.484772 1.06366,-3.42647 2.060222,-6.804356 3.000156,-10.134467 -1.214752,1.791315 -2.428627,3.59976 -3.640472,5.433104 0.447872,-3.582359 0.858375,-7.130087 1.247997,-10.657038 -2.776489,5.767082 -5.515003,11.825402 -8.180809,18.138132 -0.295627,-4.227035 -0.650722,-8.366935 -1.050751,-12.42646 -0.02683,0.0718 -0.05406,0.142546 -0.08068,0.214239 -0.378071,-2.993936 -0.782627,-5.942466 -1.201241,-8.863764 -1.088661,5.204913 -2.14698,10.470944 -3.149219,15.8333 -0.305561,-0.979769 -0.623219,-1.923859 -0.932907,-2.891937 -0.08352,2.121069 -0.157578,4.256059 -0.21069,6.419698 -2.121643,-4.271837 -4.266666,-8.453869 -6.427231,-12.538765 0.84763,5.079565 1.814053,10.283835 2.912377,15.5971 -3.084893,-3.868058 -6.170323,-7.608063 -9.240548,-11.205153 0.105278,0.2685 0.205689,0.534025 0.311779,0.80283 -2.809398,-2.520525 -5.6142,-5.003243 -8.414272,-7.458222 1.487206,3.37444 3.009007,6.76577 4.555067,10.168118 2.035961,3.312609 4.150511,6.659952 6.359255,10.039896 -6.074505,-3.369404 -12.080421,-6.551632 -17.987143,-9.544489 2.998871,2.96566 6.076937,5.944326 9.242981,8.930491 -1.626133,-0.496521 -3.234832,-0.966725 -4.851507,-1.448418 0.502268,0.507572 0.987845,1.013859 1.492274,1.521667 -2.791087,-0.880874 -5.553181,-1.720432 -8.29825,-2.538025 1.972173,1.365101 3.961645,2.729832 5.988145,4.092633 -6.085517,-0.782288 -12.0911648,-1.477441 -18.0552539,-2.13107 5.2534971,2.502888 10.6817359,4.981213 16.2844489,7.417004 -2.109347,0.114265 -4.185446,0.253734 -6.278371,0.380535 4.399987,1.739689 8.844844,3.46566 13.37822,5.159401 -6.014364,0.733532 -11.850201,1.576736 -17.4723738,2.514206 3.6935168,0.73627 7.4119008,1.459129 11.1635298,2.162185 -1.853516,0.56876 -3.690138,1.143803 -5.511557,1.724114 5.486284,0.0095 11.12954,-0.08933 16.913075,-0.314854 -4.28018,2.257736 -8.434542,4.54419 -12.479369,6.843819 0.53423,-0.102844 1.062985,-0.199711 1.598971,-0.304653 -4.855631,3.749263 -9.622605,7.504276 -14.3014642,11.258709 5.7520462,-2.0411 11.6289672,-4.250657 17.5983292,-6.614243 3.091173,-1.308983 6.209446,-2.665333 9.357313,-4.083645 -5.307891,6.600018 -10.311573,13.141277 -15.015436,19.577053 4.19673,-2.777366 8.405825,-5.594803 12.635666,-8.489647 -1.567009,2.954575 -3.080498,5.884728 -4.554932,8.794365 1.97028,-1.992103 3.945021,-4.01104 5.92544,-6.077438 -0.06771,0.21907 -0.132984,0.436485 -0.20042,0.655388 2.089611,-2.027855 4.181255,-4.07206 6.275059,-6.151604 -1.154412,3.604248 -2.23341,7.157349 -3.252541,10.66227 1.406929,-2.066063 2.813045,-4.150544 4.216125,-6.273133 -0.494499,3.958298 -0.940475,7.871262 -1.364158,11.761582 2.740406,-5.808373 5.437702,-11.900238 8.057896,-18.232872 0.230896,4.26403 0.520984,8.451645 0.858509,12.564476 0.170822,-0.455437 0.343338,-0.906182 0.51382,-1.362664 0.377259,2.985932 0.780804,5.926651 1.198334,8.840416 1.057579,-5.054496 2.08725,-10.165046 3.063538,-15.368332 0.466587,1.544739 0.939529,3.073975 1.416862,4.590813 0.06662,-2.610634 0.119129,-5.240219 0.140278,-7.907814 2.176109,4.367958 4.377083,8.635941 6.593124,12.806214 -0.886486,-5.069832 -1.893451,-10.260354 -3.026577,-15.548645 3.16483,4.098983 6.337296,8.053161 9.502053,11.877395 -0.316841,-0.815903 -0.627411,-1.627617 -0.950402,-2.447174 2.808922,2.519951 5.613114,5.002197 8.412644,7.456635 -1.693978,-3.843056 -3.425385,-7.705132 -5.195381,-11.584099 0.255691,0.198318 0.509429,0.389518 0.764854,0.586929 -1.885613,-2.930313 -3.829948,-5.882423 -5.842255,-8.853153 5.857186,3.239666 11.647477,6.300533 17.347229,9.188724 -2.999344,-2.966301 -6.078155,-5.945411 -9.24501,-8.932117 1.626739,0.49696 3.23632,0.967403 4.85347,1.449497 -0.501259,-0.506653 -0.985817,-1.012001 -1.489373,-1.518825 2.790345,0.880504 5.551766,1.719654 8.296227,2.536907 -1.972581,-1.365402 -3.962457,-2.730469 -5.989365,-4.093643 z"
     id="path10"
     style="fill:#ffffff" /><path
     id="text907"
     style="font-style:normal;font-variant:normal;font-weight:normal;font-stretch:normal;font-size:17.7778px;font-family:Republiko;-inkscape-font-specification:'Republiko, Normal';font-variant-ligatures:normal;font-variant-caps:normal;font-variant-numeric:normal;font-variant-east-asian:normal;fill:#006faf;stroke-width:0.333333;fill-opacity:1"
     d="M 95.806069 43.290995 L 91.983805 55.73565 L 94.970132 55.73565 L 97.299558 48.162086 L 99.628332 55.73565 L 102.63289 55.73565 L 98.810624 43.290995 L 95.806069 43.290995 z M 100.69474 43.290995 L 104.517 55.73565 L 107.52156 55.73565 L 111.34382 43.290995 L 108.33927 43.290995 L 106.01049 50.84633 L 103.68172 43.290995 L 100.69474 43.290995 z M 113.13939 43.290995 L 113.13939 55.73565 L 116.00137 55.73565 L 116.00137 52.855443 L 118.77481 52.855443 L 120.46361 55.73565 L 123.78848 55.73565 L 121.63744 52.072892 C 122.93521 51.219558 123.78848 49.744005 123.78848 48.072894 C 123.78848 45.424004 121.65482 43.290995 119.00593 43.290995 L 113.13939 43.290995 z M 135.13027 43.290995 C 133.01471 43.290995 131.308 44.997703 131.308 47.113259 C 131.308 49.228815 133.01471 50.935522 135.13027 50.935522 L 138.13482 50.935522 C 138.65038 50.935522 139.07688 51.361824 139.07688 51.895157 C 139.07688 52.428491 138.65038 52.855443 138.13482 52.855443 L 135.13027 52.855443 C 134.59694 52.855443 134.17063 52.428491 134.17063 51.895157 L 131.308 51.895157 C 131.308 54.010713 133.01471 55.73565 135.13027 55.73565 L 138.13482 55.73565 C 140.25038 55.73565 141.95709 54.010713 141.95709 51.895157 C 141.95709 49.779601 140.25038 48.072894 138.13482 48.072894 L 135.13027 48.072894 C 134.59694 48.072894 134.17063 47.646592 134.17063 47.113259 C 134.17063 46.579925 134.59694 46.152973 135.13027 46.152973 L 138.13482 46.152973 C 138.65038 46.152973 139.07688 46.579925 139.07688 47.113259 L 141.95709 47.113259 C 141.95709 44.997703 140.25038 43.290995 138.13482 43.290995 L 135.13027 43.290995 z M 143.57493 43.290995 L 143.57493 55.73565 L 146.4369 55.73565 L 146.4369 52.855443 L 149.44146 52.855443 C 152.09035 52.855443 154.22401 50.721783 154.22401 48.072894 C 154.22401 45.424004 152.09035 43.290995 149.44146 43.290995 L 143.57493 43.290995 z M 162.24158 43.290995 C 158.79269 43.290995 156.01958 46.064107 156.01958 49.512997 C 156.01958 52.944109 158.79269 55.73565 162.24158 55.73565 C 165.6727 55.73565 168.44601 52.944109 168.44601 49.512997 C 168.44601 46.064107 165.6727 43.290995 162.24158 43.290995 z M 169.61918 43.290995 L 169.61918 44.37563 L 169.61918 46.152973 L 173.51306 46.152973 L 173.51306 55.73565 L 176.37504 55.73565 L 176.37504 46.152973 L 180.26827 46.152973 L 180.26827 43.290995 L 169.61918 43.290995 z M 182.06384 43.290995 L 182.06384 44.37563 L 182.06384 46.152973 L 185.95707 46.152973 L 185.95707 55.73565 L 188.8197 55.73565 L 188.8197 46.152973 L 192.71292 46.152973 L 192.71292 43.290995 L 182.06384 43.290995 z M 194.5085 43.290995 L 194.5085 55.73565 L 205.15758 55.73565 L 205.15758 55.468723 L 205.15758 52.855443 L 197.37047 52.855443 L 197.37047 50.935522 L 202.29495 50.935522 L 202.29495 48.072894 L 197.37047 48.072894 L 197.37047 46.152973 L 205.15758 46.152973 L 205.15758 43.522115 L 205.15758 43.290995 L 194.5085 43.290995 z M 206.95315 43.290995 L 206.95315 55.73565 L 209.81513 55.73565 L 209.81513 52.855443 L 212.58856 52.855443 L 214.27737 55.73565 L 217.60158 55.73565 L 215.45054 52.072892 C 216.74832 51.219558 217.60158 49.744005 217.60158 48.072894 C 217.60158 45.424004 215.46857 43.290995 212.81968 43.290995 L 206.95315 43.290995 z M 116.00137 46.152973 L 119.00593 46.152973 C 120.05482 46.152973 120.92585 47.006227 120.92585 48.072894 C 120.92585 48.695116 120.62355 49.228405 120.1791 49.583961 C 119.89466 49.815072 119.53962 49.957459 119.14851 49.975236 C 119.09517 49.993014 119.05926 49.992815 119.00593 49.992815 L 116.00137 49.992815 L 116.00137 46.152973 z M 146.4369 46.152973 L 149.44146 46.152973 C 150.49035 46.152973 151.36138 47.006227 151.36138 48.072894 C 151.36138 49.121783 150.49035 49.992815 149.44146 49.992815 L 146.4369 49.992815 L 146.4369 46.152973 z M 162.24158 46.152973 C 164.09047 46.152973 165.58403 47.64633 165.58403 49.512997 C 165.58403 51.361886 164.09047 52.855443 162.24158 52.855443 C 160.37492 52.855443 158.88156 51.361886 158.88156 49.512997 C 158.88156 47.64633 160.37492 46.152973 162.24158 46.152973 z M 209.81513 46.152973 L 212.81968 46.152973 C 213.86857 46.152973 214.73961 47.006227 214.73961 48.072894 C 214.73961 48.695116 214.43731 49.228405 213.99286 49.583961 C 213.70842 49.815072 213.35272 49.957459 212.96161 49.975236 C 212.90828 49.993014 212.87302 49.992815 212.81968 49.992815 L 209.81513 49.992815 L 209.81513 46.152973 z M 125.40631 50.259742 L 125.40631 51.64646 L 129.7084 51.64646 L 129.7084 50.259742 L 125.40631 50.259742 z " /><rect
     style="fill:#ffffff;stroke-width:0.293461"
     id="rect500"
     width="126.58275"
     height="1.6524396"
     x="91.847572"
     y="58.11079"
     rx="0.55833304" /></svg>
